<?xml version="1.0" encoding="UTF-8"?>
<svg id="Laag_1" xmlns="http://www.w3.org/2000/svg" version="1.1" viewBox="0 0 3543.31 1984.25">
  <!-- Generator: Adobe Illustrator 29.5.1, SVG Export Plug-In . SVG Version: 2.1.0 Build 141)  -->
  <defs>
    <style>
      .st0 {
        fill-rule: evenodd;
      }
    </style>
  </defs>
  <path d="M2286.14,1090.93l-25.45,3.84c-612.05,6.17-1222.95,20.3-1834.75,26.33-118.01,1.16-236.83-1.26-354.56-8.43,21.63-2.47,43.54-1.8,65.25-2.86,454.12-22.26,908.34-38.66,1363.75-43.41,205.93-2.15,590.83-11.98,785.77,24.53"/>
  <path d="M1182.78,1182.23c32.12-13.59,76.66,4.55,79.77,36.79,1.43,14.9-31.44,42.59-42.22,53.4-5.06,5.09-42.22,41.06-42.24,41.14-1.27,2.97.42,4.82,1.49,7.28,2.91,6.71,37.93,50.63,42.44,49.84l73.04-67.06c11.18,2.14,16.9,5.24,11.83,17.55-4.32,10.5-36.92,36.2-46.84,45.83-3.09,2.99-22.01,20.89-21.57,23.43,10.21,10.56,18.15,21.79,30.3,30.35,10.24,7.22,31.27,13.7,37.68,20.96,3.21,3.63,8.94,15.5,3.87,19.05-9.53,6.66-52.09-17.71-60.66-24.67-11.68-9.51-20.66-22.56-31.58-32.87-4.74-1.19-32.58,16.39-40.3,19.58-29.1,11.98-62.86,13.16-87.86-8.54-16.48-14.3-10.47-22.96-.3-39.91,14.25-23.73,35.9-45.83,53.81-66.88-34.48-42.55,7.22-111.66,39.34-125.25M1156.13,1251.72c-5.16,15.91-3.96,28.91,7.51,41.53,17.9-17.63,40.71-31.56,56.77-51.01,5.45-6.61,18.79-22.6,9.23-30.09-31.07-24.32-64.37,11.39-73.5,39.57ZM1115.88,1406.28c2.29,2.09,13.89,4.26,17.5,4.39,22.77.75,49.17-14.61,67.03-27.52l-40.53-52.04c-3.11,1.32-30.1,30.95-34.08,35.9-7.18,8.91-21.28,28.88-9.91,39.26Z"/>
  <path d="M1900.76,1230.44c-3.49-3.9-6.77-26.23-.49-30.8-.52-7.86-15.66,4.93-17.86,6.69-19.18,15.27-23.52,26.53-34.32,47.01-3.2,6.07-24.88,46.2-21.53,49.38,19.05,3.88,56.76-18.47,56.5,13.87-2.84,8.72-60.77,13.19-70.72,20.15-4.83,23.3-13.3,46.15-17.42,69.59-1.87,10.65-5.71,66.67-9.87,69.58-4.34,2.97-12.02-5.22-14.37-8.56-5.77-8.19-2.14-39.66-.35-51.56,4.11-27.29,13.62-55.47,18.38-82.79-11.06.25-40.26,3.18-56.42,8.71-6.38,8.28-12.64,31.11-15.42,96.23.73,10.57,10.1,23.72-3.63,30.39-7.93-.55-12.39-9.02-14.88-15.66-19.72-52.61,25.83-177.76,54.77-224.31,18.51-29.77,64.28-79.15,93.26-22.1,13.68-18.02,33.85-37.79,58.54-33.9,12.03,1.89,20.86,13.38,20.02,25.37-.52,7.39-15.09,42.89-24.18,32.71M1799.75,1308.09c7.11-23.65,19.9-46.84,24.36-71.16,3.04-16.6.35-45.43-23.14-26.92-29.7,23.32-45.7,71.5-61.37,104.07,16.52,2.02,43.35-5.17,60.15-5.99Z"/>
  <path d="M1453.96,1336.76c1.37,1.13,11.64-4.77,13.82-6.02,12.29-7.04,43.36-31.96,55.16-31.88,8.67.06,14.4,8.68,10.61,16.27l-62.6,39.66c5.11,10.92,11.96,20.8,18.09,31.09,4.63,7.77,3.97,14.56,13.16,20.88,14.4,9.91,22.12-2.59,31.76.29,16.92,5.08-6.15,30.09-23.68,27.71-14.86-2.02-28.78-17.49-37.34-29-8.87-11.92-13-24.33-20.3-36.35-5.82-9.61-13.93,3.88-16.6,9.02-8.84,17.04-8.12,28.61-10.61,46.2-2.78,19.81-25.1.55-25.76-13.44-.16-3.39,10.97-36.86,13.11-42.78,19.91-54.92,47.81-111.53,70.44-165.97,2.66-6.38,8.55-28.35,13.68-29.9,30.24,1.54,9.66,43,2.79,59.6-14.52,35.04-34.33,68.23-45.72,104.62"/>
  <path d="M349.41,1368.94c-2.94-.7-3.03.46-4.59,2.02-18.51,18.63-48.91,54.64-77.69,54.35-15.11-.15-25.29-15.94-22.81-29.96,5.3-29.91,54.31-106.59,86.1-112.62,19.24-3.65,34.76,24.12,50.26,33.16-7.93,22.51-17.63,53.95,1.83,73.86,6.55,6.71,23.53,8.21,25.28,14.58,1.73,13.64-10.76,13.6-21.07,11.47-16.79-3.48-35.1-30.85-37.31-46.85M268.1,1399.18c8.61,7.82,55.63-38.49,62.35-46.38,4.82-5.65,21.81-26.94,20.1-33.09-1.12-4.01-7.47-12.05-11.98-12.91-8.52-1.65-19.53,9.91-25.03,15.84-19.34,20.88-35.04,50.25-45.43,76.54Z"/>
  <path d="M196.23,1270.57c11.79,2.22,27.26-4.74,38.37-1.49,8.65,2.54,14.13,21.99,2.24,24.15-11.31,2.05-27.61.86-39.43,2.19-3.27.36-10.44,1.21-13.03,2.1-13.09,4.46-28.42,57.2-31.1,71.03-1.72,8.83-8.62,35.76.88,39.62,21.73,8.85,49.26-7.76,67.46-18.4,9.91,9.16,2.67,17.64-5.6,24.51-15.91,13.23-52.58,26.08-71.53,14.9-39.06-23.06-6.92-100.43,8.26-131.13l-18.97-5.67c-10.09-26.94,23.25-12.76,33.22-21.68,3.26-2.91,12.9-27.24,17.07-33.99,3.33-5.41,12.59-20.11,18.87-21.01,6.79-.98,15.84,5.29,15.83,12.34-.02,6.34-24.9,40.46-22.55,42.56"/>
  <path d="M720.14,1355.7c-6.95,23.88-21.58,68.32,20.44,57.35,15.15-3.96,38.61-34.93,48.88-12.88-10.91,22.22-49.06,42.03-72.71,33.61-64.35-22.91,4.61-180.58,67.69-149.01,48.36,24.19-23.09,123.05-64.3,70.94M776.59,1301.12c-13.36-8.38-50.23,32.07-46.99,35.66l7.53-1.89c10.73,43.34,54.24-24.52,39.46-33.77Z"/>
  <path d="M1919.25,1355.7c-13.86,31.9-17.4,77.82,31.55,51.42,7.14-3.85,28.39-23.68,35.6-11.73,6.09,10.09-17.42,25.75-24.9,29.99-13.86,7.86-31.84,14.48-47.41,8.27-60.26-24.04,1.62-166.48,59.65-152.31,64.19,15.67-9.73,129.22-54.48,74.37M1938.59,1345.8c20.54,15.95,48.44-35.38,35.57-44.09-11.98-8.09-42.38,22.15-45.48,34.11l7.56-.94,2.35,10.91Z"/>
  <path d="M863.86,1357.57c17.51-7.53,30.45-22.56,47.25-31.22,15.39-7.95,25.63-13.49,38.87.91,9.88,10.74,9.12,28.72,8.51,42.69-.25,5.93-3.75,13.96-3.28,18.61.63,6.17,28.46,35.63-4.41,26.76-28.84-7.78-8.89-69.6-18.11-71.09-9.83,2.54-18.52,9.09-27.07,14.48-12.96,8.16-35.94,22.84-46.48,32.95-4.17,4-13.07,19.2-14.16,19.87-9.09,5.6-24.11-8.79-23.44-17.64,1.87-24.23,23.79-57.21,31.82-81.77,3.34-10.24-.21-20.62,11.91-22.33,7.49-1.06,16.94,14.59,17.42,21.7.97,14.41-14.68,32.49-18.84,46.09"/>
  <path d="M1635.1,1286.17c10.42-1.25,28.47,9.91,32.7,19.29,19.66,43.69-39.8,121.58-84.56,123.91-13.07.68-28.62-17.38-30.5-29.69-6.32-41.51,39.22-108.29,82.36-113.5M1629.33,1312.64c-18.05,3.79-43.99,50.13-50.3,66.94-10.83,28.83,5.28,36.89,28.15,18.68,18.81-14.96,45.01-54.32,39.27-79.03-2.02-8.73-9.56-8.19-17.12-6.59Z"/>
  <path d="M530.54,1332.54c-11.14,6.51-19.32-9.14-18.37-19.17.56-5.93,3.12-7.5,5.54-11.65,1.36-2.34,2.54-4.18-.94-4.66-13.65,3.83-44.44,20.52-49.06,34.12-9.81,28.93,33.98,60.58,22.13,88.33-7.63,17.88-70.48,18.43-73.9-14.19-1.55-14.77,21.17,4.97,29.01,5.34,5.54.26,21.55-3.78,22.89-9.47,1.38-12.42-9.79-22.44-14.72-32.87-15.65-33.07-13.24-50.11,14.57-73.09,17.26-14.27,56.4-36.87,71.91-9.61,10.88,19.14-4.15,28.97-9.05,46.92"/>
  <path d="M660.2,1322.96c-4.92-6.74,1.08-13.51-2.4-19.35-11.21-7.24-47.32,15.01-55.87,23.74-4.62,4.71-17.52,23.05-15.84,28.91,1.8,6.3,28.57,16.87,35.53,21.35,19.75,12.71,29.74,35.04,2.55,45.75-18.48,7.28-57.18,11.94-62.61-14.17-3.09-14.82,10.5-3.95,16.2-2.86,11.69,2.23,30-.69,38.3-9.96-31.48-13.55-64.58-31.37-44.51-71.03,9.55-18.86,60.14-46.61,81.15-45.16,26.49,1.83,39.79,32.52,15.45,47.17-1.51-.02-7.07-3.16-7.95-4.37"/>
  <path d="M2263.93,1324.96c-3.88-3.36-1.91-17.05-2.36-22.24-18.68-1.55-38.21,8.86-51.96,20.87-5.47,4.78-23.7,25.46-20.95,32.04,5.26,12.63,47.67,20.81,53.15,37.77,7.65,23.69-14.61,33.07-34.63,35.57-19.96,2.48-44.79-3.8-42.07-27.89,18.79,7.42,34.85,7.93,52.93-1.92,2.87-4.03-16.74-10.84-20.17-12.88-21.78-12.97-34.82-24.45-26.99-52.23,6.2-21.99,31.82-35.9,51.57-44.89,18.27-8.31,45.1-16.16,57.73,5.33,9.46,16.09-4.71,40.48-16.26,30.46"/>
  <path d="M2038.65,1319.5c-6.41-10.14,9.35-24,19.64-24.46,16.8-.76,17.15,15.8,16.05,28.5,13.74-8.42,44.76-42.5,62.29-29.21,2.49,1.89,6.96,12.22,7.12,15.31.82,15.4-24.23,31.47-32.52,12.08-34.98,19.55-48.47,61.66-64.45,96.26-7.31,10.31-26.9,1.02-19.34-19.35,7.16-19.29,22.87-44.01,25.97-64.83,2.76-18.48-11.94-9.84-14.76-14.31"/>
  <polygon points="259.12 982.06 259.12 849.42 150.68 849.42 150.68 982.06 72.33 982.06 72.33 659.47 150.68 659.47 150.68 779.35 259.12 779.35 259.12 659.47 337.47 659.47 337.47 982.06 259.12 982.06"/>
  <path d="M631.14,820.65c0-13.65-2.2-26.4-6.59-38.27-4.39-11.87-10.47-22.03-18.23-30.49-7.76-8.46-17.13-15.13-28.11-20.02-10.98-4.9-23.06-7.34-36.24-7.34s-25.18,2.45-36.02,7.34c-10.83,4.89-20.2,11.57-28.11,20.02-7.91,8.46-13.98,18.62-18.23,30.49-4.25,11.87-6.37,24.63-6.37,38.27s2.2,27.37,6.59,39.39c4.39,12.02,10.47,22.33,18.23,30.93,7.76,8.6,17.06,15.35,27.89,20.25,10.83,4.89,22.84,7.34,36.02,7.34s25.18-2.45,36.02-7.34c10.83-4.9,20.21-11.64,28.11-20.25,7.91-8.6,14.06-18.91,18.45-30.93,4.39-12.02,6.59-25.14,6.59-39.39M711.51,820.65c0,24.92-4.25,47.69-12.74,68.31-8.49,20.62-20.28,38.27-35.36,52.96-15.08,14.69-33.02,26.03-53.81,34.04-20.79,8.01-43.34,12.02-67.64,12.02s-46.78-4.01-67.42-12.02c-20.65-8.01-38.51-19.36-53.59-34.04-15.08-14.69-26.87-32.34-35.36-52.96-8.49-20.62-12.74-43.39-12.74-68.31s4.25-47.99,12.74-68.31c8.49-20.32,20.28-37.6,35.36-51.85,15.08-14.24,32.94-25.22,53.59-32.93,20.64-7.71,43.12-11.57,67.42-11.57s46.85,3.86,67.64,11.57c20.79,7.71,38.73,18.69,53.81,32.93,15.08,14.24,26.86,31.52,35.36,51.85,8.49,20.32,12.74,43.09,12.74,68.31Z"/>
  <polygon points="748.13 982.06 748.13 659.47 826.83 659.47 826.83 909.7 924.07 909.7 924.07 982.06 748.13 982.06"/>
  <polygon points="1043.71 732.69 1043.71 982.06 963.22 982.06 963.22 732.69 898.88 732.69 898.88 659.47 1108.06 659.47 1108.06 732.69 1043.71 732.69"/>
  <polygon points="1308.55 982.06 1218.43 844.69 1217.54 982.06 1138.39 982.06 1138.39 659.47 1217.54 659.47 1217.54 804.09 1313.48 659.47 1395.22 659.47 1290.9 819.18 1407.69 982.06 1308.55 982.06"/>
  <path d="M1559.21,756.75l-35.55,111.84h70.2l-34.66-111.84ZM1631.39,982.06l-17.75-48.81h-110.65l-16.42,48.81h-86.04l123.11-322.59h73.8l121.77,322.59h-87.82Z"/>
  <polygon points="2001.95 982.06 2003.73 753.79 1935.11 982.06 1883.99 982.06 1816.7 753.79 1817.14 982.06 1741.1 982.06 1741.1 659.47 1849.13 659.47 1910.66 866.33 1970.85 659.47 2080.66 659.47 2080.66 982.06 2001.95 982.06"/>
  <path d="M2291.65,768.19c0-7.6-1.48-13.82-4.45-18.68-2.96-4.86-6.96-8.66-12-11.39-5.04-2.73-10.74-4.56-17.12-5.47-6.37-.91-12.97-1.37-19.78-1.37h-29.99v76.09h28.66c7.11,0,13.93-.61,20.45-1.82,6.52-1.22,12.38-3.34,17.56-6.38,5.19-3.04,9.26-5.94,12.23-10.96,2.96-5.01,4.45-12.43,4.45-20.02M2357.45,825.4c-6.82,12.91-16,23.31-27.56,31.21-24.86,16.99-57.48,22.78-87.14,22.78h-34.44v102.67h-79.37v-322.59h115.59c17.19,0,33.27,1.75,48.24,5.24,14.97,3.49,28.01,9.11,39.12,16.86,11.11,7.75,19.86,17.92,26.23,30.53,12.42,24.56,13.09,87.25-.67,113.3Z"/>
  <path class="st0" d="M3181.03,873.76h5.47c8.98,0,16.33,7.35,16.33,16.34v516.87c0,8.98-7.35,16.33-16.33,16.33h-5.47c-8.98,0-16.33-7.35-16.33-16.33v-516.87c0-8.98,7.35-16.34,16.33-16.34"/>
  <path class="st0" d="M3099.3,873.76h5.47c8.98,0,16.33,7.35,16.33,16.34v516.87c0,8.98-7.35,16.33-16.33,16.33h-5.47c-8.98,0-16.33-7.35-16.33-16.33v-516.87c0-8.98,7.35-16.34,16.33-16.34"/>
  <path class="st0" d="M3019.62,873.76h5.47c8.98,0,16.33,7.35,16.33,16.34v516.87c0,8.98-7.35,16.33-16.33,16.33h-5.47c-8.98,0-16.33-7.35-16.33-16.33v-516.87c0-8.98,7.35-16.34,16.33-16.34"/>
  <path class="st0" d="M2940.95,873.76h5.47c8.98,0,16.33,7.35,16.33,16.34v516.87c0,8.98-7.35,16.33-16.33,16.33h-5.47c-8.98,0-16.33-7.35-16.33-16.33v-516.87c0-8.98,7.35-16.34,16.33-16.34"/>
  <path class="st0" d="M3259.7,873.76h5.47c8.98,0,16.33,7.35,16.33,16.34v516.87c0,8.98-7.35,16.33-16.33,16.33h-5.47c-8.98,0-16.33-7.35-16.33-16.33v-516.87c0-8.98,7.35-16.34,16.33-16.34"/>
  <path class="st0" d="M3341.43,873.76h5.47c8.98,0,16.33,7.35,16.33,16.34v516.87c0,8.98-7.35,16.33-16.33,16.33h-5.47c-8.98,0-16.33-7.35-16.33-16.33v-516.87c0-8.98,7.35-16.34,16.33-16.34"/>
  <path d="M2644.59,790.68c-24.4-24.4-66.32-7.04-66.32,27.47s41.91,51.89,66.32,27.47c15.17-15.17,15.17-39.77,0-54.94M3369.09,779.92c7.87,14.99,19.35,27.81,33.2,37.73,0-11.73,1.45-21.24-7.52-30.21-8.12-8.12-15.82-7.52-25.68-7.52ZM2889.28,816.89c13.4-9.83,24.48-22.35,32.16-36.97-9.5,0-16.86-.31-24.68,7.48l.04.04c-8.86,8.86-7.52,18.06-7.52,29.45ZM2965.19,779.92c-12.99,36.78-40.9,66.47-75.91,83.75v574.46c0,7,2.88,13.39,7.52,18.02l-.04.04c4.64,4.61,11.03,7.48,18.06,7.48h461.93c14,0,25.54-11.54,25.54-25.54v-573.96c-35.5-17.21-63.82-47.1-76.95-84.25h-360.15ZM3069.65,436.4c-44.91,1.3-37.96,34.26-36.26,53.03,4.11,0,24.39-.76,29.15-.53,1.17-6.86-3.45-25.72,20.58-25.72h135.75c19.57.41,23.87,3.08,24,26.25h29.05c4.16-14.92,6.58-46.91-12.51-50.34-17.93-3.22-165.31-2.2-189.77-2.7ZM2924.99,642.95v-71.56c0-127.3-155.35-194.33-247.32-102.36-26.28,26.28-42.6,62.52-42.6,102.36v71.56h289.92ZM2965.2,685.39v52.09h59.78v-52.09h-59.78ZM3065.19,642.95h40.27c12.84,0,20.1,7.27,20.1,20.1v74.43h109.15v-208.97c-22.47-.49-30.1-6.13-32.37-32.93h-100.43c-2.44,24.11-4.94,32.49-36.72,32.93v114.44ZM2847.12,1444.31h-445.47c-12.89,0-23.46-9.45-23.46-22.34l62.55-755.57c0-12.89,8.71-23.46,20.1-23.46h134.02v-71.56c0-162.97,198.71-248.04,315.96-130.79,33.55,33.55,54.38,79.85,54.38,130.79v71.56h59.78v-114.4c-27.87-.01-36.46-6.37-36.85-37.46,0-30.3-1.59-53.72,23.8-76.38,14.92-13.32,35.43-17.39,57.72-17.39h164.9c22.29,0,42.8,4.07,57.72,17.39,25.38,22.67,23.8,46.08,23.8,76.38,0,28.69-9,36.91-38.92,37.43v208.97h99.59c37.44,0,67.99,30.55,67.99,67.99v262.83c11.52-4.72,28.22,1.69,28.22,17.07v76.47c0,15.37-16.7,21.78-28.22,17.07v259.24c0,30.49-20.38,56.86-48.89,65.24,37.39,35.45,9.83,95-43.93,95s-80.09-56.06-46.64-92.26h-324.36c33.45,36.2,5.38,92.26-46.64,92.26-54.67,0-81.87-61.36-42.5-96.31-9.44-3.44-17.92-8.92-24.91-15.9h-.08c-10.91-10.91-18.2-25.57-19.67-41.85ZM2421.75,1401.87h425.08v-9.72c-10.55,11.11-34.65,6.14-34.65-12.67v-76.47c0-18.8,24.09-23.78,34.65-12.67v-295.78c-10.55,11.11-34.65,6.14-34.65-12.67v-76.47c0-18.8,24.09-23.78,34.65-12.67v-87.3c0-18.72,7.64-35.72,19.95-48.03.48,0,17.49-19.95,48.03-19.95h10.17v-52.09h-289.92v53.46c61.93,13.97,84.94,91.37,39.53,136.78-51.1,51.1-138.78,14.69-138.78-57.48,0-36.77,24.57-68.41,59.04-78.21v-54.55h-111.68l-61.43,716.48ZM3083.12,737.48v-52.09h-17.93v52.09h17.93Z"/>
  <path class="st0" d="M3351.91,1524.64c10.65,0,19.29,7.92,19.29,17.69s-8.63,17.69-19.29,17.69-19.28-7.92-19.28-17.69,8.63-17.69,19.28-17.69"/>
  <path class="st0" d="M2934.28,1524.64c10.65,0,19.29,7.92,19.29,17.69s-8.63,17.69-19.29,17.69-19.28-7.92-19.28-17.69,8.63-17.69,19.28-17.69"/>
</svg>