<?xml version="1.0" encoding="UTF-8"?>
<svg id="Laag_1" xmlns="http://www.w3.org/2000/svg" version="1.1" viewBox="0 0 456.24 154.32">
  <!-- Generator: Adobe Illustrator 29.5.1, SVG Export Plug-In . SVG Version: 2.1.0 Build 141)  -->
  <path d="M456.24,97.77s-.2-.04-.24.12c-.17.71.3,1.85-.24,2.4-.52,1.44-1.94,1.4-3.36,1.32v33.43c-.02.09-.22.14-.24.24-.68,2.74-2.36,4.97-4.92,5.87-.22.35-.95.15-1.08.6-.06.2.56.93.72,1.2.23.38,1.14,1.69,1.2,1.92.06.2-.05.5,0,.72.02.09.23.15.24.24.07.47.07,1.68,0,2.16-.01.09-.22.15-.24.24-.04.22.06.52,0,.72-.03.09-.21.14-.24.24-.05.15.05.35,0,.48-.27.68-1.43,2.04-2.04,2.52-.11.09-1.35.93-1.44.96-.16.05-.36-.06-.48,0-.16.07-.61.45-.72.48-.2.05-.5-.05-.72,0-.09.02-.15.23-.24.24-.67.1-2.69.1-3.36,0-.09-.01-.15-.22-.24-.24-.42-.08-1.04-.09-1.44-.24-.31-.11-.87-.53-1.2-.72-.37-.22-.84-.49-1.2-.72s-.31-.52-.36-.6c-.48-.67-1.13-1.32-1.44-2.16-.07-.2.13-.53-.24-.72-.03-1.69-.09-3.38.72-4.79.11-.2.34-.5.48-.72.13-.2.47-.33.48-.6h-40.54c-.13.47.3.56.48.84.26.41.87,1.7.96,2.16.06.28-.05.67,0,.96.02.09.22.15.24.24.04.22.04.74,0,.96-.02.09-.22.15-.24.24-.05.29.06.68,0,.96-.02.09-.21.14-.24.24-.04.16.05.35,0,.48-.39.98-2.27,2.92-3.24,3.47-.65.37-1.43.54-2.16.72-.1.02-.15.22-.24.24-2.49.14-4.12.06-6.24-1.2-.99-.59-1.38-.86-2.04-1.8-.12-.17-.39-.32-.48-.48-.27-.47-.35-.98-.48-1.44-.03-.1-.22-.15-.24-.24-.06-.36.06-.84,0-1.2-.02-.09-.21-.14-.24-.24-.14-.47.23-.65.24-.72.06-.36-.06-.84,0-1.2.02-.09.22-.14.24-.24.27-1.09.61-1.78,1.2-2.64.17-.25.52-.47.72-.72-.13-.1-.23-.28-.36-.36-.11-.07-.61-.17-.72-.24-1.63-.99-3.19-2.48-4.2-4.19l-.48-1.92-.6-.84c-.95.04-1.93-.06-2.88,0-.08,0-.16.24-.24.24h-53.73l-1.8-1.8c.14-.63-.39-1.05-.24-1.68.42-1.78.35-3.59.48-5.51.78-11.49,2.34-23.25,3.12-34.75,1.1-16.23,2.74-32.18,3.84-48.4.13-1.88.48-4.11.72-5.99.09-.69-.13-1.29.24-1.92.47-.34.58-1.02,1.08-1.32.05-.03.17.03.24,0,.11-.05.17-.24.24-.24h17.27l.36-.36v-11.02c0-.08.23-.15.24-.24.51-3.4,1.09-5.75,2.88-8.87,3.99-6.93,9.01-10.02,16.43-11.86.1-.02.15-.22.24-.24,1.19-.21,7.13-.18,8.4,0,.09.01.15.22.24.24,1.33.27,2.33.65,3.6,1.2,6.1,2.63,11.4,7.07,13.55,13.54.61,1.84.79,3.83,1.2,5.75v12.1h7.08l.6-.6v-14.26l-3-.24c-.38-.29-1.04-.61-1.32-1.08-.03-.05.03-.17,0-.24-.05-.1-.22-.15-.24-.24-.08-.34.06-.83,0-1.2-.01-.09-.23-.15-.24-.24-.18-1.7,0-3.72.24-5.27.15-1.01.16-1.92.48-2.88,2.77-5.9,9.08-4.98,14.75-5.15,3.61-.11,7.42-.11,11.03,0,2.14.06,4.22.03,6.24.24.91.1,1.75.02,2.64.24.27.07.65.15.96.24s1.31.74,1.68.96c.44.26.55.4.96.72.05.04.14.03.24,0,2.72,2.75,3.15,7.14,2.76,10.9,0,.09-.23.15-.24.24-.06.37.08.86,0,1.2-.02.09-.19.14-.24.24-.03.07.03.19,0,.24-.08.13-.71.76-.84.84-.05.03-.17-.03-.24,0-.1.05-.15.2-.24.24-.19.08-.53-.13-.72.24h-2.52v27.56h13.79c.08,0,.14.22.24.24.22.05.52-.05.72,0,.11.03.56.41.72.48.12.06.32-.05.48,0,.13.04,1.96,1.28,2.16,1.44,1.16.93,2.25,2.54,2.76,3.95.04.1.21.15.24.24.09.32-.17.74.24.96v32.71c.49.06,1.1-.08,1.56,0,.09.02.14.21.24.24.14.05.33-.04.48,0,.07.02,1,.95,1.08,1.08.03.05-.03.17,0,.24.05.1.22.15.24.24.12.53-.13,1.4,0,1.92.04.16.23.11.24.12.17.37.17,7.78,0,8.15ZM349.74,32.83h36.1l.36-.36v-10.06c0-.22-.42-1.59-.48-1.92-1.4-7.9-6.37-13.16-14.27-14.74-.09-.02-.15-.23-.24-.24-1.08-.16-4.41-.14-5.52,0-.09.01-.15.22-.24.24-4.88.87-9.05,3.26-11.87,7.31-2.19,3.15-2.81,5.26-3.36,8.87-.09.59-.44,1.84-.48,2.4-.2,2.75.15,5.73,0,8.51ZM399.87,8.51c-.28,1.31.21,3.49,0,4.91.25-.07.27-.2.6-.24.87-.1,1.87.07,2.76,0-.13-.38.22-.51.24-.6.1-.59-.11-1.09.24-1.68.16-.28.63-.55.84-.84h20.87c.26.36.87.73,1.08,1.08.03.05.23.45.24.48.08.37-.1,1.7,0,1.8h3.24c.52-.3.27-.69.36-1.08.02-.09.23-.15.24-.24.08-.51.08-1.88,0-2.4-.01-.07-.44-.52-.24-.96-.47-.39-.56-.92-1.08-1.32-.05-.04-.18.04-.24,0-.3-.21-.58-.54-.96-.72h-25.91c-.55.39-1.17.64-1.68.96-.14.09-.58.74-.6.84ZM404.43,18.21v14.86h5.88c.26.36.87.73,1.08,1.08.03.05-.03.17,0,.24.05.11.24.17.24.24v11.14h13.55l.6-.6v-26.72c-.39.13-.51-.22-.6-.24-.5-.09-1.18.09-1.68,0-.09-.02-.14-.21-.24-.24-.14-.05-.33.04-.48,0-.09-.03-1.23-1.18-1.32-1.32-.25-.42-.15-.85-.24-1.2-.03-.13-.42-.38-.24-.84h-12.23c.1,1.19.03,2.46-1.08,3.12-.05.03-.17-.03-.24,0-.1.05-.15.2-.24.24-.19.08-.53-.13-.72.24h-2.04ZM344.46,38.1h-14.15l-7.68,91.06h53.13c.15,0,.46-.49.36-.72-.41.05-.62.2-1.08.24-.32.03-.9.05-1.2,0-.09-.02-.14-.21-.24-.24-.14-.05-.33.04-.48,0-.12-.04-.31-.39-.48-.48-.11-.06-.32.04-.36,0-.04-.04.05-.23,0-.36-.04-.1-.23-.16-.24-.24-.23-1.32.05-3.55,0-5.03,0-.08-.24-.16-.24-.24-.05-1.34-.21-4.09,0-5.27.02-.09.21-.14.24-.24.04-.16-.05-.35,0-.48.04-.09.19-.14.24-.24.03-.07-.03-.19,0-.24.29-.49.83-.64,1.32-.84.1-.04.15-.22.24-.24.42-.09,1.42-.08,1.68.24l.84-.36v-36.3c-.82-.12-2.01.16-2.76,0-.08-.02-.56-.39-.72-.48-.14-.08-.38-.01-.6-.36-.03-.05.04-.16,0-.24-.05-.1-.22-.15-.24-.24-.06-.2.05-.5,0-.72-.02-.09-.23-.15-.24-.24-.2-1.38-.05-4.02,0-5.51,0-.08.24-.16.24-.24.06-1.51-.04-3.04,0-4.55l1.56-1.32h2.76v-12.34s.4-.57.48-.72c.52-1,.92-1.3,1.68-2.16.04-.04-.04-.19,0-.24.37-.43,1.33-1.25,1.8-1.56,1.39-.92,3.54-1.2,5.04-1.68.15-.05.84-.02.84-.36v-6.71l-.36-.36h-36.1v6.95c.46-.17.68.19.84.24,3.4,1.12,5.68,3.5,6.6,7.07.02.1.22.15.24.24.06.28-.05.67,0,.96.02.09.23.15.24.24.07.58.07,1.82,0,2.4-.01.09-.22.15-.24.24-.13.75-.17,1.62-.48,2.4-.96,2.4-3.73,4.99-6.12,5.87-.4.15-1.02.16-1.44.24-.09.02-.15.23-.24.24-.71.1-2.89.1-3.6,0-.09-.01-.15-.22-.24-.24-3.01-.6-5.49-2.17-7.08-4.91-.63-1.09-.74-2-.96-3.12-.02-.09-.23-.15-.24-.24-.1-.67-.1-2.69,0-3.35.02-.16.42-.98.48-1.2.06-.2-.06-.51,0-.72.09-.32.74-1.3.96-1.68,1.12-1.89,2.6-3.24,4.68-4.19.13-.06.35.06.48,0,.25-.11.63-.38.84-.6v-6.83ZM398.67,38.1h-7.44v7.67h7.08l.36-.36v-7.31ZM406.59,38.1h-2.16v7.67h1.8l.36-.36v-7.31ZM346.26,50.08c-.19.37-.52.17-.72.24-.15.06-.54.37-.72.48-.06.04-.19-.03-.24,0-.22.15-1.17,1.09-1.32,1.32-.06.1-.18.55-.24.72-.04.1-.21.15-.24.24-.05.2.05.5,0,.72-.02.09-.23.15-.24.24-.06.4-.07,1.53,0,1.92.01.07.41.34.24.72l1.56,2.28c.41.12.8.32,1.2.48.1.04.15.22.24.24.28.06.67-.05.96,0,.12.02.36.38.96.24.09-.02.15-.22.24-.24.29-.05.68.06.96,0,.08-.02,1.35-.66,1.44-.72.62-.41,1.07-1.12,1.32-1.8.04-.1.21-.15.24-.24.05-.2-.05-.5,0-.72.02-.09.23-.15.24-.24.09-.59-.06-1.31,0-1.92l-.48-1.44c-.53-.52-.89-1.35-1.56-1.8-.1-.07-.57-.17-.72-.24-.1-.04-.15-.21-.24-.24-.2-.07-.53.13-.72-.24h-2.16ZM437.77,50.56h-46.42c-.13.03-.53.67-.6.84-.24.55-.37,1.01-.72,1.68-1.87,3.56-3.94,5.67-7.8,7.07-.14.05-.2.37-.6.24v73.69c.37.19.17.52.24.72.06.15.37.54.48.72.04.06-.03.19,0,.24.32.5.97.61,1.32,1.08.75.39,1.68.35,2.4.72h56.61c.38-.37,1.2-.29,1.68-.48.36-.14.66-.51.96-.72.06-.04.19.04.24,0,.18-.13.74-.67.84-.84.03-.05-.03-.17,0-.24.05-.1.2-.15.24-.24.08-.19-.13-.53.24-.72V60.51c-.23-.46-.65-.27-.84-.36-1.05-.48-2.49-1.22-3.36-1.92-2.19-1.76-3.84-4.31-4.68-6.83-.05-.16-.41-.37-.24-.84ZM385,50.8l-1.56.48-1.32,1.32-.24.72-.24,1.56c1.07-.5,2.06-1.58,2.64-2.52.03-.06-.04-.18,0-.24.14-.23.9-1.15.72-1.32ZM446.88,54.64l-.24-1.56-1.32-1.56-1.8-.72c-.11.11.25.8.36.96.55.77,1.24,1.54,1.8,2.28.31.41.65.71,1.2.6ZM389.56,145.45s-.25.06-.36,0c-.17-.09-.36-.44-.48-.48-.15-.04-.34.05-.48,0-.1-.03-.15-.22-.24-.24-.78-.14-1.09.13-1.68.48-.06.04-.19-.03-.24,0-.1.06-.59.55-.6.6-.04.15.05.34,0,.48-.07.23-.37.37-.24.96.02.09.42.58.48.72.05.13-.04.32,0,.36.04.04.25-.06.36,0,.17.09.36.45.48.48.2.06.51-.05.72,0,.09.02.15.22.24.24.59.14.91-.29,1.44-.24l.84-.84c-.05-.53.37-.84.24-1.44-.02-.09-.42-.58-.48-.72-.05-.13.04-.32,0-.36ZM440.05,144.73c-.17.04-.68.56-.96.48-.85.66-.92,1.46-.84,2.52l1.08,1.08,1.2.24c.22-.41.64-.15.96-.24.09-.02.14-.19.24-.24.07-.03.19.03.24,0,.28-.16.55-.63.84-.84.15-.9-.09-1.22-.48-1.92-.04-.07.03-.19,0-.24-.23-.36-.7-.45-1.08-.6-.1-.04-.15-.22-.24-.24-.19-.04-.77-.04-.96,0Z"/>
  <path d="M271.3,51.04h-13.43c-.02-.55-.61-1.09-.96-1.56-.72-.97-1.47-1.84-2.52-2.52-1.26-.82-2.44-1.16-3.84-1.44-.09-.02-.15-.23-.24-.24-.86-.12-3.7-.12-4.56,0-.09.01-.15.22-.24.24-.98.2-1.46.33-2.4.72-3.87,1.63-6.23,4.46-7.08,8.51-.02.09-.23.15-.24.24-1.13,6.82.9,13.15,7.32,16.17.41-.15.58.19.72.24,4.83,1.69,11.02.43,14.03-3.95.19-.84,1-1.58.96-2.52h-13.43v-9.59h27.11c-.19.42.23.76.24.84.12.82.06,2.48,0,3.35-.07,1.01-.28,2.53-.48,3.59-1.23,6.56-5.41,12.55-11.39,15.94-1.81,1.03-4.59,2.19-6.48,2.64-21.32,5.03-37.6-15.83-27.71-35.11.48-.35.69-1.05.96-1.44,2.61-3.66,6.94-7.15,11.15-8.75,11.99-4.55,26.07.34,31.78,12.34l.72,2.28Z"/>
  <path d="M78.8,34.75c1.05-.08,2.55-.08,3.6,0,.09,0,.15.23.24.24,1.52.14,2.87.14,4.32.48,7.22,1.67,14.34,8.16,16.67,15.46,3.5,10.91-.82,22.36-10.67,28.4-20.93,11.23-44.65-9.18-34.18-31.27,2.87-5.96,7.91-10.22,14.27-12.1,2.11-.62,3.2-.74,5.52-.96.09,0,.15-.23.24-.24ZM78.08,45.29c-.09.01-.15.22-.24.24-1.61.32-2.95.78-4.32,1.68-4.64,3.89-6.42,9.8-4.92,15.46.26.97.91,2.18,1.44,3.12,1.8,3.16,4.11,5.14,7.8,5.87.09.02.15.23.24.24.59.09,1.33-.09,1.92,0,.09.01.36.38.96.24.1-.02.15-.23.24-.24.59-.09,1.32.07,1.92,0,.09-.01.15-.22.24-.24.52-.09,1.15-.05,1.68-.24.72-.27,2.35-1.25,2.88-1.68,2.01-1.61,4.1-5.2,4.68-7.55.06-.25.23-.88.24-.96.14-.93-.07-1.39.24-2.4.14-.47-.23-.65-.24-.72-.1-.56.07-1.32,0-1.92-.01-.09-.22-.15-.24-.24-.43-2.44-.96-3.7-2.4-5.75-.85-1.22-1.73-2.37-3-3.23-1.34-.81-2.37-1.14-3.84-1.44-.09-.02-.15-.23-.24-.24-.93-.14-4.11-.14-5.04,0Z"/>
  <path d="M167.07,35.7c.09,0,.15.23.24.24,1.2.15,1.76.19,2.88.48,3.27.84,6.86,2.85,8.28,6.11.06.13-.05.34,0,.48s.45.61.48.72c.67,2.45.58,5.22,0,7.67-.8,1.86-2.11,3.77-3.96,4.91l-.84.72c.38-.05.74.09,1.08.24,1.76.81,3.66,2.3,4.68,3.95.27.44,1.09,1.77,1.2,2.16.05.2-.05.51,0,.72.02.09.22.15.24.24.67,2.92.12,6.12-.72,8.87-1.32,3-3.47,4.86-6.12,6.35-.84.47-1.77.93-2.64,1.2-1.36.42-2.97.3-4.32.72h-20.27v-45.77h19.79ZM159.04,52.96h6.36c.08,0,.14-.21.24-.24.16-.04.35.05.48,0,.09-.04.14-.19.24-.24.07-.03.19.03.24,0,.51-.3,1.01-1.12,1.32-1.56-.02-.76.39-1.34.24-2.16-.02-.09-.21-.14-.24-.24-.04-.16.05-.35,0-.48-.04-.09-.19-.14-.24-.24-.03-.07.03-.19,0-.24-.34-.57-.99-.85-1.56-1.08-.1-.04-.15-.22-.24-.24-.28-.06-.67.05-.96,0-.09-.02-.16-.24-.24-.24h-5.64v6.95ZM159.04,71.17h7.08c.08,0,.15-.22.24-.24.57-.1,1.14-.05,1.68-.24l2.04-2.04c-.17-.38.23-.65.24-.72.07-.39.07-1.77,0-2.16-.02-.09-.21-.14-.24-.24-.05-.14.04-.33,0-.48-.03-.09-.71-.85-.84-1.08l-1.2-.72c-.44.2-.91-.24-.96-.24h-8.04v8.15Z"/>
  <path d="M305.36,89.38l-.84.48c-3.45.43-7.19.17-10.79.24-17.97.35-36.28.74-54.21.96-52.69.63-105.22,1.92-157.84,2.4-18.01.16-35.98-.14-53.49-.96-1.23-.06-2.49.04-3.72,0l1.32-.24c.09-.01.15-.23.24-.24,3.73-.33,7.96-.09,11.75-.24,10.52-.41,21.36-1.32,31.9-1.68,46-1.56,92.17-3.39,138.65-3.83,25.05-.24,50.2-.49,74.84.72,7.05.35,14.12,1.43,20.87,2.4.41.06.9-.04,1.32,0Z"/>
  <path d="M226.2,81.47h-12.95c.17-.46-.2-.69-.24-.84-.53-1.76-.85-3.42-1.44-5.03-.05-.14-.37-.2-.24-.6h-16.07c.13.39-.19.46-.24.6-.59,1.63-.94,3.36-1.44,5.03-.04.15-.41.38-.24.84h-12.95l18.35-45.77h9.83l.36.36,17.27,45.41ZM208.21,65.42c-.28-.3-.16-.62-.24-.84-1.47-4.38-3.12-8.86-4.32-13.42l-.72-1.08-4.56,15.34h9.83Z"/>
  <path d="M121.14,81.47h-11.75v-45.77h19.55c1.25.24,2.61.46,3.84.72,5.82,1.21,9.29,4.97,10.67,10.66.07.29.45,1.21.48,1.44.88,7.13-2.2,14.52-9,17.37-1.13.35-2.01.52-3.12.72-.33.06-1.7.48-1.92.48h-8.4l-.36.36v14.02ZM121.14,56.79h6.6c.08,0,.15-.22.24-.24.29-.05.68.06.96,0,.09-.02.14-.21.24-.24.15-.04.35.05.48,0,.11-.04.9-.44.96-.48.22-.15,1.17-1.09,1.32-1.32.06-.1.18-.55.24-.72.04-.1.21-.15.24-.24.05-.2-.05-.5,0-.72.02-.09.23-.15.24-.24.17-1.14-.12-2.32-.24-3.35-.18-.37-.5-.64-.72-.96-.04-.06.04-.19,0-.24-.51-.69-1.25-1.03-2.04-1.32-.1-.04-.15-.21-.24-.24-.2-.05-.5.05-.72,0-.09-.02-.15-.22-.24-.24-.37-.06-.83.06-1.2,0-.09-.01-.16-.24-.24-.24h-5.88v10.78Z"/>
  <path d="M306.8,49.12h-11.75c.18-.46-.21-.71-.24-.84-.1-.37-.08-.52-.24-.96-.21-.58-.99-2.11-1.56-2.28-.15-.04-.34.05-.48,0-.1-.03-.15-.22-.24-.24-.28-.06-.68.06-.96,0-.1-.02-.16-.33-.48-.24-.1.03-.15.22-.24.24-.34.08-.86-.08-1.2,0-.09.02-.14.19-.24.24-.07.03-.19-.03-.24,0-.17.1-.31.36-.48.48-.06.04-.19-.04-.24,0-.18.13-.74.67-.84.84-.03.05.03.17,0,.24-.05.1-.2.15-.24.24-.05.13.04.32,0,.48-.03.1-.22.15-.24.24-.05.27-.06,1.19,0,1.44.02.09.19.14.24.24.03.07-.03.19,0,.24.11.18,1.12,1.19,1.32,1.32.25.17.9.32,1.2.48.55.29,1.11.68,1.68.96,5.57,2.75,12.86,4.74,14.99,11.14.14.41.14.57.24.96.44,1.76.69,3.73.48,5.75,0,.09-.23.15-.24.24-.09.57-.14.93-.24,1.44-.73,3.51-2.56,6.43-5.64,8.27-1.58.94-2.68,1.27-4.32,1.68-7.77,1.93-17.53.27-20.99-7.79-.35-1.13-.52-2.01-.72-3.12-.08-.43-.44-1.53-.48-1.92-.07-.81.05-1.7,0-2.52h11.75c.04.42-.06.91,0,1.32.04.28.39,1.11.48,1.44s.09.38.24.72c.07.15.17.62.24.72.13.19.64.69.84.84.05.04.18-.04.24,0,.36.25,1.01.84,1.44.96.2.05.51-.05.72,0,.17.04.37.38.96.24.09-.02.15-.22.24-.24.21-.05.52.06.72,0,.11-.03.32-.4.72-.24.39-.46.94-.57,1.32-1.08.04-.05-.04-.18,0-.24.21-.3.58-.6.72-.96.05-.13-.04-.32,0-.48.03-.1.22-.15.24-.24.06-.33.07-1.62,0-1.92-.02-.09-.19-.14-.24-.24-.03-.07.03-.19,0-.24-.11-.18-1.12-1.19-1.32-1.32-.05-.04-.18.04-.24,0-2.34-1.44-5.04-2.3-7.44-3.35-3.89-1.71-8.21-4.11-9.95-8.27-.23-.56-.34-1.34-.48-1.92-.07-.28-.45-1.21-.48-1.44-.1-.77-.1-2.58,0-3.35.01-.09.22-.15.24-.24.1-.57.09-1.36.24-1.92.13-.51.68-1.91.96-2.4,1.35-2.37,4.26-4.79,6.6-5.87.4-.18,1.03-.57,1.44-.72,6.72-2.51,15.26-1.06,19.79,4.91.08.66.71,1.11.96,1.68.21.47.87,2.22.96,2.64.21,1.02.09,2.07.24,3.12.01.08.43.42.24.84Z"/>
  <polygon points="57.09 35.7 57.09 46.01 47.97 46.01 47.97 81.47 36.22 81.47 36.22 46.01 27.11 46.01 27.11 35.7 57.09 35.7"/>
  <path d="M181.1,133.71s-.06.25,0,.36c.16.28.58.6.72.96.23,1.5-.36,1.81-1.8,1.56-.99-.18-4.55-1.99-5.52-2.64-1.07-.71-1.72-1.66-2.52-2.52-.73-.78-1.54-1.5-2.28-2.28-.19.37-.52.16-.72.24-1.86.71-3.61,2.33-5.52,2.88-.54.15-1.36.14-1.92.24-.09.02-.15.23-.24.24-.73.09-2.65.1-3.36,0-.09-.01-.15-.22-.24-.24-1.02-.2-2.4-.56-3.36-1.2-.32-.22-.65-.79-.96-.96-.11-.06-.32.04-.36,0s.06-.25,0-.36c-.16-.28-.58-.6-.72-.96.05-.45-.08-1.01,0-1.44.02-.09.21-.14.24-.24.05-.14-.04-.33,0-.48.04-.12.39-.31.48-.48,1.39-2.47,2.98-4.61,4.8-6.71.56-.64,1.45-1.27,1.92-1.92.07-.1.13-.57.48-.72v-.24c-.14-.17-.36-.31-.48-.48-.14-.2-.92-1.72-.96-1.92-.06-.28.05-.66,0-.96-.02-.09-.23-.15-.24-.24-.07-.55-.08-1.86,0-2.4.01-.09.22-.15.24-.24.04-.22-.05-.51,0-.72.41-1.67,1.99-4.42,3.12-5.75.99-1.17,2.19-1.97,3.24-3,1.01.07,2.13-.1,3.12,0,.09,0,.15.23.24.24,1.65.25,2.49.24,4.08.96.8.36,1.75.83,2.28,1.56.04.05-.04.18,0,.24.11.16.45.37.48.48.04.15-.05.34,0,.48.03.1.22.15.24.24.04.24.05.97,0,1.2-.02.09-.2.14-.24.24-.25.63-.38.72-.72,1.2-.28.39-1.79,2.36-2.04,2.52-2.45,1.56-3.51,4.5-6.24,5.75-.41.55-1.76,1.37-1.56,2.04.03.09.2.14.24.24.06.16.17.62.24.72.38.57,1.03,1.39,1.44,1.92.82,1.06,2.06,2.44,3.12,3.35.17.15.31.45.6.36l9.12-8.39,1.2.24.6.6v1.44c-.93,1.18-2.06,2.41-3.24,3.47-.45.4-1.48,1.04-1.92,1.44-.47.42-3.41,3.24-3.48,3.47-.16.55.25.62.48.96.76,1.12,2.08,2.53,3.24,3.23,1.08.66,2.45,1.28,3.6,1.92.32.17.49.35.72.48.11.06.32-.04.36,0ZM167.07,104c-.08.02-.57.39-.72.48-.06.04-.19-.03-.24,0-.38.25-1.47,1.4-1.8,1.8-.45.55-2.22,3.17-2.4,3.83-.05.2.05.5,0,.72-.02.09-.23.15-.24.24-.05.37-.06,1.33,0,1.68.02.09.21.14.24.24.13.44.23,1.04.48,1.44.13.21.44.39.6.6,2.96-2.76,6.42-4.72,8.52-8.27l.24-1.2c-.48-.59-.87-.83-1.56-1.08-.1-.04-.15-.21-.24-.24-.2-.05-.5.05-.72,0-.09-.02-.15-.23-.24-.24-.37-.05-1.58-.07-1.92,0ZM162.27,120.29c-.88.95-1.89,1.79-2.76,2.76-.96,1.06-2.37,2.69-2.88,4.07-.05.13.04.33,0,.48-.03.1-.22.15-.24.24-.13.54.11.67.24.96.03.07-.03.19,0,.24.07.11.49.53.6.6.05.03.17-.03.24,0,.1.05.15.22.24.24.28.06.67-.05.96,0,.25.05.53.36,1.2.24.09-.02.15-.22.24-.24,1.09-.2,2.09-.29,3.12-.72.87-.36,2.35-1.19,3.12-1.68.31-.2.74-.61,1.08-.84.1-.33-.52-.7-.72-.96-1.1-1.42-2.18-3.2-3.36-4.55-.19-.22-.8-.93-1.08-.84Z"/>
  <path d="M256.19,103.04c-.31.27-.59.17-.84.24-.06.02-.87.65-.96.72-2.91,2.32-3.96,5.11-5.4,8.03-.61,1.23-1.61,2.71-1.92,3.83-.04.16.03.41,0,.6.5-.04,1.07.06,1.56,0,.09-.01.15-.22.24-.24.92-.16,2.01-.1,2.88-.24.09-.02.16-.24.24-.24s.15.22.24.24c.3.05.67-.05.96,0,.1.02.21.37.6.24.08.69.7,1.23.48,2.04-.08.28-.48.3-.6.36-.1.05-.15.2-.24.24-.13.05-.33-.05-.48,0-2.18.73-4.52.98-6.72,1.68-.14.05-.33-.04-.48,0-.62.18-.51.96-.6,1.32-.52,2.21-1.48,4.48-1.92,6.71-.57,2.89-.33,6.4-1.2,9.11-.15.47.04.95-.84.84-.12-.27-.41-.2-.48-.24-.53-.32-.88-1.3-1.32-1.8.06-.61-.09-1.33,0-1.92.01-.09.22-.15.24-.24.36-1.77.11-3.74.48-5.51.55-2.63,1.45-5.2,1.92-7.91.05-.31.15-.36.24-.6-.75.04-1.53-.06-2.28,0-.09,0-.15.23-.24.24-1.37.13-2.6.06-3.84.48l-1.08,1.08c-.05.37-.14.86-.24,1.2-1.04,3.49-1.98,7.58-1.2,11.5.02.09.23.15.24.24.04.31.07,1.44,0,1.68-.05.17-.69.6-.84.84-.26.08-.75-.39-.96-.48-.13-.05-.32.04-.36,0-.04-.04.06-.25,0-.36-.14-.26-.58-.6-.72-.96-.39-.97-.35-2.06-.48-3.12-.1-.76-.32-1.4-.24-2.4.54-6.43,2.79-13.22,5.52-19.17,1.64-3.59,3.83-7.66,7.32-9.47.16-.08.61-.45.72-.48.2-.05.5.05.72,0,.09-.02.15-.23.24-.24.75-.11,1.27.15,1.92.24l3.12,2.88c.18-.21.44-.39.6-.6.81-1.07,2.45-2.73,3.72-3.23.13-.05.32.04.48,0,.1-.03.15-.22.24-.24.28-.06.67.05.96,0,.09-.02.15-.22.24-.24.6-.14.84.22.96.24.29.05.71-.07.96,0,.11.03.32.37.48.48.06.04.19-.04.24,0,.16.12.5.45.6.6.03.05-.04.18,0,.24.09.15.46.64.48.72.06.28.06,1.63,0,1.92-.02.09-.42.58-.48.72-.29.73-.45,1.47-.96,2.16-.43.58-.9,1.11-1.56.6-.48-.37-.26-.52-.36-.84-.03-.1-.22-.15-.24-.24-.08-.46-.07-1.92,0-2.4.01-.08.43-.42.24-.84ZM243.71,116.94c-.17-.46.19-.68.24-.84.88-2.67,2.44-5.79,2.88-8.39.1-.57.11-.88.24-1.44s-.17-.74-.24-.96c-.05-.14.04-.33,0-.48-.15-.52-1.54-.69-2.04-.6-.09.02-.14.21-.24.24-.14.05-.33-.04-.48,0-.11.03-1.36,1.32-1.56,1.56-2.83,3.26-4.18,6.36-5.52,10.3-.12.36-.29.78-.48,1.2-.17.37.1.35.36.36,1.79.08,3.23-.51,4.8-.72.45-.06,1.01.08,1.44,0,.09-.02.21-.37.6-.24Z"/>
  <path d="M200.05,120.53c.26.27,2.05-1.19,2.52-1.2,1.12-1.02,2.58-1.92,3.84-2.64.26-.14,1.03-.68,1.2-.72.47-.1,1.17.07,1.68,0,.15.21.48.4.6.6.03.05-.03.17,0,.24.05.1.22.15.24.24.14.6-.14.97-.6,1.32-.05.04-.18-.04-.24,0-2.06,1.44-4.39,2.76-6.48,4.07-.29.18-.38.61-.84.48v.12c.06.1.19.15.24.24.98,1.77,2.06,3.51,2.88,5.27.16.35.21.54.6.84.05.04.18-.04.24,0,.16.11.37.45.48.48.24.07.52-.12.72.24l2.4-.72c.2.36.48.17.72.24.29.08.74.77.6,1.08-.14.36-.56.68-.72.96-.06.11.04.31,0,.36s-.25-.06-.36,0c-.24.13-.47.57-.72.72-.05.03-.41.21-.48.24-.13.05-.32-.04-.48,0-.1.03-.15.22-.24.24-.26.05-.94.05-1.2,0-.09-.02-.14-.21-.24-.24-.28-.08-.65-.08-.96-.24-.17-.14-.31-.36-.48-.48-2.93-2.03-3.43-3.96-5.16-6.83-.04-.06.03-.19,0-.24-.7-1.1-1.59-.38-2.16.48-.17.26-.9,2.11-.96,2.4-.2.98-.34,2.16-.48,3.12-.08.52.15,1.59-.6,1.8-.89.25-1.73-.75-2.28-1.32-.29-.73-.64-1.28-.48-2.16.02-.1.44-.81.48-.96,2.11-7.44,5.71-14.82,8.88-22.29.82-1.93,1.57-3.48,2.16-5.51.06-.21.66-.38.48-.84.39.06.98-.09,1.32,0,.2.06.8.9,1.08,1.08v2.4c-1.73,4.99-4.32,9.75-6.48,14.62l-.72,2.52Z"/>
  <path d="M67.16,128.92c.07.59.05,1.74-.6,1.92-.24.07-2.13.06-2.4,0-.09-.02-.14-.2-.24-.24-.16-.06-.62-.17-.72-.24-.36-.24-1.75-1.66-2.04-2.04-.04-.05.04-.18,0-.24-.58-.83-1.3-1.83-1.44-2.88-.04-.34.14-.41-.36-.36-1.14,1.04-1.99,2.3-3.12,3.35-.04.04-.19-.04-.24,0-1.87,1.69-2.93,2.95-5.52,3.59-.1.02-.15.22-.24.24-.3.05-1.4.06-1.68,0-.09-.02-.14-.2-.24-.24-.16-.07-.61-.17-.72-.24-.5-.32-.61-.97-1.08-1.32.17-.38-.23-.65-.24-.72-.06-.35-.05-1.31,0-1.68.01-.09.22-.15.24-.24.05-.22-.05-.52,0-.72.03-.11.43-.58.48-.72,1.53-4.01,4.51-8.52,8.04-11.14.23-.17,1.09-.93,1.2-.96.15-.04.34.05.48,0,.1-.03.15-.22.24-.24.5-.09,1.15.06,1.68,0l1.2.72,3.96,3.71-.72,1.68c-.27,1.43-.77,3.42-.48,5.03.02.09.21.14.24.24.04.15-.05.34,0,.48.03.09.42.87.48.96.11.16,1.23,1.29,1.32,1.32.55.16,1.13.32,1.68.48.21.06.39.65.84.48ZM49.41,128.68c.68.06,1.26-.39,1.8-.72,2.83-1.73,6.03-4.99,7.8-7.79.17-.27.56-.59.72-.96v-.96c-.66-.55-1.09-1.53-2.04-1.32-.38.18-.66.51-.96.72-3.27,2.27-5.39,6.66-6.84,10.18-.06.15-.55.78-.48.84Z"/>
  <path d="M40.3,112.39c.43-.04.91.06,1.32,0,.44-.06,1.48-.41,1.92-.48.28-.04.93-.05,1.2,0,.09.02.14.21.24.24.14.05.33-.04.48,0,.04.01.54.51.6.6.03.05-.03.17,0,.24.05.1.22.15.24.24.13.57.02,1.87-.6,2.04-.31.08-.83-.05-1.2,0-.09.01-.15.23-.24.24-1.36.14-2.98-.17-4.32,0-.09.01-.15.22-.24.24-.29.05-.71-.07-.96,0-.06.02-.74.7-.84.84-.12.16-.36.75-.48.96-1.75,3.1-2.52,6.77-3.12,10.06-.04.22-.04.74,0,.96.02.09.21.14.24.24.05.14-.04.33,0,.48.2.7,1.11.52,1.56.6.09.02.15.22.24.24.15.04,1.61-.18,1.92-.24,1.11-.23,2.62-1.17,3.6-1.68.58.02,1.11-.89,1.68-.72.51.15.71,1.05.6,1.56-.02.09-.19.14-.24.24-.03.07.03.19,0,.24-.14.23-1.06,1.12-1.32,1.32-.28.22-1.54,1.03-1.92,1.2-.13.06-.34-.06-.48,0s-.61.45-.72.48c-.46.13-1.59.43-1.92.48-.54.08-2.36.09-2.88,0-.09-.02-.14-.21-.24-.24-.14-.05-.33.04-.48,0-.11-.03-.32-.37-.48-.48-.06-.04-.19.04-.24,0-.69-.5-1.05-1.36-1.56-2.04-.23-.62-.14-1.25-.24-1.92-.01-.09-.23-.15-.24-.24-.05-.38-.05-1.06,0-1.44.01-.09.23-.15.24-.24.14-1.34.14-2.33.48-3.59.52-1.93,1.4-4.08,2.16-5.99.06-.16.4-.54.48-.72.21-.43-.21-.31-.36-.36-.55-.18-1.08-.44-1.68-.48-.65-.42-.46-2.2.24-2.4.35-.1,1,.05,1.44,0,.09-.01.15-.23.24-.24.5-.06,1.28.11,1.68,0,.06-.02.76-.72.84-.84.03-.05-.04-.18,0-.24.93-1.57,1.49-3.54,2.64-5.03.42-.55,1.03-.98,1.56-1.32l1.44.48.6.84v.72c-.02.09-.2.14-.24.24-.13.36-.31.89-.48,1.2-.43.79-.97,1.6-1.44,2.4-.23.38-.8.73-.72,1.32Z"/>
  <path d="M111.42,113.58h2.4l1.2.48c.35.47,1,.58,1.32,1.08.03.05-.04.18,0,.24.1.16.45.62.48.72.05.2-.05.5,0,.72.02.09.22.15.24.24.04.22.04.74,0,.96-.02.09-.22.15-.24.24-.05.29.06.68,0,.96-.06.27-.73,1.78-.96,2.16-.7,1.17-2.69,3.01-3.96,3.47-.13.05-.33-.04-.48,0-.1.03-.15.22-.24.24-.36.06-1.56.06-1.92,0-.09-.02-.14-.21-.24-.24-.14-.05-.33.04-.48,0-.04-.01-.66-.43-.72-.48-.22-.16-.87-.96-.96-.96-.27.19-.29.3-.36.6-.35,1.56-1.01,3.38-.72,5.03.02.09.21.14.24.24.09.28-.12.53.36.84.05.03.17-.04.24,0,.61.34.88.63,1.68.48.09-.02.15-.22.24-.24.29-.05.68.06.96,0,.38-.08,2.67-1.78,3.36-2.16.61-.34,1.12-.7,1.92-.48.32.09.6.83.84,1.08-.21.49-.62.77-.96,1.2-1.21,1.53-2.88,2.49-4.92,3-.1.02-.15.22-.24.24-.45.08-2.71.09-3.12,0-.09-.02-.14-.2-.24-.24-.17-.07-.59-.16-.72-.24-.16-.09-.31-.36-.48-.48-.06-.04-.19.04-.24,0-.18-.13-.47-.42-.6-.6-.04-.05.04-.18,0-.24-.22-.31-.54-.58-.72-.96-.19-.54-.14-1.11-.24-1.68-.02-.09-.23-.15-.24-.24-.07-.6-.06-1.78,0-2.4,0-.09.23-.15.24-.24.16-1.06.22-1.64.48-2.64.86-3.34,3.27-7.37,6.36-8.99.51-.27.97-.5,1.44-.72ZM107.94,120.53c1.38-.3,1.15,1.02,2.04,1.68,1.08.2,2.11-.7,2.76-1.56.53-.71.95-1.78,1.2-2.64.03-.1.22-.15.24-.24.04-.23.05-1.01,0-1.2-.12-.44-1.41-.45-1.8-.36-.09.02-.14.19-.24.24-.62.28-.7.55-1.2.96-1.02.84-1.74,1.4-2.52,2.52-.14.2-.46.33-.48.6Z"/>
  <path d="M263.5,113.58h2.4c.19.37.53.16.72.24.09.04.14.19.24.24.07.03.19-.03.24,0,.18.11,1.19,1.12,1.32,1.32.03.05-.04.18,0,.24.09.15.46.64.48.72.08.38.07,2.23,0,2.64-.02.09-.21.14-.24.24-.65,2.27-1.89,4.07-3.96,5.15-.51.27-.97.5-1.44.72h-1.68c-.19-.37-.52-.17-.72-.24-.09-.03-.87-.42-.96-.48-.23-.15-.86-.96-.96-.96l-.6.84c-.32.96-.33,1.86-.48,2.88-.01.09-.22.15-.24.24-.14.75.31,1.22.24,1.92.28.33.41.82.84,1.08.05.03.17-.03.24,0,.1.05.15.22.24.24.23.05.96.04,1.2,0,.09-.02.14-.22.24-.24,1.53-.38,2.32-.88,3.6-1.68.33-.21,1.04-.87,1.44-.96,1.12-.24,2.1-.02,1.8,1.32-.02.09-.19.14-.24.24-.03.07.03.19,0,.24-.16.26-1.5,1.57-1.8,1.8-.05.04-.18-.04-.24,0-.81.57-2.7,1.73-3.6,1.92-.28.06-.67-.05-.96,0-.09.02-.15.22-.24.24-.79.14-1.36-.38-2.16-.24-.38-.18-.66-.51-.96-.72-.06-.04-.19.04-.24,0-.24-.18-.93-.85-1.08-1.08-.04-.05.04-.18,0-.24-.16-.27-.66-.99-.72-1.2-.05-.2.05-.5,0-.72-.02-.09-.23-.15-.24-.24-.11-.75-.1-2.82,0-3.59.03-.24.41-1.15.48-1.44.9-3.54,2.81-7.44,6.12-9.47.67-.41,1.29-.67,1.92-.96ZM260.26,120.53c1.16-.13.79.47.96,1.08.01.04.56.59.6.6,1.14.13,2.32-.66,3-1.56.18-.24.85-1.37.96-1.68.05-.13.23-.68.24-.72.12-.68.19-1.93-.6-2.04s-1.05.11-1.68.48c-1.25.74-1.91,1.3-2.76,2.52-.28.39-.78.76-.72,1.32Z"/>
  <path d="M213.73,131.56s.06-.25,0-.36c-.17-.3-.74-.63-.96-.96-.03-.05.04-.18,0-.24-.09-.15-.46-.64-.48-.72-.11-.51-.08-3.02,0-3.59.01-.09.22-.15.24-.24.74-3.72,3.59-7.84,6.84-9.94.82-.53,1.42-.72,2.4-.96.1-.02.15-.22.24-.24.33-.06,1.61-.07,1.92,0,.09.02.14.2.24.24.31.12.97.33,1.2.48.25.17.46.54.72.72.08.05.37,0,.6.36.03.05-.04.17,0,.24.1.18.42.57.48.72.05.13-.04.33,0,.48.03.1.22.15.24.24.1.55.08,2.54,0,3.12-.01.09-.22.15-.24.24-.82,4.12-3.85,8.01-7.56,10.18-.38.22-1.36.87-1.68.96-.2.05-.5-.05-.72,0-.09.02-.15.23-.24.24-.3.04-1.17.06-1.44,0-.09-.02-.14-.2-.24-.24-.18-.07-.58-.16-.72-.24-.17-.09-.31-.39-.48-.48-.11-.06-.32.04-.36,0ZM222,117.66c-.08.02-.57.39-.72.48-1.42.84-2.61,2.53-3.48,3.95-.78,1.28-1.76,3.16-2.16,4.55l-.48,1.68c.28.28.33,1.18.84,1.32.9.25,1.67-.29,2.4-.72,2.87-1.7,4.99-5.25,5.64-8.51.02-.09.23-.15.24-.24.04-.3.06-1.17,0-1.44-.02-.09-.19-.14-.24-.24-.03-.07.03-.19,0-.24-.12-.2-.44-.39-.6-.6-.44.06-1.03-.09-1.44,0Z"/>
  <path d="M133.85,121.73l-1.56.48c-1.98,1.35-4.04,2.65-6,4.07-.64.47-1.76,1.09-2.28,1.8-.32.43-.64,1.26-.96,1.68-.43.57-1.08.8-1.8.6-.11-.03-.32-.37-.48-.48-.06-.04-.19.04-.24,0-.58-.44-.67-1.01-1.08-1.56-.13-.6.22-.84.24-.96.05-.29-.06-.68,0-.96.02-.09.22-.14.24-.24.8-3.12,2.82-5.71,3.6-8.87.14-.56.13-.96.24-1.44.02-.09.19-.14.24-.24.03-.07-.03-.19,0-.24.12-.2.44-.39.6-.6.3.04.69-.06.96,0,.09.02.14.19.24.24.07.03.19-.03.24,0,.12.07.52.48.6.6.03.05-.04.18,0,.24.56.92.89,1.48.72,2.64l-2.16,4.67c.11.13.93-.62,1.08-.72,1.45-.92,2.84-2.03,4.32-2.88.42-.24,1.84-1.13,2.16-1.2.47-.1,1.17.07,1.68,0,.36.36,1.32.69,1.56,1.08.04.06-.03.19,0,.24.23.32.54.58.72.96-.17.38.23.65.24.72.14.76.1,3.49,0,4.31-.01.09-.23.15-.24.24-.07.43.18.92-.24,1.2l1.2,1.92.48,1.44c-.2.25-.28.32-.6.36-.35.05-1.38.07-1.68,0-.09-.02-.14-.19-.24-.24-.07-.03-.19.03-.24,0-.51-.3-1.01-1.12-1.32-1.56.2-.44-.24-.91-.24-.96v-6.35Z"/>
  <path d="M82.76,120.29l-1.08.24c-.26-.36-.87-.73-1.08-1.08-.03-.05.03-.17,0-.24-.05-.1-.22-.15-.24-.24-.05-.24-.06-1.7,0-1.92.03-.1.99-1.04.72-1.32-.3-.01-.57.14-.84.24-.97.37-1.87.98-2.88,1.44-.39.38-2.39,1.83-2.52,2.28-.04.15.05.34,0,.48-.03.1-.22.15-.24.24-.06.33-.06,1.35,0,1.68.02.09.22.14.24.24.58,2.36,2.02,4.07,2.88,6.23v2.64c-.36.26-.73.87-1.08,1.08-.41.24-.81.15-1.2.24-.09.02-.15.23-.24.24-.67.1-2.69.1-3.36,0-.09-.01-.15-.22-.24-.24-.22-.05-.52.05-.72,0-.09-.03-.14-.2-.24-.24-.75-.27-1.58-.63-2.04-1.32-.03-.05.04-.18,0-.24-.09-.15-.46-.64-.48-.72-.08-.37.05-.91,0-1.32l1.56.24c.35.35.98.77,1.44.96.13.05.33-.05.48,0,.19.06.32.54.72,0,.85.11,1.64-.28,2.28-.84-.05-.37.07-.86,0-1.2-.02-.08-.6-1.23-.72-1.44-.68-1.18-1.41-1.99-1.92-3.35-.19-.52-.15-1.16-.24-1.68-.02-.09-.23-.15-.24-.24-.04-.29-.04-.9,0-1.2.01-.09.22-.15.24-.24.05-.22-.05-.52,0-.72.11-.41.7-1.07.96-1.44,1.58-2.24,4.09-3.99,6.84-4.67.1-.02.15-.22.24-.24.39-.07,1.77-.07,2.16,0,.09.02.14.21.24.24.14.05.33-.04.48,0,.33.09,1.36,1.48,1.56,1.8-.14.63.39,1.05.24,1.68-.02.09-.21.14-.24.24-.09.33-.14.87-.24,1.2-.06.21-.72,1.24-.96,1.92-.05.14-.37.2-.24.6Z"/>
  <path d="M98.83,116.46c-.49.06-1.1-.08-1.56,0-.09.02-.14.22-.24.24-2.51.62-4.83,2.14-6.36,4.19l-.96,2.16,1.08,1.08c.09-.02.18-.04.24,0,1.64,1.01,4.04,1.79,5.16,3.47.03.05-.04.18,0,.24.09.15.46.64.48.72.05.24.05,1.2,0,1.44-.02.09-.19.14-.24.24-.03.07.03.19,0,.24-.09.15-.68.74-.84.84-.08.05-1.36.7-1.44.72-.2.05-.51-.05-.72,0-.09.02-.15.22-.24.24-.27.06-.67-.05-.96,0-.09.02-.15.23-.24.24-.55.07-1.86.08-2.4,0-.09-.01-.15-.22-.24-.24-.22-.05-.52.05-.72,0-.05-.01-.85-.41-.96-.48-.5-.32-.61-.97-1.08-1.32v-1.56c.27.03.59-.05.84,0,.09.02.14.21.24.24.85.22,1.8.6,2.64.48.09-.01.15-.22.24-.24.29-.05.68.06.96,0,.07-.01,1.1-.42,1.2-.48.2-.12.39-.44.6-.6l-2.76-1.32c-.33-.48-1.09-.69-1.44-.96-.99-.77-1.46-1.69-2.04-2.76v-2.4c.37-.19.17-.52.24-.72.38-1.03,1.4-2.28,2.28-3,1.74-1.42,4.43-2.79,6.72-3.35.1-.02.15-.22.24-.24.4-.07,2.27-.08,2.64,0,.09.02.14.2.24.24.16.06.62.17.72.24.2.13,1.21,1.14,1.32,1.32.03.05-.03.17,0,.24.05.1.22.15.24.24.13.59-.09,1.51,0,2.16l-1.56,1.56c-.08.02-.64-.19-.72-.24-.97-.59-.5-1.87-.6-2.88Z"/>
  <path d="M302.24,116.46c-.5.05-1.08-.07-1.56,0s-1.42.51-1.92.72c-2.19.9-4.02,2.5-5.16,4.43-.35.59-.62.91-.48,1.68.29.22.55.65.84.84,1.27.83,3.52,1.45,4.8,2.4.18.13.74.67.84.84.03.05-.03.17,0,.24.05.1.22.15.24.24.06.29.06,1.87,0,2.16-.02.09-.19.14-.24.24-.03.07.03.19,0,.24-.1.17-.9.96-1.08,1.08-.38.25-1.02.36-1.44.48-.1.03-.15.22-.24.24-.28.06-.67-.05-.96,0-.09.02-.15.23-.24.24-.6.07-2.05.09-2.64,0-.09-.01-.15-.22-.24-.24-.22-.05-.52.05-.72,0-.09-.02-.14-.2-.24-.24-1.56-.57-1.97-1.47-1.8-3.12l1.56.48h3.12l2.04-.72c-.07-.24-.41-.6-.6-.72-.06-.03-.18.04-.24,0-1.05-.62-2.17-1-3.12-1.68-.83-.6-1.36-1.29-2.04-2.04l-.48-2.16c.45-.32.15-.94.24-1.44,0-.04.19-.59.24-.72.29-.78,1.35-2.21,2.04-2.76.05-.04.19.04.24,0,1.95-1.55,4.34-2.88,6.72-3.35.09-.02.15-.23.24-.24.48-.07,1.94-.08,2.4,0,.09.02.14.21.24.24.16.04.35-.05.48,0,.09.04.14.19.24.24.07.03.19-.03.24,0,.59.35.83,1.14,1.32,1.56-.19.47.21.83.24.96.15.62-.38,1.04-.24,1.68l-1.32,1.32c-1.86.16-1.23-1.78-1.32-3.12Z"/>
  <path d="M272.74,131.32c.18-.45-.42-.63-.48-.84-.06-.22-.05-1.4,0-1.68.02-.09.21-.14.24-.24.36-1.25.93-1.97,1.44-3.12.54-1.21,1.1-2.65,1.44-3.83.14-.5.15-.68.24-1.2.02-.11.4-.39.24-.96-.2-.73-1.18-.49-1.56-.6-.49-.14-.73-1.08-.6-1.56.03-.11.37-.32.48-.48.04-.06-.04-.19,0-.24.38-.5.93-.61,1.32-1.08l.96-.24,1.56.48.48,1.08.12,2.04c.16-.26.39-.2.6-.36.96-.73,1.77-1.62,2.76-2.28.26-.17,1.92-1.15,2.16-1.2.53-.12,1.34.08,1.92,0,.21.29.68.56.84.84.03.05-.03.17,0,.24.05.1.2.15.24.24.05.13-.04.32,0,.48.06.2.38.37.24.96-.02.09-.21.14-.24.24-.05.14.04.33,0,.48-.15.52-2.09,1.79-2.76,1.56-.12-.27-.41-.2-.48-.24-.4-.24-.56-.9-1.2-.72-.11.03-.32.37-.48.48-1.13.76-1.71,1.46-2.52,2.52-1.95,2.54-3.02,5.28-4.32,8.15-.16.36-.44,1.21-.84,1.32-.64.18-1.26-.15-1.8-.24Z"/>
  <path d="M427.22,62.54c.45.18.63-.42.84-.48s.5.05.72,0c.09-.02.25-.38.72-.24l1.44.48,1.08,1.56v65.9c-.31.44-.81,1.25-1.32,1.56-.05.03-.17-.03-.24,0-.1.05-.15.22-.24.24-.25.06-1.42.06-1.68,0-.09-.02-.14-.2-.24-.24-.16-.07-.61-.17-.72-.24-.57-.37-.67-1.06-1.08-1.56v-65.42l.72-1.56Z"/>
  <path d="M417.98,62.06c.65.09,1.57-.13,2.16,0,.09.02.14.19.24.24.07.03.19-.03.24,0,.51.3,1.01,1.12,1.32,1.56v65.9c-.31.44-.81,1.25-1.32,1.56-.05.03-.17-.03-.24,0-.1.05-.15.22-.24.24-.2.06-.5-.05-.72,0-.09.02-.25.38-.72.24-.1-.03-.15-.22-.24-.24-.21-.05-.52.06-.72,0-.07-.02-1-.95-1.08-1.08-.03-.05.03-.17,0-.24-.05-.1-.22-.15-.24-.24-.05-.24-.04-.93,0-1.2.2-1.37.31-2.79.24-4.31-.48-10.76-.07-22.08,0-32.83.06-9.5-.04-19.01,0-28.52l1.32-1.08Z"/>
  <path d="M398.79,61.82l1.2.24,1.56,1.56v66.62l-1.32,1.32c-.38-.17-.65.23-.72.24-.75.14-1.22-.31-1.92-.24l-1.32-1.32V63.38c.36-.26.73-.87,1.08-1.08.05-.03.17.03.24,0,.1-.05.15-.22.24-.24.32-.09.74.17.96-.24Z"/>
  <path d="M387.76,62.06c.28-.06,1.64-.06,1.92,0,.09.02.14.2.24.24.16.06.61.17.72.24.15.1.58.75.6.84.21.94-.05,2.94,0,4.07,0,.08.24.16.24.24v62.06c-.36.2-.17.48-.24.72-.02.06-.73.77-.84.84-.05.03-.17-.03-.24,0-.1.05-.15.22-.24.24-.3.07-2.1.07-2.4,0-.09-.02-.14-.19-.24-.24-.07-.03-.19.03-.24,0-.35-.21-.71-.81-1.08-1.08.08-.64-.22-1.48.24-1.92V63.38c.29-.24.24-.61.6-.84.05-.03.17.04.24,0,.15-.09.64-.46.72-.48Z"/>
  <path d="M407.91,62.06c.29-.06,1.87-.06,2.16,0,.09.02.14.19.24.24.07.03.19-.03.24,0,.11.07.82.78.84.84.19.7-.05,2.66,0,3.59,0,.08.24.16.24.24v63.02l-1.32,1.56c-.63-.14-1.06.38-1.68.24-.09-.02-.14-.21-.24-.24-.15-.04-.35.05-.48,0-.09-.04-.14-.19-.24-.24-.07-.03-.19.03-.24,0-.47-.28-.79-.93-1.08-1.32V63.62c.29-.38.61-1.04,1.08-1.32.05-.03.17.03.24,0,.1-.05.15-.22.24-.24Z"/>
  <path d="M438.37,62.06c.27-.06,1.65-.06,1.92,0,.09.02.14.2.24.24.16.06.61.17.72.24.15.1.58.75.6.84.2.89-.05,2.76,0,3.83,0,.08.24.16.24.24v60.15c-.29.38-.61,1.04-1.08,1.32-.05.03-.17-.03-.24,0-.1.05-.15.2-.24.24-.13.05-.33-.04-.48,0-.1.03-.15.22-.24.24-.62.14-1.05-.37-1.68-.24l-1.32-1.32V63.62c.29-.38.61-1.04,1.08-1.32.05-.03.17.03.24,0,.1-.05.15-.22.24-.24Z"/>
</svg>