<?xml version="1.0" encoding="UTF-8"?>
<svg id="Laag_1" xmlns="http://www.w3.org/2000/svg" version="1.1" viewBox="0 0 876 242">
  <!-- Generator: Adobe Illustrator 29.5.1, SVG Export Plug-In . SVG Version: 2.1.0 Build 141)  -->
  <path d="M284,0v63c11.48.22,23.02-.3,34.5,0,.34,0,.66.99,1,1,11.09.31,22.51-.73,33,1,2.95.49,12.81,3.61,16,5,4.05,1.76,7.96,5.42,12,7,30.5,24.03,37.24,64.77,29.5,100.5-1.67,7.68-6.62,18.56-11,26-8.06,13.7-25.37,26.84-40.5,31.5-1.75.54-5.68,1.78-7,2-12.86,2.12-28.3.71-42,1-.34,0-.66.99-1,1-23.81.48-47.69-.36-71.5,0V0h47ZM284,201h42.5c.33,0,.63-.95,1-1,3.25-.41,6.85-.11,10-1,2.79-.79,7.12-3.23,10-5,4.27-2.62,9.55-8.04,11.5-12.5.24-.55-.23-1.42,0-2s1.87-2.54,2-3c.63-2.31.58-5.63,1-8,.07-.38.95-.63,1-1,.78-6.29.78-23.71,0-30-.12-.98-1.7-4.79-2-6-.4-1.61-.39-4.34-1-6-2.17-5.91-9.1-14.42-14.5-17.5-3.96-2.26-8.78-3.12-13-4-2.1-.44-3.6-.64-6-1-.38-.06-.67-1-1-1h-41.5v99Z"/>
  <path d="M0,174l2-4.5c.56-5.26,3.02-10.15,6-15,5.14-8.36,14.61-14.26,23.5-17.5,15.88-5.78,35.77-3.61,54-4,.34,0,.66-.99,1-1,14.82-.3,29.69.22,44.5,0-.23-2.73.33-5.84,0-8.5-.05-.37-.93-.62-1-1-.39-2.18-.19-4.82-1-7-.23-.63-1.55-2.24-2-3-.16-.26.14-.79,0-1-2.34-3.52-7.15-6.13-10.5-8.5-5.18-1.75-10.28-1.47-16-2-.36-.03-.67-1-1-1H11v-37c20.81.24,41.68-.32,62.5,0,.34,0,.66.99,1,1,16.36.26,33.3-.65,49,1,5.57.59,7.83.67,13,2,19.24,4.94,34.77,19.37,39.5,38.5.1.4.93.62,1,1,1.21,6.83.2,14.59,2,21v111.5H54.5c-6.47-1.89-14.12-.57-21-2-1.69-.35-4.43-2.34-6-3-.57-.24-1.44.24-2,0-1.31-.57-5.75-3.17-7-4-7.58-5.03-14.91-17.22-16.5-25.5l-2-4.5v-26ZM131,168h-66.5c-.33,0-.61.92-1,1-1.9.38-4.07.5-6,1-3.8,2.1-5.83,4.31-7.5,8.5-.17.43-.92.63-1,1-.26,1.15.22,2.78,0,4-.07.38-.94.63-1,1-.18,1.23-.18,3.77,0,5,.06.37.92.61,1,1,.38,1.89.49,4.08,1,6,1.52,1.1,3.05,3.63,4.5,4.5.22.13.69-.14,1,0,.43.2.64.92,1,1,1.15.26,2.77-.22,4,0,.39.07.67,1,1,1h69.5v-35Z"/>
  <path d="M728,242c-1.31.62-27.69.62-29,0-1.54-.72-4.58-1.63-6.5-2-29.2-5.64-51.43-19.59-64.5-47.5-.2-.43.13-1.45-1-2-7.57-20.79-9.58-48.62-3-70,1.39-4.52,4.06-9.82,6-14,9.94-21.45,32.61-38.19,55.5-43.5,3.33-.77,6.51-.56,10-1,.37-.05.64-.97,1-1,10.03-.91,30.87-.79,40,1,1.37.27,4.55,1.63,6,2,3.83.98,7.14,2.19,11,3,43.65,17.63,59.63,64,50.5,106.5-7.04,32.78-26.37,54.88-58.5,64.5-5.28,1.58-13.22,1.99-17.5,4ZM703.5,99c-.37.05-.61.91-1,1-.91.2-2.17-.23-3,0-1.76.48-6.04,2.97-8,4-8.65,4.53-14.26,12.52-18.5,21.5-5.1,15.5-4.94,31.63-1,47,1.25,4.88,2.9,8.58,5,13,8.85,13.66,26.3,20.5,42.5,18.5.37-.05.62-.93,1-1,1.22-.22,2.86.26,4,0,.39-.09.61-.91,1-1,.89-.21,2.16.23,3,0,1.2-.33,2.92-1.4,5-2,.24-.07,3.12-2.4,4-3,6.32-4.27,12.63-11.26,15.5-18.5,1.78-4.5,2.2-9.49,3-14,1.25-7.05,1.8-17.3,1-25-.04-.36-.94-.62-1-1-.63-4.2-.66-8.02-2-12-4.33-8.63-8.48-16.13-16.5-21.5-3.97-2.66-9.78-4.16-14-5-.39-.08-.63-.95-1-1-3.56-.52-15.44-.52-19,0Z"/>
  <polygon points="854 0 854 22 876 22 876 41 854 41 854 62.5 852.5 64 836.5 64 835 62.5 835 41 812 41 812 22 835 22 835 0 854 0"/>
  <path d="M589,137h-45c-.15-1.78.23-3.77,0-5.5-.05-.37-.97-.64-1-1-.76-7.95.56-16.92,0-25-.08-.37-.83-.57-1-1-.63-1.58-1.01-3.55-2.5-4.5-.22-.14-.73.15-1,0-.65-.36-2.66-1.93-3-2-1.42-.31-3.45.23-5,0-.38-.06-.67-1-1-1h-21.5v142h-48V64.5l1.5-1.5h82c5.43,1.77,12.12.8,18,2,.53.11,5.01,1.61,6,2,6.76,2.68,14.76,9.69,17.5,16.5.42,1.04.68,3.74,1,5,.1.4.92.62,1,1,.24,1.18-.22,2.78,0,4,1.27,7.16.72,14.32,1,22,.01.34.99.66,1,1,.25,6.81-.18,13.69,0,20.5Z"/>
</svg>