<?xml version="1.0" encoding="UTF-8"?>
<svg id="Laag_1" xmlns="http://www.w3.org/2000/svg" version="1.1" viewBox="0 0 378 152">
  <!-- Generator: Adobe Illustrator 29.5.1, SVG Export Plug-In . SVG Version: 2.1.0 Build 141)  -->
  <path d="M227,95v-41h21.5c.44,0,5.96,2.59,6.84,3.16,11.76,7.64,11.7,26.98,0,34.68-.87.57-6.4,3.16-6.84,3.16h-21.5ZM232,90h14.5c.63,0,5-2.47,5.86-3.14,7.98-6.27,7.92-20.33-1.01-25.71-.66-.4-4.58-2.15-4.85-2.15h-14.5v31Z"/>
  <path d="M104.5,54c8.9,1.98,10.93,18.01,1.5,21.5l14,20.49c-12.8,1.96-11.77-19.76-25-18.99v17.5l-6,1.5v-42c4.5.67,11.38-.91,15.5,0ZM95,72c15.16,2.42,15.17-15.72,0-13.01v13.01Z"/>
  <path d="M315.91,53.1l18.07,41.41-5.83,1.33-5.31-12.67-17.94.45-5.05,12.21-4.2.03-1.22-1.9,16.34-38.69c.84-2.29,2.92-2.71,5.15-2.17ZM320,77.99l-6.98-14.99-5.01,14.99h11.99Z"/>
  <path d="M59.91,53.1l18.07,41.41-5.83,1.33-5.31-12.67-17.94.45-5.05,12.21-4.2.03-1.22-1.9,16.34-38.69c.84-2.29,2.92-2.71,5.15-2.17ZM64,77.99l-6.98-14.99-5.01,14.99h11.99Z"/>
  <path d="M197.88,53.14l18.12,42.85-5.84-.16-5.32-12.67-17.94.45c-2.84,4.96-2.33,14.18-9.89,12.38-1.62-1.59,14.33-35.57,15.76-40.73.84-2.25,2.9-2.77,5.11-2.13ZM202,77.99c-.16-1.53-5.89-15.86-6.98-14.99l-5.01,14.99h11.99Z"/>
  <path d="M164.86,56.14l.14,5.85c-11.51-6.35-30.08-3.11-30.07,12.5,0,16.88,19.55,19.29,31.07,11.5l-.13,6.86c-48.17,19.02-49.06-54.62-1-36.72Z"/>
  <rect x="278" y="54" width="5" height="42"/>
</svg>