<?xml version="1.0" encoding="UTF-8"?>
<svg id="Laag_1" xmlns="http://www.w3.org/2000/svg" version="1.1" viewBox="0 0 556 195">
  <!-- Generator: Adobe Illustrator 29.5.1, SVG Export Plug-In . SVG Version: 2.1.0 Build 141)  -->
  <path d="M100,83c-.55-1.6.93-2.11,1-2.5,2.27-12.95,5.49-25.43,8-38,.21-1.03-.13-2.38,0-3.5h22l7,22.5,2.5,4.5c1.21-2.1,3.17-3.75,4.5-5.5,4.06-5.38,8.04-11.54,12-17,1.13-1.55,3.44-2.34,3-4.5h23c-.37,1.01-.77,1.21-1,2.5-2.25,12.89-5.48,25.38-8,38-.21,1.03.13,2.38,0,3.5h-14c.13-1.12-.21-2.48,0-3.5,1.27-6.18,3.68-12.38,4-19l2-7.5-8,10.5c-4.73,4.58-8.18,10.07-12,15-1.19,1.54-3.41,2.37-3,4.5h-12c.53-1.65-.79-1.91-1-2.5-2.92-8.04-5.35-15.73-8-24l-2-3.5-2,13.5c-2.23,4.13-2.15,9.27-3,14-.07.4-1.55.89-1,2.5h-14Z"/>
  <path d="M346,112h-14v-2.5l-1.5-1.5h-23.5l-1,3.5,1.5,2.5c7.53.4,15.54-.55,23,0,.36.03.64.97,1,1,2.44.23,5.9-.47,8,0,.36.08.57.8,1,1,.31.14.78-.13,1,0,.47.28,2.22,2.03,2.5,2.5.13.22-.14.69,0,1,.2.43.92.64,1,1,.18.81.16,3.14,0,4-.07.38-.91.61-1,1-.4,1.8-.48,4.13-1,6-.16.39-.81.59-1,1-.14.31.13.78,0,1-.41.69-3.76,4.01-4.5,4.5-2.77,1.84-5.13,1.5-8,2-.38.07-.63.95-1,1-5.8.72-28.66.95-34,0-.37-.07-.59-.87-1-1-.59-.19-1.37.18-2,0-.24-.07-3.43-3.26-3.5-3.5-.61-2.22.44-6.43,0-9l1.5-1.5h13.5l-1,1.5,2.5,2.5c6.34-.78,15.01,1.07,21,0,.37-.07.59-.87,1-1,.59-.19,1.37.18,2,0,1.7-.49,1.64-3.37,1.5-5-4.47-.18-9.03.25-13.5,0-.35-.02-.65-.98-1-1-5.07-.24-13.72.92-18,0-.93-.2-2.97-2.57-4.5-2,.55-1.61-.93-2.11-1-2.5-.34-1.91-.29-8,0-10,.04-.3,1.83-2.15,1-4,1.63-1.13,3.73-5.99,5.5-6.5.63-.18,1.41.19,2,0,.41-.13.63-.92,1-1,1.18-.24,2.78.22,4,0,.38-.07.63-.95,1-1,6.17-.76,26-.88,32,0,.37.05.6.91,1,1,.89.21,2.16-.23,3,0,1.36.38,3.66,4.44,4.5,5.5l-1,9.5Z"/>
  <path d="M456,83l9-44h22c-.59,1.95,1.35,2.33,2,3.5,4.09,7.39,7.78,14.69,12,22,.92,1.6,3.34,3.06,3,5.5l2-3.5c.36-8.39,3.44-16.18,5-24,.21-1.03-.13-2.38,0-3.5h14c-.13,1.12.21,2.48,0,3.5-2.03,9.88-4.94,20.1-7,30-.46,2.22-.35,5.81-1,8-.16.52-1.54.86-1,2.5h-22l-17-30c-1.89-.2-.76,2.23-1,3.5-1.5,7.89-3.5,15.7-5,24-.07.4-1.55.89-1,2.5h-14Z"/>
  <path d="M130,137c-.19.19-1.03-.26-1.5,0-.69.38-1.49,1.85-2,2-13,3.73-28.69,1.31-43,2l-4-1-4.5-4.5c-.36-2.7-1.47-4.86-1-8,.06-.37.94-.62,1-1,1.11-7.29,1.54-12.21,4-19,1.61-4.46,3.34-7.46,7.5-9.5,2.27-.78,4.62-.58,7-1,.38-.07.63-.95,1-1,6.51-.8,27.67-.93,34,0,.3.04,2.15,1.83,4,1,1.36,1.18,3.42,1.69,4.5,3.5.13.22-.14.69,0,1,.2.43.92.64,1,1,.35,1.55.22,7.19,0,9-.05.37-.93.62-1,1-1.17,6.59-1.74,15.08-5,21-.38.69-1.61,1.31-2,2-.26.47.19,1.31,0,1.5ZM108.5,107c-.36.03-.64.97-1,1-4.33.33-13.04-1.37-15.5,2.5-.13.2.15.68,0,1-.2.43-.9.63-1,1-.63,2.29-.58,5.64-1,8-.07.38-.95.63-1,1-.24,1.89.16,4.05,0,6,.66.72,2.99,2.39,3.5,2.5,2.56.57,18.02.44,21,0,.3-.04,2.15-1.83,4-1,.65-.88,2-1.66,2.5-2.5.13-.22-.14-.69,0-1,.19-.43.9-.63,1-1,.52-1.88,1.8-6.65,2-8,.43-2.94.84-8.03-2.5-8.5-3.94-.55-7.65-1.41-12-1Z"/>
  <path d="M456,141l9-45h43.5c.92,1.69,2.65.63,4,1,.24.07,3.22,3.03,3.5,3.5.13.22-.14.69,0,1,.2.43.92.64,1,1,.22.99.16,3.89,0,5-.06.37-.94.62-1,1-.24,1.55.27,3.49,0,5-.07.37-.88.59-1,1-.18.65.22,1.46,0,2-.16.39-.81.59-1,1-.67,1.45-.88,2.27-2.5,3.5-.2.15-.76-.17-1,0-1.16.8-1.57,2.49-3.5,2l4,3.5c-.28,3.21.39,6.88,0,10-.05.37-.92.61-1,1-.21,1.03.13,2.38,0,3.5h-14l1-9.5c-1.03-1.9-2.39-1.15-3.5-1.5-.41-.13-.63-.93-1-1-5.85-1.04-14.32.77-20.5,0l-2,12h-14ZM475,118h21.5c.32,0,.58-.86,1-1,.59-.19,1.37.18,2,0,1.77-.5,3-5.68,2.5-7.5l-1.5-1.5h-24.5c.53,3.68-1.53,6.32-1,10Z"/>
  <path d="M201,141c-.55-1.6.93-2.11,1-2.5,2.27-12.98,5.07-25.43,8-38,.38-1.63-.69-3.24,1.5-4.5h43c.79,1.53,2.21.68,3,1,.39.16.59.81,1,1,.31.15.8-.13,1,0,2.96,1.89,2.95,8.89,2.5,12.5-.05.37-.93.62-1,1-.22,1.23.26,2.85,0,4-.03.12-.88,1.8-1,2-1.45,2.44-5.09,4.27-7,6,.62,1.59,2.87,1.37,3,1.5.17.17-.22.96,0,1.5.18.43.94.65,1,1,.24,1.36.18,4.55,0,6-.1.79-.71,3.4-1,5-.07.4-1.55.89-1,2.5h-14l2-8.5-1-2.5c-1.12-.13-2.47.21-3.5,0-.39-.08-.63-.95-1-1-5.86-.74-12.97.54-19,0l-1.5,1.5c-.16,1.27.24,2.84,0,4-.16.76-.73,3.08-1,4-.16.52-1.54.86-1,2.5h-14ZM220,118h21.5c.17,0,1.51-1.72,3-1,2.05-1.71,4.23-4.85,3.5-7.5-.05-.17-1.39-1.5-1.5-1.5h-24.5l-2,10Z"/>
  <path d="M257.5,72l-1.5,1.5c-.16,1.27.24,2.84,0,4-.08.38-.91.61-1,1-.38,1.63.69,3.24-1.5,4.5h-13.5c1.6-1.83.63-3.68,1-5.5,2.21-10.76,6.29-23.29,8-34,.22-1.38-.15-3.05,0-4.5h46.5l5.5,4.5c-.32,3.17.45,6.96,0,10-.05.37-.92.61-1,1-.38,1.9-.5,4.07-1,6l-7,6,4,3c-.19,2.26.27,4.8,0,7-.05.37-.93.62-1,1-.38,2.07.85,4.08-1.5,5.5h-13.5c1.42-1.6.66-3.04,1-4.5.15-.63,1.65-1.63,1-4-.05-.17-2.32-2.5-2.5-2.5h-22ZM259,60h24.5c3.39-3.01,5.39-6.9,1-10h-23.5l-2,10Z"/>
  <path d="M458,96l-2,12h-35l-1,6h32c.55,3.39-.78,5.96-1,9h-33l-1,7h35l-2,11h-49c.15-1.44-.22-3.13,0-4.5,1.05-6.48,3.64-13.56,5-20,1.19-5.64,1.4-12.63,3-18,.16-.52,1.54-.86,1-2.5h48Z"/>
  <path d="M240,39l-2,11h-35l-1,7h32c.61,3.4-1.34,5.74-1,9h-33l-1,6h35l-2,11h-49c.15-1.44-.22-3.13,0-4.5.09-.56.7-2.59,1-4,2.05-9.71,5.24-20.4,7-30,.23-1.25-.41-5.5,1.5-5.5h47.5Z"/>
  <path d="M387,66c.76,1.82-.86,2.95-1,3.5-.22.88.23,2.16,0,3-.09.33-2.61,5.4-3,6-1.54,2.4-4.41,2.79-6.5,4.5h-40c-.82-1.5-2.02-.72-3-1-.24-.07-3.22-3.03-3.5-3.5-.13-.22.14-.69,0-1-.2-.43-.92-.64-1-1-.37-1.66-.24-8.05,0-10,.05-.37.93-.62,1-1,.98-5.53,1.44-10.74,3-16l7.5-8.5c1.93-.5,4.1-.62,6-1,.39-.08.63-.95,1-1,10.71-1.57,24.88,1.16,36,0l4.5,2c-.55,1.61.93,2.11,1,2.5.59,3.35-.42,7.96,0,11.5h-14c.51-2.5-.79-3.44-2.5-5h-22c-1.01,1.2-2.55,1.01-3.5,2.5-.13.2.15.68,0,1-.19.41-.84.61-1,1-.22.56.21,1.38,0,2-.33.99-1.9,4.3-2,5-.42,2.9.3,6.5,0,9.5,1.6-.55,2.11.93,2.5,1,6.34,1.08,15.32-.8,22,0,2.72-1.41,4.34-3.03,4.5-6h14Z"/>
  <path d="M160,96c-.16,1.77.23,3.78,0,5.5-.85,6.3-4.05,13.61-5,20-.41,2.77.33,4.93,1,7.5,1.75-.78,3.18.95,3.5,1,3.13.45,12.88.46,16,0,.3-.04,2.15-1.83,4-1,.65-.88,2-1.66,2.5-2.5.13-.22-.14-.69,0-1,.19-.43.9-.63,1-1,.23-.83-.21-2.11,0-3,1.62-6.87,3.4-14.13,5-21,.38-1.63-.69-3.24,1.5-4.5h12.5c-.15,1.44.22,3.13,0,4.5-1.09,6.72-3.49,14.31-5,21-.76,3.37-1.06,6.71-2,10-.13.47-1.54,1.32-2,2-.16.24.15.79,0,1-.59.81-2.71,2.98-3.5,3.5-.21.14-.74-.16-1,0-.68.4-2.57,1.88-3,2-.83.23-2.09-.2-3,0-.39.09-.63.95-1,1-5.01.73-28.26.85-33,0-.29-.05-1.43-1.7-3-1l-4.5-4.5c.57-2.64-1.61-4.4-1-7,.09-.4.95-.63,1-1,.54-3.69.32-7.38,1-11,.9-4.82,3.03-10.29,4-15,.42-2.01-.89-4.09,1.5-5.5h12.5Z"/>
  <path d="M387,83c-.49-1.93,1.21-2.34,2-3.5,8.25-12.06,17.43-24.2,26-36,1.13-1.55,3.44-2.34,3-4.5h19l14,44h-15l-2-7h-28c-.29,2.41-2.63,5.11-4.5,7h-14.5ZM430,66l-1-5.5-3.5-9.5c-1.68,2.09-3.95,4.42-5.5,6.5-.86,1.15-2.16,3.77-3,5-.79,1.16-2.49,1.57-2,3.5h15Z"/>
  <path d="M31,83l32.5-44h18.5l14,44h-14.5c-1.44,0-1.3-2.89-1.5-3.5-.22-.66-1.7-1.57-1-3.5h-27.5l-5,7h-15.5ZM59,66h16c.53-1.65-.8-1.92-1-2.5-1.22-3.5-1.82-7.44-3-11-.44-1.32.8-1.83-2-1.5.48,1.92-1.18,2.34-2,3.5-1.99,2.81-4.03,6.17-6,9-.57.83-1.94,1.39-2,2.5Z"/>
  <path d="M79,96c.76,1.82-.86,2.95-1,3.5-.34,1.37-.74,2.88-1,4-.38,1.62.69,3.24-1.5,4.5h-18.5c-.15,1.45.22,3.12,0,4.5-1.28,8.01-4.39,16.92-6,25-.21,1.03.13,2.38,0,3.5h-14c.13-1.12-.21-2.48,0-3.5,1.66-8.08,4.68-16.84,6-25,.22-1.37-.15-3.06,0-4.5h-18c.11-.8-.19-1.83,0-2.5.3-1.09,1.76-3.97,2-5,.22-.95-.22-4.5,1.5-4.5h50.5Z"/>
  <path d="M404,96l-2,12h-18.5l-1.5,1.5c-.15,1.28.22,2.81,0,4-1.41,7.68-3.93,17.35-6,25-.18.68.1,1.69,0,2.5h-14c-.78-1.78.93-3.1,1-3.5,1.67-9.15,3.4-17.86,5-27,.23-1.29.64-1.49,1-2.5h-17.5c-.27,0-.99-1.17-1.5-1.5,1.65-.98.7-2.55,1-4,.08-.39.92-.61,1-1,.25-1.2-.43-5.5,1.5-5.5h50.5Z"/>
  <rect x="351" y="165" width="174" height="5"/>
  <rect x="25" y="165" width="173" height="5"/>
  <polygon points="287 96 278 141 264 141 273 96 287 96"/>
  <path d="M326,39c-.13,1.12.21,2.48,0,3.5-2.03,9.88-4.94,20.1-7,30-.46,2.22-.35,5.81-1,8-.16.52-1.54.86-1,2.5h-14c-.55-1.62.89-2.05,1-2.5,2.91-12.47,5.53-25.63,8-38,.21-1.03-.13-2.38,0-3.5h14Z"/>
  <path d="M231,156c3.01,2.45,6.53,5.54,9,8.5.16.19-.17.79,0,1,.5.61,2,2.24,2.5,2.5,1.95,1,1.48-1.66,1.5-2.5.05-2.5-.03-5.01,0-7.5h4v21l-12.5-12-.5,10h-4v-21Z"/>
  <path d="M315,176l-1-6h4l1,2.5c2.88,1.86,5.39-4.9,0-3.5v-4l3-2.5c-1.99-2.85-2.48.09-4,1-1.34.81-2.58.47-4,.5v-2.5c2.39-5.17,7.9-6.13,12-2l1,4-2,3c3.95,3.01,1.76,7.78-1.5,10.5-1.9-.22-4.22.31-6,0-.39-.07-.89-1.55-2.5-1Z"/>
  <path d="M221,159l1,3-3.5,2c-1.22-1.88-5.06-3.81-4.5,0l5.5,2c4.17,2.93,3.2,8.5-1,11-.3.18-1.49-.13-2,1l-6.5-2c-.18-2.37-2.43-3.93.5-6l6.5,3c.2-1.74.09-2.99-1.5-4-.44-.28-2.57-.72-3-1-2.96-1.9-2.67-4.24-2.5-7.5l4.5-3.5,6.5,2Z"/>
  <path d="M329,170h4l1,2.5c2.88,1.86,5.39-4.9,0-3.5v-4c4.1-.09,3.84-4.03,0-4,.21,3.1-2.25,3.27-5,3-.89-4.91,3.81-8.29,8.5-7,.24.07,3.43,3.26,3.5,3.5.4,1.46.27,5.13-1,6l2,3-1,5c-3.35,3.49-8.65,3.49-12,0v-4.5Z"/>
  <path d="M304,170c-4.18-.58-5.7-4.35-5-8.5l4.5-4.5h5c2.63,2.38,4.99,4.82,4.5,8.5l-8.5,11.5c-1.19.36-3.18-.41-3.5-1.5-.54-1.8,3.82-3.32,3-5.5ZM308,162l-4,.5v3.5h4v-4Z"/>
  <path d="M265,158v6c-3.99-3.46-7.91-2.69-11,1.5-.69,3.8.86,5.17,3.5,7.5,3,.47,4.99-.58,7.5-2v4.5l-4.5,2.5h-2c-.79-1.53-2.21-.68-3-1-.39-.16-.59-.81-1-1-.31-.14-.78.13-1,0-4.15-2.47-3.62-8.06-3.5-12.5,1.49-.72,1.62-2.4,2-3,.46-.72,2.74-2.2,3.5-2.5.54-.22,1.35.19,2,0,.4-.12.62-.91,1-1,2.54-.59,4.06,1.4,6.5,1Z"/>
  <path d="M268,158h11v4h-7c-.09,4.11,3.99,2.9,7,3v4h-7v4h7v4h-11v-19Z"/>
  <path d="M297,157v20h-5v-15h-3c-.57-.57,1.46-4.34,2.5-5h5.5Z"/>
  <rect x="224" y="158" width="4" height="19"/>
</svg>