<?xml version="1.0" encoding="UTF-8"?>
<svg id="Laag_1" xmlns="http://www.w3.org/2000/svg" version="1.1" viewBox="0 0 164.25 63">
  <!-- Generator: Adobe Illustrator 29.5.1, SVG Export Plug-In . SVG Version: 2.1.0 Build 141)  -->
  <path d="M7.09,17.05h148.57l1.12,1.11v26.68l-1.12,1.11H7.09l-1.12-1.11v-26.68l1.12-1.11ZM7.84,17.79l-1.12,1.11v25.2l1.12,1.11h147.08l1.12-1.11v-25.2l-1.12-1.11H7.84Z"/>
  <path d="M23.52,21.49c.27.06.43.62.75.74.93.37,3.1.96,3.36,1.85.21.73-.37,1.61.75,2.22l-2.99,3.71,3.73,3.71c-.13.93.19,2.12,0,2.96-.06.26-.6.42-.75.74-.11.23.1.58,0,.74-.21.35-1.52,1.65-1.87,1.85-.16.09-.52-.1-.75,0-.32.15-.48.68-.75.74-2.99.67-8-.56-11.2,0-.68.12-1.84,1.92-3.36-.37l2.99-1.11v-15.19l-2.99-1.11,1.12-1.48c3.47.51,8.77-.7,11.95,0ZM17.92,29.65c3.71.43,5.77-.07,5.97-4.08-1.59-1.87-3.46-2.92-5.97-2.59v6.67ZM17.92,39.28c1.11-.41,1.74.75,1.87.74s1.13-1.27,2.24-.74c1.9-.05,2.98-3.22,2.61-4.82-.07-.31-1.41-2.31-1.87-2.59-.15-.09-.51.11-.75,0-.32-.15-.48-.68-.75-.74-.95-.21-2.31.14-3.36,0v8.15Z"/>
  <path d="M103.4,21.49c.7.15,2.22,1.9,3.36,1.48l.75,4.82-2.99,2.59c2.88.4,4.78,3.72,4.48,6.3-.88,1.01-1.26,2.54-2.61,3.34-.16.09-.52-.1-.75,0-.32.15-.48.68-.75.74-2.99.67-8-.56-11.2,0-.68.12-1.84,1.92-3.36-.37l2.99-1.11v-15.19l-2.99-1.11,1.12-1.48c3.49.5,8.74-.69,11.95,0ZM97.8,29.65h4.11l1.12-1.11v-3.71c-1.37-1.47-3.14-2.1-5.23-1.85v6.67ZM97.8,39.28c1.11-.41,1.74.75,1.87.74s1.13-1.27,2.24-.74c1.9-.05,2.98-3.22,2.61-4.82-.07-.31-1.41-2.31-1.87-2.59-.15-.09-.51.11-.75,0-.32-.15-.48-.68-.75-.74-.95-.21-2.31.14-3.36,0v8.15Z"/>
  <path d="M150.06,22.98v4.45c-1.94.4-1.82-1.2-2.24-1.85-.83-1.29-4.64-2.85-6.35-2.59-1.19.88-3.23,1.88-4.11,3.34-.1.16.11.51,0,.74-.15.32-.69.48-.75.74-.21.94-.21,6.47,0,7.41.06.26.6.42.75.74.11.23-.1.58,0,.74,1.34,2.24,4.54,3.8,7.09,3.34,2.14-.86,2.8-5.94.75-6.67-1.07-.38-2.29.87-1.87-1.48h8.96l-2.24,2.59v5.19l-1.12,1.11c-1.38-.62-2.76.71-2.99.74-1.37.2-5.41.23-6.72,0-.28-.05-.44-.65-.75-.74-.48-.14-1.09.16-1.49,0-.29-.12-.44-.6-.75-.74-.23-.11-.58.1-.75,0-.41-.24-2.37-2.19-2.61-2.59-.1-.16.11-.51,0-.74-.14-.31-.63-.45-.75-.74-.16-.4.14-1,0-1.48-.09-.3-.7-.47-.75-.74-.15-.85-.18-3.66,0-4.45.06-.27.62-.43.75-.74.85-2.13,2.08-4.23,4.11-5.56.16-.11.55.12.75,0,.48-.28,2-1.43,2.24-1.48,1-.21,6.47-.21,7.47,0,.7.15,2.22,1.9,3.36,1.48Z"/>
  <path d="M70.18,22.98v4.45l-4.11-3.71c-1.65.15-2.63-1.17-4.48-.74-.27.06-.42.6-.75.74-.23.1-.59-.09-.75,0-.35.21-2.56,2.42-2.61,2.59-.13.46.14,1.04,0,1.48-.1.31-.7.47-.75.74-.19,1.08-.22,5.68,0,6.67.06.26.6.42.75.74.11.23-.1.58,0,.74,1.34,2.24,4.54,3.8,7.09,3.34,2.14-.86,2.8-5.94.75-6.67-1.07-.38-2.29.87-1.87-1.48h8.96l-2.24,2.59v5.19l-1.12,1.11c-1.38-.62-2.76.71-2.99.74-1.37.2-5.41.23-6.72,0-.28-.05-.44-.65-.75-.74-.48-.14-1.09.16-1.49,0-.29-.12-.44-.6-.75-.74-.23-.11-.58.1-.75,0-1.46-.87-2.47-2.89-3.36-4.08-.23-1.96-1.16-3.65-.75-5.93.05-.27.66-.44.75-.74.14-.48-.16-1.08,0-1.48.12-.29.6-.44.75-.74.11-.23-.1-.58,0-.74.31-.51,2.81-2.97,3.36-3.34.16-.11.55.12.75,0,.48-.28,2-1.43,2.24-1.48,1-.21,6.47-.21,7.47,0,.7.15,2.22,1.9,3.36,1.48Z"/>
  <path d="M130.65,40.76h-9.71l2.24-1.85-1.49-4.82h-4.85c-1.69,1.37-1.63,3.39-2.61,5.19h1.12l1.87,1.48h-7.47c.35-1.57,2.19-1.35,2.99-2.59.1-.15-.11-.51,0-.74,1.85-3.96,3.68-8.47,5.23-12.6.41-1.1.96-2.09.75-3.34.87-.05,1.44-.13,2.24.37,1.2.75.51,1.7.75,2.22,2.07,4.58,4.53,9.1,5.97,14.08.3,1.04,2.84,1.1,2.99,2.59ZM120.95,32.61l-1.87-5.19c-1.1.72-1.19,1.84-1.49,2.96-.18.67-.62,1.32-.37,2.22h3.73Z"/>
  <path d="M50.77,40.76h-9.71l1.87-1.48h1.12c.23-.19-1.28-2.12-1.49-2.59-.17-.38.14-1,0-1.48-.48-1.65-4.01-1.02-5.6-1.11l-1.87,2.59c.11.7-.17,1.62,0,2.22.34,1.24,2.46.65,2.24,1.85h-7.47l1.87-1.48h1.12c-.57-1.74,1.05-2.86,1.49-4.08,1.29-3.57,2.29-7.83,3.73-11.12.34-.77,1.21-1.97,1.87-2.59,1.37-.45,2.54,2.57,2.61,3.34,1.15.58.51,1.67.75,2.22,1.67,3.91,3.29,7,4.48,11.12.3,1.04,2.84,1.1,2.99,2.59ZM41.06,32.61l-.75-2.59-1.49-2.59-1.49,5.19h3.73Z"/>
  <path d="M78.39,37.8h7.47l1.12-2.22.37,4.82-2.61,1.11c-.93-1.45-1.12,0-1.49,0-.24,0-.44-.65-.75-.74-1.2-.34-1.59.82-4.48,0-.77-.22-2,1.3-3.36.74-.22-1.33,0-1.63.75-2.59,1.9-2.45,4.43-4.83,5.97-7.41,1.11-1.86,2.15-3.55,1.49-5.93-.04-.13-1.74-1.82-1.87-1.85-3-.83-3.68,1.97-5.23,3.71-.65-.16-.49-2.16-.37-2.59.05-.18,2.26-2.39,2.61-2.59.16-.09.52.1.75,0,.32-.15.48-.68.75-.74.65-.14,3.08-.14,3.73,0,.27.06.42.59.75.74.23.1.59-.09.75,0,1.89,1.12,1.56,2.76,2.61,4.08v.74c-1.12.61-.54,1.5-.75,2.22-.12.4-1.74,1.58-2.24,2.22-.12.16.12.59,0,.74-1.87,2.33-4.4,3.23-5.97,5.56Z"/>
  <path d="M153.8,44.47c-.08-1.38,1.15-2.1.75-3.71h.75v2.59l-1.49,1.11Z"/>
  <rect x="62.71" y="18.53" width="2.24" height=".74"/>
  <rect x="7.47" y="35.58" width=".75" height="2.22"/>
  <rect x="124.68" y="43.73" width="2.24" height=".74"/>
  <rect x="120.95" y="43.73" width="2.24" height=".74"/>
  <rect x="117.21" y="43.73" width="2.24" height=".74"/>
  <rect x="113.48" y="43.73" width="2.24" height=".74"/>
  <rect x="80.63" y="43.73" width="2.24" height=".74"/>
  <rect x="76.9" y="43.73" width="2.24" height=".74"/>
  <rect x="73.17" y="43.73" width="2.24" height=".74"/>
  <rect x="95.56" y="18.53" width="2.24" height=".74"/>
  <rect x="99.3" y="18.53" width="2.24" height=".74"/>
  <rect x="103.03" y="18.53" width="2.24" height=".74"/>
  <rect x="106.76" y="18.53" width="2.24" height=".74"/>
  <rect x="69.43" y="43.73" width="2.24" height=".74"/>
  <rect x="40.32" y="43.73" width="2.24" height=".74"/>
  <rect x="36.58" y="43.73" width="2.24" height=".74"/>
  <rect x="32.85" y="43.73" width="2.24" height=".74"/>
  <rect x="29.12" y="43.73" width="2.24" height=".74"/>
  <rect x="25.38" y="43.73" width="2.24" height=".74"/>
  <polygon points="8.96 42.99 8.96 44.47 8.59 44.47 7.47 42.99 8.96 42.99"/>
  <rect x="55.25" y="18.53" width="2.24" height=".74"/>
  <rect x="139.61" y="18.53" width="2.24" height=".74"/>
  <rect x="143.35" y="18.53" width="2.24" height=".74"/>
  <rect x="147.08" y="18.53" width="2.24" height=".74"/>
  <rect x="150.81" y="18.53" width="2.24" height=".74"/>
  <rect x="7.47" y="39.28" width=".75" height="2.22"/>
  <rect x="154.54" y="37.06" width=".75" height="2.22"/>
  <rect x="11.2" y="18.53" width="2.24" height=".74"/>
  <rect x="154.54" y="33.35" width=".75" height="2.22"/>
  <rect x="14.93" y="18.53" width="2.24" height=".74"/>
  <rect x="18.66" y="18.53" width="2.24" height=".74"/>
  <rect x="154.54" y="22.24" width=".75" height="2.22"/>
  <rect x="7.47" y="31.87" width=".75" height="2.22"/>
  <rect x="22.4" y="18.53" width="2.24" height=".74"/>
  <rect x="7.47" y="24.46" width=".75" height="2.22"/>
  <rect x="154.54" y="25.94" width=".75" height="2.22"/>
  <rect x="58.98" y="18.53" width="2.24" height=".74"/>
  <rect x="154.54" y="29.65" width=".75" height="2.22"/>
  <rect x="7.47" y="28.16" width=".75" height="2.22"/>
  <rect x="52.26" y="18.53" width="1.49" height=".74"/>
  <rect x="26.13" y="18.53" width="1.49" height=".74"/>
  <rect x="29.86" y="18.53" width="1.49" height=".74"/>
  <rect x="33.6" y="18.53" width="1.49" height=".74"/>
  <rect x="37.33" y="18.53" width="1.49" height=".74"/>
  <rect x="41.06" y="18.53" width="1.49" height=".74"/>
  <rect x="44.8" y="18.53" width="1.49" height=".74"/>
  <rect x="66.45" y="18.53" width="1.49" height=".74"/>
  <rect x="48.53" y="18.53" width="1.49" height=".74"/>
  <rect x="7.47" y="21.49" width=".75" height="1.48"/>
  <rect x="154.54" y="19.27" width=".75" height="1.48"/>
  <rect x="8.21" y="18.53" width="1.49" height=".74"/>
  <rect x="136.63" y="18.53" width="1.49" height=".74"/>
  <rect x="132.89" y="18.53" width="1.49" height=".74"/>
  <rect x="11.2" y="43.73" width="1.49" height=".74"/>
  <rect x="14.93" y="43.73" width="1.49" height=".74"/>
  <rect x="18.66" y="43.73" width="1.49" height=".74"/>
  <rect x="22.4" y="43.73" width="1.49" height=".74"/>
  <rect x="129.16" y="18.53" width="1.49" height=".74"/>
  <rect x="125.43" y="18.53" width="1.49" height=".74"/>
  <rect x="121.69" y="18.53" width="1.49" height=".74"/>
  <rect x="117.96" y="18.53" width="1.49" height=".74"/>
  <rect x="114.23" y="18.53" width="1.49" height=".74"/>
  <rect x="44.05" y="43.73" width="1.49" height=".74"/>
  <rect x="47.78" y="43.73" width="1.49" height=".74"/>
  <rect x="51.51" y="43.73" width="1.49" height=".74"/>
  <rect x="55.25" y="43.73" width="1.49" height=".74"/>
  <rect x="58.98" y="43.73" width="1.49" height=".74"/>
  <rect x="62.71" y="43.73" width="1.49" height=".74"/>
  <rect x="66.45" y="43.73" width="1.49" height=".74"/>
  <rect x="110.5" y="18.53" width="1.49" height=".74"/>
  <rect x="92.58" y="18.53" width="1.49" height=".74"/>
  <rect x="88.84" y="18.53" width="1.49" height=".74"/>
  <rect x="85.11" y="18.53" width="1.49" height=".74"/>
  <rect x="84.36" y="43.73" width="1.49" height=".74"/>
  <rect x="88.1" y="43.73" width="1.49" height=".74"/>
  <rect x="91.83" y="43.73" width="1.49" height=".74"/>
  <rect x="95.56" y="43.73" width="1.49" height=".74"/>
  <rect x="99.3" y="43.73" width="1.49" height=".74"/>
  <rect x="103.03" y="43.73" width="1.49" height=".74"/>
  <rect x="106.76" y="43.73" width="1.49" height=".74"/>
  <rect x="110.5" y="43.73" width="1.49" height=".74"/>
  <rect x="81.38" y="18.53" width="1.49" height=".74"/>
  <rect x="77.65" y="18.53" width="1.49" height=".74"/>
  <rect x="73.91" y="18.53" width="1.49" height=".74"/>
  <rect x="70.18" y="18.53" width="1.49" height=".74"/>
  <rect x="128.41" y="43.73" width="1.49" height=".74"/>
  <rect x="132.15" y="43.73" width="1.49" height=".74"/>
  <rect x="135.88" y="43.73" width="1.49" height=".74"/>
  <rect x="139.61" y="43.73" width="1.49" height=".74"/>
  <rect x="143.35" y="43.73" width="1.49" height=".74"/>
  <rect x="147.08" y="43.73" width="1.49" height=".74"/>
  <rect x="150.81" y="43.73" width="1.49" height=".74"/>
</svg>