<?xml version="1.0" encoding="UTF-8"?>
<svg id="Laag_1" xmlns="http://www.w3.org/2000/svg" version="1.1" viewBox="0 0 1878.26 388.96">
  <!-- Generator: Adobe Illustrator 29.5.1, SVG Export Plug-In . SVG Version: 2.1.0 Build 141)  -->
  <path d="M200.26,0c2.93,1.38,9.72,1.01,13.69,1.56,30.35,4.24,62.6,20.28,77.84,48.81,21.92,41.06,15.52,103.41-32.46,123.79l-1.96,1.56c.88-.03,1.94.42,2.74.78,21.88,9.94,38.14,23,48.11,45.69,20.31,53.79.37,116.42-52.02,144.1-26.03,12.83-54.93,13.05-84.49,14.84H.78V0h199.48ZM77.45,149.18h97.39c6.76-1.13,13.8-1.43,20.34-3.12,1.73-.45,5.27-1.6,7.04-2.34,1.97-.82,4.12-2.74,6.26-3.12,17.98-10.57,21.68-31.71,16.04-50.38-5.2-12-13.3-17.14-25.42-20.7-7.72-2.27-15.24-2.92-23.47-3.91h-98.18v83.57ZM77.45,314.76h108.35c2.78-1.34,6.99-.86,10.17-1.56,4.4-.97,9.37-3.33,14.08-4.69.41-.12,1.03-1.28,1.56-1.56.97-.51,3.11-1.03,3.91-1.56,4.61-3.09,8.55-7.93,12.13-12.11l4.69-9.37c2.77-10.55,4.81-22.11,3.13-33.58-.04-.29-.72-.48-.78-.78-.32-1.58-.38-4-.78-5.47-.38-1.38-2.33-4.72-3.13-6.25-5.76-10.99-16.83-17.97-28.55-21.48-5.27-1.58-11.08-1.77-16.43-3.12h-108.35v101.53Z"/>
  <path d="M877.72,0v135.12c1.04.21,1.82-.35,2.35-1.17,27.5-43.37,78.91-52.39,124.77-33.98,79.18,33.04,87.18,148.08,59.06,216.74-21.79,53.19-71.12,80.04-127.12,69.12-23.91-4.66-44.55-15.91-57.5-37.88l-3.13-2.73v35.93h-72.75V0h74.32ZM931.31,155.43c-.28.03-.49.74-.78.78-3.99.51-7.14.57-10.95,1.56-1.73.45-5.27,1.6-7.04,2.34-13.25,5.54-24.08,19.5-29.34,32.41-8.47,20.81-10.5,55.43-6.26,78.1,1,5.34,3.39,10.67,4.69,16.4,11.82,29.2,38.15,43.69,69.23,39.44.83-.11,3.7-1.31,4.69-1.56,24.26-6.22,37.45-29.72,42.63-51.94,4.8-20.57,4.45-48.49-.78-68.73-1.72-6.66-4.9-13.88-8.61-20.31-11.12-21.25-34.29-30.62-57.5-28.51Z"/>
  <path d="M346.55,189.79c.13-1.91-.19-3.98,0-5.86.13-1.27,1.36-4.9,1.56-6.25,5.84-38.75,25.78-67.55,65.32-79.28,8.81-2.61,19.53-5.48,28.94-6.25,56.58-4.6,132.61,3.13,142.77,69.9,1.09,55.79-1.8,112.71.78,167.92.41,8.74.13,16.2,2.35,24.21,2.07,4.15,3.8,9.95,8.21,12.89.8.53,3.09,1.03,3.91,1.56.67.43,1.26,1.43,1.96,1.95v9.37l-1.17,1.17h-79.01l-1.17-1.17-1.56-4.69c-1.92-7.41-3.28-15.03-4.69-22.65l-.39-5.08c-4.85,4.33-9.18,9.87-14.08,14.06-3.84,3.29-8.87,6.6-13.3,9.37-6.95,4.34-14.3,8.34-21.9,10.93-21.42,7.31-48.48,8.61-70.41,2.34-31.54-9.01-50.2-29.1-55.93-61.31-.3-1.7-1.44-5.47-1.56-7.03-1.1-13.44.57-27.37,3.91-39.05,9.22-32.25,33.12-50.53,64.54-58.19,15.67-3.82,33.14-6.16,49.28-8.59,15.36-2.31,30.62-3.16,45.37-7.81,3.09-2.08,6.72-4.29,9-7.42.12-.16-.13-.59,0-.78.36-.53,1.46-1.19,1.56-1.56.32-1.09.5-2.77.78-3.91.08-.31.73-.49.78-.78.34-1.92.26-8.08,0-10.15-.04-.29-.73-.48-.78-.78-.17-.96.19-2.2,0-3.12-.06-.3-.7-.47-.78-.78-.94-3.65-1.06-3.96-3.13-7.03-2.86-4.25-3.58-5.4-8.21-8.2-1.53-.92-3.95-2.52-5.48-3.12-2.11-.83-5.03-1.08-7.04-1.56-14.85-3.59-32.46-3.56-46.94,1.56l-.78.78c-2.44.58-4.29,2.43-6.26,3.91-6.78,5.09-9.67,10.04-12.13,18.35-.56,1.88-2.1,5.31-2.35,7.03-.23,1.56.16,3.45,0,5.08h-71.97ZM512.4,243.68c-.88.03-1.31,1.15-1.96,1.56-17.19,11.03-43.92,11.8-63.36,16.4-5.98,1.42-12.87,4.34-18.77,7.81-4.54,2.67-7.44,5.32-10.56,9.76-.83,1.19-2.27,2.18-2.35,3.91-4.54,9.69-4.87,20.55-1.56,30.46.65,1.93,1.26,4.43,2.35,6.25,2.01,3.36,5.2,5.94,8.21,8.2,1.32.99,2.69,2.01,3.91,3.12l1.56.78c7.13,2.24,14.33,3.8,22.69,3.12,1.57-.13,5.34-1.26,7.04-1.56,17.68-3.14,32.87-10.23,43.42-25.38,5.7-8.18,6.94-11.71,8.61-21.09.05-.3.78-.52.78-.78v-42.57Z"/>
  <path d="M1220.75,91.38c65.27-4.79,126.87,23.04,149.81,87.09,4.42,12.36,8.22,25.24,9.39,38.27,6.44,71.8-17.77,138.3-90.35,162.85-65.18,22.04-146.73,2.91-180.32-61.31-10.31-19.72-14.44-37.85-16.43-59.36-2.31-24.98-.92-50.14,6.26-73.42,14.01-45.44,47.72-76.56,93.48-88.65,8.72-2.3,18.89-4.79,28.16-5.47ZM1228.58,153.86c-.28.02-.5.75-.78.78-5.47.57-9.8.79-14.86,2.34-21.31,6.55-34.88,25.54-40.29,45.69-1.65,6.15-3.39,14.75-3.91,21.09-.45,5.51.67,10.37-.78,15.62-.28,1.03.71,1.25.78,1.56.81,3.62-.35,10.58,0,14.84.8,9.79,3.73,19.78,7.04,28.9,1.8,4.95,3.55,9.26,6.26,14.06,16.14,24.65,46.93,30.97,73.93,24.6,13.43-3.17,25.4-11.9,33.25-23.04,15.81-22.46,17.53-63.03,12.52-89.82-.92-4.91-3.36-13.69-5.48-18.74-7.31-17.5-21.81-30.9-39.51-35.54-1.03-.27-2.28-.58-3.13-.78-2.93-.68-5.61-.47-8.61-.78-.29-.03-.5-.76-.78-.78-4.35-.35-11.3-.35-15.65,0Z"/>
  <path d="M1485.55,98.41v182.37c1.47,4.34,1.15,9.58,2.35,14.06,1.09,4.08,5.21,12.38,7.82,15.62,5.8,7.2,12.95,10.69,21.51,12.89,24.16,6.2,53.26-1.29,65.32-24.6,5.77-8.93,6.73-18.62,8.61-28.12V98.41h74.32v282.74h-71.19v-39.83c-.77.24-1.95,1.32-2.35,1.95-11.89,18.93-26.41,32.03-48.11,39.44-27.43,9.37-65.93,7.25-90.74-7.81-28-16.99-38.89-46.6-41.85-76.93V98.41h74.32Z"/>
  <path d="M1876.7,92.16v75.76c-.81-.24-.88-.65-1.96-.78-13.61-1.6-32.83-.94-45.37,2.34-20.61,5.4-35.69,20.99-40.29,41.79-1.6,7.24-.98,15.35-2.35,22.65v147.23h-74.32V98.41h71.19v48.42c2,.37,1.88-1.12,2.35-1.95,11.9-21.43,25.2-41.79,49.67-49.6.93-.3,3.06-1.36,3.91-1.56,10.3-2.44,22.67-3.29,33.64-1.56,1.08.17,2.39-.11,3.52,0Z"/>
  <path d="M793.23,92.16v75.76c-.81-.24-.88-.65-1.96-.78-14.1-1.66-30.79-.89-43.81,2.34-7,1.74-15.76,4.6-21.9,9.37-1.48,1.15-3.35,3.94-4.69,4.69-.37.21-1.03-.15-1.17,0s.21.8,0,1.17c-.64,1.14-2.93,2.65-3.91,3.91-3.23,4.14-8,14.36-9.39,19.53-1.99,7.43-1.79,15.75-3.13,23.43v149.57h-74.32V98.41h71.19v48.42c1.04.21,1.81-.34,2.35-1.17s1.02-2.96,1.56-3.91c9.34-16.32,20.23-32.5,37.16-41.79,7.58-4.16,12.41-5.44,20.34-7.03,8.93-1.78,18.82-2.26,28.16-.78,1.08.17,2.39-.11,3.52,0Z"/>
</svg>