<?xml version="1.0" encoding="UTF-8"?>
<svg id="Laag_1" xmlns="http://www.w3.org/2000/svg" version="1.1" viewBox="0 0 1407.36 1308.48">
  <!-- Generator: Adobe Illustrator 29.5.1, SVG Export Plug-In . SVG Version: 2.1.0 Build 141)  -->
  <path d="M656.42,0c195.63,7.87,358.6,161.41,375.26,357.44,20.78,244.47-184.4,447.63-428.58,423.77-241.39-23.59-403.08-257.79-339.89-492.58C307.46,124.2,456.21,7.24,625.71,0c9.7-.41,21-.39,30.71,0ZM756.22,388.66c16.6-8.31,29.37-24.63,36.65-41.56,11.12-25.85,11.58-58.38,4.35-85.33-15.77-58.84-76.7-87.5-133.57-90.03-43.64-1.94-88.71,1.57-132.51.02-10.48,2.07-21.6,2.86-27.5,12.8-10.63,17.92-12.51,35.59-14.24,55.81-1.6,18.65-2.15,37.04-2.82,55.71-2.27,63.22-2.35,128.66,0,191.87.89,23.9,2.09,47.45,4.71,71.1,1.57,14.15,4.61,25.83,11.38,38.52,5.46,10.24,16.11,11.61,26.56,13.74,54.06-2.01,109.36,3.04,163.14-1.01,57.9-4.36,108.58-30.46,121.93-91.11,8.93-40.56,1.65-75.26-26.41-106.07-9.14-10.04-18.9-15.59-30.1-22.68-.67-.42-1.61-.9-1.57-1.78Z"/>
  <path d="M137.23,1018.18c3.93,1.69,8.74,4.83,12,7.68,40.17,35.08,11.07,102.4-41.21,101.78-26.64-.22-58.13,3.38-84.53.92-2.6-.24-9.94-2.47-11.74-4.1-.95-.86-4.18-8.28-4.82-10.05-3.81-10.6-3.39-22.2-4.03-33.4-2.35-41.57-2.43-83.12,0-124.7.76-13.04.22-29.88,7.8-41.15,2.77-4.12,8.94-5.96,13.75-6.41,21.86-2.04,46.86,1.52,69.06.09,25.21,2.38,52.03,13.95,61.74,39.02,7.45,19.23,5.81,47.16-8.88,62.66-2.77,2.92-6.58,4.55-9.14,7.65ZM63.34,994.2h32.15c.33,0,5.14-2.21,5.95-2.69,6.65-3.91,7.14-12.09,1.27-17.01-1.37-1.14-5.74-3.34-7.22-3.34h-29.75c-.6.59-2.4,2.93-2.4,3.36v19.67ZM63.34,1043.14v19.67c0,1.8,3.1,4.19,5.23,4.37,7.48.61,21.3.46,28.41-1.43,4.33-1.15,8.35-3.2,9.36-7.91s.11-8.5-3.7-11.29c-1.21-.89-7.04-3.4-8.11-3.4h-31.19Z"/>
  <path d="M435.69,1120.39c-.19.92-2.87,5.1-3.87,5.73-3,1.04-6.89,2.19-10.02,2.45-6.49.55-20.59.75-26.85-.07-8.57-1.12-11.44-4.94-14.44-12.43-5.2-12.97-4.57-30.65-5.25-44.65-2.92-59.64-8.13-158.68,74.32-164.58,97.89-7.01,94.19,98.4,90.69,166.5-.8,15.63-.05,34.1-7.44,48.22-2.04,3.89-8.09,6.4-12.25,6.94-6.26.82-20.35.62-26.85.07-2.18-.18-8.34-1.4-10.02-2.45-1.24-.78-3.87-5.64-3.87-6.69v-55.66l-1.44-1.44h-41.27l-1.44,1.44v56.62ZM479.84,1009.55v-16.79c0-1.83-2.4-9.97-3.34-12.01-9.07-19.67-35.25-14.72-39.64,6.45-.22,1.06-1.16,7.09-1.16,7.48v14.87h44.14Z"/>
  <path d="M1003.82,971.16c.35,1.56-1.92,4.55-1.92,5.28v17.75h62.86c.31,0,5.3,1.39,5.99,1.69,1.71.75,4,3.22,4.62,4.98,2.05,5.85,2.01,22.75,1.42,29.34-.18,2-1.9,8.63-3.11,9.85-.27.27-6.61,3.09-6.99,3.09h-64.78v17.75c0,.26,1.49,4.41,1.89,4.82.9.92,2.99,1.31,4.31,1.45,25.31,2.56,54.83-2.03,80.6.01l6.28,2.36c4.39,3.82,4.34,25.63,3.87,31.69-.37,4.8-1.89,11.44-4.82,15.34-6.74,8.99-18.06,9.19-28.26,10.12-33.96,3.11-68.47,1.46-102.78,1.9-10.93-1.05-14.22-5.3-17.5-15.13-3.84-11.55-3.4-26.89-4.03-39.16-1.88-36.6-1.97-74.64,0-111.26.64-11.79.27-29.01,4.3-39.85,3.49-9.4,6.75-13.44,17.25-14.42,33.65.2,67.43-.91,100.76,1.97,10.62.92,23.86.89,30.7,10.57,2.76,3.9,4.05,11.02,4.39,15.76.41,5.74.39,25.71-2.84,29.84-1.37,1.1-3.19,2.27-4.83,2.85-.7.25-5.04,1.41-5.31,1.41h-82.05Z"/>
  <path d="M255.27,971.16c.35,1.56-1.92,4.55-1.92,5.28v17.75h62.86c.31,0,5.3,1.39,5.99,1.69,1.71.75,4,3.22,4.62,4.98,2.05,5.85,1.97,21.81,1.42,28.38-.3,3.57-1.52,7.63-3.11,10.8-.27.27-6.61,3.09-6.99,3.09h-64.78v17.75c0,.26,1.49,4.41,1.89,4.82.9.92,2.99,1.31,4.31,1.45,25.31,2.56,54.83-2.03,80.6.01l6.28,2.36c4.39,3.82,4.34,25.63,3.87,31.69-.37,4.8-1.89,11.44-4.82,15.34-6.74,8.99-18.06,9.19-28.26,10.12-33.96,3.11-68.47,1.46-102.78,1.9-10.93-1.05-14.22-5.3-17.5-15.13-3.84-11.55-3.4-26.89-4.03-39.16-1.88-36.6-1.97-74.64,0-111.26.64-11.79.27-29.01,4.3-39.85,3.49-9.4,6.75-13.44,17.25-14.42,33.65.2,67.43-.91,100.76,1.97,10.62.92,23.86.89,30.7,10.57,5.49,7.76,5.56,32.24,2.96,41.26-1.17,4.05-2.08,5.75-6.24,7.19-.72.25-5.04,1.41-5.31,1.41h-82.05Z"/>
  <path d="M658.82,1043.14c-.5-.09-6.72-2.82-6.99-3.09-1.59-3.18-2.81-7.24-3.11-10.8-.54-6.39-.64-23.61,1.72-29.04,2.06-4.74,8.52-5.73,13.14-6.05,12.62-.9,35.85-.98,47.97,1.06,9.64,1.63,19.36,5.91,20.72,16.71-2.32,38.48,11.79,93.31-33.62,111.35-18.34,7.29-55.95,7.31-74.87,1.93-54.08-15.38-62.31-80.81-57.51-128.54,4.59-45.6,24.27-81.73,73.29-86.97,17.31-1.85,41.21-1.15,58.54,1.08,10.9,1.4,20.05,2.76,24.06,14.32,2.26,6.52,2.1,25.68,1.36,33.05-.92,9.24-4.65,12.19-13.82,13.05-20.99,1.96-44.88-1.55-66.19.03-9.53,2.23-15.23,11.07-15.93,20.54-1.06,14.4-1.31,40.56.02,54.76,1.04,11.17,8.54,19.26,19.76,20.55,6.34.72,21.45.79,27.73.02,1.71-.21,4.35-1.46,4.35-3.31v-20.63c-6.25-.75-14.7,1.03-20.63,0Z"/>
  <path d="M1273.21,979.53c-2.44,2.44-10.12,3.87-13.62,4.14-10.69.83-22.59-.49-33.4-.24-6.22-.71-5.99-7.44-8.18-11.97-1.7-3.52-5.98-7.37-9.75-8.49-6.67-1.97-16.51-1.25-22.45,2.59-6.25,4.04-7.39,11.11-2.98,17.08,5.54,7.51,29.97,10.48,39.56,13.22,16.52,4.71,39.3,13.91,49.02,28.71,13.41,20.44,12.69,55.77-.03,76.46-19.24,31.3-75.09,35.92-106.35,23.2-23.28-9.47-41.2-33.45-37.4-59.47.76-5.22,5.36-8.84,10.25-9.9,12.39-2.67,27.19-.54,39.92-.98,7.91,1.75,5.38,15.16,15.76,19.75,11.13,4.91,34.02.49,29.56-15.17-1.69-5.93-8.34-8.59-13.71-10.28-24.18-7.63-48.18-8.39-68.86-26.15-19.92-17.1-21.68-52.95-12.74-76.08,20.4-52.77,124.97-53.18,145.44.96,2.83,7.48,5.91,26.66-.06,32.62Z"/>
  <path d="M778.04,909.02c8.2-1.14,23.2-.56,31.39.78,7.07,1.15,8.73,6.38,9.21,12.86,1.36,18.55-.33,39.7-.09,58.62.03,2.36,1.02,4.27,1.05,6.63.27,22.65-2.16,50.16-.07,72.04.43,4.51,1.54,6.73,6.23,7.21,24.72,2.53,53.85-2.37,78.75-.06,2.46.23,5.24,1.15,7.55,2.04,4.11,2.62,3.08,11.59,3.43,15.76.79,9.33,2.09,19.64-2.12,28.54-5.8,12.27-19.2,12.14-30.9,13.24-34.97,3.29-70.87,1.73-106.15,1.43-12.84-3.1-14.42-14.92-16.19-26.03-1.27-7.99-1.55-15.83-2.06-23.85-2.41-37.92-2.06-82.01.09-119.99.76-13.38.12-30.86,7.46-42.44,2.79-4.41,7.34-6.07,12.41-6.78Z"/>
  <polygon points="696.72 1213 740.87 1281.13 740.87 1213 756.7 1213 758.14 1214.43 758.14 1304.64 756.7 1306.08 737.51 1306.08 690.96 1236.03 690.96 1304.64 689.52 1306.08 675.13 1306.08 673.69 1304.64 673.69 1213 696.72 1213"/>
  <path d="M294.38,1211.32c37.9-4.51,63.94,18.76,58.55,57.58-5.99,43.1-69.51,53.52-91.12,16.72-16.51-28.11-1.82-70.21,32.57-74.31ZM302.07,1225.71c-43.07,4.43-37.23,71.98,7.36,66.87,13.67-1.57,24.39-14.28,26.23-27.51,2.9-20.89-9.58-38.36-30.97-39.67l-2.62.31Z"/>
  <path d="M582.52,1266.74h-19.19v-15.35h35.51v47.98c-4.6,1.38-8.8,3.92-13.42,5.29-41.14,12.23-82.02-9.81-72.71-56.39,6.58-32.94,41.47-44.87,71.04-34.09,2.31.84,13.69,6.3,13.13,8.82l-11.96,12.07c-4-4.09-9.99-7.19-15.56-8.42-27.59-6.12-46.07,18.15-38.42,44.18,6.55,22.31,33.19,27.7,51.58,16.56v-20.63Z"/>
  <path d="M418.9,1213c3.01.31,9.09,2.11,11.99,3.36,3.69,1.6,8.16,4.46,10.42,7.82,7.47,11.12,5.08,30.92-7.18,37.64-3.04,1.67-6.81,2.11-9.95,3.48l23.99,40.79h-18.71l-21.69-39.24-12.38-.1v37.91l-1.44,1.44h-14.4l-1.44-1.44v-90.21l1.44-1.44h39.35ZM395.39,1252.34h18.71c.35,0,5.86-1.54,6.76-1.87,8.75-3.22,10.05-15.85,2.06-20.39-1.08-.61-6.19-2.69-6.91-2.69h-20.63v24.95Z"/>
  <path d="M871.38,1306.08h-17.75l-9.7-21.16-39.14.15-9.7,21.01h-16.31c-.11,0-1.91-1.39-.99-1.93l39.82-90.71h14.47s39.31,92.65,39.31,92.65ZM810.92,1270.57h26.87l-12.48-36.47c-2.29-.21-1.58-.16-1.98,1.36-2.76,10.54-9.66,21.76-12.24,31.93-.27,1.05-.2,2.12-.17,3.18Z"/>
  <path d="M1006.43,1288.54c3.77-3.77,4.39-10.37,1.23-14.61-8.6-11.56-35.7-6.5-41.06-28.04-2.97-11.95,1.82-23.97,12.55-30.2,13.37-7.77,36.25-6.64,47.69,4.51l-11.99,12.95c-5.84-6.65-15.12-9.08-23.54-6.26-2.62.88-6.33,3.5-7.22,6.21-4.78,14.56,15.7,16.66,24.79,20.42,15.33,6.34,21.09,16.93,17.54,33.42-5.33,24.82-48.82,27.76-62.87,8.97l11.96-12.86c5.27,9.67,23.08,13.33,30.92,5.48Z"/>
  <path d="M1337.55,862.01l5.46-.18c43.43,3.04,66.45,52.55,37.97,86.78-26.3,31.61-79.16,20.85-90.7-18.7-9.84-33.72,12.92-64.9,47.28-67.9ZM1339.49,871.55c-53.48,4.94-55.11,75.2-7.7,84.98,48.36,9.98,72.39-56.3,29.69-79.59-5.35-2.92-16.01-5.94-21.99-5.39Z"/>
  <polygon points="908.81 1213 908.81 1290.73 948.16 1290.73 948.16 1304.64 946.72 1306.08 892.98 1306.08 891.54 1304.64 891.54 1213 908.81 1213"/>
  <polygon points="470.24 1213 486.07 1213 487.51 1214.43 487.51 1304.64 486.07 1306.08 471.68 1306.08 470.24 1304.64 470.24 1213"/>
  <polygon points="627.63 1213 643.46 1213 644.9 1214.43 644.9 1304.64 643.46 1306.08 629.07 1306.08 627.63 1304.64 627.63 1213"/>
  <path d="M608.43,440.96l2.38-1.46c15.23.61,30.96-.73,46.13-.02,8.78.41,20.14,1.47,27.97,5.62,4.51,2.39,9.55,7.24,10.68,12.36,3.2,14.54-3.88,25-18.02,28.65-19.14,4.94-41.99,1.29-61.76,2.18-2.98-.66-5.02-3.81-5.97-6.5-.25-.7-1.41-5.04-1.41-5.31v-35.51Z"/>
  <path d="M608.43,343.55v-35.99c2.15-6.02,1.36-11.91,9.17-12.9,10.42-1.33,31.25-.71,42.2-.08,4.58.26,11.58,1.13,16.04,2.19,8.31,1.97,17.32,7.02,19.72,15.78s-.1,18.49-7.53,23.76c-6.64,4.71-13.84,5.41-21.54,6.29-.94.11-1.74.94-1.94.94h-56.14Z"/>
  <path d="M1348.82,883.84c1.66.23,7.59,2.39,9.09,3.39,6.74,4.52,7.83,12.49,6.72,20.09-.65,4.46-5.39,9.16-9.54,10.62-1.75.62-4.39-.36-3.86,1.87l14.38,24.48-11.55-.44-14.77-23.62c-1.83-1.5-6.68-1.59-8.22.55v23.51h-10.56v-60.46c8.81.88,19.79-1.19,28.31,0ZM1331.07,909.75h16.79c.53,0,3.8-2.56,4.35-3.32,2.53-3.5,1.91-9.4-2.21-11.29-.67-.31-4.75-1.7-5.02-1.7h-13.92v16.31Z"/>
</svg>