<?xml version="1.0" encoding="UTF-8"?>
<svg id="Laag_1" xmlns="http://www.w3.org/2000/svg" version="1.1" viewBox="0 0 208 242">
  <!-- Generator: Adobe Illustrator 29.5.1, SVG Export Plug-In . SVG Version: 2.1.0 Build 141)  -->
  <path d="M206,55l1,135c-1.65-.5-1.81.68-2.5,1-31.53,14.64-61.03,32.34-93,47-.4.19-.6.82-1,1-1.85.82-4.74,1.51-7,1-.85-.19-3.81-2.43-5-3-29.66-14.18-60.54-30.95-90-47-2.07-1.13-4.19-2.93-6.5-3L1,54c1.65.5,1.81-.68,2.5-1,27.96-12.99,53.79-29.41,82-42L103.5,1l18,8c25.77,14.95,52.48,28.58,79,43,1.47.8,3.23,3.46,5.5,3ZM115.5,133h14.5c.29-1.8,0-2.2-1-3.5-1.51-1.96-4.9-4.16-6-6-.13-.22.14-.69,0-1-.2-.43-.92-.64-1-1-.31-1.4.21-3.45,0-5,6.71-6.05,12.73-13.62,19.5-19.5,1.19-1.04,4.74-2.97,6-4,2.86-2.34,5.7-5.05,8.5-7.5v-5.5c-1.76.17-3.81-.25-5.5,0-.37.06-.6.91-1,1-4.06.95-4.62-2.62-6-3-1.73-.48-4.81-.37-7-1-1.13-.32-2.41-3.8-4.5-3-.05,4.33-4.61,3.5-7.5,4-3.98.69-8.21,2.02-12,3-6.9,1.79-16.47-.04-24-1-.37-.05-.64-.97-1-1-2.55-.23-7.59-.35-10,0-.37.05-.61.92-1,1-3.04.61-5.8,1.16-9,2-7.85,3.86-11.17,7.12-14.5,15.5-.17.43-.92.64-1,1-.46,2.1-.17,8.47,0,11,.02.35.98.65,1,1,.24,3.49-.48,7.72,0,11,.04.3,1.83,2.15,1,4l6.5,7.5h11.5c.03-4.59-3.95-7.65-6-11.5l7.5-8.5h33c2.56,1.71,1.13,4.78,1.5,7.5.05.37.93.62,1,1,.37,2.1-.26,3.88,1,6,.35.59,5.13,5.4,5.5,5.5ZM141,126c4.08.36,6.42-2.96,9-5.5-.25-1.85.36-4.31,0-6-.07-.33-1.62-2.36-2-3-.16-.26.14-.79,0-1-1.78-2.68-6.08-5.81-8.5-7.5h-2l-7.5,8.5c1.73,2.47,10.29,6.41,11,9,.34,1.22-.37,5.13,0,5.5ZM88,116h-14l9.5,16h14.5c-1.3-2.61-4.32-4.25-6-6.5s-2.11-4.54-3-7c-.21-.59-1.53-.85-1-2.5ZM81,146v21h20v-5c-1.03.3-1.13.84-2.5,1-3.91.46-8.49-.33-12.5,0,.16-1.09-.25-2.58,0-3.5.62-2.24,7.95-1.98,10-.5v-6c-2.05,1.48-9.38,1.74-10-.5-.25-.92.16-2.41,0-3.5,2.77.19,5.77-.27,8.5,0,.36.04.63.95,1,1,1.72.23,3.72-.16,5.5,0v-5c-2.11.16-4.43-.23-6.5,0-.37.04-.64.97-1,1-4.03.34-8.42-.25-12.5,0ZM52,167h17.5c.3,0,.56-.8,1-1,.31-.14.78.13,1,0,3.35-1.99,3.67-7.26.5-9.5v-1c1.95-1.28,2.62-3.75,2-6-.33-1.2-3.26-2.01-4.5-2.5-.44-.17-.69-1-1-1h-16.5v21ZM120,146h-7c.27,2.13-.24,3.79-1,5.5-1.41,3.17-3.43,6.78-5,10-.41.84-3.26,5.28-3,5.5h6c-.48-4.54,3.42-5.73,7.5-5,.37.07.59.87,1,1,1.11.35,2.47-.4,3.5,1.5v2.5h7c-2.72-5.98-5.93-10.9-8-16.5-.15-.42-.91-.63-1-1-.23-.98.15-2.39,0-3.5ZM150.5,146c-4.61-1.03-12.46.76-17.5,0v21h7c-1.43-2.37-2.18-7.66,1.5-8,1.95-.5,5.49,2.85,6.5,4.5.14.23-.15.74,0,1,.44.78,1.47.87,1,2.5h7l-6-7.5c.87-.62,1.68-2.04,2.5-2.5.47-.26,1.31.19,1.5,0,.17-.17-.22-.96,0-1.5.18-.43.94-.65,1-1,.51-2.9.13-5.93-2.5-7.5-.22-.13-.69.14-1,0-.43-.2-.64-.92-1-1Z"/>
  <path d="M69,162c-1.6-.55-2.11.93-2.5,1-2.64.45-9.73.78-8.5-3.5.43-1.48,2.29-1.4,3.5-1.5,3.79-.3,8.24-.87,7.5,4Z"/>
  <path d="M59.5,150c3.05.43,7.24-1.26,9.5,1.5l-4.5,2.5c-2.92.42-9.07.06-5-4Z"/>
  <path d="M150,154c-1.6-.55-2.11.93-2.5,1-5.55.95-9.79.43-8.5-6,1.75-.78,3.18.95,3.5,1,3.63.52,8.08-1.7,7.5,4Z"/>
  <polygon points="118 159 113 159 115.5 154 118 159"/>
</svg>