<?xml version="1.0" encoding="UTF-8"?>
<svg id="Laag_1" xmlns="http://www.w3.org/2000/svg" version="1.1" viewBox="0 0 300 135">
  <!-- Generator: Adobe Illustrator 29.5.1, SVG Export Plug-In . SVG Version: 2.1.0 Build 141)  -->
  <path d="M20,4l-1,9c2.77.51,4.65-1.73,6.99-2.51,6.11-2.05,14.12-2.23,20.26-.24,6.96,2.26,15.59,8.61,17.75,15.75,2.77-1.81,4.24-5.79,6.45-8.04,14.83-15.13,41.47-10.72,51.05,8.04,8.65-16.88,30.79-22.59,46.46-11.46,2.54,1.81,4.21,4.97,7.04,6.46V4h14v9c4.15-1.12,8.22-3.43,12.56-3.93,14.15-1.63,26.03,4.74,32.94,16.93,11.33-20.54,37.84-23.39,53.02-5.02,1.8,2.18,6.48,10.18,6.48,12.52v38.5h-14v-4c-2.98-.4-5.07,1.96-7.72,2.78-13.91,4.3-31.52-1.96-37.28-15.78-2.98,2.34-4.04,5.87-6.97,8.52-17.96,16.24-46.97,8.1-52.07-15.48l-8.96-.04c2.57-15.42-9.3-30.61-25.34-22.85-15.08,7.29-5.96,32.44-9.1,45.9l-14.55.95v-24h-40c4.67,10.8,16.85,10.36,27,10l-.95,13.56c-9.97,1.32-19.82.74-28.41-4.7-5.16-3.27-7.35-8.01-11.64-11.85-.54,3.73-4.64,7.71-7.5,10-15.17,12.16-38.61,7.99-47.69-9.31-.89-1.69-3.81-8.89-3.81-10.19V4h15ZM33.71,23.21c-10.74,1.83-17.08,13.46-12.92,23.5,2.12,5.11,5,7.95,10.2,9.8,8.54,3.05,18.08-.95,21.54-9.49,5.01-12.38-5.86-26.02-18.81-23.81ZM108,33c.41-1.72-.66-1.99-1.5-3-7.66-9.2-19.37-9.24-27,0-.83,1.01-1.91,1.28-1.5,3h30ZM218.73,28.27c-.4-.42-4.36-3.2-4.99-3.51-16.07-7.65-32.4,11.72-20.74,26.74,7.02,9.05,21.03,7.51,27.47-1.55,4.31-6.07,3.34-16.32-1.73-21.69ZM260.74,23.24c-17.9,2.35-20.5,27-3.75,33.27,6.4,2.4,13.84.6,18.55-4.47,10.67-11.46.49-30.81-14.8-28.8Z"/>
  <path d="M74,99l-4,2c1.41,3.05,1.76,7.64.05,10.55-2.91,4.47-7.56,2.15-11.05,4.96-.45,2.6,1.94,1.18,3.52,1.47,2.15.38,9.32,1.27,10.27,2.23l.72,5.82c-4.26,6.01-12.27,6.44-18.54,3.5l-.87-1.13c-.88-3.7.34-4.82,3.39-6.38l-.38,3.37,2.54,2.47h7.68c9.41-8.18-9.06-4.89-12.34-7.85-.57-2.76,1.3-3.74,2.92-5.49-4.32-3.88-4.35-12.15,1.1-14.98,4.66-2.42,10,.29,14.98-.52ZM61.64,101.12c-3.35.96-4.36,7.9-1.65,10.39l4.35,1.4c5.44-2.53,3.58-13.59-2.7-11.79Z"/>
  <path d="M162,99c.56,2.79-.99,1.97-3,2v.51c1.97,3.41,1.9,9.51,3.5,12.5.25.47,1.27,1.28,1.51.99l4.06-15.95,3.42-.09,5.02,17.04,3.55-14.44c-.18-1.06-3.14.12-2.05-2.57h8s-2,2.66-2,2.66l-5.94,17.9-4.04.43-4.03-14.99-2.27,5.22-2.78,9.72-4.47-.92-6.47-20.02h8Z"/>
  <path d="M13,88v12s6.7-1.78,6.7-1.78c10.66,1.59,7.66,20.25-1.2,21.78-1.7.29-9.32.08-9.55-1.6l.06-27.4c-2.05-.2-4.68,1.16-4.01-1.99l8-1.01ZM20.8,115.8c1.84-1.84,1.2-8.45,1.04-11.14-.8-2.77-4.85-3.24-7.23-2.54-3.08.89-1.02,11.86-1.61,14.89,2.05.02,6.35.25,7.8-1.2Z"/>
  <path d="M126,99c.46,6.41-4.28,2.33-8.52,2.98-5.15.79-4.55,13.46.17,14.87,5.73,1.71,7.92-1.56,9.33-6.35-.09-2.57-9.8-1.44-11.98-.49l1.62-2.87c3.13.44,6.05-.94,8.84-1.16s11.95,1.11,12.49-1.54l-.96-4.42,3.9,1.59c1.92,6.31-6.21,7.39-10.85,7.46-.65,16.52-23.51,14.66-19.86-2.37,1.62-7.55,9.2-9.22,15.81-7.69Z"/>
  <path d="M257,109c-2.14.28-13-.98-12.98,1.49,2.44,7.36,6.12,7.28,12.98,5.51-.66,5.17-7.64,4.11-11.34,3.84-6.68-3.33-6.26-16.72-.38-20.06,7.18-4.09,13.45,1.31,11.73,9.23ZM253,107c1.01-8.17-8.87-7.61-8,0h8Z"/>
  <path d="M47.05,117.97l2.95,2.03-5.42.05-1.08-2.07c-1.61,0-2.11,1.68-3.99,2.02-12.26,2.2-5.78-12.61,3.44-12.06,1.39-7.85-4.36-6.46-9.95-4.95l.02-2.95c4.14-1.07,8.44-3.25,12.02.41,3.31,3.38.88,5.49.87,9.05-.01,2.82,1.55,5.49,1.14,8.47ZM43,111c-3.21-.63-6.13,1.32-7,4.49,4.59,3.85,8.14.92,7-4.49Z"/>
  <path d="M205.16,117.88l2.83,2.12c-2.68,1.53-7.1-1.77-7.5-1.77-.44,0-1.48,1.52-2.99,1.78-4.42.76-6.81.2-6.56-4.52.26-4.89,4.23-6.2,8.63-7.43,1.3-.36,1.57.58,1.47-1.56-.07-1.6-.72-2.92-1.13-4.41l-8.91.91.02-2.95c3.93-.89,7.13-2.9,10.94-.51,4.43,2.78.17,13.75,3.2,18.34ZM201,111c-2.84-.59-7.52,1.13-6.99,4.44.29,1.8,4.6,2.09,6.04,1.11,1.51-1.03.85-3.93.94-5.55Z"/>
  <path d="M91.98,99.02v5.98s-2.11-2.83-2.11-2.83c-2.65-1.22-6.32-2.48-6.92,1.35,1.73,5.6,10.83,3.86,10.04,10.94s-12.99,7.16-13.91,3.96c-.53-1.83-.38-4.22,1.41-5.4l1.68,3.8c4.21,2.77,10.01-.34,5.36-4.85-2.72-2.63-8.64-2.4-8.62-7.46.02-6.2,8.5-6.97,13.07-5.48Z"/>
  <path d="M233,118c2,.01,3.56-.78,3,2h-10c-.88-2.77,1.69-1.71,2.54-2.92.68-.97.85-20.97.48-23.6-.34-2.4-1.84-2.57-4.03-2.48l.59-2c2.51-1.03,5.53-2.08,7.42.5v28.5Z"/>
  <path d="M292.98,99.02v5.98c-3.35.87-1.11-3.18-3.57-3.91-1.15-.34-2.61-.14-3.82.01-5.75,4.78,6.36,6.86,7.93,9.87,3.75,7.24-6.77,11.03-12.51,9.01v-5.98s2.11,2.83,2.11,2.83c4.25,2.71,10.1-.33,5.41-4.87-2.91-2.82-10.78-3.03-7.76-9.68,2.32-5.11,7.68-4.03,12.21-3.27Z"/>
  <path d="M218,88v28.5c1.17,2.2,4.8.28,4,3.5-3.15-.11-6.35.16-9.51,0-1.95-.1-1.57.12-1.49-2l3.58-.93.32-24.47-.88-1.15c-1.46-.95-3.74.58-3.02-2.45l7-1.01Z"/>
  <path d="M269,99.01h7c-1.25,3.16-3.96,3.3-7,2.99l.13,13.37c1.4,2.49,3.52,2.38,5.87,1.63v3s-7.39-.11-7.39-.11l-1.5-1.5-.15-16.36c-2.65-.01-3.45.6-2.95-2.51l5.49-4.51.49,4Z"/>
</svg>