<?xml version="1.0" encoding="UTF-8"?>
<svg id="Laag_1" xmlns="http://www.w3.org/2000/svg" version="1.1" viewBox="0 0 227 199">
  <!-- Generator: Adobe Illustrator 29.5.1, SVG Export Plug-In . SVG Version: 2.1.0 Build 141)  -->
  <path d="M153,90c-1.63,2.64-2.34,3.2-5,4,2.07-2.37,1.74-3.11,5-4Z"/>
  <path d="M161,81c-.07-.65.03-1.34,0-2-1.65,1.14-3.02,1.15-5,1,.61-3.4-1.34-5.74-1-9l1.5,1,.5-.5-2-2c1.07-.86,2.13-2.88,3.5-2.5,1.63,1.2,4.3,2.52,5.5,4.5.45.75.86,3.36,1,3.5.54.54.49-1.21,2,1.5.52.93,2.81,2.32,3,3,.18.63-.2,1.42,0,2,.24.71,1.69,1.56,1,3.5l-4,1,2-2c-.57-2.44-3.79-2.34-6-2-.35-2.01-.07-2.29,2-2-.79-1.38-1.31-2.29-1-4l-2.5,1-4.5-3.5c1.61,2.38,2.52,5.16,6,4.5-.66,1.16-.84,2.49-2,3ZM160,69c-.11-.11-3.46-.63-3,1,3.96-.41-.04,1.23,2,2.5,1.24.77,2.58,1.04,3.5,2.5.81-1.38-2.25-2.65-2.5-3.5-.21-.72.22-2.28,0-2.5Z"/>
  <path d="M98,133c-.26-.24-.36,0-1-1,.72.12,1.11.08,1,1Z"/>
  <path d="M85,90c.08,1.5-1.2.77-2,1,.73-1.67,1.14-.62,2-1Z"/>
  <path d="M116,85c-1.48-.09-.39-1.3-2-2-.29-1.36-.96-.94-1-1-.64-.82-.97-.93-1-1-.9-2.22.09-3.72,2.5-3,2.15.64,1.42,4.95,1.5,7Z"/>
  <path d="M77,95c-.12.12-.64-.07-1,0-.17-1.15.86-.89,1-1-.17.17.17.83,0,1Z"/>
  <path d="M147,95c.19-.27-.32-.6,1-1-.3.34-.14.42-1,1Z"/>
  <path d="M141,131c.41-1.34.84-.86,1-1-.41,1.29-.64.78-1,1Z"/>
  <path d="M85,90c.05-.02-.18-.83.5-1,1.85-.45,4.89.31,7,0,1.04-.15,4.01-3.1,3.5,1l4,1c-.59-2.38-4.99-2.02-4-5.5.4-1.41,1.22-1.51,2.5-.5,1.54,1.22,1.84,2.62,4.5,2l-2-4.5,6-4-7,1.5,4-4.5h-3c-.48-1.47,1.8-2.28,2-3,.36-1.32-.88-1.56-1-2-.88-3.2.86-2.14,1.5-2.5,1.84-1.03,3.25-4.24,5.5-5,.04,1.49-.07,3,0,4.5.06,1.24-.77,3.72,1,3.5.13-2.14-.18-4.37,0-6.5.17-1.93.81-2.78,1-4.5l2,2.5c.2,3.32,2.69,6.02,3,9.5.23.26,3.84-2.53,5-2-.16-1.43.25-3.16,0-4.5-.05-.29-1.74-4.57-2-5-1.48-2.48-4.24-2.74-3-7.5l2.5,2c.35,0,2.39-3.09,2.5-3.5.23-.85-.23-2.15,0-3s3.8-2.69,4.5-2.5c.56.15,1.59,1.73,3.5,1-.51,1.63,1.36,2.24,1,3.5-.55,1.95-4.62.87-5,3.5l6.5-1,.5,2c-2.91-.93-1.65,1.65-2,2-.13.13-1.34-.07-2,0,.13-1.26,2.44-2.19-.5-2l-3,3c-1.49-1.5-1.8-2.82-3.5-.5l4,2.5-6-1.5c2.6,2.73,5.95,3.68,8,0,.53-.95-.88-1.29,1-1.5-.18,1.73.77,3.06,2.5,3,.48,1.54,4.6.2,3.5,2.5-.9,1.87-2.43,1.18-3.5,1.5-.79.24-1.46,2.42-3,2-.5-.14-.86-1.54-2.5-1-.19.19.26,1.03,0,1.5-.43.78-9.78,10.3-10.5,10.5-1.29.36-3.5-.24-5,0l-5.5-5.5c1.86,2.15,2.12,6,5.5,6.5,1.01,1.05,1.78,2.09,2.5,3,.44.56.42.55,1,1,.06.04-.34.42,1,1,.12.57-.06,1.35,0,2l-2.5-2-.5.5c1.41,1.39,2.33,3.05,4.5,2.5.68-.17.45-.98.5-1,1.86-.87,3.3,1,3.5,1,.33,0,.62-.94,1-1,1.66-.28,3.75.19,5.5,0v7c1.83.13.94-3.22,1-4.5.08-1.62.84-2.86,2-1.5l.5,3c3.51-.52,2.02.64,2.5,1.5.78,1.39,3.44,2.99,4.5,4.5.71,1.01,1.56,2.73,1.5,4,2,.07.9-1.95.5-3-.65-1.69-2.78-3.46-2.5-4.5,1.73-1.16,1.54-3.83,2-5,.49-1.24,2.37-2.76,2-4.5l-3,3.5c.55,2.21-.9,3.48-1,5.5-.77-.05-1.63.48-2-.5-.32-.85-1.62-3.32-2-3.5,3.56.7,1.11-3.23,3-5h-7l5,1-1,4c-.36-.17-1.15.28-1.5,0-1.13-.9-5.49-5.01-4.5-6,.51-.06,1.15.2,1.5,0,4.39-2.46,1.62-14.1,2.5-15,.14-.15,2.89.21,4-1,.12,2.04,1.53,3.25,1,5.5-.56,2.37-1.89,3.42-2,7-.03,1.13-.61,2.76,1,2.5-.39-1.69.63-1.99,1.5-3,2.29-2.64,7.94-7.12,11-8,.57-.16,1.72-2.01,2.5-2.5-.99-1.11-2.02-2.88-2-4.5,1.39.12,3.93,4,4.5,4,.33,0,.58-.88,1-1,1.25-.36,1.87,1.52,3.5,1l-2.5,3-2.5-2c-.72,2.16,2.71,3.44,3,4.5.35,1.28-.23,3.48,0,5,.04.3,1.76,1.68,1,3.5-.79.83-4.77-3.29-4,1,1.75-.78,3.17.95,3.5,1,2.64.39,4.28-.03,6.5-1,.07.65-.03,1.34,0,2,.87.05.99-.84,2-1,.28,1.62,1.75.91,3,1-1.22,1.13-.85,3.85-1,4-.17.17-.96-.22-1.5,0-.43.18-.65.94-1,1-1.77.31-4.47-.42-6,0-.47.13-1.15,1.36-3.5,2,.28-.45,1.17-1.86,1-2-2.35.15-4.34-2.62-6.5-2-1.07.31-1.61,3.22-3,1l-.5.5c0,.33.89.59,1,1,.52,1.88-5.6,7.05-4,10.5,1.45-.16,2.51-2.59,3.5-3,.47-.19,1.08.13,1.5,0-1.01,1.16-2.11,3.23-3.5,4-.47.26-1.31-.19-1.5,0-.27.27.08,6.97-4,2.5l2-1.5-2-2-2,.5-.5,2.5-3-4-.5,2h-2c.32-2.24-2.13-3.34-3.5-5l-.5,2h-2v2c-2.13-.56-5.15,1.07-3.5,3,.84-2.3,4.26-1.8,4.5-2,.16-.13.08-3.79,3-3,0,2.01.87,3.5-2,3,.07,1.75,1.99,1.69,2.5,2,3.02,1.82,7.39,5.29,10.5,3,.03,3.48-4.98,4.14-4,8,1.04-.06.7-.91,2-.5,1.62.51,3.15,1.9,4.5,2.5,2.33,1.03,5.04,1.25,7.5,2l-2,2,4,.5c.28,1.16-1.62,3.1-2,4-1.22,2.9-1.45.95-2,1.5-.66.66-1.31,2.75-4,5,.46-1.46.23-2.42,2-3.5.15-.75-1.07-.69-1.5-.5-.3.13-4.34,4.16-4.5,4.5-1.12,2.38,1.87,1.21,3,.5-.13.41.19,1.03,0,1.5-.11.28-3.26,3.43-3.5,3.5-1.23.34-3.46-.17-5,0-1.87.2-2.81.78-4.5,1,.77-1.32,1.12-3.13,2.5-4,.22-.14.73.15,1,0,4.47-2.48,7.95-5.7,11.5-9.5-1.28-.51-.9-2.41-1-2.5-.22-.21-1.76.2-2.5,0-.41-.11-.63-.94-1-1-1.55-.23-3.44.23-5,0-.33-.05-1.75-1.78-3.5-1l2-3c-.69-.51-3.86,1.29-4.5,2-2.52-1.63-5.46-3.85-7.5-6.5-1-1.3-1.29-1.7-1-3.5-2.35.64-1.87,2.17-2,4,.43.12,1.04-.19,1.5,0,.91.37,3.8,3.82,4.5,5h-6c.08-1.65-.12-3.36,0-5-1.05-.28-1.86-.13-3-1,.31,2.84,2.97,3.63,2,7-1.48.55-2.33-1.01-2.5-1-.34.01-.62.94-1,1-1.32.22-5.8.27-7,0-.37-.08-.57-.83-1-1-2.38-.94-2.98-.77-4.5-3,.99.18,1.75-.28,2.5,1l6.5,1,1-4-3.5,3c-.92-1.69-2.65-.63-4-1-.98-.27-2.88-3.77-4.5-4-.21,1.69,1.13,2.73,2,4-1.92-.35-3.65.75-5-1.5.42-3.2-1.9-5.7-2-9l-2-2.5,1,4.5c2.15,3.55,3.35,7.99,0,11.5,3.72-.19,2.51,2.37,3,4.5.09.4.95.63,1,1,.48,3.31-.92,6.47,1,9.5-1.35-.22-2.59.54-3.5-1l-4.5-1,2-1-1-5,3,.5-4-3.5c.44,1.75-2.36,4.25-2,5.5.16.56,2,1.61,2,2,0,.68-4.08,2.05-.5,4.5.41.28.83-.53,1.5,1-3.11,1.36-4.97-3.56-6.5-4-.89-.26-3.03.19-3.5-1.5-1.12-4.07,4.84-5.94,4-10.5-1.82.76-2.95-.87-3.5-1-.88-.22-2.16.23-3,0-.69-.19-1.69-2.05-5-3-1.46-.42-2.9-4.79-2.5-6.5.12-.5,1.92-3.59,2-4,.25-1.34-.16-3.07,0-4.5l-2.5-1-10.5.5c1.09-.71,1.25-3.16,2.5-3.5.69-.19,3.18-.15,4,0,.38.07.63.95,1,1,3.68.45,6.18-.38,9.5-1-.19,1.73-1,3.34-1.5,5-.31,1.01-1.57,3.06.5,3l2-8c1.31.02,1.31-1.02,0-1,.04-.03-.22-.57.5-1,.24-.14.74.15,1,0,1.91-1.09,2.46-1.42,4.5-2-.73,1.68-1.48,3.34-3,4.5l3-.5c-.32-1.83,1.1-3.31,3-3l-1-2ZM124.5,48c-.65,0-.65,1,0,1s.65-1,0-1ZM124,52c-.76-.64-2.8.33-2,1,.76.64,2.8-.33,2-1ZM129,64c.64-.76-.33-2.8-1-2-.64.76.33,2.8,1,2ZM152,71h-4v1c1.71-.31,2.62.21,4,1v-2ZM115,73c-1.09-1.09-3.09.91-2,2s3.09-.91,2-2ZM145.5,74l-2.5,2.5.5.5,2.5-2.5-.5-.5ZM149.5,74c-.65,0-.65,1,0,1s.65-1,0-1ZM139.5,76l-1.5,1.5.5.5,1.5-1.5-.5-.5ZM149,80c.13-.13-.07-1.36,0-2l-2,1.5v.5c.64-.07,1.87.13,2,0ZM130.5,79c-.65,0-.65,1,0,1s.65-1,0-1ZM110,80c-.76-.64-2.8.33-2,1,.76.64,2.8-.33,2-1ZM146,80c-1.82.04-3.67-.06-5.5,0-1.15.04-2.75-.66-2.5,1,1.82-.04,3.67.06,5.5,0,1.15-.04,2.75.66,2.5-1ZM105,82c-.76-.64-2.8.33-2,1,.76.64,2.8-.33,2-1ZM109.5,82c-.65,0-.65,1,0,1s.65-1,0-1ZM136.5,82c-.65,0-.65,1,0,1s.65-1,0-1ZM144,83h-3v1h3v-1ZM146.5,84c-.65,0-.65,1,0,1s.65-1,0-1ZM153,85l-4-1v1c1.76-.36,2.24,1.36,4,1v-1ZM143,87c.64-.76-.33-2.8-1-2-.64.76.33,2.8,1,2ZM154.5,86c-.65,0-.65,1,0,1s.65-1,0-1ZM117,91c.31-1.76-1.36-3.29-3-4-.31,1.76,1.36,3.29,3,4ZM122,96c.66-3.98-.61-5.61-3.5-8-.82,1.38,2.25,2.65,2.5,3.5.19.66-.11,1.7,0,2.5l-1.5-1-.5.5,3,2.5ZM141.5,88c-.65,0-.65,1,0,1s.65-1,0-1ZM93.5,90c-.65,0-.65,1,0,1s.65-1,0-1ZM103,91c-1.25-.65-3.5,1.6-3,2,1.25.65,3.5-1.6,3-2ZM110,92l-4-1v1c1.76-.36,2.24,1.36,4,1v-1ZM111.5,92c-.65,0-.65,1,0,1s.65-1,0-1ZM116.5,92c-.65,0-.65,1,0,1s.65-1,0-1ZM90,97v-3h-1v3h1ZM116,94c-4.28-.51-.6,3.48-1,5.5l2,2.5c.64-2.83-.4-3.22-1.5-5s.15-1.65.5-3ZM131.5,94c-.65,0-.65,1,0,1s.65-1,0-1ZM100.5,95c-.65,0-.65,1,0,1s.65-1,0-1ZM112,99v-4h-1v4h1ZM106,96c-3.78-.45-1.12,1.56-1,4h2c-.79-1.38-1.31-2.29-1-4ZM135.5,96l-1.5,1.5.5.5,1.5-1.5-.5-.5ZM72.5,97c-.65,0-.65,1,0,1s.65-1,0-1ZM109,97c-.76-.64-2.8.33-2,1,.76.64,2.8-.33,2-1ZM86,100c-1.75-.29-2.62,1.55-4.5,1-1.7-.5-.87-3.29-2.5-3l2.5,4c1.98.15,3.85.31,4.5-2ZM112,107v-4h-1v4h1ZM118,103c-1.09-1.09-3.09.91-2,2s3.09-.91,2-2ZM82,107c.13-.13-.07-1.36,0-2l-2,1.5v.5c.64-.07,1.87.13,2,0ZM84.5,105c-.65,0-.65,1,0,1s.65-1,0-1ZM131.5,106c-.65,0-.65,1,0,1s.65-1,0-1ZM115.5,107c-.65,0-.65,1,0,1s.65-1,0-1ZM126.5,107c-.65,0-.65,1,0,1s.65-1,0-1ZM107,108c-.32,1.5.44,2.06,1.5,3l.5-.5c-1.57-.96-.3-2.85-2-2.5ZM75,109c-.32,1.5.44,2.06,1.5,3l.5-.5c-1.57-.96-.3-2.85-2-2.5ZM82.5,109c-.65,0-.65,1,0,1s.65-1,0-1ZM87,109c-.76-.64-2.8.33-2,1,.76.64,2.8-.33,2-1ZM112.5,109c-.65,0-.65,1,0,1s.65-1,0-1ZM73.5,111l-.5.5,1.5,1.5.5-.5-1.5-1.5ZM78.5,112l-.5.5,1.5,1.5.5-.5-1.5-1.5ZM85,114c.13-.13-.07-1.36,0-2l-2,1.5v.5c.64-.07,1.87.13,2,0ZM128,114c.13-.13-.07-1.36,0-2l-2,1.5v.5c.64-.07,1.87.13,2,0ZM137,117c-1.1-1.43-.56-3.34-2-3v3h2ZM144,122c.64-.76-.33-2.8-1-2-.64.76.33,2.8,1,2ZM94,128c.64-.76-.33-2.8-1-2-.64.76.33,2.8,1,2ZM82.5,127c-.65,0-.65,1,0,1s.65-1,0-1ZM86,129c.64-.76-.33-2.8-1-2-.64.76.33,2.8,1,2ZM94.5,129c-.65,0-.65,1,0,1s.65-1,0-1ZM138,134c-1.1-1.43-.56-3.34-2-3v3h2Z"/>
  <path d="M146,96c.3-.34.14-.42,1-1-.19.27.32.6-1,1Z"/>
  <path d="M98,133c.37.34,2.35,1.96,2.5,2,2.53.7,4.15-1.69,3.5,3,1.12-.13,2.48.21,3.5,0,.49-.1,3.4-1.84,4-2,.85-.23,2.15.23,3,0,3.32-.91,2.19-6.04,2.5-8.5.05-.37.96-.64,1-1,.26-2.39-.18-5.06,0-7.5h7l-3.5,9c2.49-1.52,2.5-4.12,3.5-6.5.67-1.58.68-2.87,3-2.5.29.31-1.74,2.87-2,3.5-.66,1.59-3.86,8.34-4,9-.27,1.26.33,5.17,0,5.5-.22.22-1.8-.23-2.5,0-1.21.4-3.69,2.92-4,3-1.17.32-3.13-.21-4.5,0l1,3.5c.5,1.04,3.8,4.76,3,5.5-.86.8-3.85-1.79-4.5-2-.7-.23-2.28.22-2.5,0s.18-4.23-2.5-5c-.62-.18-1.38.18-2,0-.65-.19-2.11-2.44-3-3l.5,5.5-2,.5c.33-1.43-1.41-3.4-2.5-4-.47-.26-1.31.19-1.5,0-.37-.37-.06-3.13,1-3.5,0-.37-2.92-2.28-3.5-2.5-1.04-.4-1.69.83-2.5-1,3.41-.59,6.01,1.67,9,3l-1-4ZM122,125v-4h-1v4h1ZM120,134c.82-.97-2-2.86-.5-4l-1.5-2c.05,1.49-.07,3.01,0,4.5.08,1.62.85,2.86,2,1.5ZM108.5,142c-.65,0-.65,1,0,1s.65-1,0-1Z"/>
  <path d="M82,167c1.89-3.23.68-7.34,1-11-2.89-.27-3.98,3.29-4,5.5l-3.5,5.5-2.5-4.5c.81-1.45-3.32-7.23-3-7.5h5c-2.26,2.64.96,4.06,1,7l3-4.5-1-2.5h13v3l-5-2v4l4-1v4c-.3.35-3.31-3.58-4-.5-.28,1.25.34,3.12,1.5,3.5,3.26,1.05,2.1-1.83,4-3l.5,3c2.54-.32,2.53-6.57,2-8.5-.17-.63-2.08-1.4-2-2.5,2.94.17,11.48-1.41,10,3.5-.24.79-2.56,1.61-2,3l4,5.5c-4.85,1.53-4.56-3.07-6.5-4-3-1.44-.22,3.66.5,4h-16ZM99,160c.96-.96-.8-4.87-3-4v4c.81-.12,2.81.19,3,0Z"/>
  <path d="M149,23l-4.5-3h-1c-.75.57-2.3,1.72-3,2-12.18,4.97-24.07,9.76-36,16-2.71,1.42-3.33,1.26-6,2-.25.07-2.92,2.32-4,3-1.18.75-1.92,2.07-1.5,3.5.4,1.34,6.83,4.13,8.5,3.5.74.5,2.65,3,3,3,.52,0-.35-.65,2,0,.94.26.86-.9,4,0,1.03.29,2.68-1.75,4.5-1,.29,1.62-2.52.81-3,2.5-.19.65.22,1.46,0,2-.26.64-1.52.85-1,2.5-4.29.81-4.29-1.22-6.5-4l.5,2h-4c1.9-2.3.02-2.77,0-5l-2.5,4c-.57-1.73-3.37-1.85-3.5-2-.26-.29.25-2.75,0-3-.18-.18-.97.23-1.5,0-.4-.17-.6-.82-1-1-1.48-.66-1.91.76-1.5-3l-1.5,2c-4.4-1.85-1.98-8.82,1-8,4.68,1.29,3.97-.07,8-2,13.21-6.34,27-13.35,41-19,1.47-.59,2.84-1.26,4.5-1l-2-5,4,3.5c-.45,1.29,3.26,5.25,3,5.5ZM90.5,44c-.65,0-.65,1,0,1s.65-1,0-1Z"/>
  <path d="M149,167c-.55-1.6.93-2.11,1-2.5.45-2.64.27-7.16-1-9.5h5c.08,1.1-1.83,1.87-2,2.5-.42,1.53-.39,7.89,1.5,8.5,3.26,1.05,2.1-1.83,4-3l.5,3c3.55-1.36,1.5-6.66,2-10l-2-1h6l-2,1c.33,2.25-1.06,9.17,1.5,10,3.26,1.05,2.1-1.83,4-3,1.92-.53,5.31,6.88,6.5,0-3.13-.18-4.64-1.91-6-4.5,1.09-.71,1.25-3.16,2.5-3.5,1.42-.39,3.86.26,5.5,0v4l-5-3c-.54,3.1,4.44,3.47,5,5.5.36,1.3-.05,5.5-1.5,5.5h-25.5Z"/>
  <path d="M157,172c.86,3.15-3.13,6.64,1,6,1.01,6.67-3.99,4.86-9,5,.3-1.03.84-1.13,1-2.5.44-3.7.73-8.31-4-7.5-.1,3.04.97,10.04-2.5,11-2.01.55-5.94-.45-6.5-2.5-.69-2.49,1.21-6.83-1-9l5-.5c-1.83,2.94-.73,6.64-1,10,6.67,1.01,4.86-3.99,5-9l-2-1h14ZM154,173h-2v4c2.01-.53,2.24-2.12,2-4ZM155,182c.96-.96-.8-4.87-3-4v4c.81-.12,2.81.19,3,0Z"/>
  <path d="M134,155l-1,5h4l-1-5h5c.08,1.1-1.83,1.87-2,2.5-.21.77-.21,6.23,0,7,.17.63,2.08,1.4,2,2.5h-6l2-1c.13-1.48.23-4.52-1.5-5-.54-.15-2.5-.36-2.5.5l1,5.5h-5c.3-1.03.84-1.13,1-2.5.34-2.87.36-7.01-1-9.5h5Z"/>
  <path d="M58,155c-.52,1.63,1.36,2.24,1,3.5-.18.64-2.08,1.4-2,2.5h2v5c-1.61-.55-2.11.93-2.5,1-1.93.34-4.46-.23-6.5,0-.55-1.6.93-2.11,1-2.5.45-2.64.27-7.16-1-9.5h8ZM53,156c-.23,1.86-.04,2.9,1.5,4,2.65-1.83,1.4-4.05-1.5-4ZM54.5,161c-2.13,1.59-2.13,3.41,0,5,2.13-1.59,2.13-3.41,0-5Z"/>
  <path d="M82.5,171h2c.49,1.12,1.73.83,2,1,2.01,1.27,2.99,5.3,2.5,7.5-.08.36-.8.57-1,1-.14.31.13.78,0,1-1.3,2.19-4.04,3.18-6.5,2.5-.24-.07-3.43-3.26-3.5-3.5-.2-.72-.18-4.19,0-5,.08-.35.8-.57,1-1,.15-.32-.13-.8,0-1,.95-1.49,2.49-1.3,3.5-2.5ZM83.5,172c-3.66,2.51-3.66,8.49,0,11,3.66-2.51,3.66-8.49,0-11Z"/>
  <path d="M106,171c-2.66,3.11-3.52,4.13-3,8.5.18,1.55,1.28,1.92,1,3.5,4.21-.01,4.83-5.47,4-8.5-.14-.51-2.57-2.02-2-2.5,3.2-.44,3.07.47,4,2.5.2.43.92.65,1,1,.17.77.17,3.23,0,4-.08.36-.8.57-1,1-.14.31.13.78,0,1-1.3,2.19-4.04,3.18-6.5,2.5-.24-.07-3.43-3.26-3.5-3.5-1.31-4.75.89-9.05,6-9.5Z"/>
  <path d="M69,155v3l-5-2v4l3-1v4l-3-2c-.4,1.67.11,5.61,2.5,5,.67-.17,3.33-4.5,3.5-.5-2.35,2.8-6.8,1.04-10,1.5.3-1.03.84-1.13,1-2.5.34-2.87.36-7.01-1-9.5h9Z"/>
  <path d="M72,179l1,4h-5c1.57-3.09,1.57-7.91,0-11,2.14.24,8.34-.92,9,1.5.99,3.63-2.05,5.19-5,5.5ZM74,173h-2v4h2v-4Z"/>
  <path d="M110,155c-1.89,3.23-.68,7.34-1,11l5-3v4h-9c.3-1.03.84-1.13,1-2.5.34-2.87.36-7.01-1-9.5h5Z"/>
  <path d="M119,155c-1.87,2.26-.11,2.64,0,5l3-2.5-1-2.5h4c-2.73,3.9-7.32,7.82-3,12h-6c4.03-3.78.29-8.22-3-11.5l6-.5Z"/>
  <path d="M147,155c-.3,1.03-.84,1.13-1,2.5-.34,2.87-.36,7.01,1,9.5h-5c.3-1.03.84-1.13,1-2.5.34-2.87.36-7.01-1-9.5h5Z"/>
  <path d="M125,172c.24.24-.16,3.04,0,4l-4.5-4-2.5,4.5c.14,4.08,2.96,8.03,6.5,3.5,1.71.58-1.33,3.82-2,4-2.15.59-2.85-.47-4-1-.51-.24-2.17-.32-2.5-1.5-.21-.77-.21-6.23,0-7,.34-1.23,4.19-3.43,5.5-3.5.65,1.56,3.25.75,3.5,1Z"/>
  <path d="M95,172c-1.57,3.09-1.57,7.91,0,11h-4c-.32-3.66.89-7.77-1-11h5Z"/>
  <path d="M131,172c-1.57,3.09-1.57,7.91,0,11h-4c-.32-3.66.89-7.77-1-11h5Z"/>
  <path d="M58,97c.83.83-1.67,3.78-3,4l1-4c.64.07,1.87-.13,2,0Z"/>
  <path d="M162,181c.58.58-.88,3-1.5,3-.11,0-1.5-1.39-1.5-1.5,0-.62,2.42-2.08,3-1.5Z"/>
  <path d="M135,183c-.19.19-2.19-.12-3,0-.29-1.43.57-1.02,2-1-.02-1.43-.43-2.29,1-2-.12.81.19,2.81,0,3Z"/>
  <path d="M99,183h-2c1.1-1.43.56-3.34,2-3v3Z"/>
  <path d="M166.5,87c.65,0,.65,1,0,1s-.65-1,0-1Z"/>
</svg>