<?xml version="1.0" encoding="UTF-8"?>
<svg id="Laag_1" xmlns="http://www.w3.org/2000/svg" version="1.1" viewBox="0 0 384 384">
  <!-- Generator: Adobe Illustrator 29.5.1, SVG Export Plug-In . SVG Version: 2.1.0 Build 141)  -->
  <path d="M175.5,35c67.66-6.16,133.26,30.65,160.5,93.5,17,39.23,18.64,76.48,5,116-35.36,102.45-159.45,137.66-244.5,74.5-34.04-26.74-54.28-62.17-60.5-103.5-.92-6.1-2.59-16.73-2-23,.64-6.81,1.14-15.21,2-22,1.17-9.23,2.29-16.47,5-25,16.93-53.25,60.86-94.32,115.5-106.5,5.82-1.3,13.02-3.46,19-4ZM178.5,57c-16.91,1.38-34.26,7.69-50,16-36.01,19.02-59.07,49.68-68.5,88.5-1.56,6.44-3.5,14.24-4,21-.94,12.84.64,28.3,3,40,1.16,5.74,4.55,16.27,7,22,24.83,58.13,82.65,90.22,143.5,82.5,16.39-2.08,31.88-6.02,47-15,108.1-58.4,89.05-219.02-30-251-13.41-3.6-32.76-5.24-48-4Z"/>
  <path d="M178.5,65c57.45-5.23,109.53,27.42,132.5,79.5,2.62,8.11,4.45,15.04,6,23,22.38,114.71-103.99,194.98-199.5,129.5-20.21-15.39-33.51-32.66-43.5-55.5-4.6-10.51-6.29-18.67-8-30-1.11-7.39-2.59-17.17-2-25,.03-.36.98-.65,1-1,.38-5.96-.12-11.28,1-17,8.66-44.06,43.25-84.43,87.5-97.5,7.65-2.26,16.89-5.26,25-6ZM218,149c.48-.55,3.88,2.62,4.5,3,1.75,1.07,4.01,1.92,6,3,.69.37,1.48,1.85,2,2,2.83.81,5.08-3.39,6.5-5.5l-36-30,6-9-5.5-5.5-9,7-10-7-5.5,5.5,6,8v1l-35,29c-.94,2.83,2.85,7.26,5.5,6.5.52-.15,1.31-1.63,2-2,2.47-1.34,5.61-2.6,8-4,.82-.48,1.37-1.98,2.5-2-.16,1.77.23,3.78,0,5.5-.12.91-.7,3.32-1,5-1.46,8.22-3.51,16.82-5,25-.22,1.19.15,2.72,0,4,3.43,1.89,5.71,6,10,6.5.15-1.45-.22-3.12,0-4.5,1.82-11.4,4.88-23.57,7-35,.65-3.48,1.42-6.86,2-10,.22-1.22-.29-2.94,0-4,.13-.46,1.54-1.32,2-2,.16-.24-.15-.79,0-1,1.07-1.47,4.02-4.25,5.5-5.5.19-.16.8.17,1,0,1.42-1.17,2.6-2.78,4-4h1c2.86,3.22,9.23,6.69,11.5,10.5.11.19.97,1.88,1,2,.63,2.28.54,5.71,1,8,2.56,12.91,6.1,27.15,8,40,.25,1.7-.17,3.74,0,5.5,1.06,1.09,8.68-5.15,10-6.5-.16-1.61.23-3.46,0-5-.06-.37-.94-.62-1-1-1.54-10.16-2.52-19.76-4-30-.05-.32-1.78-1.75-1-3.5ZM118,219h-18.5l-8.5,10.5v14c.2.73,6.11,6.4,7,8,.26.47-.19,1.31,0,1.5h19.5l5.5-8.5v-1c-5.97-7.47-7.39,2.64-10.5,3.5-.89.25-6.99.23-8,0-.36-.08-.57-.8-1-1-.31-.14-.78.13-1,0-1.81-1.08-2.32-3.14-3.5-4.5-.31-2.65-1.55-4.93-1-8,.07-.37.88-.59,1-1,.18-.65-.22-1.46,0-2,.16-.39.81-.59,1-1,.14-.31-.13-.78,0-1,.23-.39,2.32-2.45,2.5-2.5.63-.18,1.41.19,2,0,.41-.13.63-.93,1-1,1.24-.22,4.76-.22,6,0,.35.06.57.82,1,1,.54.22,1.33-.17,1.5,0,.19.19-.26,1.03,0,1.5.63,1.14,2.67,3.15,3.5,4.5l5.5-3.5-5-9.5ZM136,246h17c.5,2.29,1.44,4.29,1,7h7c-.13-1.12.21-2.48,0-3.5-.84-4.11-2.25-8.88-3-13-.49-2.68.01-5.46-1-8-1.13-2.83-4.72-5.7-6-8-.26-.47.19-1.31,0-1.5h-11.5c-2.58,3.48-4.93,6.54-6.5,10.5-2.12,5.33-2.07,12.11-3,18-.06.38-.94.62-1,1-.22,1.37.15,3.06,0,4.5h5.5l1.5-1.5v-5.5ZM196,253l5-8.5-5-9v-3l3-5c-1.11-1.49-5.3-8.5-6.5-8.5h-23.5v34h27ZM214,246h17c.5,2.29,1.44,4.29,1,7h7c-.13-1.12.21-2.48,0-3.5-1.22-5.95-1.89-11.8-3-18-.28-1.56-2.94-6.4-4-8-.89-1.35-2.51-3.05-3.5-4.5h-11c-1.06,2.05-3.27,3.67-4.5,5.5-4.02,6.01-3.94,15.17-5,22-.06.38-.95.63-1,1-.23,1.72.16,3.72,0,5.5h5.5l1.5-1.5v-5.5ZM253,219h-5.5l-1.5,1.5v31l1,2.5,6-1v-34ZM292,253c-.16-1.78.23-3.78,0-5.5-.53-3.99-2.29-8.99-3-13-.91-5.14-1.12-6.65-4-11-.89-1.35-2.51-3.05-3.5-4.5h-11.5c.52,2.19-2,2.95-3,4.5-1.2,1.87-3.73,7.35-4,9-.99,6-1.83,11.32-3,17-.21,1.02.13,2.38,0,3.5h7l1-7h15.5l1.5,1.5v4l1.5,1.5h5.5Z"/>
  <path d="M176,247v-8h13.5l2.5,2.5c.25,1.22.05,5.5-1.5,5.5h-14.5Z"/>
  <path d="M176,233v-8c3.65.34,7.97-.48,11.5,0,3.19.43,2.54,2.87,2.5,5.5l-2.5,2.5h-11.5Z"/>
  <path d="M230,239h-14c.13-1.12-.21-2.48,0-3.5.17-.84.69-2.88,1-4,.36-1.32,2.48-3.07,3-4,.26-.47-.19-1.3,0-1.5.09-.1,1.99.28,2.5-1,1.06-.32,3.91,2.61,4.5,3.5,1.78,2.69,1.49,5.09,2,8,.07.39,1.55.9,1,2.5Z"/>
  <path d="M283,239h-14c-.76-1.82.86-2.95,1-3.5.41-1.63.33-2.16,1-4,2.16-5.91,6.31-8.21,10-2,1.03,1.73.63,3.44,1,5,.09.39.92.62,1,1,.21,1.02-.13,2.38,0,3.5Z"/>
  <path d="M152,239h-14l1-7.5c2.52-2.35,3.21-6.68,7.5-5.5.24.07,3.22,3.03,3.5,3.5,1.03,1.73.63,3.44,1,5,.09.39.92.62,1,1,.21,1.02-.13,2.38,0,3.5Z"/>
</svg>