<?xml version="1.0" encoding="UTF-8"?>
<svg id="Laag_1" xmlns="http://www.w3.org/2000/svg" version="1.1" viewBox="0 0 1024 616">
  <!-- Generator: Adobe Illustrator 29.5.1, SVG Export Plug-In . SVG Version: 2.1.0 Build 141)  -->
  <path d="M1024,289v6l-64,7c-1.49-22.63-5.18-45.09-7.9-67.6-2.57-21.2-4.12-42.69-7.2-63.8-4.68-32.09-13.13-59.43-52.15-52.36-33.93,6.15-39.22,31.57-37.75,62.27l15.91,131.86-2.39,1.64-60.57,6.56-28.95-233.56,60.97-6.97c1.9,10.55,1.69,21.68,4.53,31.96,3.59-5.54,6.15-11.56,10.08-16.92,23.32-31.84,80.48-41.57,114.1-22.25,26.84,15.42,34.09,48.26,38.22,76.78,6.63,45.72,9.9,92.07,16.15,137.86l.95,1.54Z"/>
  <path d="M0,268c6.42-73.75,68.64-115.31,140.4-105.9,41.83,5.48,76.13,33.01,82.6,75.9l-60.51,7.03c-.89,0-1.45-.34-2.01-1.01-1.17-1.42-3.44-9.17-4.97-12.03-15.44-29.05-57.89-28.63-77.51-4.47-26.73,32.93-16.2,120.27,29.96,132.01,17.42,4.43,42.22-2.1,52.47-17.58,6.6-9.96,10.16-22.96,9.63-34.87l61.92-7.08c-.56,31.22-10.43,61.27-34.52,81.99-28.81,24.78-76.34,32.99-112.71,23.73C33.61,392.7,5.79,349.09.96,298.54c-.08-.85-.95-1.41-.96-1.54v-29Z"/>
  <path d="M254,616c.13-6.53-.81-13.1-1.91-19.54l.67-2.15,126.06-181.99,1.17-3.32-136.99,16c.94-4.29-3.35-19.36-1.56-22.06l172.05-19.95,2.47,16.62-.73,3.1-129.23,187.28,152.5-17.08,2.56.53.81,1.19,2.13,20.37c-60.86,6.22-121.61,14.05-182.46,20.05l-1.54.96h-6Z"/>
  <path d="M750,0l7,53c-21.34,2.04-42.61,6.01-64,7l-6.01-53c18.92-.91,37.56-4.74,56.46-6.05l1.54-.95h5Z"/>
  <path d="M507,29l14.01,117.99,9.01-13.48c31.67-34.87,86.38-41.11,124.47-12.49,58.58,44.01,69.12,175.1,1.83,215.79-25.09,15.17-62.15,18.57-89.58,7.96-11.7-4.52-19.66-12.55-27.73-21.77l4,30-61.01,7.01-39-323,64-8ZM552.32,290.68c13.25,12.98,31.73,16.49,49.47,11.6,49.16-13.55,43.1-100.03,15.74-131.31-20.6-23.54-57.67-22.54-76.35,2.69-21.15,28.58-14.1,92.29,11.14,117.01Z"/>
  <path d="M471,362l-63.36,7.05c-2.13-.52-5.78-16.53-6.88-19.3-.32-.82-.75-1.75-1.75-1.74.05,1.23-.69,2.17-1.46,3.04-37.72,42.75-137.25,54.9-155.83-12.25-15.56-56.21,17.16-79.9,65.28-94.29,17.05-5.1,60.76-11.47,70.45-25.55,5.04-7.33,3.38-17.27.33-25.22-7.69-20.07-33.54-18.55-50.99-14.45-19.69,4.63-29.93,18.35-28.86,38.64l-62.34,8c-2.34-.46-1.72-9.1-1.59-11.43,2.75-47.3,43.83-70.26,85.78-78.22,30.89-5.86,77.79-8.26,103.25,13.21,15.32,12.92,18.21,25.98,20.89,45.11,5.61,40.05,8.17,80.83,14.2,120.8,1.98,13.13,4.63,27.87,10.01,39.99,1.03,2.32,3.32,3.87,2.88,6.62ZM386.99,256c-22.46,20.9-88.29,13.61-84.99,56.51,2.35,30.62,34.76,31.38,57.79,23.78,36.32-12,30.48-44.87,27.2-74.77-.2-1.82.12-3.7,0-5.51Z"/>
  <path d="M617,474.99l-173.56,19.96c-.77,1.09,1.52,10.96,2.04,13.07,11.01,44.53,46.7,69.85,92.72,59.67,31.35-6.93,48.85-29.59,53.91-60.59l27.89-3.1c-6.28,47.74-32.08,77.2-79.79,85.7-90,16.03-138.1-56.17-124.93-138.93,9.74-61.21,67.44-96.72,127.15-81.69,47.84,12.04,72.27,59.52,74.58,105.92ZM587,456c-4.39-26.97-20.05-52.01-46.01-62.49-14.43-5.82-32.02-6.16-46.99-2.01-35.35,9.8-53.63,45.58-53,80.5l146-16.01Z"/>
  <path d="M812.78,332.28c52.86-3.51,95.43,28.99,108.94,79.51,16.55,61.91-8.46,127.64-74.7,142.73-159.1,36.25-190.03-211.9-34.24-222.24ZM806.78,355.28c-99.74,10.21-85.2,189,19.73,180.73,105-8.28,91.65-192.13-19.73-180.73Z"/>
  <path d="M761,89l28.05,233.38-63.02,8.61-28.07-233.35c.23-.96,2.67-1.42,3.61-1.55,19.72-2.81,39.75-3.99,59.43-7.09Z"/>
  <path d="M724,345l2.56,26.02-1.19.85c-29.95,1.29-58.94,19.85-69.86,48.14-4.85,12.56-4.99,24.18-4.52,37.5l13.02,112.49-27.93,2.92-24.05-211.89,25.98-3.03,5.5,49c3.39-7.05,5.66-14.54,9.69-21.31,15.23-25.53,41.6-38.46,70.81-40.69Z"/>
  <path d="M935.8,328.22c7.11-.5,14.82,4.07,18.41,10.08,9.58,16.06-6.55,35.64-24.19,29.19-20.8-7.6-15.23-37.79,5.79-39.27ZM934.74,333.22c-5.38.86-11.84,5.75-12.7,11.32-3.97,25.94,33.13,25.35,29.88,1.03-1.04-7.75-9.56-13.57-17.18-12.36Z"/>
  <path d="M944.76,339.24c1.11,1.11,1.5,4.65,1.27,6.24-.35,2.34-3.32,3.35-2.97,4.91l4.95,6.61c-7.17,2.12-7.76-5.75-14-4.99,2.25,4.82,1.53,7.04-4,7l-2.55-20.02,11.04-2.07c1.36.05,5.42,1.47,6.27,2.32ZM933,342c-2.04,6.6,7.23,6.03,8,2.49.71-3.26-6.12-2.55-8-2.49Z"/>
</svg>