<?xml version="1.0" encoding="UTF-8"?>
<svg id="Laag_1" xmlns="http://www.w3.org/2000/svg" version="1.1" viewBox="0 0 945 375">
  <!-- Generator: Adobe Illustrator 29.5.1, SVG Export Plug-In . SVG Version: 2.1.0 Build 141)  -->
  <path d="M591,245.01c.06.83-.44,1.88.5,1.99,3.13.38,6.7-.29,9.95.05s8.34,1.43,11.79,2.21c11.46,2.62,17.87,8.14,16.77,20.74,4.96-1.4,6.14-6.17,8.99-9.51,7.98-9.37,21.28-17.99,34.07-15.06,4.23,5.93-1.1,10.76-5.56,14.57-6.29,5.38-13.73,8.14-20.49,12.49,1.16.59.54,2.4,1.58,2.54,6.37.81,14.34-2.92,20.21-5.23,6.81-15.06,20-27.07,37.54-25.66,4.27,2.43,4.41,5.47,1.69,9.39-3.75,5.4-16.18,11.62-22.34,14.66-1.69.83-6.13,1.6-6.65,3.35-1.78,6,10.44,2.91,13.64,1.64,14.43-5.7,27.58-20.11,36.77-32.23,2.5-3.29,2.43-6.81,8.54-5.96.49,5.89-4.24,10.61-5.57,15.97-.43,1.75-.39,1.84,1.07,3.03,5.39-9.08,21.31-19.22,31.97-17.96,5.29.63,3.08,3.94,6.06,6.96,6.17-3.01,25.95-13.58,26.53-.5.29,6.48-9.54,12.27-14.74,15.34-3.4,2.01-10.94,4.57-13.31,6.69-.93.83-1.3,1.08-1.02,2.47,1.03-.26,2,.77,2.66.79,6.67.22,28.32-12.27,33.38-17.25,5.29-5.2,8.44-13.37,16.47-15.58,1.8,0,4.02,2.52,3.37,4.35l-9.88,17.68c.62.59,4.33-1.63,5.33-2.16,12.16-6.49,24.2-17.13,38.37-19.63,1.94-.34,6.51-.96,7.19,1.4,2.37,8.3-6.51,15.09-7.87,22.83,3.1,3.41,7.26,2.2,11.24,1.33,9.83-2.15,17.57-7.12,26.74-10.77-.08-3.29-4.04-3.42-2.89-7.37,1.67-5.72,27.59-13.05,33.81-10.55l1.07,4.92c-5.4,2.26-12.14-.37-17.33,2.17-1.33.65-2.26,1.24-.67,2.34l16.46,1.54c5.23,1.31,11.96,1.99,15.56,6.44,3.41,4.21,2.56,7.38-1.5,10.53-5.53,4.28-25.5,8.07-33.28,9.72-3.81.81-13.66,3.51-16.69,3.29-1.19-.09-2.26-1.08-3.51-1.07-.77-4.66,3.2-7.46,6.46-9.95l2.45,3.54,4.51.42c10.18-4.28,22.41-4.03,31.54-10.47.93-3.12-11.19-5.34-13.46-5.53-3.48-.3-12.58.04-15.55,1.52-.93.47-1.86,2.21-3.02,2.98-7.46,5.03-27.7,13.58-36.52,14.48-6.89.7-13.48.55-16.49-6.45-.27-2.1.8-4.54,1.55-6.49.85-2.22,6.47-11.03,5.5-12l-2.51-.02c-13.88,8.95-27.46,18.44-42.43,25.57l-4.62-1.49-.55-4.45-2.27-1.53c-5.97,3.16-11.99,6.31-18.33,8.68-8.01,3-14.64,6.13-22.97,2.41-2.22-.99-5.01-3.77-5.95-4.05-2.44-.73-8.33,1.77-9.36-1.65-.68-2.26,5.96-4.03,7.54-5.46,1.75-1.59,3.18-4.98,4.94-7.06,3.39-4.02,8.02-6.6,11.52-10.48-1.27-1.64-4.2.61-5.36.35-.78-.18-1.41-1.4-2.31-1.68-5.17-1.63-11.49,3.06-15.36,6.31-9.57,8.02-23.39,33.58-33.62,36.38-.79.22-1.56.18-2.35.14l6-18.99c-1.64-.39-2.33.33-3.54.96-4.32,2.24-8.94,6.71-13.77,9.23-7.28,3.79-15.66,6.38-24.01,4.63-2.39-.5-4.73-3.17-6.35-3.65-4.52-1.34-15.16,4.22-20.76,3.84-3.22-.22-7.76-1.85-10.54-3.54-.95-.58-1.55-1.98-2.68-2.32-9.22-2.74-20.53,7.52-28.03,11.69-20.17,11.21-68.53,31.12-90.86,29.21-6.73-.58-14.39-2.42-16.28-9.68.82-7.32,5.23-12.6,11.32-16.35,1.44.7-.2,2.43-.69,3.31-1.01,1.78-2.46,2.93-2.79,5.21-.66,4.58,1.52,10.65,6.47,11.49,14.62,2.48,39.62-6.13,53.78-11.23,12.77-4.6,25.4-9.96,37.06-16.94,7.48-4.48,17.42-9.79,15.52-20.19-10.54-12.17-30.57-10.43-44.7-6.49-2.27,7.16-3.49,14.68-5.63,21.87-.98,3.32-5.15,17.31-8.09,17.95l-3.27-3.26c-.26-3.27,3.15-5.76,3.67-7.38,1.02-3.17,1.44-7.97,2.43-11.57.63-2.28,4.64-13.86,3.74-14.76-1.45-.16-2.66,0-4.05.45-6.17,1.98-13.23,7.11-19.93,9.06-1.04.3-7.12,1.91-7.05-.05,4.5-15.16,23.76-11.85,34.07-19.92,2.07-6.56,3.71-13.21,6.45-19.55.97-2.25,4.48-9.88,5.95-11.05,1.61-1.29,6.9-3.09,7.56-.43-3.05,8.03-8.86,16.78-10.94,25.06-.59,2.33,1.79,1.43,3.27,1.26,13.85-8.61,30.9-16.82,41.19-29.81,5.31-6.7,1.51-10.99-6.06-11.98-14.81-1.95-50.67,14.84-65.16,21.76-3.89,1.86-9.13,4.14-12.66,6.34-4.89,3.05-8.12,9.08-14.64,5.85-1.01-.85,2.24-3.87,2.97-4.52,5.94-5.33,15.15-10.02,22.33-13.67,19.17-9.74,58.95-27.95,79.71-20.32,1.66.61,4.04,1.67,4.81,3.19,3.05,6.02.35,10.55-3.39,15.27-5.71,7.23-19.09,15.66-27.11,20.89-4.45,2.9-9.6,5.73-14.33,8.18ZM790,242c-5.16-.38-10.84,1.46-14.94,4.56-1.5,1.14-10.65,9.83-9.06,11.44l17.96-8.53c2.21-2.81,6.18-3.34,6.03-7.46ZM681,264c4.67,1.26,20.9-8.67,20.87-12.51l-2.5-2.37c-8.16,1.61-15.28,7.13-18.37,14.89ZM666,251c-9.62-.6-19.43,5.51-22,15,1.36,1.29,12.87-4.21,14.96-5.54,3.21-2.05,7.48-5.17,7.04-9.46Z"/>
  <path d="M257,296c2.87.46,4.95-.87,7.33-2.17,5.68-3.12,11.96-8.6,17.74-12.26,2.84-1.8,11.29-7.68,13.6-8.4,5-1.58,2.7,4.37,7.39,2.4,7.44-6.95,18.41-10.31,23.84-19.08-2.03-3.35-8.2-2.04-4.93-7.02,2.51-3.82,5.82-2.27,8.99.07,5.94,4.37,4.08,7.2-.45,11.47-6.9,6.5-15.85,11-23.44,16.56-6.66,4.88-13.23,10.15-18.06,16.94.64,1.16,3.01.39,4.05.05,9.21-3.05,18.14-11.05,27.93-14.07,4.03-1.24,8.42-3.3,9.76,2.02-13.93,21.43-31.4,41.24-44.57,63.17-4.56,7.59-7.92,15.86-12.68,23.33-1.36.38-4.44-3.08-4.55-4.51s2.69-11.04,3.59-12.46c1.84-2.93,4.38-1.47,5.36-2.14.48-.33,3.91-8.78,4.92-10.58,6.73-11.9,15.29-22.81,22.76-34.24,3.27-5.04,8.36-9.58,11.43-14.57.77-1.25,1.21-2.13-.51-2.5-1.62-.35-17.55,9.68-20.79,11.2-3.95,1.85-15.03,6.38-18.54,3.65-3.58-6.04,3.16-10.31,6.84-14.35-.01-.9-1.83-.61-2.39-.39-1.31.51-4.98,4.19-6.67,5.33-5.44,3.67-22.11,15.79-27.95,10.09-3.43-3.34,1.87-14.27,4.02-18.02-1.66-1.58-4.32,1-5.93,2.07-8.97,5.98-16.95,13.14-26.73,18.27-6.43,3.37-18.16,9.51-22.3.61l-1.4-.36c-4.85,2.31-9.71,5.36-14.63,7.42s-13.38,5.8-16.52-.49c-2.33-4.66,3.1-17.73,5.68-22.34,1.7-3.04,5.76-7.33,6.82-10.18s-3.61-.61-4.55-.5c-4.81.55-7.61-3.8-2.74-5.78,5.2-2.11,10.6-1.28,15.81-5.19,2.81-2.11,12.67-14.65,13.24-17.69.13-.73-.71-1.75-.31-2.36l6.07-3,4.16,4.52-5.67,12.52c8.15-1.19,15.42-6.75,23.87-5.87l2.09,4.27c-2.22,2.55-5.57,6.54-9.29,5.45-.81-.24-1.44-1.46-2.12-1.51-2.51-.2-21.64,5.54-23.54,7.17-5.16,6.88-11.28,13.06-15.2,20.8-1.4,2.77-5.88,12.37-3.67,14.56,2.22,1.26,3.67.48,5.87-.36,4.42-1.68,15.15-6.83,17.21-10.79,4.24-8.17,3.55-12.3,11.76-19.24,4.19-3.55,16.11-10.91,21.38-9.33,5.74,3.55,4.36,8.76.65,13.36-6.5,8.06-16.2,12.43-24,18.99l3.51,2.56c1.79.17,3.63-1.06,5.17-1.87,4.79-2.52,12.17-8.67,16.82-12.18,8.05-6.08,17.53-13.34,25-20,9.16-8.17,15.99-17.71,27.16-23.84,2.89-1.58,5.26-2.86,8.74-2.08l1.59,2.4c-8.38,7.23-16.64,14.8-23.44,23.57-2.48,3.2-17.03,24.51-14.56,26.94ZM228,275c-8.45-.31-18.05,7.39-19,15.99,2.31,2.3,19.5-11.33,19-15.99Z"/>
  <path d="M83.25,291.25c3.4-3.24,11.89-7.81,16.49-9.01,5.21-1.35,8.3-1.64,10.79,3.8l6.44-4.56c2.6-1.35,4.42-.15,5.9,2.01l-15.87,20.02c-.82,1.74,1.27,1.77,2.52,1.52,1.84-.37,6.38-4.95,8.54-6.46,6.54-4.56,14.3-10,21.24-13.76,6.1-3.3,9.83-5.67,16.19-.8,5.21,8.65,2.5,27.4-7.46,31.52-5.44,2.25-20.25,2.98-21.84-4.21s4.01-9.54,8.43-14.24c3.39-.31,4.67,2.35,4.37,5.37s-3.31,5.05,0,7.07c7.43,2.55,9.74-6.02,8.98-11.98-1.41-11.04-7.27-7.54-14.29-3.37-7.58,4.52-13.75,11.05-20.73,16.27-3.36,2.51-13.12,9.96-16.76,6.37-1.03-1.71-1.05-3.39-1.22-5.29-.13-1.45.6-1.75-1.46-1.52-5.34,3.79-17.88,14.91-24.53,11.52-2.24-1.14-2.79-5.62-3.01-8-.13-1.45.6-1.76-1.46-1.52-10.44,4.83-21.25,11.96-31.82,16.19s-23.93,7.23-31.55-2.84c-.8-6.77-.11-12.11,2.35-18.36,9.69-24.61,51.22-67.92,75.5-78.5,6.77-2.95,16.57-4.98,19,4,0,1.13-1.77,4.4-2.54,5.46-4.43,6.19-20.89,19.59-27.52,24.48-2.33,1.71-9.36,6.96-11.6,7.41-1.82.37-2.23.02-3.33-1.34,1.03-2.53,3.54-6.73,5.99-8,1.26-.65,2.77-.43,4.03-.97,2.58-1.09,17.72-16.08,19.98-19.02,1.25-1.62,1.73-3.46,2.98-5.02-2.33-3.38-7.61.98-10.32,2.67-25.27,15.84-52.01,42.5-63.87,70.13-2.59,6.03-4.99,10.32,1.18,15.21l1.5.5c2.97-.14,6.01.23,8.96-.07,12.16-1.24,44.79-17.62,54.06-25.94,2.35-2.1,4.11-5.2,5.74-6.76ZM77,313l6.51-2.99,22.48-19.51c-4.64-3.81-10.51-.73-14.5,2.49-2.72,2.2-17.25,17.1-14.49,20Z"/>
  <path d="M508.5,60c1.44.2,6.65,2.06,8.21,2.79,6.9,3.23,10.69,10.21,10.33,17.75-.53,11.3-7.89,17.57-17.77,21.26-1.22.46-2.74,1.17-1.28,2.2,4.49.48,9.5,2.84,13.33,5.17,17.69,10.76,12.45,35.81-6.05,42.61-2.42.89-10.91,3.22-12.78,3.22h-49.5v-4c4.6.55,10.28-.95,11.81-5.69.54-1.66-.46-4.56,1.79-5.21,2.08-.6,5.38.12,7.84-.16,1.4-.16,7.2-2.31,7.55-1.95-1.17,10.88,6.44,11.99,15.45,10.95,17.41-2.01,22.73-22.08,11.99-34.89-1.49-1.77-5.26-4.9-7.38-5.62-.75-.26-5.27-1.44-5.56-1.44h-14.5v16l-16,2v-55.5c0-.18-1.56-2.6-1.96-3.04-2.77-2.97-6.28-2.58-10.04-2.46v-4h54.5ZM482,100c8.9,1.93,18.82.89,24.46-7.04,4.37-6.14,3.2-17.54-1.93-23-.82-.87-5.46-3.97-6.03-3.97h-15l-1.5,1.5v32.5Z"/>
  <path d="M502,46v4s-10.48-.02-10.48-.02c-2.77-.12-4.17-2.71-6.16-3.84-24.99-14.16-51.92,2.17-55.3,29.41-2.28,18.4.82,40.26,18.62,50.27,13.52,7.6,34.21,4.28,47.83-1.82l-.5,3.5c-3.93,1.42-8.09,3.77-11.99,5.01-16.94,5.42-41.33,4.12-55.52-7.51-16.23-13.3-22.37-32.51-17.04-53.05,7.5-28.9,40.8-47.16,68.56-33.47,3.34,1.65,8.8,6.7,11.66,7.34,3.14.71,7.06-.13,10.33.18Z"/>
  <path d="M468.05,287.06c-.85,2.84,1.66,3.6,2.81,5.58s1.79,4.03,3,5.87l-3.8,3.04c-5.13-.34-8.73-4.43-12.53-7.39-4.73,2.8-10.18,5.19-14.85,8-8.95,5.38-19,15.45-30.2,13.86-1.22-.17-2.58-.77-2.35-2.36,1.79-12.23,22.02-28.75,29.77-38.31l-5.89-21.93c.79-9.77,5.34-15.44,13.06-20.87,8.78-6.17,27.6-14.22,37.66-8.77,7.16,3.88,4.25,12.51.3,17.73-5.97,7.89-15.36,14.75-22.52,21.48-1.7,1.59-8.34,7.68-9.02,8.98-.43.82-.75,1.47-.39,2.4l8.4,9.67,27.55-14.52,1.43-4.57c2.51-3.17,13.04-4.07,11.46,1.44-.37,1.3-9.63,7.25-11.59,8.43-7.05,4.24-15.14,7.96-22.28,12.23ZM467.73,229.23c-4.06.58-10.46,3.75-14.06,5.94-11.85,7.19-12.85,17.65-6.89,29.55,2.54,5.08,6.14.15,8.74-2.69,5.66-6.19,13.42-14.26,18.48-20.52,2.07-2.56,6.04-8.08,3.01-11.03-2.75-1.95-6.1-1.7-9.29-1.25ZM450.94,290.94c1.53-1.3-4.84-8.63-6.43-9.79-5.97,3.44-10.15,9.24-14.51,14.36-3.12,3.67-8,7.04-8.01,12.49l28.94-17.06Z"/>
  <path d="M461.99,1c1.35,4.49,6.56,7.35,9.51,10.99l7.88-5.92,8.52,8.26-8.39,17.61c-11.82-5.07-25.33-5.22-37.53-1.38l-7.81-17.09,9.33-7.55,8.93,5.03,9.56-9.96Z"/>
  <path d="M496,316c-3.12.21-6.44-.27-9.53-.03-12.01.91-25.01,3.42-37.01,4.99-52.46,6.83-104.58,15.88-156.45,26.05l3.19-5.8,95.36-17.14c5.95-.66,11.97-1.26,17.9-2.1,25.82-3.68,52.09-7.29,78.01-9.99,4.13-.43,8.28-2.98,8.54,4.04Z"/>
  <path d="M349,287c1.78,1.88,15.93-12.62,21.56-8.06s-.57,9.12.39,14.48c8.93,4.01,19.65.84,27.89-3.6l.68-2.85c2.6.11,5.17-.16,7.76.25.96.16,3.44.73,2.71,2.28-3.97,5.67-10.52,4.93-16.26,6.74-2.75.87-5.74,2.74-8.47,3.53-9.4,2.73-29.18,3.29-21.27-11.27l-2.51-1.53c-8.98,5.3-15.76,14.23-27.4,11.96-3.53-7.96,7.11-12.05,8.89-19.44l-2.96-1.99c5.38-6.43,12.76-8.06,11.01,3.01-.32,2.02-3.03,3.56-2.01,6.48Z"/>
  <path d="M715,299c.04,1.61-3.33,1.95-4.46,2.04-13.48,1.02-28.37-.61-42.08-.08-24.22.95-48.83,3.39-73.01,4.99-4.87.32-9.63-.03-14.45,1.04l7.67-4.83c24.33-1.68,48.44-2.38,72.87-3.13,15.64-.48,32.19-2.27,48-1.07,1.88.14,3.55,1.14,5.46,1.04Z"/>
  <path d="M226.85,364.84c-3.34,1.78-7.25-.13-10.78-.92l.88-6.47,53.04-11.45-4.99,7.51-37.56,8.47-.6,2.86Z"/>
</svg>