<?xml version="1.0" encoding="UTF-8"?>
<svg id="Laag_1" xmlns="http://www.w3.org/2000/svg" version="1.1" viewBox="0 0 709 409">
  <!-- Generator: Adobe Illustrator 29.5.1, SVG Export Plug-In . SVG Version: 2.1.0 Build 141)  -->
  <path d="M222,173c1.69,1.84,6.12-6.47,6.99-7.51,4.83-5.69,15.03-14.49,22.54-15.45,11.21-1.43,20.56,7.54,24.96,16.96,9.11,19.47,4.8,42.1,3.46,62.46-.19,2.9.04,5.98.18,8.89l2.5,2.5c9.8,1.84,19.3-4.36,24.21-12.5,2.2-3.64,3.07-7.8,5.7-11.3,10.58-14.04,36.02-15.1,50.98-22.02.82-1.24.66-13.11.49-15.58-.3-4.29-1.67-11.6-3.6-15.4-5.4-10.61-23.52-10.47-30.45-1.58-2.64,3.4-2.63,7.69-5.6,10.41-3.04.93-5.83-1.11-8.41-2.37-4.31-8.4,7.66-15.16,14.49-17.55,8.5-2.98,21.36-2.98,29.81.26,14.81,5.68,19.2,22.89,20.76,37.24,1.47,13.5-.67,28.67,2.17,41.83,1.04,4.79,3,9.19,8.26,9.74,11.73,1.23,26.26-4.47,29.33-16.75.53-2.12.05-4.66,1.16-6.84l-.43-129.47c-.95-1.84-6.34-3.87-8.48-4.52-2.28-.7-5.82.33-6.05-2.95,1.08-1.12,1.78-2.27,3.49-2.52,7.42-1.08,18.07.38,26.05.05,2.3-.1,14.18-3.31,13.39,1.35-.63,3.69-4.54,2.59-7.46,4.57-.57.39-2.69,2.51-2.96,3.04-.24.47-1.5,4.26-1.5,4.5v75.5c1.72.41,1.99-.66,3-1.5,2.63-2.19,4.87-5.36,7.49-7.51,14.17-11.61,29.68-10.6,41.52,3.5,10.2,12.14,15.19,34.3,11.55,49.56-2.26,9.48-11.48,20.14-1.57,28.47,9.33,7.84,27.29,2.75,33.88-7-13.51-17.62-12.88-43.51-.33-61.48,15.5-22.2,52.77-28.26,73.98-11.04,3.51,2.85,5.8,6.6,10.15,8.85,13,6.73,16.92-3.24,16.42-14.77,4.32-2.11,10-.26,12.79,3.56,1.45,4.91-4.76,11.48-8.36,14.37-5.44,4.37-12.56,6.35-19.51,6,7.12,24.64-3.83,50.9-25.67,63.83-14.36,8.5-31.29,9.67-46.02,1.36-2.14-1.21-8.14-6.45-9.69-6.11-9.96,10.81-30.1,16.93-42.56,7.36-2.9-2.22-4.04-5.1-6.68-7.37-1.63-.34-7.02,4.57-9.06,5.76-13.92,8.13-31.98,8.1-45.29-1.37-3.28-2.33-7.19-9.54-12.06-6.99-1.39.73-5.06,4.6-7.04,5.96-10.28,7.06-26.93,11.54-38.95,7.08-6.28-2.32-5.17-5.05-8.51-8.49-4.21-4.32-7.7.97-11.78,3.16-9.4,5.05-17.38,6.91-28.22,5.84-8.45-.83-14.03-7.15-17.97-14.04l-.97.02c-7.95,9.86-21.18,14.91-33.82,12.78-12.03-2.03-11.2-12.67-10.75-22.33.07-1.53.91-2.8.99-4.01.84-12.89,3.14-38.63-4.49-49.41-16.77-23.69-36.41,6.03-41,22.92-2.01,7.39-2.31,23.8-1.5,31.58.7,6.62,5.91,10.37,11.99,12.01,2.35.64,10.37.26,9.05,4.94-.38,1.34-2.26,1.45-3.46,1.54-9.94.8-20.97-.55-31.08-.08-1.37.06-15.5,3.28-11-3,.92-1.28,6.36-1.88,8.52-3.48.78-.57,3.02-3.46,3.02-3.98v-26.5l-12.99,17.51c-28.25,32.07-92.02,33.37-123.95,6.93s-36.34-91.42-20.26-128.14c17.6-40.19,65.49-70.96,108.89-50.5,3.36,1.59,16.35,9.18,16.34,12.68,0,2.3-9.33,12.13-11.49,13.56-6.02,3.97-8.87-4.27-11.53-7.56-13.92-17.23-39.32-17.99-57.71-7.67-33.65,18.89-37.73,67.41-34.35,101.73,3.79,38.36,19.1,74.43,62.5,77.5,28.71,2.03,52.86-8.14,69.97-31.1,5.41-7.26,14.72-23.56,15.6-32.4,2.36-23.6-2.35-51.29.02-74.98,2.8-27.95,42.42-49.02,65.45-30.56,2.69,2.16,9.46,8.89,8.38,12.37-2.54,4.11-13.99,12.3-16.43,4.68-1.87-5.84-.89-7.98-6.52-12.48-12.34-9.86-29.46-3.41-33.49,11.39-.29,1.05-1.45,6.21-1.45,6.55v75.5ZM563.71,157.21c-7.07,1.21-14.41,8.05-17.91,14.09-9.87,17.01-7.14,41.13,5.19,56.21,15.6,19.06,41.05,21.46,51.2-3.81,4.8-11.94,4-27.94-.42-39.97-6.05-16.45-19.25-29.72-38.07-26.51ZM457.68,163.25c-13.44.58-21.37,20.26-23.45,31.49-3.57,19.26,1.88,43.86,24.5,47.03,15.98,2.24,24.08-7.29,27.81-21.72,4.59-17.77-1.52-50.81-22.26-55.83-1.22-.3-5.56-1.01-6.6-.97ZM359.75,203.17c-5.78.88-14.32,3.15-19.75,5.32-4.59,1.84-13.6,6.76-14.04,11.96-.39,4.6-.14,8.7,2.58,12.51,9.15,12.82,34.51,6.41,36.42-8.5.53-4.14,1.03-20.12-3.62-21.38-.56-.24-1.05,0-1.59.09Z"/>
  <path d="M381,316l6.52.98,11.48,25.02c1.17-.1,1.74-1.35,2.21-2.29,3.67-7.37,6.39-15.44,10.27-22.73l6.52-.98v43h-6v-27l-9.48,18.02c-1.46,1.54-4.57,1.54-6.04,0-1.58-1.66-5.85-11.82-7.23-14.77-.55-1.18-.42-2.99-2.25-3.25v27h-6v-43Z"/>
  <path d="M163.5,316c2.53,1.47,4.77.75,7.46,2.54,7.58,5.03,6.33,13.92.04,19.46,7,1.57,7.13,13.39,2.74,17.75-.52.52-5.89,3.26-6.24,3.26h-20.5v-43h16.5ZM153,334c3.89-.47,15.24,1.84,16.02-3.48,1.4-9.49-8.05-8.97-15.07-8.08l-.95,11.55ZM168.81,342.19c-4.96-3.09-10.21-2.1-15.81-2.19v13.01c8.64.32,20.67,1.59,15.81-10.81Z"/>
  <path d="M345,345l1.01-7.99h5.99c.25,4.78-1.45,9.37-3.73,13.49l5.73,8.5-7.4.05-3.09-3.96c-17.69,12.55-36.82-5.66-17.65-20.58-3.71-4.6-6.42-11.66-.84-15.99,12.39-9.62,26.6,9.26,9.98,16.97,2.8,2.55,4.43,6.18,7.49,8.5.87.66.98,1.38,2.5.99ZM330.61,322.11c-3.88,1.16-2.32,8.34,1.81,8.85,5.2-2.83,5.22-10.95-1.81-8.85ZM329.52,339.14c-7.56,3.01-7.22,13.23,1.19,14.73,1.97.35,8.85-1.63,8.26-4.29l-9.44-10.44Z"/>
  <path d="M487.5,316c.71.08,4.63,1.14,5.54,1.46,4.25,1.47,6.55,4.1,7.5,8.49,1.61,7.46-1.83,10.69-7.52,14.62l8.97,18.42-7.91-.08-8.18-17.82-7.91-.09v18h-7v-41.5l1.5-1.5c4.8.4,10.32-.56,15,0ZM492.82,324.18c-1.47-1.44-13.96-3.05-14.82-2.18v13.01c3.39-.44,12.58,1.05,14.82-1.19,1.58-1.58,1.6-8.07,0-9.64Z"/>
  <path d="M441.71,316.21c9-1.52,17.21,4.21,18.24,13.34.58,5.17.65,16.96-1.44,21.46-5.08,10.94-22.97,11.3-27.72-.31-2.66-6.51-2.96-22.54,1.19-28.22,2.14-2.93,6.11-5.66,9.72-6.27ZM442.68,322.17c-3.3.72-5.91,4.37-6.46,7.55-.72,4.16-.79,16.92,1.31,20.26,3.22,5.13,13.78,4.22,15.3-2.66.68-3.08.64-15.47.16-18.8-.64-4.42-6.16-7.26-10.3-6.35Z"/>
  <path d="M256,336l-1.02,12.48c-3.38,14.92-27.98,14.12-29.94-1.02-.5-3.84-.63-17.28.14-20.78,3.3-15.05,28.79-13.92,29.82,2.32l-6.94-.05c-.8-8.09-12.34-9.82-15.59-1.97-2.11,5.1-2.75,21.71,2.14,24.91,8.41,3.79,15.08-.75,14.39-9.88h-9.01s0-6,0-6h16Z"/>
  <path d="M539,316v6h-19.5c-2.39,2.61-2.39,10.39,0,13h16.5v6h-18v12h21v6h-27v-43h27Z"/>
  <path d="M219,359l-6.92-.07-2.11-7.89h-17.92l-2.11,7.89-6.92.07,13.5-38,3.09-4.91,3.46.37,15.95,42.55ZM202,328c-2.45-.22-1.63-.14-2.05,1.43-1.41,5.29-3.93,10.29-4.95,15.58h12c1.31-1.31-5.54-14.06-5-17Z"/>
  <path d="M289.74,355.74c-5.19,5.21-22.32,4.76-26.73-2.24l4.49-3.56c5.03,3.7,12.71,4.74,18.01,1.07,1.62-3.04,1.7-6.61-1.11-8.91-5.98-2.3-14.1-.84-18.25-6.75-1.91-2.72-2.51-5.35-1.94-8.65,2.19-12.53,18.47-13.41,26.79-6.2l-3.48,4.32c-4.22-3.73-16.19-4.87-16.58,2.65-.55,10.51,15.93,4.08,20.93,13.16,2.37,4.31,1.38,11.6-2.12,15.1Z"/>
  <path d="M670,135h-5c1.31-2.81,2.08-7.55-.5-9.99-.7-.3-3.2,10.04-6.49,9-.4-1.37-3.03-9-3.51-9-2.56,0-1.16.79-1.45,2.54s-.28,3.29-1.01,4.89l2.97,2.57h-6c3.11-3.61,2.4-8.39,3.84-12.71l-1.84-3.28,3.9.09c1.14,3.26,2.49,6.46,3.91,9.61.59,1.31-.07,1.63,2.18,1.29l5.5-12c3.48,5.13-.8,12.41,3.5,16.99Z"/>
  <path d="M649,119v4c-2.62-2.01-1.64-3.93-6-3,.54,5.03-1.61,10.91,2,15h-6s2.06-1.57,2.06-1.57l-.06-13.43-3.87.13-2.12,2.87.03-3.47c1.28-2.31,2.44-.51,4.42-.49,3.18.04,6.38-.12,9.55-.04Z"/>
</svg>