<?xml version="1.0" encoding="UTF-8"?>
<svg id="Laag_1" xmlns="http://www.w3.org/2000/svg" version="1.1" viewBox="0 0 301 168">
  <!-- Generator: Adobe Illustrator 29.5.1, SVG Export Plug-In . SVG Version: 2.1.0 Build 141)  -->
  <path d="M155,0c1.3,1.45,3.35,1.4,4.97,2.53,1.83,1.29,3.93,4.74,5.72,5.27,6.22,1.84,19.99-2.12,25.2,5.8,7.66,11.65-19.12,15.8-25.79,12.46-5.26,11.27-24.06,11.52-29.23,0-6.42,2.53-26.45.43-27.72-7.8-.98-6.34,9.73-9.65,14.45-10.18,3.84-.43,9.48.66,12.71-.29,1.75-.52,3.93-3.97,5.72-5.27,1.59-1.16,3.68-1.07,4.97-2.53h9ZM161,25.01c-4.84-.91-9.99-4.31-8.27-9.7,1.67-3.8,4.87-3.89,7.27-5.81,1.34-1.08,1.12-.94-.03-1.95-6.27-5.52-14.14-4.71-19.96.97l7.04,5.94c3.3,4.79-2.14,9.23-6.46,10.53-2.43,1.7,4.21,4.92,5.59,5.34,4.27,1.3,7.5.9,11.35-1.3.99-.57,4.57-2.52,3.48-4.01ZM134,12.01c-3.89-.53-23.98-.46-21.94,6.38,1.37,4.59,17.8,5.22,21.94,4.61-1.31-3.94-1.31-7.05,0-10.99ZM167,22.99c7.9-.08,16.58,1.55,21.97-5.49-5.39-7.04-14.08-5.42-21.97-5.49,1.31,3.94,1.31,7.05,0,10.99ZM137,13c.15,2.04-1.13,9.41,2.35,8.88,1.77-.27,5.33-2.98,4.55-5.21-1.41-2.38-4.13-3.9-6.9-3.67ZM164,13c-.77-.77-6.82,1.93-7.57,2.99-2.1,2.96,5.64,7.51,7.11,5.04l.46-8.03Z"/>
  <path d="M0,88c1.62-2.45.87-5.57,1.69-8.81,5.83-23.1,41.52-26.59,51.34-4.73l-4.38,1.47C31.97,52.14-1.68,70.1,7.5,98c4.62,14.05,22.93,19.16,34.84,10.83,3.75-2.63,5.69-10.13,10.67-5.32-10.51,22.68-46.44,17.94-51.78-6.24-.46-2.07-.94-5.31-1.23-7.28v-2Z"/>
  <path d="M185,168h-7c-12.2-5.53-9.88-23.5,4.51-23.08,12.72.37,14.32,19,2.49,23.08ZM188.7,149.3c-.7-.78-3.16-2.07-4.23-2.25-17.67-3.09-15.28,23.57.6,18.51,6.37-2.03,7.87-11.58,3.64-16.25Z"/>
  <path d="M108,168h-6c-13.98-6.26-8.79-26.38,7.07-22.56,7.77,1.87,9.95,12.44,5.41,18.54-1.88,2.53-4.37,2.22-6.48,4.02ZM98.3,149.3c-8.76,9.67,6.02,23.46,14.26,13.76,8.97-10.55-6.78-22.03-14.26-13.76Z"/>
  <polygon points="243 60 248.52 60.98 272.99 109 295.65 60.15 300 60 300 118 295 118 295 74 273.53 118.08 269.48 117.01 248 74 248 118 243 118 243 60"/>
  <path d="M215.5,60c5.16.86,11.29,6.4,12.27,11.73,1.9,10.39-4.25,15.05-12.75,18.77l14.98,27.5-6.51-.98-15.17-25.83-9.32-.17.87,25.36c-.75,2.31-3.93,1.59-5.87,1.63v-58c6.55.77,15.26-1.04,21.5,0ZM199,85h16.5c.29,0,4.08-2.99,4.52-3.48,4.21-4.66,2.02-11.9-3.32-14.73-4.3-2.27-13.73-3.08-17.7-.3v18.5Z"/>
  <path d="M153.86,60.15l27.14,57.84c-2.13-.12-4.87.7-6.51-.98-2.84-2.9-6.13-16.89-9.13-17.87l-28.37.33-8.1,18.4-5.87.12,24.48-57.01,6.37-.83ZM163,94c-1.04-3.19-2.43-6.63-3.82-9.68-2.43-5.36-5.43-11.99-9.17-16.32l-11.01,26h24Z"/>
  <polygon points="72 60 72 85 104 85 104 60 110 60 110 118 104 118 104 90 72 90 72 118 67 118 67 60 72 60"/>
  <path d="M139,164v-19l2,1.5v20.5l-3.81-.2c-3.36-5.31-7.06-11.64-10.92-16.53-.62-.79.09-1.85-2.27-1.27v18h-2v-20.5c0-.48,1.61-2.08,3.02-1.02,2.86,2.14,8.32,12.69,11.57,16.43.67.77,1.28,2,2.4,2.1Z"/>
  <path d="M215,164v-19h2v22c-1.5.16-2.37.07-3.56-.94-4.42-3.72-7.58-13.19-12.44-17.06v18h-2v-22c1.65-.36,2.03.53,2.99,1.51,4.59,4.72,7.64,13.36,13.01,17.49Z"/>
  <path d="M147,167v-22c25.42-3.66,25.97,26.75,0,22ZM149,147v17.5c3.24,3.39,12.57.13,14.24-3.75,4.18-9.73-5.33-15.72-14.24-13.75Z"/>
  <path d="M81,145v21c2.15.07,4.35-.1,6.51,0,1.22.06,3.72-.76,3.49.99h-12s0-21.99,0-21.99h2Z"/>
</svg>