<?xml version="1.0" encoding="UTF-8"?>
<svg id="Laag_1" xmlns="http://www.w3.org/2000/svg" version="1.1" viewBox="0 0 1270 250">
  <!-- Generator: Adobe Illustrator 29.5.1, SVG Export Plug-In . SVG Version: 2.1.0 Build 141)  -->
  <path d="M1243,0c1.24,1.61,4.01.92,6.06,1.44,13.44,3.41,21.47,13.4,19.94,27.56h-18c1.48-7.93-3.33-11.11-10.57-11.93-15.94-1.8-34.69,1.21-50.95-.1-4.92.27-9.3,3.75-10.44,8.56.97,13.08-1.41,28.19-.07,41,.65,6.16,5.96,8.75,11.61,9.39,15.89,1.8,34.66-1.13,50.87.02,9.14-1.19,11.12-7.62,10.56-15.94h-42v-17h60v27c-1.77,2.63-1.88,6.34-3.24,9.26-4.89,10.46-16.63,13.12-27.21,13.79-14.01.89-35.12.97-49.07-.02-10.53-.75-21.72-4.19-26.68-14.32-5.01-10.25-4.91-39.3-3.72-51.12,1.43-14.18,9.35-25.62,24.39-26.63l1.53-.95h57Z"/>
  <path d="M868,0c2.77.36,11.15,3.29,13.7,4.8,8.67,5.12,10.87,14.7,10.3,24.2h-18c.29-6.26-.61-11.08-7.56-11.94-14.61-1.81-33.24-1.69-47.86.02-6.79.79-10.06,4.37-9.63,11.42.34,5.61,3.23,7.74,8.61,8.44,18.11,2.36,53.43-4.84,67.95,6.05,4.93,3.7,7.94,9.34,8.51,15.49,1.65,17.72-2.99,30.03-21.59,33.45-12.43,2.28-54.04,2.5-65.43-1.42-7.89-2.72-13.17-7.75-14.93-16.07l-1.07-12.43h18c-.55,8.68,1.4,13.21,10.48,14.02,11.18,1,34.96,1.15,45.95-.09,9.5-1.08,11.45-5.39,10.6-14.46-.42-4.52-1.77-4.73-5.73-6.28-17.95-1.19-37.07,1.38-54.73-1.27-10.79-1.62-19.67-4.75-22.87-16.13-2.65-9.41-2.25-21.6,4.31-29.29,4.42-5.19,10.01-6.45,16.43-7.58.92-.16,1.47-.91,1.56-.92,10.1-1.3,42.91-1.31,53,0Z"/>
  <path d="M214,0c2.51,1.55,5.54,1.83,8.37,3.13,9.21,4.24,13.82,14.55,14.65,24.35.98,11.64,1.12,38.84-2.82,49.23-4.44,11.71-16.01,15.55-27.66,16.34-15.07,1.03-38.01,1-53.09,0-14.72-.98-25.75-6.64-29.22-21.78-2.53-11.02-2.39-44.57,1.57-54.98,1.99-5.25,6.19-10.3,11.16-12.84,3.05-1.56,6.23-1.83,9.04-3.46h68ZM155.76,16.26c-6.59.7-12.25,1.92-13.73,9.27.88,12.84-1.28,27.37-.06,39.99.68,6.98,4.95,9.54,11.5,10.5,16.94-1.05,35.31,1.31,52.07.02,5.96-.46,11.81-2.99,12.49-9.51.97-9.2.97-30.87,0-40.07-.89-8.44-8.15-9.92-15.51-10.49-12.45-.95-34.45-1.02-46.76.29Z"/>
  <path d="M638,0c2.81,1.63,5.99,1.9,9.04,3.46,6.97,3.55,10.61,10.1,12.48,17.52,2.56,10.21,2.62,39.97.25,50.29-3.47,15.13-14.51,20.8-29.22,21.78-15.08,1-38.03,1.03-53.09,0s-25.09-5.92-28.99-21.01c-2.52-9.73-2.37-34-1.48-44.56.83-9.8,5.44-20.11,14.65-24.35,2.83-1.3,5.86-1.58,8.37-3.13h68ZM579.76,16.26c-5.89.63-12.08,1.81-13.57,8.43-2.17,9.64-2.1,33.93,0,43.62.99,4.6,7,7.3,11.29,7.71,16.94-1.05,35.31,1.31,52.07.02,6.93-.53,11.77-3.18,12.48-10.52.9-9.28.98-29.85.01-39.06-.89-8.44-8.15-9.92-15.51-10.49-12.45-.95-34.45-1.02-46.76.29Z"/>
  <path d="M84,0c3.93,1.93,7.83,2.23,11.51,4.99,2.64,1.98,8.49,9.44,8.49,12.51v17.5h-17c-.51-5.05,1.68-12.3-2.47-16.03-2.01-1.81-8.12-2.77-11.01-2.99-10.94-.83-28.08-.75-39.07-.02-9.68.64-16.16,1.81-17.38,12.62-.93,8.22-.86,25.63-.09,33.95.66,7.12,3.48,11.78,10.74,13.26,15.98-.7,34.07,1.7,49.8.24,13.75-1.28,10.03-9.03,10.48-20.02h18v15.5c0,1.26-2.43,8.2-3.22,9.77-2.71,5.41-8.94,8.92-14.72,10.28-12.39,2.93-46.05,2.52-59.58,1.47-10.15-.79-21.01-4.53-25.9-14.1-1.02-1.99-.95-4.47-2.58-5.92V19c2.51-4.43,4.29-9.72,8.49-13.01S17.54,2.06,22,0h62Z"/>
  <path d="M402,250v-35.46c.13-1.15,3.74-1.08,4.82,1.14,3.7,7.57,6.72,15.64,10.18,23.32,1.45-.11,1.56-1.49,2.02-2.47,3.32-7.1,6.28-14.39,9.45-21.55l4.52-.98v36s-4,0-4,0l-.5-25.01-9.07,20.06-4.37-.12-.85-3.63-8.21-16.3v25h-4.01Z"/>
  <path d="M500,250v-36s3.42-.05,3.42-.05c4.01,7.27,7.03,15.06,10.56,22.58.46.98.57,2.36,2.02,2.47l10.49-24.01,4.51-.99v36s-4,0-4,0v-25c-1.8.26-1.7,2.06-2.26,3.24-1.53,3.26-5.55,14.04-7.23,15.77-1.2,1.24-2.41,1.09-3.97,1.03l-9.05-20.05-.5,25.01h-4Z"/>
  <path d="M930,250h-19c1.05-10.42-1.41-23.44-.02-33.52.11-.8.23-1.55.96-2.04,5.89-.67,16.72-1.7,21.09,3.02,5.9,6.38,5.75,27.68-3.03,32.53ZM916,247c4.45-.35,9.94,1.28,13.53-1.97,4.41-3.98,2.64-15.76,2.28-21.34-2.4-7.33-9.59-5.61-15.81-5.69v29Z"/>
  <path d="M755,250v-36h16.5c.29,0,4.47,2.46,5.03,2.97,3.78,3.4,3.59,12.38-.55,15.51-1.1.83-4.01,1.44-4,2.05l8.02,15.47h-5l-7.61-15.05-8.39.05v15s-4,0-4,0ZM759,231c8.1.2,18.81,1.6,15.52-10.02-3.89-4.66-10.17-2.57-15.52-2.98v13.01Z"/>
  <path d="M333,250v-36h16.5c.26,0,3.44,1.56,4.03,1.97,7.42,5.22,5.32,16.36-3.53,18.04l8,15.99h-5c-1.47-3.19-4.41-11.87-6.48-14.02-1.92-1.99-6.84-.59-9.52-.98v15s-4,0-4,0ZM337,231l14.41-1.1c8.1-12.24-4.95-12.77-14.41-11.91v13.01Z"/>
  <path d="M590,250l-.02-33.52,1.52-2.48h21.5v4h-18v12h15v4h-15v13c5.16.11,10.36-.16,15.53,0,3.17.1,2.55-.3,2.47,3h-23Z"/>
  <path d="M811,250c-1.99-1.93-4.55-3.13-5.55-5.95-2.17-6.17-2.53-21.17,2.01-26.08,7.5-8.12,20.63-3.51,22.54,7.03-5.36,1.13-4.44-2.57-6.52-4.98-3.24-3.75-11.66-2.62-13.99,1.97-1.03,2.03-.27,4.36-.46,6.53-.34,3.92-.34,4.03,0,7.95.17,1.9-.41,4.04.13,5.86,1.52,5.15,10.65,6.41,14.32,2.65l2.52-9.99h-9.01s0-3,0-3h13.01c.87,7.67-.56,12.64-6,18h-13Z"/>
  <path d="M894,250h-13c-2.49-1.89-5.13-4.49-5.8-7.7s-.67-15.31-.16-18.77c1.65-11.25,17.78-12.89,23.42-3.48,2.39,3.99,2.4,20.92,0,24.9-1.1,1.83-3.59,2.92-4.45,5.05ZM884.69,218.2c-2.44.55-4.95,3.04-5.5,5.5-.78,3.53-.65,16.75.94,19.67,2.68,4.93,9.25,4.85,13.35,1.62,4.16-8.4,5.67-30.06-8.8-26.79Z"/>
  <path d="M859,250h-13c-2.12-2-5.11-3.56-5.81-6.69-.78-3.49-.79-17.14-.18-20.8,1.32-7.93,13.18-10.82,19.52-6.53s6.43,17.37,5.25,24.31c-.73,4.28-3.27,6.54-5.78,9.72ZM848.67,218.17c-1.61.48-4.1,3.85-4.47,5.52-.62,2.8-.62,14.82,0,17.62,1.43,6.44,9.65,7.57,14.3,3.68,4.53-8.64,5.25-31.28-9.82-26.82Z"/>
  <polygon points="684 250 684 214 688 214 688 230 705 230 705 214 709 214 709 250 705 250 705 234 688 234 688 250 684 250"/>
  <path d="M648,250h-4l-2.57-7.05-14.82.16c-1.83.54-2.53,5.01-2.61,6.89h-5c4.29-10.34,7.24-21.7,11.51-31.99.59-1.41,1.11-4.3,3-4.03,2.09.31,2.26,1.36,3,3.01l11.49,33.01ZM640,239c-1.32-4.38-2.55-9.01-4.23-13.27-.51-1.3-1.31-4.5-2.77-4.73-.87,6.3-4.05,12.01-6.01,17.99h13Z"/>
  <path d="M369,250v-36h21.5l1.5,2.49-1.5,1.51h-17.5v12h14.5l1.5,4h-16v13c5.04.34,10.57-.46,15.54-.05,2.27.19,3.52.36,3.46,3.05h-23Z"/>
  <path d="M299,250v-36h15.5c.3,0,4.84,2.05,5.48,2.52,2.03,1.47,2.79,3.53,3.05,5.95,1.54,14.26-8.87,13.89-20.03,13.53v14s-4,0-4,0ZM303,232c7.09-.3,16.41,2.38,16.05-7.52-.32-8.79-9.67-6.12-16.05-6.48v14Z"/>
  <path d="M722,250v-36h22v4h-18v12h14.5l1.5,4h-16v13c5.16.11,10.36-.16,15.53,0,3.17.1,2.55-.3,2.47,3h-22Z"/>
  <path d="M468,250c-1.31-2.38-6-5.73-6-8.5v-27.5h4v26.5c0,.29,2.48,4.51,3.02,4.98,3.56,3.17,11.27,1.91,13.49-2.48,1.95-3.84-.35-20.62.47-26.53.11-.83.28-1.5.99-2.01l3.04-.46v29.5c0,1.7-4.62,5.25-6,6.5h-13Z"/>
  <path d="M965,250h-16l-3.99-3.5,2.61-2.44c4.51,3.75,16.66,5.27,18.2-1.76,2.52-11.51-17.31-4.78-19.62-14.99-2.72-12.04,10.08-16.33,19.52-11.53,4.08,2.08,1.67,4.95-1.04,4.05-.81-.27-1.46-1.33-2.41-1.6-6.14-1.75-14.46.25-12.11,8.1,1.88,6.28,18.48,1.03,19.8,13.23.58,5.37-2.13,6.66-4.96,10.42Z"/>
  <polygon points="660 250 660 218 650 218 650 214 675 214 675 218 665 218 665 250 660 250"/>
  <path d="M559,250v-36s4,0,4,0v33c5.16.12,10.36-.16,15.53,0,3.17.1,2.55-.3,2.47,3h-22Z"/>
  <rect x="446" y="214" width="4" height="36"/>
  <path d="M995.5,1c2.46.34,9.29,3.04,11.45,4.55,4.79,3.34,7.53,9.19,8.07,14.93.71,7.6.79,16.41-4.96,22.09l-.06,1.42c9.61,3.64,8.72,19.75,8.04,28.56s-7.11,14.65-14.77,17.23c-1.61.54-7.66,2.23-8.77,2.23h-78.5V1h79.5ZM934,37h56.5c.22,0,3.58-1.57,4.06-1.94,2.77-2.19,1.05-10.83,1.31-14.43-.28-.86-3-2.63-3.37-2.63h-58.5v19ZM934,75h59.5c.23,0,3.63-1.57,4.07-1.93,3.66-4.91,4.37-17.97-3.1-19.04-1.4-.2-6.52-1.03-6.97-1.03h-53.5v22Z"/>
  <path d="M423,92V1h82.5c.31,0,4.97,1.86,5.76,2.24,4.69,2.26,8.71,6.71,10.28,11.72,2.6,8.32,2.73,21.63-4.53,27.54,9.41,5.73,9.81,17.97,9.03,28.04-.71,9.17-5.42,15.71-14.05,18.95-1.48.55-7.54,2.51-8.49,2.51h-80.5ZM497.5,17h-56.5v20h55.5c.33,0,6.06-1.97,6.3-2.2,2.08-4.34,1.08-9.48,1.07-14.17-.38-1.21-5.16-3.42-6.37-3.63ZM498.5,53h-57.5v22h61.5c.57,0,4.04-2.52,4.34-3.66-.01-5.3,1.14-11.25-1.05-16.13-.31-.31-6.53-2.12-7.29-2.21Z"/>
  <path d="M263.99,1l25.01,66L315.09,1.09c5.71.42,12.93-.9,18.42-.11.82.12,1.52.26,2.01.99l24.48,65.02L386.49,1.99l1.1-.95,15.35,6.58-32.41,83.41c-.76,1.06-1.86.93-2.98,1.02-3.66.3-11.62.46-15.07-.03-.82-.12-1.54-.2-2-1l-24.98-66.03-25.59,66.91h-19.81S247.03,7.48,247.03,7.48l16.97-6.48Z"/>
  <path d="M1099.85,1.16l47.05,80.5-.33,1.38-14.95,7.9-10.23-16.99-60.73.21-10.67,17.84-15.99-9.01L1081.11,1.11l18.74.05ZM1111,57l-20.5-34.99-20.5,34.99h41Z"/>
  <path d="M1032,163H237l.46-3.04,2.99-1.01h788.09c2.85-.15,3.88,1.32,3.45,4.05Z"/>
  <polygon points="734 92 715 92 715 54.5 675.01 13.5 687.6 1.04 724.5 37.99 760.6 1.04 773.06 13.5 734 53.5 734 92"/>
</svg>