<?xml version="1.0" encoding="UTF-8"?>
<svg id="Laag_1" data-name="Laag 1" xmlns="http://www.w3.org/2000/svg" viewBox="0 0 389 103.33">
  <path d="M0,1.32h43.5c.92,0,7.03,1.95,8.5,2.5,14.63,5.47,20.86,18.44,16.54,33.54-2.5,8.75-10.01,14.86-18.53,17.47-11.29,3.47-34.58,4.51-46.56,3.52-1.55-.13-2.5-.05-3.46-1.54V1.32ZM23,11.32v36c13.4,1.06,24.17-1.16,25.04-16.45s-11.24-20.59-25.04-19.55Z"/>
  <path d="M320,1.32v10h-33v10h29v10h-29v16h33c-.49,3.56,1.37,8.43-1.5,11h-53l-1.5-1.5V1.32h56Z"/>
  <polygon points="133 1.32 133 11.32 101 11.32 101 21.32 130 21.32 130 31.32 101 31.32 101 47.32 133 47.32 133 58.32 78 58.32 78 1.32 133 1.32"/>
  <path d="M253.92,5.4l.08,9.92c-3.91-1.07-7.77-2.87-11.74-3.76-6.49-1.46-16.33-3.17-22.62-1.1-2.21.73-2.29,3.82-.65,5.37.65.62,4.16,2.2,5.32,2.68,8.74,3.63,29.23,5.62,31.51,16.49s-2.73,18.55-12.81,21.82c-8.34,2.71-17.75,2.96-26.27,1.25-2.64-.53-15.26-4.17-16.28-5.72l-.45-10.04c6.18,1.74,11.94,5.43,18.47,6.03,4.72.43,21.56,1.72,17.05-7.06-1.92-3.75-24.48-7.55-31.03-12.97-9.98-8.25-6.34-21.34,5.23-25.78,13.49-5.18,30.87-1.55,44.2,2.85Z"/>
  <path d="M352,1.32c2.4,7.36,5.7,14.53,8.97,21.53.46.98.56,2.36,2.02,2.47-.05-1.26.6-2.29,1.15-3.35,1.87-3.63,8.25-18.06,10.29-19.71,2.68-2.17,10.83-.35,14.56-.93l-21,39.5v17.5h-23v-19.5L328,1.32h24Z"/>
  <polygon points="165 1.32 165 47.32 193 47.32 193 58.32 143.5 58.32 142 56.82 142 1.32 165 1.32"/>
  <path d="M191,79.32c4.57.41,14.91-1.38,18.07,2.43,2.08,2.52,2.06,6.62,0,9.14-.87,1.06-3.22,1.41-3.06,1.92.86,2.8,4.46,5.86,5,9,.01.9-4.97.77-6.05.05-2.13-1.43-3.21-9.85-7.95-8.54v9s-6,0-6,0v-23ZM205,88.32c.42-5.08-3.82-5.43-8-5v6.01s8-1.01,8-1.01Z"/>
  <path d="M163.93,79.39l9.07,22.92-5.92-.07-1.67-3.97-8.95,1.03-.52,2.96-5.94.06,8.47-22.03,5.46-.9ZM164,94.32c.4-.38-1.13-4.02-1.52-4.98s-.08-2.3-1.47-2.01l-2,7h5Z"/>
  <path d="M260.68,79.5c3.65-.8,9.67-.74,12.31,2.32-1.7,4.94-10.86-.99-11.99,3-1.34,4.73,8.17,3.25,11.02,5.97,5.18,4.94-1.32,12.15-7.59,12.53-1.73.11-8.96-1.9-9.44-3.52-.3-1.03,1.89-3.27,2.48-3.31.56-.04,9.31,4.57,10.51.32,1.44-5.09-9.22-2.62-11.81-7.17-2.19-3.84.13-9.18,4.5-10.14Z"/>
  <path d="M116,79.32c6.72.18,19.05-2.24,19.06,7.5,0,7.12-8.35,7.7-14.06,7.5v8.01s-5,0-5,0v-23ZM128.93,89.25c2.8-6.13-2.89-6.35-7.93-5.93v6.01s7.93-.07,7.93-.07Z"/>
  <rect x="230" y="79.32" width="6" height="23"/>
</svg>