<?xml version="1.0" encoding="UTF-8"?>
<svg id="Laag_1" xmlns="http://www.w3.org/2000/svg" version="1.1" viewBox="0 0 290 174">
  <!-- Generator: Adobe Illustrator 29.5.1, SVG Export Plug-In . SVG Version: 2.1.0 Build 141)  -->
  <path d="M145,0c15.49,13.97,23.84,34.19,29.5,54,3.55,12.4,7.24,28.72,8.5,41.5.1,1.05.37,4.57-.52,4.52-19.34-3.19-39.33-1.63-59.03-2.06l-16.04,2.02-2.34-1.55c5.96-34.77,12.66-72.9,38.93-98.43h1Z"/>
  <path d="M155,174c2.19-16.32-6.62-39.49,9.66-49.84,10.35-6.57,25.2-1.25,29.56,10.11,7.8,20.33-16.79,36.49-33.22,22.72v17h-6.01ZM172.74,127.22c-17.78,2.77-15.37,31.28,4.69,28.71,18.25-2.34,14.34-31.67-4.69-28.71Z"/>
  <path d="M110,174l.46-38.04c6.39-19.13,33.16-19.69,39.27-.2,6.28,20.04-17.97,34.38-33.73,21.24v17h-6.01ZM127.74,127.22c-18.41,2.87-14.39,33.04,6.55,28.57,16.2-3.46,12.75-31.58-6.55-28.57Z"/>
  <path d="M153,0l1.58.91c51.99,7.05,90.35,50.4,107.43,97.58.02,1.57-7.98-.46-9.47-.54-6.91-.36-13.73.26-20.55,1.05-.62-9.06-4.09-19.31-7.82-27.69-14.09-31.69-43.36-55.18-73.18-71.32h2Z"/>
  <path d="M138,0h1-1Z"/>
  <path d="M137,1.01l-24.92,15.57c-26.45,20.42-49.9,48.09-54.08,82.43-10.2-1.48-19.79-1.05-29.99,0C44.76,51.35,84.28,6.73,137,1.01Z"/>
  <path d="M62,110v33.5c0,.34-1.2,5.84-1.44,6.56-1.33,4.1-9.77,11.24-14.11,11.89-10.53,1.58-21.24-2.7-24.49-13.41-6.49-21.34,17.48-34.65,34.04-21.54v-17h6ZM36.71,128.21c-14.42,3.05-13.88,29.79,6.8,27.79,18.45-1.78,15.68-32.55-6.8-27.79Z"/>
  <path d="M83.79,121.26c26.17-2.55,30.35,37.32,4.65,40.67-27.3,3.55-32.34-37.97-4.65-40.67ZM82.74,127.21c-18.74,3.23-13.84,32.92,6.55,28.57,16.8-3.58,12.56-31.87-6.55-28.57Z"/>
  <path d="M241,158.99c-14.61,8.66-33.54-2.48-32.02-19.51,1.66-18.58,25.99-25.21,37.01-9.98l-20.66,20.4c-2.42.71-5.25-2.24-3.86-4.9s15.49-14.32,15.52-15.5c-13.11-8.87-28.66,7.48-19.43,20.44,2.36,3.3,6.84,5.98,10.96,6.12,5.19.18,10.53-5.25,12.48,2.93Z"/>
  <rect x="199" y="109" width="6" height="52"/>
  <path d="M246,137.5c1.33-7.91,11.66-17.01,20-16.5l-.11,5.89c-2.99,1.07-7,1.93-9.41,4.09-1.05.94-4.48,6.52-4.48,7.52v22.5h-6c.84-7.13-1.15-16.71,0-23.5Z"/>
  <path d="M264.99,159l-2.01-3h-1.98s-1,3.99-1,3.99v-8c2.24-.01,4.55-.57,6,1.52-.97,2.23-2.13,2.9-1.01,5.48ZM264,153h-2.99v1.99h2.99v-1.99Z"/>
  <path d="M260,150.01c-.11,1.79-1.8.35-2.55,2.9-3.88,13.3,15.27,8.46,9.6-.47-1.34-2.1-3.63-2.73-6.05-2.45-.27-1.74,2.38-1.07,3.3-.8,8.22,2.48,5.28,15.54-4.62,12.61-4.85-1.43-5.4-10.95.31-11.8Z"/>
</svg>