<?xml version="1.0" encoding="UTF-8"?>
<svg id="Laag_1" xmlns="http://www.w3.org/2000/svg" version="1.1" viewBox="0 0 460.8 252.72">
  <!-- Generator: Adobe Illustrator 29.5.1, SVG Export Plug-In . SVG Version: 2.1.0 Build 141)  -->
  <path d="M251.2,0c16.73.94,30.55-2.32,45.09,8.19,30.41,21.97,18.97,69.36-17.74,75.97-.43.08-.55-.19-.48.48l37.08,72.04c.92,1.63.72,3.11-1.38,3.33-1.32.13-4.49.16-5.76-.02s-1.74-1.16-2.35-2.13l-37.98-73.06h-33.12l.02,63.22c-.77,2.91-.01,6.01-.33,8.95-.17,1.64-1.34,2.41-2.8,2.96l-46.98.07c-17.35-1.61-32.62-14.13-37.19-30.97-6.95-25.65,10.78-50.75,36.87-53.52h40.81c.07-8.37-.1-16.75-.02-25.13,0-.77.34-1.44.35-2.21.13-15.13-.18-30.26.05-45.39.4-1.05,1.53-2.28,2.67-2.45,6.18-.19,12.4.21,18.58,0,.48-.02.73-.34.77-.34h3.84ZM234.56,75.52l36.98.02c30.54-.79,44.68-38.13,20.95-58.42-3.81-3.26-12.47-7.51-17.45-7.51h-40.48v65.92ZM224.96,84.8h-39.2c-40.8,4.45-40.31,62.25.64,65.92h38.56v-65.92Z"/>
  <path d="M460.8,252.16c-.86.47-2,.44-2.9.18l-.24-.4-2.3-23.46c-.57.18-.79.89-1.02,1.38-3.2,6.81-5.61,14.02-8.88,20.8-.58.81-2.15.4-2.93.02-3.14-7.13-6.05-14.36-9.18-21.49-.2-.46.21-.88-.71-.71l-2.23,23.46c-.79.57-2.43.8-3.21.06-.62-.59-.04-1.19.01-1.92.62-8.51,1.36-18.08,2.58-26.54.4-2.76,2.21-1.6,4.42-1.75l9.8,23.32,9.8-23.31,4.09-.02,2.59,22.85-.02,2.6.34.77v4.16Z"/>
  <path d="M0,251.84v-29.44c.47-.38.79-.59,1.42-.66,3.63-.38,11.76-.28,15.06.97,12.41,4.72,13.05,22.29,1.19,28.08-3.33,1.63-4.78,1.17-8.24,1.36-2.49.14-5.15.63-7.69.34-.76-.09-1.06-.54-1.74-.66ZM3.84,225.28v23.2c0,.94,2.25.18,2.72.16,4.44-.23,7.47.87,11.34-2.1,7.22-5.54,6.21-17.09-2.54-20.45-.37-.14-2.24-.8-2.4-.8H3.84Z"/>
  <path d="M208.96,252.8c-.99.13-3.49.13-4.48,0-1.74-.23-4.95-1.65-6.38-2.74-.83-.63-3.38-2.84-2.61-3.83,2.17-2.78,3.17-.32,5.17.95,3.13,1.99,6.42,2.78,9.98,1.39,4.31-1.68,5.85-6.62,1.09-8.95-5.36-2.62-16.46-2.27-15.59-10.98.68-6.79,9.28-8.39,14.72-6.71,1.55.48,5.23,2.57,5.95,4,.42.85-1.26,2.47-2.21,2.52-3.12-2.75-6.53-4.59-10.77-3.33s-5.56,5.72-1.17,7.91c4.96,2.47,15.03,2.4,15.58,9.7.4,5.3-4.32,9.44-9.28,10.08Z"/>
  <path d="M162.56,245.12c.84.12.49-.08.66-.46,3.22-7.41,6.12-14.97,9.29-22.4.57-.91,3.11-.5,4.15-.37l.26.38c-.1.91.22,1.72.33,2.55.48,3.59.6,7.27.98,10.86.59,5.45,1.49,10.94,1.57,16.44-1.13.47-3.19.84-3.48-.77-.42-2.38-.39-4.95-.64-7.36-.17-1.59-.49-3.2-.65-4.79-.36-3.55-.36-7.22-1.11-10.73l-9.61,22.07c-.9,1.02-2.5.79-3.1-.4l-8.51-19.97-1.02-1.7-2.31,23.14c-.41,1.31-2.45.93-3.42.51l2.98-30.06c.31-.47,3.83-.5,4.19.01l9.44,23.05Z"/>
  <path d="M348.48,252.16v-30.4h12.96c.27,0,2.86.92,3.36,1.12,11.67,4.77,12.52,21.39,1.58,27.49-.62.35-3.87,1.79-4.29,1.79h-13.6ZM352,248.64h9.44c.55,0,3.41-1.37,3.98-1.78,6.97-4.97,7-16.48-1.04-20.37-.44-.21-3.32-1.22-3.58-1.22h-8.8v23.36Z"/>
  <path d="M324.32,221.76c2.07.36,4.95,2.76,5.98,4.58,3.13,5.53,1.08,11.04-4.19,14.13,1.85,3.8,4.12,7.46,5.43,11.5-.05.57-3.15.76-3.78.11l-5.35-10.81h-9.76v10.88c-.83.18-1.83.56-2.68.27-.27-.09-.84-.92-.84-1.07v-29.12l.48-.48h14.72ZM312.64,237.44h11.04c.32,0,1.87-.98,2.23-1.29,3.3-2.74,2.76-8.2-1.01-10.18-.25-.13-1.46-.69-1.55-.69h-10.72v12.16Z"/>
  <path d="M57.44,221.76c2.2.31,5.05,2.51,6.19,4.37,3.33,5.45,1.16,11.23-4.08,14.34.7,1.6,5.66,10.52,5.4,11.5-.22.85-3.09.6-3.76.11l-5.2-11.12c-.44-.22-.97.32-1.11.32h-8.8v10.88c-1.24.43-2.28.43-3.52,0v-29.92l.48-.48h14.4ZM46.08,237.44h11.04c.28,0,1.71-.88,2.05-1.15,3.45-2.64,3.03-8.29-.83-10.32-.25-.13-1.46-.69-1.55-.69h-10.72v12.16Z"/>
  <path d="M292.8,221.76c-.05.64.26,3.52-.48,3.52h-17.44v8.96l14.4.32v3c-.01.17-.75.53-.8.53h-13.6v10.56h16.48c.26,0,1.62.51,1.72.84.16.53.16,3-.44,3h-20.8l-.48-.48v-30.24h21.44Z"/>
  <path d="M130.85,252.13c-.34.49-2.94.37-3.42-.03-.59-.49-1.88-5.99-2.83-6.29-4.54.2-9.56-.43-14.05-.06-.37.03-.7-.02-.95.33-.38.54-.97,2.85-1.37,3.75-1.14,2.54-1.4,3.32-4.53,2.33-.38-.53,4.03-10.66,4.64-12.14,2.14-5.18,4.37-11.29,6.82-16.22.27-.54.74-1.82,1.22-1.97.63-.2,2.28-.23,2.65.46l11.72,28.28.12,1.58ZM123.2,242.24c.07-.37-.05-.64-.15-.97-.97-3.26-3.68-9.96-5.22-13.02-.15-.3-.33-.7-.7-.73-1.6,4.79-3.81,9.36-5.62,14.07-.13.34.26.65.34.65h11.36Z"/>
  <path d="M412.16,252.16c-1.05.2-2.6.59-3.52-.16-.73-.6-1.92-5.11-2.6-6.2l-15.29-.02c-.56,1.36-1.42,4.94-2.24,5.91-.72.85-2.56.96-3.51.43l.12-1.58,12.05-28.75c1.01-.04,2.37-.39,2.98.61l11.21,26.87.8,2.88ZM392.64,242.24h11.36c.08,0,.47-.31.34-.65-1.81-4.71-3.94-9.31-5.62-14.07-.37.03-.55.43-.7.73-1.54,3.06-4.26,9.76-5.22,13.02-.1.33-.22.6-.15.97Z"/>
  <path d="M255.04,225.28h-9.6v26.72c-.91,1.09-2.31.08-3.52.16v-26.88h-9.12c-.96-.45-1.1-3.52-.32-3.52h22.4c.78,0,.48,2.85.16,3.52Z"/>
</svg>