<?xml version="1.0" encoding="UTF-8"?>
<svg id="Laag_1" xmlns="http://www.w3.org/2000/svg" version="1.1" viewBox="0 0 500 130">
  <!-- Generator: Adobe Illustrator 29.5.1, SVG Export Plug-In . SVG Version: 2.1.0 Build 141)  -->
  <path d="M0,119V30c27.59,1.46,61.1-6.96,80.43,18.07,8.71,11.29,9.71,30.6,4.78,43.63-7.46,19.69-27.29,26.33-46.66,27.34-12.63.66-25.86-.59-38.55-.05ZM27,95h17.5c.6,0,6.45-2.86,7.45-3.55,11.8-8.18,12.05-26.9.02-34.92-.72-.48-5.16-2.53-5.47-2.53h-19.5v41Z"/>
  <polygon points="500 30 500 54 477 54 477 117.5 475.5 119 450 119 450 54 426 54 426 30 500 30"/>
  <path d="M303.5,30c5.03.59,12.02,3.8,15.99,7.01,15.95,12.91,13.86,41.65-5.49,50.01l16,31.99h-29.5c-.99-.77-1.68-1.62-2.27-2.73-3.52-6.54-6.51-15.27-9.75-22.29-.41-.89-.37-1.96-.55-2.91l-9.93-.07v26.5l-1.5,1.5h-25.5V30h52.5ZM278,67h19.5c2.2,0,5.56-4.93,5.29-7.35-.2-1.77-3.86-5.65-5.29-5.65h-19.5v13Z"/>
  <path d="M165.92,40.08c.36,1.06.09,1.96-.41,2.93-1.97,3.74-8.53,10.85-11.54,14.5-.59.72-.9,1.54-1.03,2.45-6.47-2.69-12.19-6.66-19.51-7.87-4.25-.7-12.97-1.75-14.25,3.43.17,3.79,18.41,5.81,22.07,6.75,14.46,3.7,29.28,11.69,27.69,29.14-3.38,37.12-59.51,34.9-79.9,14.1l14.48-19.49c8.05,8.68,21.24,12.62,32.96,10.95,3.42-.49,5.34-2.29,4.44-5.86-15.52-5.5-40.85-4.22-47.4-23.1-7.03-20.29,9.34-37.33,28.98-39.01,15.69-1.34,30.44,2.42,43.44,11.1Z"/>
  <path d="M423,54.99l-23.44,10.05c-1.57-2.75-2.72-5.72-5.21-7.9-12.52-10.94-31.63-1.61-33.27,14.44-2.43,23.77,28.05,35.16,38.48,12.36l23.44,10.06c-14.48,37.01-72.69,33.36-86.2-2.31-19.31-50.98,47.59-85.36,80.63-46.63l5.57,9.92Z"/>
  <polygon points="245 30 245 54 221 54 221 119 195.5 119 194 117.5 194 54 171 54 171 30 245 30"/>
  <path d="M345.7,29.7c-10.18,10.38-26.21-4.7-16.73-15.23,10.05-11.17,26.98,4.78,16.73,15.23Z"/>
  <path d="M84.7,11.21c12.42-2.67,19.36,12.77,8.26,20.25-13.66,9.2-24.97-16.66-8.26-20.25Z"/>
</svg>