<?xml version="1.0" encoding="UTF-8"?>
<svg id="Laag_1" xmlns="http://www.w3.org/2000/svg" version="1.1" viewBox="0 0 158.4 72.48">
  <!-- Generator: Adobe Illustrator 29.5.1, SVG Export Plug-In . SVG Version: 2.1.0 Build 141)  -->
  <path d="M73.46,13.35c14.49-.57,30.53,1.14,43.55,4.29,8.39,2.03,22.52,5.87,27.04,14.54.17.32.9,1.22.96,1.43.11.4-.1,1,0,1.43.04.19.45.3.48.48.08.43.08,1.47,0,1.91-.03.18-.44.29-.48.48-.1.43.11,1.03,0,1.43-.05.18-.41.28-.48.48-.91,2.51-2.92,4.75-5.02,6.44-3.71,2.97-8.34,4.57-12.92,6.2-25.89,9.22-62.13,9.3-88.53,1.91-7.53-2.11-18.44-5.67-22.73-12.64-.33-.53-1.32-1.97-1.44-2.38s.1-1,0-1.43c-.04-.19-.45-.3-.48-.48-.08-.43-.08-1.47,0-1.91.03-.18.44-.29.48-.48.1-.43-.11-1.03,0-1.43.05-.18.41-.28.48-.48.88-2.43,2.95-4.83,5.02-6.44.1-.07.37.08.48,0,6.75-5.04,14.18-7.16,22.01-9.06,9.92-2.4,20.88-3.87,31.58-4.29ZM91.4,22.41l-1.44-3.1c-1.14-.58-2.72-3.81-3.59-4.05-.71-.19-2,.11-2.87,0-3.52-.44-4.62-.44-8.14,0-.87.11-2.16-.19-2.87,0-.87.24-2.45,3.47-3.59,4.05l-1.44,3.1h23.93ZM54.79,49.11h9.81l-.96-4.77c2.33-.26,1.6.98,1.91,2.15.07.25.35,1.09.48,1.43.1.28.73.41.48,1.19h25.84c.39-1.54.9-3.05,1.44-4.53.19-.51.99-.15,1.44-.24l-.96,4.77h9.81l3.83-4.77c2.61-.28.32,1.74-.24,2.62-1.82,2.85-2.71,3.87-5.5,5.96-.81.6-1.65,1.23-2.39,1.91l-4.79,1.91-1.2.95c.94.27,1.41-.41,2.15-.48,9.74-.86,17.39-2.17,26.32-4.77,5.63-1.64,12.25-4.03,16.75-7.63,1.11-.89,2.96-2.95,3.59-4.05.17-.3.93-1.8.96-1.91.14-.62.14-4.14,0-4.77-.02-.11-.84-1.7-.96-1.91-1.82-3.19-8.14-7.26-11.72-8.82-10.67-4.66-23.24-6.57-34.93-7.63-.75-.07-1.22-.74-2.15-.48l2.15,1.43c4.47,1.16,8.05,4.22,10.77,7.87.81,1.09,2.14,2.19,1.91,3.58h-1.44c.24-.9-.55-1.08-.96-1.67-.08-.11.07-.38,0-.48-.55-.75-1.54-1.4-2.15-2.15h-9.81l.48,2.15-.24,2.15-1.67-2.15v-.95l-1.2-1.19h-24.41c-.69.69-1.43,1.09-1.2,2.15l-1.67,2.15-.24-2.15.48-2.15h-9.81c-.61.75-1.6,1.4-2.15,2.15-.07.1.08.37,0,.48-.41.59-1.2.77-.96,1.67h-1.44c-.37-1.32.53-1.44.96-2.15,2.61-4.28,6.69-7.92,11.72-9.3l2.15-1.43c-.94-.27-1.41.41-2.15.48-12.43,1.12-27.09,3.2-38.28,9.54-2.82,1.59-5.49,3.22-7.42,5.96-.67.96-.94,1.14-1.44,2.38-.08.2-.44.3-.48.48-.14.62-.14,4.14,0,4.77.04.17.8,1.12.96,1.43,1.97,3.79,4.76,5.36,8.37,7.39,11.21,6.29,25.59,8.41,38.28,9.54.75.07,1.22.74,2.15.48l-1.2-.95c-1.51-.08-2.96-1.14-4.31-1.91-4.01-2.27-5.87-3.93-8.37-7.87-.56-.88-2.85-2.9-.24-2.62l3.83,4.77ZM55.99,22.41h9.33c1.61-2.17,2.56-4.57,4.55-6.44-.52-.86-1.47.18-1.67.24-3.13.87-5.15,1.59-8.14,3.34-.12.07-.29.05-.48,0l-3.59,2.86ZM93.56,22.41h9.33l-3.59-2.86-4.31-1.91-5.98-1.91,4.55,6.68ZM65.32,50.55h-9.33l3.59,2.86c3.09,1.59,5.46,2.55,8.61,3.34.27.07.8.84,1.67.48l-4.55-6.68ZM91.4,50.55h-23.93l1.44,3.1c1.14.58,2.72,3.81,3.59,4.05.71.19,2-.11,2.87,0,.18.02.31.46.48.48,2.81.25,5.64-.11,8.14-.48.73-.11,1.78.17,2.39,0,.87-.24,2.45-3.47,3.59-4.05l1.44-3.1ZM102.89,50.55h-9.33c-1.61,2.17-2.56,4.57-4.55,6.44,0,.41.95.31,1.2.24,2.99-.88,6.05-2.49,9.09-3.81l3.59-2.86Z"/>
  <path d="M117.24,29.56h4.31v5.25c.69-.33,1.42-1.08,1.91-1.67.08-.1-.08-.39,0-.48.86-1,2.4-1.83,2.39-3.1h5.26c.2.82-.31.95-.72,1.43-.89,1.06-2.33,2.04-3.11,3.1-.14.19-.25,1.13-.96,1.43l5.74,7.39h-5.02l-5.5-6.68v6.68h-4.31v-13.35Z"/>
  <path d="M72.74,33.38h-4.55l-1.91-1.43h-.96l-1.67,1.19c.09,1.57,1.32,1,2.15,1.19.19.04.29.43.48.48,1.03.24,2.75.18,3.83.48.06.02.87.42.96.48.94.56,1.58,1.86,2.15,2.62v.95c-.66.31-.87,2.06-.96,2.15s-.49-.13-.72,0c-.33.18-.71.88-.96.95-.3.09-.67-.09-.96,0-.2.06-.3.45-.48.48-1.05.19-5.65.19-6.7,0-.18-.03-.28-.41-.48-.48-.28-.09-.66.09-.96,0-.15-.04-2.11-2-2.15-2.15-.12-.44.08-1.15,0-1.67h4.31l.72,1.43,1.44.48,2.63-.48v-1.91c-.54-.06-1.18.1-1.67,0-.97-.19-2.72-.65-3.83-.95-.11-.03-1.71-.82-1.91-.95-.86-.55-1.11-1.47-1.67-2.15v-.95c.68-.89.46-1.85,1.67-2.62.11-.07.36.07.48,0,.31-.18,1.28-.92,1.44-.95.76-.16,5.95-.17,6.7,0,.17.04.27.4.48.48,1.74.69,2.88,1.25,3.11,3.34Z"/>
  <path d="M53.12,29.56c.08.08-.11.46,0,.72.29.7,1.12,1.68,1.44,2.38.68,1.54,1.11,3.75,2.39,5.25l1.91,5.01h-4.79l-.48-2.38h-6.46l-1.2,2.38h-4.31c-.12-.78.19-1.46.48-2.15,1.15-2.71,2.63-5.53,3.83-8.11.49-1.07.77-2.32,1.67-3.1h5.5ZM52.16,37.67l-2.15-4.77c-.82.62-.85,1.75-1.2,2.62-.08.19-.4.28-.48.48-.15.35.08,1.09-.48,1.67h4.31Z"/>
  <path d="M110.55,29.56l5.74,13.35h-4.07l-1.2-2.38h-6.46c-.9.5-.55,1.1-.72,1.67-.34,1.19-3.6.57-4.79.72l3.35-8.34,2.39-5.01h5.74ZM109.59,37.67l-1.44-3.58-.96-1.19-1.44,4.77h3.83Z"/>
  <path d="M40.68,29.56v2.86h-8.14v2.38h6.94c.95,0,.95,2.86,0,2.86h-6.94v2.38h8.14v2.86h-12.44v-13.35h12.44Z"/>
  <path d="M96.91,29.56c.18.03.28.42.48.48.31.09.7-.1.96,0,.14.05.86.42.96.48.22.13,1.64,1.56,1.67,1.67.11.4.1,2.88,0,3.34-.04.17-.38.27-.48.48-.07.15.06.38,0,.48-.72,1.11-2.24.9-3.11,1.67h-5.5v4.77h-4.07l-.72-.72v-11.92l.72-.72h9.09ZM96.67,32.9l-4.79-.48v2.86l4.79-.48v-1.91Z"/>
  <polygon points="86.14 29.56 86.14 32.43 81.83 32.43 81.83 42.92 77.53 42.92 77.53 32.43 73.22 32.43 73.22 29.56 86.14 29.56"/>
  <path d="M80.87,46.25l1.91.48c.11-.97.59-2.53,1.91-2.38l.96,2.86c-.86.12-1.27-.75-2.15-.48-1.5.46-1.92.15-2.87.48h-3.59l1.2-.95,2.15.48-1.91-.95c-.03-3.16,3.01-2.18,2.39.48ZM80.4,44.82h-.96v.48h.96v-.48ZM83.99,45.3c-.31,0-.31.48,0,.48s.31-.48,0-.48Z"/>
  <path d="M74.65,44.35v2.38c.51.15,1.33-.32,1.44-.72.16-.58-.46-1.76.48-1.67,0,.76.23,2.62-.72,2.86-.64.16-1.97-.03-2.15-.72-.2-.73-.35-2.64.96-2.15Z"/>
  <path d="M133.52,31.47h-1.44v.48h1.44c-.32.43-.57.9-.48,1.43h.96l-.72.95h-.24v-.95h-.96l-.24.95-1.2-1.91.96.95-.48-1.67,2.39-.24Z"/>
  <path d="M133.52,31.95v-.48l.48.24c0,.3-.46.22-.48.24Z"/>
  <polygon points="87.1 47.21 86.14 47.21 86.14 46.25 87.1 47.21"/>
</svg>