<?xml version="1.0" encoding="UTF-8"?>
<svg id="Laag_1" xmlns="http://www.w3.org/2000/svg" version="1.1" viewBox="0 0 1489.5 336">
  <!-- Generator: Adobe Illustrator 29.5.1, SVG Export Plug-In . SVG Version: 2.1.0 Build 141)  -->
  <defs>
    <style>
      .st0 {
        fill: #010101;
      }
    </style>
  </defs>
  <path class="st0" d="M299.85,336h-95.2v-72.75h89.58c1.55,0,7.93-2.89,9.61-3.89,19.53-11.61,17.1-44.43-4.53-52.19-.94-.34-5.33-1.67-5.83-1.67h-88.83v-73.5h86.58c.92,0,6.6-1.43,7.88-1.87,22.98-7.9,24.12-43.03,2.52-53.53-.81-.39-5.58-2.35-5.9-2.35h-91.08V1.5h97.08c8,0,26.25,7.21,33.6,11.38,41.54,23.57,59.69,74.37,46.62,119.88-3.88,13.5-10.41,24.84-18.33,36.28,18.98,23.75,26.13,54.76,20.86,84.75-7.27,41.38-40.88,77.28-83.5,81.47l-1.12.74Z"/>
  <path class="st0" d="M88.46,336c-42.17-3.04-77.39-37.93-85.85-78.73-5.84-28.17-.58-56,14.31-80.22,1.16-1.89,5.59-7.19,5.59-8.69-7.44-10.51-13.97-21.65-17.65-34.1C-12.72,74.7,22.03,11.4,84.33,1.5h97.08v72.75h-90.33c-.21,0-3.24,1.09-3.91,1.34-25.35,9.71-23.41,48.76,2.74,55.33.83.21,4.66,1.08,4.92,1.08h86.58v73.5h-88.83c-1.8,0-9.36,3.36-11.13,4.61-17.21,12.18-16.17,39.6,2.27,50,1.75.99,7.14,3.14,8.86,3.14h88.83v72.75c-30.32-1.62-62.9,2.17-92.95,0Z"/>
  <path class="st0" d="M510.49,336v-150.75s82.12-.03,82.12-.03c25.98,1.77,54.75,14.26,49.63,45.23-1.71,10.36-11.91,21.64-21.99,24.52-1.14.33-1.25-.31-1.07,1.54,11.91,1.81,22.01,11.92,26.07,23.04,11.83,32.39-17.48,55.83-47.44,55.72l-1.12.74h-86.21ZM555.47,219v24.38c0,.08,1.04,1.12,1.12,1.12h27.74c.21,0,3.61-.91,4.15-1.1,9.16-3.26,11.58-16.75,3.23-22.03-.9-.57-5.19-2.37-5.88-2.37h-30.36ZM555.47,302.25h32.61c.29,0,4.69-1.75,5.4-2.1,8.5-4.15,9.94-16.44,1.99-21.79-1.09-.74-6.43-3.11-7.38-3.11h-32.61v27Z"/>
  <polygon class="st0" points="829.08 336 829.08 185.25 867.69 185.25 931.03 268.5 931.03 185.25 972.26 185.25 972.26 336 933.28 336 870.32 253.5 870.31 336 829.08 336"/>
  <path class="st0" d="M1317.09,0c51.28,4.48,84.74,53.74,67.49,103.14-23.87,68.33-133.67,67.62-156.15-1.31-16.52-50.63,18.42-98.13,69.93-101.84,5.21-.38,13.58-.45,18.74,0ZM1304.16,37.7c-24.49,2.43-38.2,27.36-31.85,50.22,10.34,37.22,59.83,37.85,69.16-.14,6.04-24.59-9.86-52.81-37.31-50.08Z"/>
  <polygon class="st0" points="1003.74 336 1003.74 185.25 1127.43 185.25 1127.43 219.75 1048.72 219.75 1048.72 243 1119.94 243 1119.94 278.25 1048.72 278.25 1048.72 301.5 1129.68 301.5 1129.68 336 1003.74 336"/>
  <polygon class="st0" points="673.91 336 673.91 185.25 796.85 185.25 796.85 219.75 718.89 219.75 718.89 243 790.1 243 790.1 278.25 718.89 278.25 718.89 301.5 799.1 301.5 799.1 336 673.91 336"/>
  <path class="st0" d="M1161.17,0c17.03,1.23,38.18,10.42,50.99,22.11,1.23,1.12,4.16,3.53,3.66,5.16l-25.12,29.7c-1.6.35-3.57-3.55-4.46-4.43-14.21-14.04-34.24-20.98-52-8.6-19.74,13.75-20.23,47.37-1.93,62.56,14.8,12.29,32.82,9.12,47.86-.86,1.62-1.08,9.83-8.26,10.54-8.1l25.23,27.34c0,1.13-3.47,4.3-4.52,5.27-49.48,45.4-133.97,22.8-138.72-48-2.98-44.44,30.13-79.26,73.48-82.15,4.38-.29,10.62-.32,14.99,0Z"/>
  <polygon class="st0" points="1337.33 336 1337.33 221.25 1293.85 221.25 1293.85 185.25 1426.53 185.25 1426.53 221.25 1383.05 221.25 1383.05 336 1337.33 336"/>
  <polygon class="st0" points="1188.15 336 1188.15 221.25 1144.67 221.25 1144.67 185.25 1276.61 185.25 1276.61 221.25 1233.13 221.25 1233.13 336 1188.15 336"/>
  <rect class="st0" x="1443.77" y="185.25" width="44.98" height="150.75"/>
  <path class="st0" d="M705.39,1.5l.4,1.44,61.82,81.06V1.5h41.23v150.75h-37.86l-63.34-82.5v81.38c0,.08-1.04,1.12-1.12,1.12h-39.73c-.08,0-1.12-1.05-1.12-1.12V1.5h39.73Z"/>
  <path class="st0" d="M841.08,1.5l80.62-.04c23.88,2.04,46.52,13.78,51.85,38.87,4.85,22.81-1.14,50.11-22.96,61.73l-.09,1.03,29.26,49.15h-49.85l-20.99-40.5h-22.86v40.5h-44.98V1.5ZM886.05,76.5h31.11c1.21,0,7.32-3.13,8.57-4.18,9-7.54,8.52-27.84-2.26-33.63-.97-.52-6.42-2.69-7.06-2.69h-30.36v40.5Z"/>
  <path class="st0" d="M634.18,1.5v34.5h-77.96v23.25h70.46v34.5h-70.46v23.25h80.21v35.25h-124.81c-.08,0-1.12-1.05-1.12-1.12V1.5h123.69Z"/>
  <path class="st0" d="M1048.72,1.5v149.62c0,.08-1.04,1.12-1.12,1.12h-43.85V1.5h44.98Z"/>
</svg>