<?xml version="1.0" encoding="UTF-8"?>
<svg id="Laag_1" xmlns="http://www.w3.org/2000/svg" version="1.1" viewBox="0 0 1200 440">
  <!-- Generator: Adobe Illustrator 29.5.1, SVG Export Plug-In . SVG Version: 2.1.0 Build 141)  -->
  <path d="M207.08,29.92c13.72,2.36,27.51,4.6,40.93,8.57,103.61,30.65,159.69,130.47,139.72,235.75-21.84,115.16-130.08,182.94-243.99,160.52-43.63-8.59-86.79-32.61-115.25-66.75-.84-1.01-1.91-1.29-1.5-3,5.32,1.38,10.38,3.52,15.77,4.72,32.02,7.13,63.11,1.54,80.41-28.04,9.97-17.04,12.89-36.91,21.6-54.4,18.08-36.29,61.32-54.53,78.4-91.6,13.35-28.97,8.12-67.39-8.37-94.02-2.92-4.71-6.54-10.27-10.82-13.68,2.12,7.77,4.41,15.66,5.9,23.6,3.92,20.97,6.6,48.32-.14,68.66-10.39,31.35-43.36,49.77-64.28,73.72-8.51,9.74-17.16,24.03-21.97,36.03-4.04,10.08-7.09,28.98-13.5,36.5-7.36,8.64-23.91,8.88-31,0s-10.51-32.46-15.23-44.77c-9.18-23.95-18.04-29.89-35.8-46.2C6.05,215.4,3.83,196.88,2.03,168.47-.68,125.76,3.7,81.05,7.03,38.53c.4-5.11.27-10.39.97-15.53l40.48,53.94c10.09-6.14,21.69-10.29,33.29-12.66,19.29-3.95,38.48-2.91,57.46,1.99,2.56.66,10.47,4.09,12.11,3.64l9.66-12.9c-9.15-2.44-18.14-5.58-27.57-6.93-24.69-3.54-45.11-.3-68.66,6.2-1.02.28-3.12,1.56-3.77.23,17.89-10.63,38.43-17.81,58.77-22.23,16.1-3.5,29.58-4.2,45.76-5.24l17.85-1.15L204.5,1l2.58,28.91ZM77,213c.42-1.71-.65-1.99-1.49-3-5.77-6.92-18.26-16.82-27.04-18.96-.31-.08-3.24,4.51-3.66,5.26-2.03,3.59-3.01,7.53-4.79,11.21l19.43,1.56,17.56,3.94Z"/>
  <path d="M1141,323v-57.5c0-1.35,1.83-7.75,2.51-9.49,10.75-27.8,53.18-22.02,55.53,9.45-2.47,44.07,3.13,91.41,0,135.09-2.04,28.52-34.67,37.66-52.48,15.39-16.02-20.03-31.67-47.97-46.14-69.86-.93-1.41-1.8-3.49-3.43-4.07v60.5c0,1.69-2.49,8.58-3.46,10.54-13.02,26.22-52.41,17.91-54.58-12.49-3.12-43.68,2.46-91.02,0-135.09,2.49-25.96,33.31-37.47,51.05-16.96,1.09,1.26,2.35,3.14,3.42,4.58,15.93,21.36,29.29,46.39,45.37,67.63.61.81.93,2.24,2.21,2.29Z"/>
  <path d="M479,404.5c-1.31,9.32-9.9,19.16-18.73,22.27-18.56,6.53-37.65-5.62-39.31-25.22v-138.07c2.2-13.69,11.73-23.56,25.52-25.5,35.47,2.1,77.66-7.97,107.03,17.02,30.89,26.29,26.73,80.43-11.49,97.02l.5,2.97c6.78,11.35,21.95,25.15,25.24,37.76,7.91,30.31-30.33,48.17-50.75,24.75-12.78-14.66-23.32-35.79-35.56-51.44-.62-.79-1.39-1.94-2.43-2.07v40.5ZM506.5,291h-27.5v27h24.5c.28,0,4.45-1.44,5.22-1.78,8.64-3.72,10.31-16.27,2.79-22.23-.76-.6-4.45-2.87-5.01-2.99Z"/>
  <path d="M958,293v16h44.5c.54,0,5.76,2.57,6.82,3.18,16.73,9.57,15.48,34.91-2.33,42.31-1.04.43-7.1,2.51-7.49,2.51h-41.5v17h52.5c3.82,0,13.83,6.39,16.5,9.5,15.18,17.67,3.18,43.63-19.47,45.53-25.93-1.69-54.45,2.16-80.06,0-14.11-1.19-25.29-11.54-27.5-25.5v-138.07c1.16-15.69,13.09-26.4,28.48-27.5,25.25-1.81,52.61,1.48,78.09,0,23.21,1.38,35.84,27,20.46,45.55-2.7,3.26-12.5,9.5-16.5,9.5h-52.5Z"/>
  <path d="M691.91,399.08h-60.83c-3.28,11.3-7.13,22.77-19.09,27.41-24.99,9.68-48.07-15.01-37.49-39.49,19.05-40.65,34.07-84.26,53.31-124.69,14.19-29.84,47.03-33.8,65.02-5.63l55.68,130.32c9.42,23.38-8.4,46.37-33.55,40.56-13.32-3.08-20.04-16.31-23.03-28.47ZM676,353l-14.5-39-13.5,39h28Z"/>
  <path d="M749.95,199.05l-60.34.06c-1.69.5-4.46,11.44-5.86,14.14-14.19,27.46-58.38,16.04-53.71-19.71,18.16-41.88,34.42-85.93,53.76-127.24,6.78-14.48,13.88-26.84,31.67-28.33,29.09-2.44,35.53,19.32,45.03,41.03,16.32,37.31,31.28,75.28,47.25,112.75,4.93,14.13-6.18,34.25-21.3,36.2-20.75,2.67-32.85-9.39-36.5-28.9ZM705,153h28l-12.8-36.73-2.2-1.28-13,38Z"/>
  <path d="M806,340c.99,1.52,1.75-.1,2.2-1.28,10.21-26.87,20.3-53.78,30.3-80.73,12.62-35.14,64.87-20.59,55.04,17.04-16.73,40.44-31.65,81.81-49.04,121.96-5.45,12.58-10.29,24.89-24.5,29.5-17.93,5.83-37.61-.45-46.21-17.79l-53.33-131.67c-6.21-20.4,8.07-41.05,30.07-39.07,13.9,1.26,20.3,10,25.25,21.75,9.56,22.73,17.98,46.91,27,70,1.25,3.19,2.67,6.92,3.23,10.28Z"/>
  <path d="M479,93v18h47.5c.55,0,6.5,2.87,7.46,3.54,13.91,9.8,14.79,30.68.98,40.89-1.5,1.11-8.13,4.57-9.43,4.57h-46.5v44.5c0,4.3-6.55,14.12-9.98,17.02-18.56,15.72-46.33,3.42-48.07-20.98-3.12-43.68,2.46-91.02,0-135.09,1.07-14.27,10.9-24.52,24.59-27.41,27.35,1.45,56.91-2.09,84-.09,27.94,2.06,35.03,41.06,9.15,52.23-1.56.67-8.06,2.81-9.19,2.81h-50.5Z"/>
  <path d="M872,174h49.5c3.92,0,12.33,5.89,15.02,8.98,14.06,16.12,4.32,43.41-16.98,45.06-26.67,2.07-56.03-1.59-82.99-.09-11.8-2.72-21.68-13.1-22.59-25.41V63.46c3.03-25.86,34.97-34.84,51.57-14.48,2.4,2.94,6.48,10.93,6.48,14.52v110.5Z"/>
  <path d="M1006,174h49.5c.42,0,6.81,2.63,7.84,3.16,22.68,11.75,15.5,48.92-9.8,50.88-26.67,2.07-56.03-1.59-82.99-.09-11.09-2.48-21.69-12.76-22.59-24.41V62.46c3.57-29.35,46.48-33.53,55.81-5.73.54,1.61,2.23,7.67,2.23,8.77v108.5Z"/>
  <path d="M621.73,46.27c4.75,4.93,7.79,13.44,8.3,20.2,2.51,32.85-1.17,70.05-.97,103.09-3.29,51.99-53.55,70.62-99.07,56.96-19.8-5.94-39.95-22.86-29.5-45.53,6.1-13.23,21.13-18.5,34.51-13.48,5.41,2.03,12.29,7.35,17.72,8.28,11.94,2.04,18.43-2,19.33-14.24,2.35-31.96-1.82-66.8-.07-99.07,2.94-20.48,26.86-31.2,44.38-20.32.86.53,4.81,3.54,5.37,4.13Z"/>
  <path d="M615.72,229.22c9.77-1.67,18.1,8.79,12.74,17.74-6.98,11.66-24.41,4.72-22.43-8.43.59-3.93,5.8-8.64,9.69-9.31Z"/>
  <path d="M759.69,29.19c14.35-3.07,21.46,16.29,8.26,22.25-16.07,7.26-24.73-18.73-8.26-22.25Z"/>
  <path d="M713.72,232.28c10.61,10.64-5.03,28.26-16.76,17.26-12.27-11.51,6.17-27.87,16.76-17.26Z"/>
  <path d="M672.69,29.19c14.54-3.11,20.75,16.56,8.26,22.25-16.02,7.29-24.75-18.72-8.26-22.25Z"/>
</svg>