<?xml version="1.0" encoding="UTF-8"?>
<svg id="Laag_1" xmlns="http://www.w3.org/2000/svg" version="1.1" viewBox="0 0 428 118">
  <!-- Generator: Adobe Illustrator 29.5.1, SVG Export Plug-In . SVG Version: 2.1.0 Build 141)  -->
  <path d="M428,25v15c-2.48,2.46-2.56,6.22-4.17,9.33-9.2,17.81-38.62,14.71-44.37-5.29-1.46-5.07-.93-22.87,1.35-27.73,5.71-12.16,18.82-16.09,31.18-11.8,10.34,3.59,12.26,11.34,16.01,20.49ZM398.71,9.21c-17.4,3.71-17.08,42.19-.16,44.74,2.3.35,7.53.35,9.76-.15,15.27-3.43,16.4-42.22-2.87-44.73-2.07-.27-4.69-.3-6.73.14Z"/>
  <path d="M137,9.5c.06-.53,1.3-5.31,1.44-5.56.63-1.04,1.94-.9,3.01-.99,3.53-.3,12.96.76,16.79,1.3,6.37.89,10.44,3.31,12.48,9.52,3.65,11.11-2.4,15.61-9.59,22.72,4.49,5.21,8.72,11.54,13.34,16.53.8.86,4.6,5.07,5.51,3.98l18.15-51.36c2.24-4.41,5.84-1.84,9.73-1.51l18.11,54.38c-1.54,2.61-6.03,1.45-7.45-.54-1.8-2.53-3.19-10.55-4.61-13.89-4.85.72-17.24-1.47-20.93.4-2.88,1.46-5.2,12.03-6.06,15.44l-15.25-.11-17.66-21.34-10.02-.48v22h-7V9.5ZM145,31c6.98.26,15.79.89,18.32-7.18,4.07-12.95-8.25-14.99-18.26-13.77l-.06,20.95ZM204,14c-2.25-.36-1.59.04-2.22,1.28-1.04,2.08-7.59,20.92-6.78,21.72,3.49.09,7.01-.11,10.51-.01,2.24.06,3.89,2.08,5.47-.48l-6.98-22.51Z"/>
  <path d="M289,40l1.01-13.99,4.91.08c.25,2.18,1.18,4.01,1.04,6.29-.21,3.48-3.2,10.88-2.99,13.09.42,4.31,8.55,9.21,10.53,12.53.56.95-.47,1.79-1.06,1.95-6.44,1.72-11.83-7.11-13.78-6.83-3.77,1.79-5.54,4.83-9.68,6.37-22.47,8.33-34.48-17.61-16.04-31.1-4.07-5.66-9.13-12.32-4.41-19.34,10.49-15.6,34.01-1.74,24.48,12.47-1.84,2.74-7.77,4.98-6.92,7.83.42,1.41,11.25,12.31,12.89,10.64ZM270.66,7.27c-10.86.66-5.89,17.42.84,17.42s10.31-18.09-.84-17.42ZM265.27,52.72c4.33,3.98,18.62,2.48,18.73-3.2.05-2.56-11.43-14.11-13.97-16.05-2.9-2.22-3.69-1.92-6.04,1.03-3.44,4.3-2.77,14.5,1.28,18.22Z"/>
  <path d="M95.71,3.21c11.76-2.51,23.68,1.54,29.13,12.46,3.37,6.77,3.21,24.92.2,31.87-4.02,9.3-13.64,13.91-23.56,13.52-30.72-1.18-29.23-52.84-5.77-57.85ZM92.31,50.69c3.89,3.66,10.9,4.17,15.98,3.1,15.42-3.23,17.21-42.2-2.86-44.72-21.29-2.67-24.42,30.99-13.12,41.62Z"/>
  <path d="M9,60l-7.05-1.63c-.11-8.29.28-16.63.1-24.92-.05-2.19-1-4.03-1.06-5.94-.28-8.03.84-15.59,1.01-23.52l33.01-1v7H9v16h25v7H9v27Z"/>
  <path d="M372.99,15c-10.38-7.19-23.64-10.43-31.2,2.29-5.07,8.54-5.08,23.33,1.22,31.19,8.82,10.99,19.63,6.43,29.98.52.17,4.96.91,7.3-3.98,9.51-14.03,6.33-32.05,1.17-36.55-14.47-1.51-5.25-.78-21.49,1.33-26.75,5.39-13.37,20.3-17.22,33.22-12.81,5.78,1.98,6.67,4.51,5.98,10.51Z"/>
  <polygon points="42 10.5 43.96 3.45 49.05 4.63 50 54 75 54 75 60 42 60 42 10.5"/>
  <path d="M215,80c10.25-3.25,21.56,3.77,15.78,15.28-1.02,2.03-3.63,3.12-3.83,5.25-.34,3.62,6.07,10.93,5.04,15.47-6.34-3.51-5.37-16.83-13.99-16l-1.01,16c-.27.34-1.99-1.28-1.99-1.5v-34.5ZM219.01,97.01c2.99-1.76,6.38.15,8.44-3.05,3.31-5.16.66-11.31-5.95-11.04-6.03.25-3.27,9.99-2.49,14.09Z"/>
  <path d="M189.99,80c3.15,11.78,7.59,23.74,8.01,36-3.16-.73-3.24-10.84-4.58-11.06l-10.31.16c-1.66,1.16-.61,11.29-5.1,10.89,2.66-10.48,3.81-23.67,7.93-33.56.95-2.27,1.29-2.79,4.05-2.43ZM192,101c-.82-3.65-1.49-7.36-2.53-10.97-.34-1.18.1-3.27-1.46-3.02l-3,13.99h6.99Z"/>
  <path d="M150.99,100l-1,16c-1.31-.16-1.79-1.35-1.98-2.51-.65-3.96.18-9.68,0-14-.07-1.7-.93-3.27-1.02-4.97-.18-3.35.09-10.61,1.52-13.5,1.83-3.71,12.18-.8,14.52,2.46,6.11,8.51-2.08,18.54-12.03,16.52ZM151,96c9.22,1.74,12.1-3.34,9.03-11.53-1.51-1.51-7.33-2.42-8.58-.54l-.44,12.06Z"/>
  <path d="M281.01,107c2.32.76,2.88,3.58,4.46,5.02,4.78,4.36,9.85.34,9.6-5.51-.33-7.72-10.72-8.79-13.31-14.77-2.16-4.99,1.08-10.87,6.23-12.32,3.19-.9,9.6,2.78,9.01,6.06-.76,4.26-4.66-2.8-4.98-3.02-3.6-2.54-8.67,2.51-8.07,7,.88,6.5,17.7,7.65,13.35,21.35-3.09,9.74-17.75,6.3-16.31-3.82Z"/>
  <path d="M254,84.5c-.54-3.3-3.93-1.92-5-4.49h12c.71,3.2-1.73,1.2-3.08,2.57-1.38,2.04-1.29,23.04-.96,26.97s2.25,3.21,5.06,4.95c0,1.83-10.22,1.6-12,1.5-.73-2.71,2.19-2.5,4-3-.99-8.68,1.35-20.21,0-28.5Z"/>
</svg>