<?xml version="1.0" encoding="UTF-8"?>
<svg id="Laag_1" xmlns="http://www.w3.org/2000/svg" version="1.1" viewBox="0 0 2449 689">
  <!-- Generator: Adobe Illustrator 29.5.1, SVG Export Plug-In . SVG Version: 2.1.0 Build 141)  -->
  <path d="M2343.72,99.28c11.52,11.78,17.75,27.89,19.31,44.19v402.05c-2.8,34.9-29.39,61.46-64.48,63.52l-2162.07-.02c-33.54-2.2-60.52-27.92-63.52-61.48l.12-407.97c3.65-31.42,27.27-55.15,58.5-59.5l2169.97-.12c14.44.97,32.05,8.98,42.17,19.33ZM136.76,117.26c-15.85,2.05-25.67,13.35-26.8,29.2l.02,397.07c1.47,13.28,9.64,23.83,22.74,27.26l2166.83.26c12.58-.93,22.43-10.8,25.24-22.76l.24-405.81c-2.34-15.62-14.17-24.51-29.47-25.53l-2158.79.3Z"/>
  <path d="M360,287v-81h51.5c.56,0,6.36.98,7.77,1.23,24.46,4.35,45.12,23.28,52.01,46.99.67,2.3,2.73,9.51,2.73,11.27v106.5H209c1-30.59-1.33-62.03-.03-92.53.45-10.43,1.52-20.85,5.26-30.74,7.3-19.3,25.3-35.62,45.53-40.47,2.39-.57,10.08-2.26,11.74-2.26h51l1.5,1.5v79c0,2.4,4.32.5,5.47.47,10.21-.25,20.45.7,30.53.03Z"/>
  <path d="M1320.76,206.26l158.67-.19c34.71,3.13,60.4,29.59,62.62,64.38,1.27,20-2.79,39.66-16.02,55.05,13.96,10.31,24.75,28.39,26.02,45.95.98,13.52,1.2,40.07-2.53,52.56-7.86,26.33-31.74,44.68-58.97,47.03l-169.07-.03c-17.18-2.33-30.27-15.62-33.51-32.49l.08-202.98c3.49-15.94,16.6-27.26,32.71-29.29ZM1325,312h154.5c2.33,0,8.53-2.84,10.82-4.18,14.45-8.47,15.13-23.99,13.7-39.34-.86-9.19-8.35-18.64-16.64-22.36-.89-.4-5.55-2.12-5.88-2.12h-156.5v68ZM1326.5,349l-1.5,1.5v82l1.5,1.5h161c1.35,0,7.74-1.83,9.49-2.51,6.94-2.68,13.72-9.78,16.23-16.77,2.75-7.66,2.45-28.52,1.83-37.26-.88-12.34-8.79-23.65-20.99-27.01-1-.28-6.22-1.44-6.56-1.44h-161Z"/>
  <path d="M964,244v-38h180.5c1.67,0,9.35,1.68,11.74,2.26,26.64,6.4,46.13,30.5,49.68,57.32l.1,171.95c-2.26,17.91-15.77,30.98-33.5,33.5l-170.95-.09c-27.33-2.91-51.66-22.84-58.32-49.68-4.28-17.27-3.8-51.99,2.97-68.52,9.07-22.13,32.23-39.04,56.23-40.77,46.22-3.35,96.43,2.62,143.07.02,4.17.87,8.36,1.39,12.49,2.51,2.55.7,7.01,3.14,8.61,3.41,1.04.17,2.37-1.01,2.37-1.39v-45c0-1.11-1.69-7.16-2.23-8.77-1.69-5.03-6.51-11.11-10.81-14.19-1.11-.79-8.76-4.54-9.46-4.54h-182.5ZM1168,434c.17-1.56.9-2.82,1.04-4.47,1.13-13.33.9-35.6,0-49.08-1.26-18.97-11.35-30.14-30.52-31.48-41.8-2.93-86.92,2.28-129.07-.02-13.76.16-29.06,10.07-30.48,24.52-.86,8.75-.86,27.3,0,36.05.95,9.65,9.77,19.23,18.76,22.24,1.61.54,7.66,2.23,8.77,2.23h161.5Z"/>
  <path d="M836,348h-95c-.53-11.44,1.19-23.28-1.07-34.5l1.57-2.5h100c1.03,0,10.3,3.35,11.87,4.13,10.24,5.11,17.84,16.14,19.65,27.35-2.8,29.6,6.79,67.52-7.84,94.21-10.76,19.62-30.53,31.78-52.66,34.34h-143.05c-30.92-3.08-55.26-26.01-60.4-56.6l-.09-149.95c3.28-28.43,26.43-52.67,54.59-57.41,1.2-.2,6.58-1.06,6.94-1.06h179l1.5,1.5v35l-1.5,1.5h-181c-.76,0-7.52,3.41-8.82,4.18-7.86,4.64-12.3,12.38-13.7,21.3v138.04c1.18,7.56,4.94,15.21,11,20,5.36,4.25,12.79,6.03,19.5,6.5,41.76,2.97,86.93-2.3,129.05,0,11.56-.92,20.92-4.88,26.66-15.34,1.2-2.18,3.82-8.04,3.82-10.18v-60.5Z"/>
  <path d="M1871.72,226.28c9.4,9.75,17.25,26.66,18.31,40.19l.02,144.07c-3.16,32.16-28.61,57.03-60.52,60.48h-143.05c-32.3-2.96-59.86-29.53-60.54-62.46.38-44.63-3.71-91.41-.96-136.09,2.2-35.78,26.93-63.9,63.5-66.5,45.02,2.07,92.32-2.65,137.07-.02,16.92.99,34.43,8.14,46.17,20.33ZM1685.71,244.21c-11.71,2.73-20.27,11.55-22.66,23.34l-.08,140.98c3.01,16.17,14.55,24.37,30.5,25.5,41.75,2.97,86.94-2.3,129.05,0,17.63-.89,29.24-11.73,30.52-29.48,3.09-43.01-2.42-89.67-.02-133.07-1.34-14.34-11-25.59-25.5-27.5l-141.81.24Z"/>
  <path d="M2007,206v226.5l1.5,1.5h225.5v37h-232.5c-.48,0-8.01-2.34-9.2-2.8-6.35-2.42-13.66-9.06-17.11-14.89-1-1.69-5.18-10.67-5.18-11.82v-235.5h37Z"/>
  <path d="M474,404c-.48,35.16-27.22,64.36-62.45,67.05-45.82-2.41-94.63,3.04-140.09,0-33.74-2.26-63.24-32.81-61.45-67.05h264Z"/>
</svg>