<?xml version="1.0" encoding="UTF-8"?>
<svg id="Laag_1" xmlns="http://www.w3.org/2000/svg" version="1.1" viewBox="0 0 400 150">
  <!-- Generator: Adobe Illustrator 29.5.1, SVG Export Plug-In . SVG Version: 2.1.0 Build 141)  -->
  <path d="M186.5,60c3.86.79,7.91,5.78,8.29,9.74.56,5.87-5.73,8.03-5.78,10.73-.04,1.96,6,13.73,3.99,15.53l-9.04-.46c-3.57-4.77.04-17.53-9.32-14.4-3.18,1.06-1.02,11.7-1.63,14.87-1.75,0-9,.57-9-1.5v-34.5c6.58.92,16.39-1.24,22.5,0ZM173,74c17,2.41,17.03-9.41,0-7.01v7.01Z"/>
  <path d="M233,95.99l-10.06-.43c-2.44-4.3.01-8.64-6.44-8.65s-3.51,4.43-6.46,8.63l-9.04.45,9.96-35.54c2.49-.57,10.25-1.27,11.57.52l10.47,35.02ZM219,81c.48-.44-1.16-7.59-1.52-8.99-.3-1.14.06-3.25-1.47-3l-2.01,11.99h5.01Z"/>
  <path d="M300,60l.04,5.32c-.2.64-2.3,1.68-2.54,1.68h-14.5v7s8.56.93,8.56.93l.44,6.07h-9.01s0,8,0,8h16.5c2.05,0,2.05,7,0,7h-26.5v-36h27Z"/>
  <path d="M157,60c.68,1.76-.73,7-2.5,7h-14.5v7s11.36.14,11.36.14c7.76,10.47-10.07,5.56-11.36,6.85l-.43,14.07-8.56.94v-36h26Z"/>
  <path d="M254,67v29h-9v-29c-6.3.21-12.1,1.26-11-7h29.5c5.09,7.15-4,7.65-9.5,7Z"/>
  <path d="M349,60v29l13.06.44.83,6.46c-7.71,2.71-15.07-.38-22.89.1v-36h9Z"/>
  <path d="M318,60v29l13.06.44c1.91,1.26.91,6.56-.56,6.56h-21.5v-36h9Z"/>
  <path d="M108,75c1.47,8.77-7.07,24.39-15.51,26.98-.52.16-1.63.27-1.48-.48,5.2-4.64,9.97-10.27,10.99-17.5-7.91,10.58-31.26,17.26-30.01-2.47.97-15.24,19.57-28.58,34.3-25.32,5.21,1.15,6.94,7.04,1.22,8.79-7.55-17.4-28.25.81-30.27,12.74-2.53,14.92,9.95,16.93,19.31,8.31,1.84-1.69,8.89-13.65,11.45-11.04Z"/>
  <path d="M57,75c.94,10.61-5.76,22.66-15.67,26.84-3.2-.2-1.01-.38-.12-1.12,5.25-4.37,9.11-9.59,9.78-16.72-6.31,8.62-26.57,17.09-29.57,2.04-3.35-16.82,20.38-36.04,36.18-29.14,5,2.19,3.59,6.64-1.08,8.1-6.03-13.85-18.95-4.96-25.49,3.52-11.44,14.85-1.78,31.01,14,18,4.59-3.79,6-11.17,11.97-11.52Z"/>
  <polygon points="372 96 372 60 380.56 60.94 380.86 94.36 379.36 95.86 372 96"/>
  <path d="M69,79.01l-5.01,13.99,3,.5-5.47,3.51c-4.32-4.96,1.51-11.18.58-16.9l6.9-1.09Z"/>
  <path d="M118.99,79l-4,13.99,3,.5-5.47,3.51c-4.02-.78.99-14,.62-16.87l5.86-1.13Z"/>
  <path d="M28,97.99l.94,4.58,9.06.93c-3.05,3.58-12.5,3.89-14.49-.51-1.81-3.99.6-5.56,4.49-4.99Z"/>
  <path d="M79,97.99l.94,4.58,9.06.93c-3.05,3.58-12.5,3.89-14.49-.51-1.81-3.99.6-5.56,4.49-4.99Z"/>
  <path d="M69.74,72.74c-1.04,1.03-3.28,1.32-4.73,1.25-.91-.89,2.4-5.33,3.51-5.99l2.49,1.52c-.24,1.01-.55,2.51-1.27,3.22Z"/>
  <path d="M116,74c-.93-.88,3.65-9.06,5.99-4.48.36,1.77-3.88,5.3-5.99,4.48Z"/>
</svg>