<?xml version="1.0" encoding="UTF-8"?>
<svg id="Laag_1" xmlns="http://www.w3.org/2000/svg" version="1.1" viewBox="0 0 453.6 171.36">
  <!-- Generator: Adobe Illustrator 29.5.1, SVG Export Plug-In . SVG Version: 2.1.0 Build 141)  -->
  <path d="M191.52,0c2.97,2.06,4.72,5.5,6.86,8.37,1.81,2.42,3.67,5.04,5.62,7.33,1.13,1.33,2.28,2.74,3.76,3.69.27.06.41-.16.57-.33,1.43-1.56,1.01-7.28,1.86-9.64.94-2.61,2.66-2.1,3.35.36,1.11,4,1.43,8.49,2.59,12.52,1.15-4.03,1.48-8.52,2.59-12.52.68-2.47,2.35-2.96,3.34-.35.61,1.6.47,3.39.69,5.06.11.8.55,5.17,1.74,4.91,1.48-.96,2.62-2.36,3.76-3.69,1.95-2.29,3.81-4.91,5.62-7.33,2.14-2.86,3.89-6.31,6.86-8.37h1.44c1.59,1.39.77,3.24-.04,4.87-1.14,2.3-4.45,6.25-4.95,8.48-.08.35-.14,1.37.44,1.16l11.29-10.06c2.32-1.51,4.97-.27,3.31,2.58-1.85,3.18-6.81,6.7-9.08,9.87l-1.44,2.27c.63.05,1.16-.3,1.66-.62,3.02-1.86,6.06-5.03,9.06-6.77,1.25-.73,3.36-.98,2.92.99-.09.42-.94,1.46-1.27,1.85-2.62,3.11-6.28,5.9-9.02,8.97l-.23,1.09c2.39-.34,7.07-4.69,9.37-3.97.81.25.94,1.11.59,1.82-.26.53-3.18,2.04-3.94,2.53-5.18,3.36-8.51,6.5-13.1,10.4-3.08,2.63-6.46,4.91-9.71,7.31.4.4.78.82,1.22,1.18,2.81,2.3,6.55,4.25,9.22,6.61,1.84,1.62,1.55,2.85.72,5.03-1.44,3.78-7.21,9.6-10.75,11.56-2.5,1.38-3.15.44-4.73-1.37-2.1-2.41-4.74-5.68-6.58-8.28-.39-.56-.58-1.14-.98-1.66-2.52,4.11-5.9,7.62-8.83,11.43-1.85,1.68-5.26-1.34-6.77-2.57-2.77-2.26-6.29-5.89-7.51-9.28-.52-1.44-.91-2.97.01-4.31l10.97-8.09.24-.6c-2.13-.99-4.22-2.63-6.12-4.08-5.86-4.49-10.33-9.15-16.7-13.28-.79-.51-3.82-2.06-4.02-2.7-.79-2.61,2.51-1.53,3.81-.93,1.71.79,3.85,2.58,5.5,3.14,1.02.34.91-.23.5-.98-2.75-3.11-6.52-5.94-9.13-9.1-.37-.45-1.15-1.4-1.2-1.93-.2-1.82,1.84-1.44,2.96-.78,3,1.74,6.05,4.92,9.06,6.77.5.31,1.03.67,1.66.62l-1.44-2.27c-2.46-3.26-6.95-6.55-9.08-9.87-1.69-2.64,1.11-4.18,3.31-2.59l11.29,10.06c.58.21.52-.81.44-1.16-.5-2.23-3.82-6.17-4.95-8.48-.79-1.6-1.54-3.48-.04-4.87h1.44Z"/>
  <path d="M0,97.06c.24-2.14,1.99-5.86,3.36-7.55,8.38-10.26,26.79-9.74,36.24-1.21.32.29,1.39,1.16,1.08,1.57l-8.17,3.8c-2.77-3.89-7.13-5.13-11.77-4.78-7.13.53-10.68,6.31-9.69,13.05.61,4.16,2.85,7,6.94,8.17,4.92,1.41,13.15.65,13.92-5.63h-9.84v-6.47h19.2v18.57l-.36.36h-8.28v-3.11s-3.27,1.88-3.27,1.88c-10.61,4.96-27.72.43-29.37-12.67-.17-1.31-.15-4.66,0-5.99Z"/>
  <path d="M453.6,88.68v3.59c-.32.24-.27.75-.43,1.13-2.54,6.27-11.64,6.25-14.09.07-2.43-6.14,3.15-11.95,9.43-10.14,2.55.74,4.14,3.03,5.09,5.35ZM444.65,83.94c-5.84.96-7.35,9.28-2.17,12.36,6.24,3.71,12.99-3.05,9.48-9.23-1.48-2.61-4.4-3.61-7.31-3.13Z"/>
  <path d="M379.08,83.16c5.12.46,11.45,3.51,12.1,9.25.73,6.43-3.16,9.46-8.86,11l9.6,12.7.23.84h-11.88l-8.88-12.22h-6.48l-.36.36v11.86h-10.68l-.36-.36v-33.43h25.56ZM364.92,89.39l-.36.36v8.39l.36.36h9.84c.5,0,2.34-.48,2.89-.71,3.38-1.45,3.53-6.47.11-7.79-.49-.19-2.09-.6-2.52-.6h-10.32Z"/>
  <path d="M99.07,82.03c11.08-.83,23.62,4.2,24.75,16.61,1.29,14.14-14.05,20.47-25.99,19.01-24.68-3.03-23.83-33.74,1.24-35.62ZM99.78,89.22c-7.43.85-10.63,8.02-8.41,14.74,3.07,9.31,19.05,8.83,21.12-1.33,1.74-8.51-4.24-14.39-12.71-13.41Z"/>
  <path d="M322.03,82.03c11.09-.83,23.62,4.18,24.75,16.61,1.28,14.05-13.85,20.41-25.75,19.01-25-2.94-24.05-33.74,1-35.62ZM322.74,89.22c-11.63,1.33-12.17,18.45-1.44,20.96,8.8,2.06,16.28-3.85,14.11-13.13-1.42-6.03-6.79-8.5-12.67-7.83Z"/>
  <path d="M263.76,88.44l-.15.49-7.89,4.24c-2.27-1.66-4.54-3.01-7.31-3.65s-5.48-.91-8.09.08c-2.79,1.05-3.85,3.96-.62,5.27,2.15.87,5.07.71,7.37,1.03,4.18.58,10.87,1.2,14.18,3.82,4.73,3.75,3.57,10.09-.72,13.66-6.8,5.66-22.3,5.23-30.04,1.73-1.17-.53-5.62-3.22-6.07-4.24-.18-.39.17-.32.31-.4,2.43-1.44,5.32-2.32,7.78-3.76l.31.08c1.25,1.15,2.91,2.1,4.5,2.71,3.81,1.46,11.12,2.35,14.59-.18,1.78-1.31,2.03-3.41-.12-4.44-2.98-1.42-8.46-1.33-11.86-1.82-6.59-.94-15.04-3.46-13-11.97,1.03-4.3,5.3-6.66,9.25-7.78,6.82-1.93,15.16-1.27,21.6,1.68,2.12.97,3.95,2.41,6,3.47Z"/>
  <polygon points="203.52 83.16 203.52 89.63 181.92 89.63 181.92 95.63 201.72 95.63 202.08 95.99 202.08 102.1 181.92 102.1 181.92 110.01 205.08 110.01 205.44 110.37 205.44 116.6 205.08 116.96 170.88 116.96 170.88 83.16 203.52 83.16"/>
  <path d="M137.04,83.16l9,23.49,8.76-23.49h11.76l-15,33.56c-.18.27-.45.22-.71.25-3.32.27-6.99-.24-10.34,0l-15.23-33.81h11.76Z"/>
  <path d="M403.8,83.16l9.12,11.27c.47.11.31-.15.42-.31,2.64-3.83,6.13-7.23,8.94-10.96h12.6l-16.56,17.85v15.94h-10.8v-15.7l-16.32-17.98c-.06-.74.26-.12.36-.12h12.24Z"/>
  <polygon points="300.72 82.92 300.72 89.87 289.44 89.87 289.44 116.6 289.08 116.96 278.4 116.96 278.4 89.87 267.24 89.87 266.88 89.51 266.88 82.92 300.72 82.92"/>
  <polygon points="60 82.92 60 109.53 77.04 109.53 77.04 116.96 48.96 116.96 48.96 82.92 60 82.92"/>
  <path d="M300.24,137.57v12.94c2.49-1.47,4.86-1.87,7.6-.76,5,2.02,5.44,8.83,1.39,12.02-3.21,2.53-8.66,1.63-11.76-.71l-.13-20.72c-.19-1.29-1.25-1.29-2.29-1.55-.3-.07-.72-.19-.34-.5l5.52-.72ZM303.3,150.33c-3.6.5-3.57,4.86-3.3,7.73.14,1.52.87,3.31,2.4,3.84,2.14.74,4.4.1,5.48-1.96,1.93-3.68.69-10.33-4.58-9.6Z"/>
  <path d="M228.96,162.25v7.07c0,1.32,3.13,1.28,3.96,1.32.47.02.37-.02.36.48h-10.08c-.11-.73.18-.39.59-.48,1.67-.37,2.16-.41,2.3-2.27.39-5.25-.31-10.99-.02-16.3-.27-1.46-1.42-1.58-2.63-1.93.52-.62,1.36-.28,2.04-.36,1.15-.12,2.26-.4,3.48-.24l.12,1.2c3.17-2.68,8.98-2.06,10.8,1.92,3.41,7.43-4.29,13.04-10.92,9.59ZM231.77,150.56c-.76.13-2.54,1.03-2.77,1.79.14,2.2-.35,5.02-.03,7.14.17,1.14,1.62,2.05,2.63,2.4,3.02,1.06,5.39-.81,5.74-3.85.46-3.98-.68-8.3-5.56-7.47Z"/>
  <path d="M96.48,161.05c2.75.73,5.98.77,8.64-.36s4.25-3.57,5.88-5.87l.36.36c-.59,1.16-2.05,7.3-2.87,7.67h-18.49s-.24-.6-.24-.6c1.66.09,3.34-.46,3.58-2.3-.25-5.23.4-10.87.03-16.05-.2-2.87-.66-2.88-3.08-3.64-.41-.13-.64.12-.53-.54,1.25-.22,2.54.21,3.71.25,2.64.09,5.19-.25,7.81-.25.27.24.02.43-.3.53-1.42.47-3.36.33-4.16,1.85.08.43-.35,1.35-.35,1.57v17.38Z"/>
  <path d="M180.96,162.73c-.11-.67.14-.4.53-.54.89-.32,1.48-.19,1.61-1.27.16-1.29.21-6.96-.09-8.03-.79-2.79-4.72-2.3-6.34-.56v8.79c.44,1.01,1.42.87,2.2,1.17.33.13.55.3.17.55l-7.68-.12c-.12-.67.14-.4.53-.54,1.03-.37,1.59-.29,1.81-1.56.3-1.71.21-6.25.07-8.1-.08-1-.16-1.41-1.2-1.68-.55-.14-1.4.14-1.21-.58l5.28-.72c.03.35,0,.68-.06,1.03-.02.15-.44.63.17.41.7-.25,1.7-1.15,2.6-1.48,2.81-1.04,6.32.3,6.65,3.52.17,1.67-.46,7.76.47,8.63.28.27.99.4,1.39.54s.64-.14.53.54h-7.44Z"/>
  <path d="M157.8,162.73c-.05,0-.13.18-.24.19l-.36-.67c2.25.13,3.32-.82,3.58-3.02-.23-5,.39-10.38.03-15.33-.06-.79-.24-2.03-.73-2.63-.71-.88-1.64-.7-2.58-1.02-.32-.1-.57-.29-.3-.53,2.38-.02,4.68.35,7.09.25.57-.02,1.07-.22,1.66-.26.45-.03,1.82-.24,1.57.49-1.38.17-2.99.53-3.31,2.09-.13.65-.26,2.1-.3,2.82-.22,3.98-.38,11.29.31,15.06.14.76.53,1.3,1.22,1.66s1.6.29,2.09.55c.41.21.1.41-.13.6-.2.03-.41-.24-.48-.24-3.04,0-6.08-.03-9.12,0Z"/>
  <path d="M286.56,155.3c-.06-1.76.49-4.22-1.55-5.05-2.22-.9-2.98.74-3.27,2.64l-2.87-.47c.5-4.35,8.11-4.24,9.95-1.18.86,1.44.16,6.48.37,8.5.19,1.78,1.4,1.77,2.73,1.03.52-.29.76-1.13,1.35-.32-2.24,2.59-4.22,4.16-6.84.87-2.33,2.09-8.21,3.32-8.95-.92-.81-4.68,5.85-5.17,9.07-5.1ZM286.53,156.77c-2.35-.77-6.44-.36-5.96,2.96.39,2.69,5.72,1.59,5.99.01.06-.35.06-2.84-.03-2.97Z"/>
  <path d="M260.16,160.81c-.93.18-1.42,1.27-2.17,1.79-2.08,1.44-3.21.22-4.67-1.27-1.87,1.32-3.87,2.23-6.23,1.88-1.5-.23-2.79-1.99-2.79-3.46,0-4.15,6.12-4.47,9.14-4.43-.15-1.39.41-3-.48-4.2-1.67-2.25-4.51-.93-4.08,1.8l-3.12-.48c.41-4.36,8.67-4.25,10.02-1.01.78,1.87.09,5.86.3,8.09.16,1.7,1.09,2.22,2.63,1.42.59-.31,1.28-1.47,1.46-.1ZM253.41,156.77c-1.95-.62-5.59-.56-5.96,2.02-.56,3.86,5.7,2.65,5.99.95.06-.35.06-2.84-.03-2.97Z"/>
  <path d="M320.64,160.93c.21,1,1.72,1.45,2.64,1.32,0,1-.66.47-1.31.47-2.07-.03-4.13.04-6.2.09-.38,0-.6.22-.66-.43l2.11-.65c.31-.63.49-1.27.55-1.97.5-6.13-.38-12.96-.03-19.17-.19-1.41-.76-1.59-2.03-1.81-.41-.07-.4.1-.35-.48l4.8-.62.48.26v23.01Z"/>
  <path d="M220.08,155.3h-10.08c.24,4.12,1.9,6.56,6.34,5.98.54-.07,1.26-.39,1.75-.65.27-.15,1.78-1.63,1.99-.65.1.5-1.86,1.95-2.32,2.23-6.32,3.76-12.6-2.4-10.1-8.89s12.37-5.16,12.43,1.98ZM216.72,154.34c.2-5.6-6.56-5.29-6.48,0h6.48Z"/>
  <path d="M126.72,155.3h-10.08c-.15,2.5,1.14,5.71,3.96,6,1.09.11,2.65,0,3.65-.43.45-.2,2.24-1.99,2.47-.89.07.32-.82,1.08-1.08,1.31-6.01,5.24-14.17-.39-11.45-7.83,2.45-6.69,12.31-5.36,12.53,1.85ZM123.36,154.34c-.28-1.38-.23-3.05-1.68-3.72-2.57-1.18-4.55.69-5,3.17l.32.55h6.36Z"/>
  <path d="M329.52,155.3c-.15,2.5,1.14,5.71,3.96,6,1.09.11,2.65,0,3.65-.43.45-.2,2.24-1.99,2.47-.89.07.32-.82,1.08-1.08,1.31-4.42,3.86-11.29,2-11.88-4.19-.9-9.46,12.19-11.14,12.96-1.8h-10.08ZM336.24,154.34c.08-5.29-5.77-5.43-6.68-.55l.32.55h6.36Z"/>
  <path d="M140.88,153.63c-.92.18-1.2-1.09-1.8-1.68-1.25-1.23-5.02-2.79-5.78-.49-.44,1.32.6,1.93,1.65,2.46,2.14,1.07,6.46,1.7,6.87,4.65.83,6.08-6.82,4.85-10.53,3.93l-.25-4.3c.39-.09.49.13.73.35.69.63,1.19,1.61,2.04,2.28,1.45,1.15,4.13,2.1,5.65.61,1.64-1.61-.71-2.93-2.01-3.53-2.67-1.22-6.66-1.65-6.15-5.57.18-1.37,1.11-2.42,2.39-2.89,2.11-.78,3.41-.06,5.42.34.51.1,1.31-.19,1.5.42.13.4.4,3.29.27,3.44Z"/>
  <path d="M354,153.62c-.41.04-.54.05-.83-.25-.51-.52-.91-1.26-1.56-1.79-1.46-1.19-3.25-1.76-4.99-.78-.96,2.04.33,2.62,1.94,3.35,2.57,1.15,6.76,1.81,6.39,5.56-.48,4.87-7.45,3.7-10.68,2.56-.14-1.13-.11-2.24-.24-3.37-.03-.27-.13-.64.25-.72.33-.07,2.11,2.37,2.64,2.63,1.26,1.53,5.94,2.13,6.12-.37.22-3.06-8.12-3.06-8.63-6.47-.3-2.04.4-3.8,2.39-4.54s3.47-.04,5.42.34c.5.1,1.31-.19,1.51.41l.27,3.44Z"/>
  <path d="M202.08,153.63c-.29-.01-.49.11-.73-.15-.4-.44-.57-1.09-1.18-1.65-1.29-1.17-4.92-2.65-5.66-.36s4.3,3.24,5.82,4.04c.89.47,2.55,1.78,2.71,2.81.96,6.43-6.59,5.07-10.54,4.18l-.25-4.31c.81,0,1.09.96,1.55,1.44,1.63,1.68,3.74,3.14,6.18,2.32,1.4-.47,1.57-2.06.51-3.01-2.31-2.08-8.31-1.9-8.01-6.15.18-2.59,2.45-3.92,4.9-3.69,1.34.12,2.68.84,4.08.72l.28.2c.42,1.17.38,2.38.35,3.6Z"/>
  <path d="M262.08,162.73c-.12-.73.2-.37.57-.5.76-.25,1.58-.47,1.78-1.35-.14-2.79.35-6.1.06-8.83-.09-.83-.44-1-1.2-1.2-.55-.15-1.4.15-1.21-.58l5.28-.72.12,1.68c1.8-1.25,3.02-2.89,5.47-2.35,1.1.25,1.99,1.75,1.49,2.84l-2.53,1.43c.49-4.27-3.3-2.32-4.56-.12l.04,8.11c.42.96,1.7.89,2.36,1.24.28.15.27.33,0,.49-.3.16-.25-.12-.36-.12h-7.32Z"/>
  <path d="M218.8,143.96c-1.48.61-4.2,3.45-5.57,3.66-.42.07-.88-.01-1.31,0l4.67-5.52c1.76-1.77,3.85-.18,2.21,1.85Z"/>
  <path d="M447.48,85.56c2.78.39,3.61,3.59,1.08,4.91,1.05.98.92,2.51,1.26,3.78.11.43.47.68.42,1.13l-2.65-.11c-1.1-1.5.15-4.38-2.63-3.96v4.07h-2.4v-9.83c1.54.15,3.43-.21,4.92,0ZM444.96,89.4c3.59.55,3.59-2.47,0-1.92v1.92Z"/>
</svg>