<?xml version="1.0" encoding="UTF-8"?>
<svg id="Laag_1" xmlns="http://www.w3.org/2000/svg" version="1.1" viewBox="0 0 672 199.68">
  <!-- Generator: Adobe Illustrator 29.5.1, SVG Export Plug-In . SVG Version: 2.1.0 Build 141)  -->
  <path d="M147.55,41.23l1.44,37.87h-6.12c-.77-.92-.98-2.27-1.44-3.35-5.78-13.52-14.71-24.13-30.46-25.17-21.62-1.44-35.85,12.82-40.55,32.84-5.57,23.7-.61,54.94,25.43,63.78,8.64,2.93,21.15,3.14,29.63-.37,3.2-1.32,5.98-2.94,6.25-6.7.63-8.75-.29-18.54-.25-27.33.07-2.7.02-5.71-1.15-8.2-2.07-4.41-9.19-3.5-13.24-4.15v-5.51h44.86v5.51c-3.6.52-8.56,0-10.45,3.83-.91,1.85-.89,3.45-1.07,5.41-1.04,11.76.26,24.33-.23,36.2-.14,1.26-2.59,2.65-3.69,3.27-6.6,3.69-16.65,6.62-24.1,8.04-31.84,6.06-68.21-7.49-74.36-42.31-3.31-18.76-.7-37.02,11.21-52.18,15.75-20.05,41.24-25.32,65.25-18.7,2.69.74,7.38,2.76,9.95,2.77,1.09,0,3.76-.93,4.67-1.58,1.53-1.09,1.69-2.44,2.53-3.94h5.88Z"/>
  <path d="M407.13,43.63l.48,26.37h-6.48c-.83-3.64-1.31-7.57-3.16-10.86-3.53-6.26-11.31-6.03-17.59-6.64-8.82.52-18.4-.68-27.12,0-.73.06-2.08.26-2.48.87-.08.13-.51,1.11-.51,1.17v37.99h27.95c3.06-.42,6.37-.61,8.87-2.64,3.43-2.78,3.75-9.1,4.44-13.18h6.48v41.23h-6.48c-.74-4.79-1.25-11.95-6.24-14.26-2.57-1.19-6.88-1.45-9.71-1.56-5.8-.23-11.72-.12-17.51-.25-2.6-.06-5.21.06-7.81.01v42.31c0,.12.64,1.33.79,1.48.36.37,1.32.77,1.84.92,2.43.72,5.09.48,7.57.59,10.48.46,26.47,1.31,35.7-4.12,4.45-2.62,7.85-7.06,10.28-11.54,1.05-1.94,1.8-4.06,2.96-5.92h7.08l-8.28,30.68h-92.01v-5.75c4.3-.66,10.42-.05,12.91-4.48,1.01-1.8,1.17-3.93,1.5-5.94V59.8c-.27-1.75-.41-3.49-1.09-5.14-2.17-5.31-8.62-4.47-13.31-5.28v-5.75h90.93Z"/>
  <path d="M229.84,43.63v5.75c-5.64.8-13.89.21-14.82,7.61-.52,22.61-.44,45.39-.04,68,1.3,19.7,18.69,26.75,36.26,22.61,14.02-3.3,19.4-11.65,20.33-25.47,1.3-19.31-.27-39.8,0-59.2-.14-3.18-.85-7.04-2.88-9.59-2.93-3.68-8.27-3.35-12.47-3.96v-5.75h41.27v5.75c-4.36.79-10.5.49-13.16,4.71-1.95,3.11-1.97,6.75-2.19,10.27-1.18,18.46.78,37.68-.49,56.09-.85,12.26-4.46,23.37-14.89,30.66-13.7,9.57-40.71,10.2-54.9,1.44-12.31-7.6-15.81-20.07-16.57-33.79-1.09-19.6.3-39.77-.23-59.46-.36-2.18-.43-4.51-1.83-6.32-2.75-3.55-9.09-2.88-13.06-3.61v-5.75h49.66Z"/>
  <path d="M618.02,41.23l3.84,38.11h-6.72c-1.32-6.26-3.85-12.42-7.81-17.48-5.98-7.63-16.95-13.16-26.73-10.45-8.59,2.38-12.9,10.87-9.4,19.22,4.29,10.22,22.93,18.67,32.18,24.66,14.47,9.37,26.44,22.06,20.72,40.8-5.55,18.17-25.89,25.11-43.3,21.8-5.19-.99-9.63-3.09-14.58-4.37-2.18-.56-4.4-1.03-5.87,1.09-.87,1.27-.71,2.63-1.12,4.04h-5.71s-5.3-38.09-5.3-38.09h6.24c4.65,13.28,13.57,27.13,28.69,29.22,13.68,1.9,24.06-6.19,22.63-20.45-.87-8.69-11.95-15.8-18.71-20.14-13.76-8.83-31.68-15.7-33.81-34.29-1.72-14.98,5.92-27.69,20.45-32.07,9.22-2.78,15.87-1.7,24.78,1.26,2.35.78,4.65,1.93,7.06,2.53,2.6.64,4.69.32,5.81-2.35.4-.96.42-2.23,1.03-3.05h5.64Z"/>
  <path d="M509.1,41.23l3.84,38.11h-6.72c-1.28-6.36-3.84-12.55-7.92-17.62-5.68-7.06-14.57-11.82-23.85-10.89-10.23,1.03-16.14,10.75-11.94,20.28s22.34,18.01,31.22,23.71c13.77,8.84,25.79,20.16,22.27,38.27-3.92,20.15-25.6,28.29-44.13,24.81-5.2-.98-9.64-3.1-14.58-4.37-2.09-.53-4.47-1.03-5.87,1.09-.77,1.18-.6,2.73-1.07,3.96l-5.77.1-5.28-38.11h6.24c4.93,13.29,13.37,27.1,28.69,29.22,14.11,1.96,25.55-7.29,22.35-22.09-1.51-6.97-10.27-13.13-15.93-16.92-13.86-9.29-34.91-16.96-36.31-36.35-1.25-17.31,8-29.65,25.1-32.7,11.07-1.97,16.47,1.82,26.3,4.59,1.95.55,4.41,1.21,5.95-.66,1.06-1.29,1.04-3.09,1.8-4.44h5.64Z"/>
</svg>