<?xml version="1.0" encoding="UTF-8"?>
<svg id="Laag_1" data-name="Laag 1" xmlns="http://www.w3.org/2000/svg" viewBox="0 0 512 512">
  <defs>
    <style>
      .cls-1 {
        fill: #fff;
      }
    </style>
  </defs>
  <rect class="cls-1" width="512" height="512"/>
  <path d="M217,319c-40.67,12.64-85.16,40.05-129.22,26.72-24.36-7.37-44.9-30.1-57.59-51.41-52.84-88.7,24.69-144.76,97.13-178.49,87.66-40.81,171.5-59.03,254.6,4.76,41.8,32.09,81.91,94.78,48.1,145.93,25.52,15.21,46.86,37.77,58.84,65.13,25.82,59.02,3.76,117.5-68.86,97.86-30.11-8.14-53.05-29.38-82.79-35.21-32.22-6.32-80.46-1.63-103.73-28.27-11.06-12.67-15.16-30.59-16.49-47.02Z"/>
  <path d="M227,177c-.2,1.42-1.07.87-2,0-1.3-2.03-1.08-3.93,0-6,2.39-2.13,4.66,3.03,2,6Z"/>
  <path d="M230,170c.71.25.69.59,0,1-2.4,5.73-6.75-3.48,0-1Z"/>
  <path d="M230,178c-1.26.82-3.37.8-3-1,.08-2.88,1.08-4.88,3-6,3.8-.28,3.26,6.1,0,7Z"/>
  <path class="cls-1" d="M202,236c1.23-1.02,10.64.98,10.87-7.46-2.79-7,.27-28.58-7.82-31.1-2.24-.7-7.8-.14-8.05-.45s-.4-6.59-1.01-7.99c7.96-1.99,17.96-.22,21.06,8.44,1.99,5.55,4.52,27.22,3.99,33.11-.28,3.09-1,5.53-3.03,7.96-2.71,3.25-11.26,7.59-15.08,5.05-1.32-.88-1.23-7.31-.93-7.56Z"/>
  <path class="cls-1" d="M276,180l6.04,53.51c-.26,3.88-6.24,2.21-9.04,2.5l-6.03-54.44c.09-1.08,7.61-1.86,9.04-1.57Z"/>
  <path class="cls-1" d="M140,252l-9,1.01-6.01-56c2.73.06,5.53.35,8-1.01l7.01,56Z"/>
  <path class="cls-1" d="M299,177l6.01,56c-3.4-.97-8.31,2.97-9.01-1.5l-6.01-52.99,9.01-1.51Z"/>
  <path class="cls-1" d="M234.99,185.01l5.9,54.89-7.78.98c-2.82-17.91-4.22-36.35-6.87-54.43.22-2.31,7.02-1.31,8.75-1.45Z"/>
  <path class="cls-1" d="M200.01,245c-.39.28-9.01,1.68-8.85-.65l-6.16-54.34c2.58.9,8.18-1.97,8.87.63l6.14,54.37Z"/>
  <path class="cls-1" d="M317.93,175.08l6.83,54.47c-.21,2.31-7.01,1.31-8.74,1.45-1.21-16.87-4.52-33.69-6-50.51-.56-6.33,2.11-5.02,7.92-5.4Z"/>
  <path class="cls-1" d="M153,193.99l6.01,56.01c-2.77-.08-5.49-.36-8,1l-6.07-55.43,8.05-1.58Z"/>
  <path class="cls-1" d="M109.96,199.03l6.79,54.51c-.21,2.31-7.01,1.31-8.74,1.45-1.21-16.87-4.56-33.68-6-50.51-.56-6.56,2.07-4.46,7.95-5.45Z"/>
  <path class="cls-1" d="M265,325c.82,3.57-1.42,5.81-1.99,8.99,3.47-.45,4.95-4.78,9-3.99,3.05,6.74-6.81,3.74-8,6.5,1.99,1.55,7.99,2.29,6.99,5.98-1.3,4.78-7.22-4.05-8.98-4.49.44,2.3,2.74,10.5-2.5,8.99-3.71-1.07,1.14-6.79.49-8.99-.95-1.03-6.9,6.04-8.99,2.99-2.4-3.51,5.88-5.12,8-5-.69-3.21-8.48-2.7-6.99-6.48,2.06-5.24,7.27,3.13,8.98,4.49v-9s4,0,4,0Z"/>
  <path class="cls-1" d="M291,334c.4.33-.34,7.46-1.01,8-2.52,2.05-1.89-3.42-2.18-4.29-.84-2.54-3.34-2.99-5.8-2.7-3.67,3.71,12.76,10.36,6.89,19.39-4.14,6.37-8.23-1.98-12.89.6.81-1.62.7-8.66,1-8.99,2.08-2.32,3.03,4.72,3.26,5.23,1.44,3.24,5.5,4.13,5.81.25.37-4.7-11.41-8.61-7.58-16.49,2.72-5.59,7.2-1.29,9.49-.57,1.1.35,2.68-.7,3.01-.43Z"/>
  <path class="cls-1" d="M344.78,346.3c.36.31.1,1.88.7,1.71,1.27-.38,2.39-2.48,4.82-1.88,5.5,1.37.68,11.76,1.14,15.42.15,1.2,2.14,1.71,1.55,3.44l-6.99-1c-.24-1.99,1.56-2.54,1.97-4.52.29-1.38.48-4.82.56-6.48.05-1.14,1.02-3.56-1.05-3.98-3.77-.78-4.13,12.6-2.49,14.99l-6.99-1c-.46-1.81,1.37-2.34,1.75-3.74,1.12-4.12,1.64-9.2.25-13.25,1.38.18,3.79-.55,4.78.29Z"/>
  <path class="cls-1" d="M439,358c1.02,2.76-2.14,13.64-1,15.01.96,1.16,2.99.04,3.49-1.97.97-3.94,1.89-8.16.51-12.03h5c1.01.93-1.8,11.5-1.76,13.73.03,1.91,2.17,2.26,1.75,4.26-2.14.49-4.06-1.27-5.85-1.47-2.2-.24-6,1.89-7-1.17-1.66-5.04,2.27-11.27-.14-16.35h5Z"/>
  <path class="cls-1" d="M329,344c.84,2.81-2.26,13.48-1,15.01.1.12,2.35.4,3.08-.59,1.14-1.57,2.66-11.81-.08-13.4h6c.71.62-1.79,11.62-1.76,13.72.02,1.9,2.18,2.26,1.76,4.26-2.14.49-4.06-1.27-5.85-1.47-2.2-.24-6,1.89-7-1.17-1.66-5.04,2.27-11.27-.14-16.35h5Z"/>
  <path class="cls-1" d="M413,355.01c.75,2.84-1.96,1.16-2.11,3.44s.58,4.39,1.12,6.54c1.41-.21,2.71-4.77,2.8-5.73.24-2.6-2.77-5.8,2.58-4.15,3.53,1.09-.36,4.47-1.27,6.51-1.62,3.64-4.97,14.42-8.12,15.88-4.6,2.13-5.56-1.5-4.99-5.5h3.99c.46.45-2.34,6.33.99,4,2.6-1.82-1.19-18.38-1.98-21.99l6.99,1.01Z"/>
  <path class="cls-1" d="M429.76,357.24c2.55,2.54,2.05,15.81-3.29,16.75-12.27,2.17-7.49-17.26-1.93-18.02,1.35-.18,4.27.33,5.22,1.27Z"/>
  <path class="cls-1" d="M393.75,368.74c-1.25,1.17-4.41,1.59-6.05,1.11-5.94-1.74-3.58-16.54-.05-17.69,11.11-3.62,9.91,12.98,6.09,16.58Z"/>
  <path class="cls-1" d="M296.69,340.18c11.31-3.46,9.29,16.72,2.77,17.83-10.69,1.81-7.47-16.39-2.77-17.83Z"/>
  <path class="cls-1" d="M381.9,351.1c.6.7-.17,4.5.1,5.9-2.94.68-1.69-1.88-2.92-3.54-1.07-1.45-2.38-1.64-4.07-1.45-.26,6.4,8.06,5.44,6.83,12.25-1.3,7.19-7.83,1.63-11.83,2.75-.17-1.27-.3-6.99,1.5-6.99,1.59,0,.96,8.3,6.5,5.98,2.95-2.89-11.63-8.94-5.52-15.01,1.63-1.63,8.7-.73,9.42.12Z"/>
  <path class="cls-1" d="M179.86,224.86c-.93,1.38-12.27,1.33-14.86,2.14.87-1.72-1.33-7.75-1.01-8,.57-.45,13.68-2.15,14.37-1.93,2.07.64,2.24,6.69,1.5,7.79Z"/>
  <path class="cls-1" d="M262,208c-.24,1.47.34,7.68,0,8.01-.54.52-13.02.77-15,.99l-1.01-7.99,16-1.01Z"/>
  <path class="cls-1" d="M322,342l-2-3c.23,1.05-.73,3.74.71,4.02,1.71.33,2.72-.99,2.29,1.97-.83.09-2.81-.56-3.05.61-.6,2.89-1.52,10.18-.97,12.76.13.6,3.93.98,2.01,2.63-.62.53-6.3-1.71-7.99-1-.46-1.81,1.36-2.32,1.75-3.74.43-1.58,1.26-6.25,1.29-7.8.05-2.18-1.25-4.34-1.09-5.81.06-.56,1.41-.62,1.95-1.45,1.02-1.57.56-3.99,3.64-4.25,3.77-.32,6.82,4.72,1.46,5.06Z"/>
  <path class="cls-1" d="M125,222c.28.28.3,7.75-.01,8s-7.62,1.21-7.95.98c-.79-.56-1.53-6.65-.6-8.04.88-1.31,8.26-1.24,8.57-.94Z"/>
  <path class="cls-1" d="M289.99,203.01c.26.31.42,6.58,1,7.99-1.65-.3-8.43.47-8.95-.04-.25-.25-1.12-6.31-.62-7,.97-1.34,8.29-1.28,8.57-.95Z"/>
  <path class="cls-1" d="M452,355.5c.65-2.28,5.05-2.54,5.06,1.97,0,2.59-2.34,7.82-3.06,11.07-.38,1.73,1.03,2.92-2,2.46.75-4.17-1.02-11.9,0-15.5Z"/>
  <path class="cls-1" d="M358.99,361c2.36,1.62-.84,9.46-4.99,7.99,3.09-2.25.37-5.26,1.44-7.01.62-1.01,2.91-1.41,3.55-.98Z"/>
  <path class="cls-1" d="M359,204v5.5c-3.91,2.03-4.42-2.23-3.99-5.49h3.99Z"/>
  <path class="cls-1" d="M227,177c.69.25,1.51,1.6,3,1-.56.23-.84,1.23-2.43,1.07-2.03-.21-1.79-1.2-2.57-2.07.18.21,1.47-.19,2,0Z"/>
  <path class="cls-1" d="M230,170c-.26-.13-2.95-.37-3.01.5,0,1.07,2.15.23,3.01.5.13,1.64-.08,3.36,0,5.01-2.19-1.55-1.55-.32-2.99.99-.11-.87-1.25-6.9-2-6,.78-.86.54-1.86,2.57-2.07,1.59-.16,1.87.84,2.43,1.07Z"/>
  <path class="cls-1" d="M225,177c-2.52-2.8-2.47-3.25,0-6,.25,1.24-.34,5.59,0,6Z"/>
  <path class="cls-1" d="M230,178c1.65-.66,3.48-5.91,0-7-.03-.34.07-.96,0-1,2.66,1.07,3.32.5,3.09,4.51-.2,3.51-.89,2.6-3.09,3.49Z"/>
  <path class="cls-1" d="M367,264.02c.16-.22,3.98-1.26,4.49-2.98,4.92,1.87-.7,6.45-2.95,5.95-.82-.18-2.09-2.2-1.55-2.97Z"/>
  <path class="cls-1" d="M282,130c-.82.81-8.61-.98-5.99-4.99,1.8-.57,8.23,2.78,5.99,4.99Z"/>
  <path class="cls-1" d="M195,285c.65.56,1.15,2.79-.6,3.88-1.62,1.02-4.43,1.94-5.39-.4-.76-1.85,5.72-3.71,5.99-3.49Z"/>
  <path class="cls-1" d="M386.01,185c-.25-.19-2.22-5.76-2.01-6,.09-.1,2.38-.92,2.51-.92,3.02.02,2.83,9.43-.5,6.92Z"/>
  <path class="cls-1" d="M224,119c2.43,2.37-4.31,5.63-5.99,3.99-2.43-2.37,4.31-5.63,5.99-3.99Z"/>
  <path class="cls-1" d="M277,108c-.47.45-6.01-.66-6.99-1.49,1.24-5.74,9.57-.97,6.99,1.49Z"/>
  <path class="cls-1" d="M129,304c.55.54-.1,3.61-1.57,3.9-1.07.21-3.75-1.46-5.42-.91-1.14-3.47,6.41-3.57,6.99-2.99Z"/>
  <path class="cls-1" d="M358,215c.33.4.1,5-.46,6.04-.63,1.17-3.42.09-3.54-.04-.2-.23.86-5.74,1.01-6,.08-.13,2.89-.11,2.99,0Z"/>
  <path class="cls-1" d="M297,263.99c-1.45,2.01-9.33.52-7-1.98,1.2-1.29,9.19-1.05,7,1.98Z"/>
  <path class="cls-1" d="M309.99,118.01l-5.98-3.49c1.45-3.25,8.73-.53,5.98,3.49Z"/>
  <path class="cls-1" d="M322,119.01c-1.98,8.14-10.44-2.51-4.94-1.61,1.36.22,3.22,1.75,4.94,1.61Z"/>
  <path class="cls-1" d="M95.13,157.12c.43-.66,5.3-3.28,5.86-.61.27,1.26-4.18,4.47-4.5,4.47-.89,0-2.12-2.7-1.36-3.86Z"/>
  <path class="cls-1" d="M241,122c-.78-3.93,6.51-3.81,6.99-1.48-.58,4.21-4.26,1.07-6.99,1.48Z"/>
  <path class="cls-1" d="M211.53,120.07c.88.05,2.43,2.37.47,3.42-.85.46-5.63,2.15-5.99,0-.33-2.02,4.68-3.46,5.52-3.41Z"/>
  <path class="cls-1" d="M265,122c.3-.26,6.38,1.06,5.99,3.49-.34,2.13-5.2.48-6.01.02-1.2-.69-.11-3.39.02-3.51Z"/>
  <path class="cls-1" d="M139,321c.13.12,1.21,2.91.04,3.54-1.04.56-5.64.8-6.04.46-.11-.1-.13-2.91,0-2.99.26-.15,5.77-1.21,6-1.01Z"/>
  <path class="cls-1" d="M116.99,164c2.13,3.67-3.74,7.77-5.98,3.49l5.98-3.49Z"/>
  <path class="cls-1" d="M162.99,299c.13.14.11,3.75-.06,3.93-.21.22-5.72,1.28-5.93,1.06-2.38-2.45,5.17-5.86,5.99-4.99Z"/>
  <path class="cls-1" d="M199,299.01c.19-.25,4.96-1.08,5.99-2.02,3.18,6.54-8.48,5.32-5.99,2.02Z"/>
  <path class="cls-1" d="M215.96,293.01c.12.1.46,2.36,1.04,2.97-13.41,5.25-3.55-5.15-1.04-2.97Z"/>
  <path class="cls-1" d="M63.5,290.02c.32.01,4.49,4.16,4.48,4.48,0,.18-2.31,2.48-2.48,2.48-1.5.03-5.23-7.08-2-6.96Z"/>
  <path class="cls-1" d="M239,288.99c-1.45,2.01-9.33.52-7-1.98,1.2-1.29,9.19-1.05,7,1.98Z"/>
  <path class="cls-1" d="M105.51,171c1.23-.28,2.74,1.24,2.48,2.48-7.02,7.87-7.05-1.46-2.48-2.48Z"/>
  <path class="cls-1" d="M272.01,283c.11.1.11,2.9,0,2.99-.27.22-6.74.22-7.01,0-.11-.1-.11-2.9,0-2.99.27-.22,6.74-.22,7.01,0Z"/>
  <path class="cls-1" d="M84.51,280c2.07-.4,6.55,5.24,2.97,5.99-2.07.43-5.97-5.41-2.97-5.99Z"/>
  <path class="cls-1" d="M239.01,270.99c-.25.16-5.74,1.2-5.96,1-.12-.1-.48-2.38-1.05-2.98,1.52.35,4.95-2.03,5.51-1.99,1.25.08,1.97,3.67,1.49,3.97Z"/>
  <path class="cls-1" d="M262.01,265c.11.1.11,2.9,0,2.99-.27.22-6.74.22-7.01,0-.11-.1-.11-2.9,0-2.99.27-.22,6.74-.22,7.01,0Z"/>
  <path class="cls-1" d="M46.99,260c.25.19,2.22,5.76,2.01,6-.09.1-2.37.99-2.5.99-2.52-.03-2.96-9.59.49-6.98Z"/>
  <path class="cls-1" d="M142,151c-2.18-2.3,5.12-7.24,5.99-3.48.54,2.3-5.31,4.2-5.99,3.48Z"/>
  <path class="cls-1" d="M308.01,261.99c-1.36-.52-5.66,1.36-6,1-.13-.14-.1-3.77.06-3.93.99-1.01,7.79-1.44,5.94,2.93Z"/>
  <path class="cls-1" d="M324,255c-2.18-2.3,5.12-7.24,5.99-3.48.54,2.3-5.31,4.2-5.99,3.48Z"/>
  <path class="cls-1" d="M334.13,246.12c.43-.66,5.3-3.28,5.86-.61.27,1.26-4.18,4.47-4.5,4.47-.89,0-2.12-2.7-1.36-3.86Z"/>
  <path class="cls-1" d="M43,238c1.24,9-3.86,8.04-3.99,0h3.99Z"/>
  <path class="cls-1" d="M398,224c-.14,8.03-5.23,8.99-3.99,0h3.99Z"/>
  <path class="cls-1" d="M254.01,102c.11.1.11,2.9,0,2.99-.27.22-6.74.22-7.01,0-.11-.1-.11-2.9,0-2.99.27-.22,6.74-.22,7.01,0Z"/>
  <path class="cls-1" d="M54.12,194.13c1.16-.76,3.86.47,3.86,1.36,0,.32-3.21,4.76-4.47,4.5-2.67-.56-.05-5.43.61-5.86Z"/>
  <path class="cls-1" d="M346.01,135l5.98,3.49c-2.18,4.83-8.66-1.02-5.98-3.49Z"/>
  <path class="cls-1" d="M88.5,186.02c2.73-.08,1.37,7.06-2.98,5.98-3.37-.84,2.61-5.97,2.98-5.98Z"/>
  <path class="cls-1" d="M230.01,103c.12.1.13,2.92,0,2.99-.54.31-4.72.32-6,1v-3.99c1.27.22,5.56-.36,6,0Z"/>
  <path class="cls-1" d="M196,110c2.63,2.62-4.89,5.09-5.99,3.99-2.63-2.62,4.89-5.09,5.99-3.99Z"/>
  <path class="cls-1" d="M137,152c1.95,1.91-4.31,7.35-5.99,3.48-.78-1.8,5.36-4.09,5.99-3.48Z"/>
  <path class="cls-1" d="M185,114c2.63,2.62-4.89,5.09-5.99,3.99-2.63-2.62,4.89-5.09,5.99-3.99Z"/>
  <path class="cls-1" d="M327.51,154c2.51-.51,6.36,6.07,2.99,5.98-.56-.02-7.11-4.39-2.99-5.98Z"/>
  <path class="cls-1" d="M168,123c-1.74-3.37,5.47-6.25,5.99-3.48.42,2.22-4.17,3.85-5.99,3.48Z"/>
  <path class="cls-1" d="M127,158c1.95,1.91-4.31,7.35-5.99,3.48-.78-1.8,5.36-4.09,5.99-3.48Z"/>
  <path class="cls-1" d="M83,196.01c-1.14,2.44-3.27,7.18-6,3.48.93-3.07,3-4.89,6-3.48Z"/>
  <path class="cls-1" d="M298.01,134l5.98,3.5c-2.59,3.22-8.33.33-5.98-3.5Z"/>
  <path class="cls-1" d="M142,135.99c-.23.15-4.9,1.05-5.49,1.02-2.89-1.97,3.18-5.01,3.99-4.99,1.18.03,2.01,3.63,1.5,3.97Z"/>
  <path class="cls-1" d="M372.51,159c1.65-.35,5.89,5.44,2.97,5.99-2.08.39-6.54-5.24-2.97-5.99Z"/>
  <path class="cls-1" d="M116,322v3.99c-1.29-.69-5.47-.69-6.01-1-.13-.07-.12-2.89,0-2.99.44-.36,4.73.22,6.01,0Z"/>
  <path class="cls-1" d="M151,319c2.2,3.43-5.57,4.42-6,3.99-2.25-2.24,3.43-5.36,6-3.99Z"/>
  <path class="cls-1" d="M293,131.01c2.3,3.01-8.42,4.58-5.99-2.01l5.99,2.01Z"/>
  <path class="cls-1" d="M105,320.01c2.47,2.64-5.55,3.54-7,1.99-2.47-2.64,5.55-3.54,7-1.99Z"/>
  <path class="cls-1" d="M336.03,131.96c-.61-.89.49-3.97,1.47-3.94.32,0,4.72,3.17,4.5,4.47-.41,2.38-2.39.63-3.32.3-.71-.25-2.57-.71-2.65-.83Z"/>
  <path class="cls-1" d="M173,311c1.74,3.37-5.47,6.25-5.99,3.48-.42-2.22,4.17-3.85,5.99-3.48Z"/>
  <path class="cls-1" d="M44.99,221c-2.89,2.01-4.04-5.42-.49-6.98,2.56.86.93,6.67.49,6.98Z"/>
  <path class="cls-1" d="M184,307c2.63,2.62-4.89,5.09-5.99,3.99-2.63-2.62,4.89-5.09,5.99-3.99Z"/>
  <path class="cls-1" d="M79.51,307c2.51-.51,6.36,6.07,2.99,5.98-.56-.02-7.11-4.39-2.99-5.98Z"/>
  <path class="cls-1" d="M147.01,133c-2.03-4.27,1.85-4.14,4.98-6,2.03,4.27-1.85,4.14-4.98,6Z"/>
  <path class="cls-1" d="M110.99,151.98c-1.52-.04-4.79,3.06-5.99,2.01-2.26-1.98,5.85-8.52,5.99-2.01Z"/>
  <path class="cls-1" d="M360,148c-.86.87-5.99-2.77-5.98-3.5,0-.18,2.31-2.47,2.48-2.47.77-.01,4.76,4.69,3.5,5.97Z"/>
  <path class="cls-1" d="M139.99,304v3.99c-1.27-.22-5.56.36-6,0-.12-.1-.13-2.92,0-2.99.54-.31,4.72-.32,6-1Z"/>
  <path class="cls-1" d="M355,227c.23.27-1.66,6.78-3.49,5.99-3.27-1.41.57-4.93.52-6.99.78.71,2.87.88,2.97,1Z"/>
  <path class="cls-1" d="M201,123c2.63,2.62-4.89,5.09-5.99,3.99-2.63-2.62,4.89-5.09,5.99-3.99Z"/>
  <path class="cls-1" d="M395,235c.37,1.82-1.27,6.41-3.48,5.99-2.77-.52.12-7.73,3.48-5.99Z"/>
  <path class="cls-1" d="M152.01,303c.12.1.13,2.92,0,2.99-.54.31-4.72.32-6,1v-3.99c1.27.22,5.56-.36,6,0Z"/>
  <path class="cls-1" d="M97.5,178.02c3.37-.09-.47,6.49-2.99,5.98-4.12-1.59,2.43-5.96,2.99-5.98Z"/>
  <path class="cls-1" d="M67,238c.63.75.42,8.11-2.99,7,.27-1.41-.4-6.51,0-7,.1-.12,2.9-.11,2.99,0Z"/>
  <path class="cls-1" d="M195,304.99c-4.01.67-5.65,4.47-6.99-.96,3.17-.58,6.51-4.32,6.99.96Z"/>
  <path class="cls-1" d="M387.51,245c4.46-1.11,1.12,6.58-2,6-2.95-.56,1.49-5.87,2-6Z"/>
  <path class="cls-1" d="M43.96,249.02c.84.68,2.12,7.6-1.95,6.98.18-1.48-1.73-6.28-1.01-7,.1-.1,2.83-.09,2.96.01Z"/>
  <path class="cls-1" d="M116.88,302.12c2.49,3.89-4.22,2.96-5.88,1.87-.51-.34.31-3.94,1.5-3.97.24,0,4.25,1.9,4.38,2.1Z"/>
  <path class="cls-1" d="M378,169c.1-.11,2.74-.99,2.87-.91.79.55,3.51,5.97.63,6.89-1.21-.75-4.31-5.03-3.5-5.98Z"/>
  <path class="cls-1" d="M318.01,146c2.44,1.14,7.18,3.27,3.48,6-3.07-.93-4.89-3-3.48-6Z"/>
  <path class="cls-1" d="M226.96,289.01c.12.1.47,2.38,1.04,2.98-1.41-.32-6.47,3.34-7,.5-.44-2.36,5.62-3.77,5.96-3.48Z"/>
  <path class="cls-1" d="M250.01,284c.12.1.13,2.92,0,2.99-.54.31-4.72.32-6,1v-3.99c1.27.22,5.56-.36,6,0Z"/>
  <path class="cls-1" d="M262.01,283c.12.1.11,2.89,0,2.99-.46.4-6.21.37-7-1.51-.77-2.42,6.72-1.72,7-1.48Z"/>
  <path class="cls-1" d="M72.01,267c-.67-4.01-4.47-5.65.96-6.99.58,3.17,4.32,6.51-.96,6.99Z"/>
  <path class="cls-1" d="M307,282c.17.14-.11,2.19,0,2.99-1.62-.85-5.79,1.22-6,1.01-.12-.13-1.19-2.92-.04-3.54,1.05-.56,5.64-.8,6.04-.46Z"/>
  <path class="cls-1" d="M189.99,126c2.4,2.35-5.08,5.88-5.99,4.99-2.4-2.35,5.08-5.88,5.99-4.99Z"/>
  <path class="cls-1" d="M285.01,263c.12.1.13,2.92,0,2.99-.54.31-4.72.32-6,1v-3.99c1.27.22,5.56-.36,6,0Z"/>
  <path class="cls-1" d="M273.01,264c.12.1.13,2.92,0,2.99-.54.31-4.72.32-6,1v-3.99c1.27.22,5.56-.36,6,0Z"/>
  <path class="cls-1" d="M249.99,265v3.99c-1.27-.22-5.56.36-6,0-.12-.1-.13-2.92,0-2.99.54-.31,4.72-.32,6-1Z"/>
  <path class="cls-1" d="M344.98,171.01c-.04,1.52,3.06,4.79,2.01,5.99-1.98,2.26-8.52-5.85-2.01-5.99Z"/>
  <path class="cls-1" d="M330.01,279c.12.1.13,2.92,0,2.99-.54.31-4.72.32-6,1v-3.99c1.27.22,5.56-.36,6,0Z"/>
  <path class="cls-1" d="M341,276c2.25,2.24-3.43,5.36-6,3.99-2.2-3.43,5.57-4.42,6-3.99Z"/>
  <path class="cls-1" d="M50.51,271c2.32-.5,4.86,5.37,1.97,5.99-2.32.5-4.86-5.37-1.97-5.99Z"/>
  <path class="cls-1" d="M346,274.01c.19-.25,4.96-1.08,5.99-2.02,3.28,6.09-8.51,5.36-5.99,2.02Z"/>
  <path class="cls-1" d="M228,273.99c-.19.25-4.96,1.08-5.99,2.02-3.28-6.09,8.51-5.36,5.99-2.02Z"/>
  <path class="cls-1" d="M76,271c3.64-2.18,6.82,6.09,3.5,5.98-.79-.03-4.35-5.16-3.5-5.98Z"/>
  <path class="cls-1" d="M211,280c-.88-.93-.15-2.33,1.26-3.26s3.58-2.4,4.73-.23l-5.99,3.48Z"/>
  <path class="cls-1" d="M363,268c.88.93.15,2.33-1.26,3.26s-3.58,2.4-4.73.23l5.99-3.48Z"/>
  <path class="cls-1" d="M212,105c1.65.87,5.77-1.22,5.99-1.01.1.09.99,2.37.99,2.51,0,2.07-7.79,2.65-6.98-1.5Z"/>
  <path class="cls-1" d="M287.98,107.04c.11.13.12,2.85.02,2.96-1.06,1.08-8.61-1.31-5.99-3.99.21-.22,5.78.8,5.98,1.03Z"/>
  <path class="cls-1" d="M200,285c-.88-.93-.15-2.33,1.26-3.26s3.58-2.4,4.73-.23l-5.99,3.48Z"/>
  <path class="cls-1" d="M57.02,287c-.89-.64-3.31-6.87.47-5.99,3.21.74,2.48,8.13-.47,5.99Z"/>
  <path class="cls-1" d="M207,107c2.74,2.72-5.32,4.67-5.99,3.99-2.62-2.65,4.89-5.08,5.99-3.99Z"/>
  <path class="cls-1" d="M308,140c.82-.86,5.95,2.71,5.98,3.5.11,3.32-8.16.14-5.98-3.5Z"/>
  <path class="cls-1" d="M298.99,114.01l-5.99-2.02c-.08-3.91,4.77-3.24,6.56-1.02.7.87-1,1.66-.57,3.04Z"/>
  <path class="cls-1" d="M131,138c1.92,1.91-3.47,5.37-4.99,4.99-2.89-3.35,3.92-6.06,4.99-4.99Z"/>
  <path class="cls-1" d="M59.01,189.99c-.87-2.88,6.07-6.9,5.98-3.5-.02.9-3.88,5.9-5.98,3.5Z"/>
  <path class="cls-1" d="M394,194.99c-2.44,2.31-6.7-5.38-3.48-5.99,2.38-.45,3.8,5.69,3.48,5.99Z"/>
  <path class="cls-1" d="M353,187c-.1.12-2.19.29-2.97,1-.7-4.01-4.48-5.65.94-6.99-.26,1.38,2.73,5.19,2.03,5.99Z"/>
  <path class="cls-1" d="M326.12,125.88c-3.16-4.67,6.48-2.73,5.87.61-.6,2.36-5.7-.36-5.87-.61Z"/>
  <path class="cls-1" d="M167.99,135c2.69,3.36-3.57,6.96-5.97,3.5l5.97-3.5Z"/>
  <path class="cls-1" d="M91,290.98c-.67-.88.93-3.33,2.48-2.98.56.13,3.72,3.37,3.51,4.48-.35,1.9-1.26,1.19-2.47.48-.84-.49-3.4-1.83-3.52-1.99Z"/>
  <path class="cls-1" d="M319,255c2.62,2.65-4.89,5.08-5.99,3.99-2.74-2.72,5.32-4.67,5.99-3.99Z"/>
  <path class="cls-1" d="M395.99,200c.94.86,1.98,7.57-1.98,7-1.61-2.18-.51-9.3,1.98-7Z"/>
  <path class="cls-1" d="M179,295c-.88-.93-.15-2.33,1.26-3.26s3.58-2.4,4.73-.23l-5.99,3.48Z"/>
  <path class="cls-1" d="M258.98,121.04c.11.13.12,2.85.02,2.96-1.06,1.08-8.61-1.31-5.99-3.99.21-.22,5.78.8,5.98,1.03Z"/>
  <path class="cls-1" d="M105.99,301c-7.48-2.19-4.99-9.13.12-3.52,1.25,1.37-.31,2-.12,3.52Z"/>
  <path class="cls-1" d="M173.99,295c2.31,2.44-5.38,6.7-5.99,3.48-.45-2.38,5.69-3.8,5.99-3.48Z"/>
  <path class="cls-1" d="M91,162c1.79,1.9-4.2,7.03-5.99,3.48-.81-1.79,5.41-4.1,5.99-3.48Z"/>
  <path class="cls-1" d="M163,123c.88.93.15,2.33-1.26,3.26s-3.58,2.4-4.73.23l5.99-3.48Z"/>
  <path class="cls-1" d="M173,135c-.88-.93-.15-2.33,1.26-3.26s3.58-2.4,4.73-.23l-5.99,3.48Z"/>
  <path class="cls-1" d="M68.96,250.02c.24.19,1.25,5.76,1.03,5.98-2.68,2.61-5.07-4.93-3.99-5.99.11-.1,2.83-.09,2.96.02Z"/>
  <path class="cls-1" d="M115,148c-.88-.93-.15-2.33,1.26-3.26s3.58-2.4,4.73-.23l-5.99,3.48Z"/>
  <path class="cls-1" d="M51,204l-3.48,5.99c-2.17-1.16-.65-3.4.23-4.73.92-1.4,2.32-2.14,3.26-1.26Z"/>
  <path class="cls-1" d="M73.99,211c-5.07.24-2.61-6.4.5-5.99,2.88.38-.88,4.93-.5,5.99Z"/>
  <path class="cls-1" d="M161.99,315c2.31,2.44-5.38,6.7-5.99,3.48-.45-2.38,5.69-3.8,5.99-3.48Z"/>
  <path class="cls-1" d="M158,141c.88.93.15,2.33-1.26,3.26s-3.58,2.4-4.73.23l5.99-3.48Z"/>
  <path class="cls-1" d="M71.01,216.01l-2.02,5.99c-3.91.08-3.24-4.77-1.02-6.56.87-.7,1.66,1,3.04.57Z"/>
  <path class="cls-1" d="M88.12,316.88c-3.16-4.67,6.48-2.73,5.87.61-.6,2.36-5.7-.36-5.87-.61Z"/>
  <path class="cls-1" d="M398,211.99c.19.23.19,5.78,0,6.01-.1.12-2.9.12-2.99,0-.19-.23-.19-5.78,0-6.01.1-.12,2.9-.12,2.99,0Z"/>
  <path class="cls-1" d="M43,225.99c.19.23.19,5.78,0,6.01-.1.12-2.9.12-2.99,0-.19-.23-.19-5.78,0-6.01.1-.12,2.9-.12,2.99,0Z"/>
  <path class="cls-1" d="M67,226.99c.19.23.19,5.78,0,6.01-.1.12-2.9.12-2.99,0-.19-.23-.19-5.78,0-6.01.1-.12,2.9-.12,2.99,0Z"/>
  <path class="cls-1" d="M346.51,236c.98-.22,2.47,1.11,2.47,1.5,0,.32-4.17,4.47-4.48,4.48-3.12.13.08-5.55,2.01-5.98Z"/>
  <path class="cls-1" d="M242.01,102c.12.1.12,2.9,0,2.99-.23.19-5.78.19-6.01,0-.12-.1-.12-2.9,0-2.99.23-.19,5.78-.19,6.01,0Z"/>
  <path class="cls-1" d="M336.5,162.02c.94.03,5.59,5.31,1.99,5.98-2.74.51-4.56-6.07-1.99-5.98Z"/>
  <path class="cls-1" d="M128.01,323c.12.1.12,2.9,0,2.99-.23.19-5.78.19-6.01,0-.12-.1-.12-2.9,0-2.99.23-.19,5.78-.19,6.01,0Z"/>
  <path class="cls-1" d="M81.99,171.98c-.14.2-4.23,2.07-4.47,2.02-.73-.14-2.06-2.24-1.52-2.99.14-.2,4.23-2.07,4.47-2.02.73.14,2.06,2.24,1.52,2.99Z"/>
  <path class="cls-1" d="M236.01,119c.12.1.12,2.9,0,2.99-.23.19-5.78.19-6.01,0-.12-.1-.12-2.9,0-2.99.23-.19,5.78-.19,6.01,0Z"/>
  <path class="cls-1" d="M71.5,176.02c3.34-.13-.4,6.46-2.99,5.98-3.46-.65,2.61-5.96,2.99-5.98Z"/>
  <path class="cls-1" d="M355.99,192c.52.48,2.45,8.68-1.89,5.91-2.14-1.37-.35-7.97,1.89-5.91Z"/>
  <path class="cls-1" d="M295.01,283c.12.1.12,2.9,0,2.99-.23.19-5.78.19-6.01,0-.12-.1-.12-2.9,0-2.99.23-.19,5.78-.19,6.01,0Z"/>
  <path class="cls-1" d="M283.01,283c.12.1.12,2.9,0,2.99-.23.19-5.78.19-6.01,0-.12-.1-.12-2.9,0-2.99.23-.19,5.78-.19,6.01,0Z"/>
  <path class="cls-1" d="M318.01,281c.12.1.12,2.9,0,2.99-.23.19-5.78.19-6.01,0-.12-.1-.12-2.9,0-2.99.23-.19,5.78-.19,6.01,0Z"/>
  <path class="cls-1" d="M265.01,103c.12.1.12,2.9,0,2.99-.23.19-5.78.19-6.01,0-.12-.1-.12-2.9,0-2.99.23-.19,5.78-.19,6.01,0Z"/>
  <path class="cls-1" d="M364.5,150.02c.37.02,6.45,5.33,2.99,5.98-2.58.48-6.33-6.11-2.99-5.98Z"/>
  <path class="cls-1" d="M377,260c-1.26-1.29,2.73-5.96,3.5-5.98,4.03-.1-1.87,7.65-3.5,5.98Z"/>
  <path class="cls-1" d="M451.51,373c2.6-.59,4.54,4.19.97,4.99-2.71.61-3.42-4.43-.97-4.99Z"/>
  <path class="cls-1" d="M71.5,299.02c1.47.06,5.35,6.1,2,5.96-1.47-.06-5.35-6.1-2-5.96Z"/>
  <path d="M427,358c.51.57-.29,13.4-1.02,13.99-.12.09-2.88.12-2.97,0-.85-1.01,1.11-17.23,3.99-14Z"/>
  <path d="M390.51,354c1.35-.28,2.42,1.07,2.44,2.39.03,1.76-1.64,11.53-3.46,11.59-3.05-1.49-.39-13.69,1.01-13.98Z"/>
  <path d="M298.99,356c-4.58,3.46-2.03-13.2-.98-13.99,4.52-3.42,1.85,13.33.98,13.99Z"/>
  <path d="M229,172.01c.68.35-.59,1.7-1.99.98-.68-.35.59-1.7,1.99-.98Z"/>
</svg>