<?xml version="1.0" encoding="UTF-8"?>
<svg id="Laag_1" data-name="Laag 1" xmlns="http://www.w3.org/2000/svg" viewBox="0 0 828.81 61.65">
  <defs>
    <style>
      .cls-1 {
        fill: none;
        stroke: #000;
        stroke-linecap: round;
        stroke-linejoin: round;
        stroke-width: 2px;
      }
    </style>
  </defs>
  <path d="M34.13.57l-.94,4.56c-1.75,1.16-5.64-.6-7.06,1.94v19.5h19V7.07c-1.7-1.36-11.01-2.61-6.02-6.02,2.89-1.98,25.29.49,30.52-.48,7.9,5.05-2.77,4.23-4.54,5.46-1.09.76-.87,1.9-1,2.99-1.73,13.69,1.38,30.95.05,45.05.48,3.83,4.74,2.19,7.5,2.49,1.66,2.83-.21,3.74-2.94,4.06-4.94.57-23.54.76-28.05-.05-2.48-.44-2.77-1.6-2.5-4l7-1v-21.5l-1.5-1.5h-16l-1.5,1.5v21.5l8,1.01v3.99H1.63c-1.07,0-1.91-2.88-1.5-3.99,10.94.48,8.04-1.31,7.95-8.47-.16-12.36,1.39-27.16.71-38.9-.34-5.93-2.47-3.47-5.07-3.74C-2.22,4.84.44.57,1.63.57h32.5Z"/>
  <path d="M121.63,60.57c-.65-.19-1.67-1.59-1.49-2.48.64-3.27,8.19,1.9,9.05-6.96.92-9.42,1.04-32.79-.16-41.98-.81-6.18-4.56-1.95-8.43-5.55-1.32-.91.55-3.03,1.03-3.03h43c.56,0,8.24,4.69,9.41,5.59,14.62,11.22,16.52,33.15,3.48,46.3-3.03,3.06-11.74,8.11-15.89,8.11h-40ZM147.13,55.57c22.35,2.59,22.97-30.49,12-43.5-1.53-1.82-12-9.71-12-5v48.5Z"/>
  <path d="M246.13,18.57c-6.58.81-3.27-8.46-4-13h-21.5l-1.5,1.5v19.5c4.75,1.13,9.25,1.27,14.05.51l2.45-11.49c1.23,1.04,2.15,1.81,2.47,3.51.55,2.86.56,19.06.03,21.97s-3.85,3.22-4.01,1.99l-.93-10.06c-2.28-.65-14.06-1.22-14.06,1.06v21l1.5,1.5h23c4.7,0,.6-17.28,4.01-17.99,4.96-1.03,4.25,18.48,2.58,20.59-.45.57-1.1,1-1.8,1.2-6.5-.36-53.31,1.53-54.86-.74-.68-1.01-.45-1.96-.44-3.05,2.33-.1,7.74.64,8.07-2.47,1.53-14.32-1.27-31.4-.07-46.04-.09-4.11-6.03-1.35-7.54-3.46-1.11-1.55.09-4.04,1.04-4.04h50l1.5,1.5v16.5Z"/>
  <path d="M659.13,5.57v21h19V7.07c-3.46-2.9-8.1.15-7-6.5h32.5c.31,0,1.87,1.64,1.5,2.49-2.98,3.69-7.36.54-8.05,5.96-1.73,13.68,1.39,30.96.05,45.05.24,3.95,4.9,1.64,7.03,2.96,1.92,1.02.27,3.53-.53,3.53h-32.5l.07-3.93,6.93-1.07v-21.5l-1.5-1.5h-17.5v23l8,1c.28,2.4-.03,3.55-2.5,4-4.22.76-23.53.65-28.05.05-2.19-.29-3.12-.77-4.43-2.55,3.74-3.25,8.16.71,9.03-5.95,1.73-13.32-1.38-30.31-.04-44.05-.96-5.02-9.6.53-8-7.5h32.5l1.49,1.51-.97,3.02-7.03.48ZM646.13,55.57c1.71,1.51,9,.69,9-1.5V7.07c0-2.14-9-2.14-9,0v48.5ZM683.13,7.07v48.5c5.74,1.14,8.38,2.43,9.06-4.44.85-8.62,1.09-34.8-.33-42.84-.87-4.93-8.24-2.82-8.73-1.22Z"/>
  <path d="M767.13,18.57c-8.62-.16-2.55-7.98-5-13h-21c.32.98-1,2.17-1,2.5v17c0,3.6,11.34,2.62,13.89,1.4.26-1.97-.38-10.29,1.61-10.91l2.59.6c1.37,1.87,1.23,19.45.91,22.93-.26,2.8-.82,6.19-4.09,3.9l-1.85-9.98c-2.2-.69-13.06-1.16-13.06,1.06v20c0,.18,2.32,2.5,2.5,2.5h21c.33,0,1.52-1.32,2.5-1v-14.5c0-1.56,3.46-2.63,5-1.5v18.5c0,.18-2.32,2.5-2.5,2.5h-51c-2.79,0-3.5.05-3.5-4,2.77.11,7.35.12,8-3.5-.65-6,1.32-45.91-1.14-47.37-1.42-.85-5.46,1.01-6.85-1.65-.51-1.05.69-3.49,1.49-3.49h50l1.5,1.5v16.5ZM726.13,7.07v48c0,2.14,9,2.14,9,0V7.07c0-1.87-8.23-2.49-9,0Z"/>
  <path d="M392.13,23.57l-4.54-.96c-1.04-6.65-1.39-11.58-7.55-15.45-9.45-5.94-19.42,2.96-14.98,9.74,2.04,3.11,20.4,7.14,26.11,13.13,8.81,9.25,3.73,24.81-7.84,29.25-7.32,2.8-16.23,3.35-23.41,0-6.23-2.9-8.92-13.37-9.81.28-1.31.39-4.99-.21-4.99-1.49v-20c0-1.26,3.8-2.21,5.08-1.08,1.51,10.41,10.86,21.78,22.4,19.55,5.05-.98,7.27-9.34,4.45-13.4-1.83-2.63-15.04-5.53-19.16-7.84-11.49-6.44-15.27-20.76-4.81-30.29,7.55-6.89,24.18-6.04,32.46-.5l3.2-3.85c1.1-.68,3.4.69,3.4,1.4v21.5ZM361.13,6.57c-10.47,2.35-12.54,15-4.51,22.01,7.06,6.16,26.65,5.51,26.61,18.48,0,1.67-1.18,4.27-1.04,4.95.89,4.47,6.18-1.68,7.13-4.77,6.66-21.81-19.47-16.81-27.69-27.66-4.44-5.86-1.6-6.84-.49-13.01Z"/>
  <path d="M826.13,22.07c-.22.76-1.53,1.52-2.51,1.52-3.75,0-3.06-7.52-3.94-10.07-3.32-9.61-19.45-11.81-21.4-1.22-1.48,8.06,15.32,10.1,21.17,13.44,9.15,5.23,9.7,10.07,8.73,20.37-.34,3.56-1.55,6.32-4.14,8.86-4.56,4.45-16.07,7.3-22.33,6.5-5.46-.69-12.25-4.1-15.09-8.91-4.06-.35-1.05,8.83-4.98,7.99-.86-.79-1.95-1.51-2.31-2.7-.59-1.98-.64-16.44-.21-18.79.52-2.83,4.06-3.52,5.11-1.92,2.35,10.7,9.41,20.54,21.41,19.42,6.6-.61,8.65-10.18,5.22-13.75-3.8-3.95-18.14-4.93-24.78-11.72-8.63-8.82-5.74-24.47,5.69-29.38,3.5-1.5,16.9-1.88,20.82-1.14,2.63.5,4,3.82,6.93,3.92l3.2-3.84c1.1-.68,3.4.69,3.4,1.4v20ZM795.13,6.57c-8.76.89-11.12,11.3-7.77,18.26,5.45,11.3,35.66,7.74,28.82,27.18l2.43,1.54c8.04-6.16,9.18-17.07-.12-22.84-6.86-4.25-26.59-6.22-25.44-17.67.26-2.56,2.4-3.88,2.08-6.48Z"/>
  <path d="M79.13,60.57l-.56-3.03c1.78-2.2,6.93.37,7.61-5.41,1.04-8.83.99-34.21-.16-42.98-.88-6.71-5.39-.89-7.43-6.57l1.04-2.01h32c1.94,0,1.83,4.15-1.2,4.84-1.42.32-3.21-1.2-4.33-.42-1.27,1.1-.91,2.6-1.02,4.03-1.12,14.48.93,30.4.05,45.05.24,3.95,4.9,1.64,7.03,2.96,1.92,1.02.27,3.53-.53,3.53h-32.5Z"/>
  <path d="M562.63.57c4.29,1.2,2.4,16.04,1.45,19.95-9.01,2.25-2.56-12.2-5.88-14.51l-12.4-.48c-1.06.25-1.44,2.64-1.56,3.62-1.68,13.62,1,29.96-.08,43.89.97,5.16,5.64,2.55,8,4,1.92,1.02.27,3.53-.53,3.53h-33.5v-3.98c2.81.06,7.34.11,8-3.52l-.2-44.8c-1.25-4.22-10.17-2.75-13.86-2.26l-1.83,13.98-4.1.59V2.07l1.5-1.5h55ZM539.13,55.57V7.07c0-1.11-7.79-4.08-8.73,1.22-.78,4.39-1.1,44.39.19,46.31s6.39,1.98,8.54.96Z"/>
  <path d="M623.13.57v19.5c0,.36,1.52,6.67-1.48,5.49-2.84-1.11-2.51-6.02-3.45-8.55-2.9-7.79-12.9-15.58-21.02-9.9-12.37,8.65-11.78,52.41,12.22,46.22,6.78-1.75,7.71-11.03,13.74-12.75.23,13.25-14.99,22.44-27.42,20.91-28.92-3.56-35.09-43.76-10.9-57.73,6.07-3.51,16.94-4.47,23.8-3.16,2.74.52,7.42,6.33,9.01,5.97,2.5-2.4.57-6.91,5.52-6ZM590.13,7.58c-7.8.63-14.65,11.75-15.76,18.73-2.07,13.02,5.77,28.14,19.76,29.25-12.03-11.86-12.03-33.95-4-47.98Z"/>
  <path d="M459.13,20.57c-7.6,1.32-1.75-12.35-4.94-14.56l-13.4-.48c-1.39.32-1.62,4.22-1.71,5.5-.97,13.57.78,28.31.07,42.01.97,5.16,5.64,2.55,8,4,1.92,1.02.27,3.53-.53,3.53h-32c-1.07,0-1.91-2.88-1.5-4l8.04-1.67-.18-47.69c-.45-1.88-12.29-2.56-12.86-2.21-4.08,2.45-.07,11.62-2.5,14.55-1.61,1.95-4.5.62-4.5-.48V1.57c.98.32,2.17-1,2.5-1h54l1.5,1.5v18.5ZM435.13,5.57l-7.32-.04c-.66.2-1.68,2.26-1.68,2.54v47.5c3.27,1.2,5.73,1.2,9,0V5.57Z"/>
  <path d="M498.63.57c.75.21,2.25,2.11,1.03,3.03l-7.57,2.54.03,47.93c-.49,3.85,8.09,1.61,7.98,4,0,.18-2.3,2.5-2.48,2.5h-31c-.64,0-2.51-2.06-.49-3.49,1.49-1.05,6.71-.87,7.05-2.13l-.06-46.89c-.16-3.27-3.23-2-5.25-2.75-3.35-1.23-3.11-4.75-1.25-4.75h32ZM486.13,5.57h-8v50c1.51.14,8,2.13,8-.5V5.57Z"/>
  <path d="M288.86.79c17.49-3.58,37.31,5.02,39.26,24.29,4.16,41.1-47.18,48.31-58.49,17.49-5.68-15.49,1.94-38.23,19.22-41.77ZM293.87,4.81c-9.22,1.45-20.19,10.97-21.68,20.32-4.63,29.11,33.31,44.27,48.38,18.38,11.09-19.05-5.33-42.06-26.7-38.7Z"/>
  <path d="M294.77,24.94c1.19,1.19.97,3.23,3.69,2.52,2.98-.78,5.96-9.11,9.12-10.94,5.18-2.99,8.11.33,5.02,5-2.16,3.27-11.49,6.96-11.5,10.56,0,2.26,15.76,13.95,8.52,15.5-3.13.67-8.46-11.04-11.17-11.86-4.42-1.34-6.19,6.86-11.31,6.86-1.3-4.02,8.38-8.76,7.91-11.35-2.65-2.4-3.89-7.74-8.18-6.48-1.35.4-1.91,2.33-3.74,1.83-.32-5.82,3.97-10.55,9.29-11.89l2.49,2.38-2.74,5.9c.28.96,1.88,1.27,2.58,1.97Z"/>
  <path d="M278.24,34.47c-3.31-4.66,7.04-7.61,4.84-.47-.65,2.11-4.26,1.28-4.84.47Z"/>
  <path d="M313.14,34.56c-1.18-5.52,4.74-7.45,4.98-1.51l-4.98,1.51Z"/>
  <path class="cls-1" d="M620.13,11.07c-1.67-.83-3.69-1.31-4.94-2.56-4.78-4.8-10.23-6.06-16.56-3.94"/>
  <path class="cls-1" d="M590.13,5.82c-7.48,2.4-12.12,7.93-14.91,14.79-5.28,12.96-1.38,29.1,11.97,36.36,3.56,1.94,7.73,3.4,11.95,1.1"/>
  <path class="cls-1" d="M822.63,9.57c-2.5-1.5-4.88-3.28-7.53-4.43-4-1.73-8.23-2.19-12.47-.57"/>
  <path class="cls-1" d="M795.13,4.82c-6.03,2.17-9.88,6.09-10.51,12.75-.73,7.77,2.79,13.15,9.54,16.45,3.69,1.8,7.58,3.25,11.49,4.52,12.19,3.97,10.69,8.04,8.99,16.04"/>
  <path class="cls-1" d="M815.13,55.07c.73,4.56,4.2,2.14,5.4,1.35,5.74-3.81,7.91-9.49,7.12-16.35-.72-6.23-4.84-9.67-10.04-11.93-4.53-1.97-9.53-2.95-13.92-5.16-7.17-3.61-9.29-6.64-5.09-13.42.61-.99.71-2.31,1.04-3.48"/>
  <path class="cls-1" d="M388.63,9.57c-1.67-.83-3.5-1.44-4.97-2.54-4.63-3.46-9.57-4.39-15.03-2.46"/>
  <path class="cls-1" d="M361.13,5.07c-6.87,2.15-10.57,7.24-10.83,14.01-.26,6.86,3.77,11.94,9.87,14.92,3.82,1.87,7.98,3.05,11.96,4.57,9.73,3.73,10.78,5.72,8.5,16"/>
  <path class="cls-1" d="M381.13,55.07c1.28,4.68,4.23,1.94,5.94.9,6.35-3.87,7.38-10.27,6.46-16.88-.81-5.83-5.16-9.02-10.4-11.01-4.49-1.7-9.07-3.16-13.48-5.05-6.54-2.8-7.83-6.12-5.53-12.96.44-1.3.68-2.66,1.01-4"/>
  <path class="cls-1" d="M757.63,43.07c-.33-3.67.49-8.09-1.29-10.81-2.25-3.42-7.05-.84-10.72-1.09-6.04-.41-6.96-1.01-6.99-7.1-.03-5.33.11-10.67-.1-16-.05-1.19-1.11-3.22-1.93-3.35-3.11-.48-6.34-.61-9.47-.31-2.2.21-2.19,1.91-2.15,4.15.27,15.33.15,30.66.12,46,0,1.17-.31,2.33-.48,3.5"/>
  <path class="cls-1" d="M438.63,5.57v52.5"/>
  <path class="cls-1" d="M466.63,3.57c.67,0,1.35-.09,2,.01q8,1.32,8,9.99v44.5"/>
  <path class="cls-1" d="M404.63,20.07c0-3.67-.13-7.34.04-11,.19-4.16,1.96-5.68,5.96-5.5,3.17.15,6.33.39,9.5.48,3.33.09,4.7,1.13,4.63,5.02-.31,16.33-.13,32.66-.13,49"/>
  <path class="cls-1" d="M594.13,6.57c-1.67,4.5-4.04,8.88-4.86,13.53-1.88,10.68-2.79,21.47,4.38,30.96,1.21,1.6,2.65,3.01,3.98,4.51"/>
  <path class="cls-1" d="M610.13,57.32c6.77-3.01,10.87-8.29,13-15.25"/>
  <path class="cls-1" d="M705.63,3.57c-.17,0-.33-.01-.5,0q-9.5.72-9.5,10c0,13-.23,26.01.1,39,.15,6.19-1.72,7-7.6,7-4.67,0-9.33,0-14,0"/>
  <path class="cls-1" d="M644.63,6.07v46c0,6.48-2.16,8.4-8.5,7.49-.84-.12-1.67-.33-2.5-.49"/>
  <path class="cls-1" d="M529.13,5.07c3.5-.33,7.02-1.02,10.49-.87,2.06.09,3.29,1.22,3.2,4.37-.43,15.15-.09,30.33-.26,45.49-.04,3.83,1.74,5.24,5.07,5.48,1.99.14,4,.03,6,.03"/>
  <path class="cls-1" d="M509.13,19.57c.17-3.67.45-7.33.46-11,.01-3.15,1.38-4.55,4.54-4.52,18.21.18,14.8-1.78,14.97,14.02.14,13.17.03,26.33.03,39.5"/>
  <path class="cls-1" d="M249.13,40.07c.17,4.67.26,9.34.52,14,.21,3.65-1.58,5.43-5.02,5.47-7.67.1-15.34.24-22.99-.11-2.04-.09-4.01-1.86-6.01-2.86"/>
  <path class="cls-1" d="M769.63,40.07c0,4.67-.24,9.35.07,13.99.27,3.94-1.35,5.52-5.07,5.51-7-.02-14,.1-21-.05-3.33-.07-5.23-1.62-5.07-5.46.25-5.82-.05-11.67.14-17.49.06-1.85.93-3.67,1.43-5.5"/>
  <path class="cls-1" d="M148.13,4.32c1.5.08,3,.17,4.5.25"/>
  <path class="cls-1" d="M157.13,58.82c-4.73.64-9.51,1.57-13.5-2.25"/>
  <path class="cls-1" d="M766.63,18.07c-.17-2.67-.39-5.33-.49-8-.2-5.54-.62-5.99-6.01-6-5.17,0-10.34-.09-15.5.04-1.84.05-3.67.62-5.5.95"/>
  <path class="cls-1" d="M458.63,20.07c-.17-3.67-.45-7.33-.47-11-.01-3.48-1.12-5.21-5.04-5.08-7.66.26-15.33.02-23,.12-1.67.02-3.33.62-5,.95"/>
  <path class="cls-1" d="M560.13,4.32c-5.67.25-11.33.5-17,.75"/>
  <path class="cls-1" d="M814.63,56.57c-7.13,5.39-16.35,4.53-23.03-1.97-1.95-1.89-4.3-3.37-6.47-5.03"/>
  <path class="cls-1" d="M245.63,18.07c-.17-3.33-.49-6.67-.45-10,.03-2.93-.86-4.22-4.05-4.06-7.16.35-14.33.39-21.5.56"/>
  <path class="cls-1" d="M380.63,56.57c-7.72,5.39-16.12,4.6-23.03-1.97-1.97-1.87-4.3-3.36-6.47-5.03"/>
  <path class="cls-1" d="M657.63,5.57c.17,4.17.45,8.33.48,12.5.07,11.17.05,22.33,0,33.5,0,2.17-.31,4.33-.48,6.5"/>
  <path class="cls-1" d="M681.38,33.57c.08,8.17.17,16.33.25,24.5"/>
  <path class="cls-1" d="M681.63,6.07c0,6.33.12,12.67-.07,19-.06,2.01-.93,4-1.43,6"/>
  <path class="cls-1" d="M235.13,31.07c-4.5-.17-9-.33-13.5-.5"/>
  <path class="cls-1" d="M305.63,25.07c-4.83,5-9.69,9.98-14.48,15.02-.82.86-1.35,1.98-2.02,2.98"/>
  <path class="cls-1" d="M87.13,4.32c-2.5-.42-5-.83-7.5-1.25"/>
  <path class="cls-1" d="M236.63,17.07c-.17,4.33-.46,8.67-.46,13s.3,8.67.46,13"/>
  <path class="cls-1" d="M500.63,3.57c-6.81,1.32-13.67.32-20.5.54-1.18.04-2.33.62-3.5.96"/>
  <path class="cls-1" d="M738.63,58.07c-1.17.5-2.33,1.43-3.5,1.43-6.17-.01-12.33-.26-18.5-.43"/>
  <path class="cls-1" d="M300.13,34.57c2.83,3.17,5.76,6.26,8.44,9.54.85,1.05,1.06,2.62,1.56,3.96"/>
  <path class="cls-1" d="M521.13,59.57c5.33-.9,10.63-.94,16.02-.12,1.88.28,3.98-.88,5.98-1.38"/>
  <path class="cls-1" d="M415.63,59.07c6.83,0,13.67-.06,20.5.02,4.17.05,8.33.31,12.5.48"/>
  <path class="cls-1" d="M757.63,18.07c-.5,4.33-1,8.67-1.5,13"/>
  <path class="cls-1" d="M695.13,5.07c-2.83-.33-5.81-1.37-8.47-.84-4.32.87-8.37,0-12.53-.41"/>
  <path class="cls-1" d="M500.63,59.07c-3.17-.17-6.34-.5-9.5-.44-2.34.05-4.66.84-7,.9-5.83.14-11.67.05-17.5.05"/>
  <path class="cls-1" d="M666.63,4.07c-7.28,1.23-14.72-1.38-22.08,1.28-2.32.84-5.59-.94-8.42-1.53"/>
  <path class="cls-1" d="M644.63,58.07c3.5.33,6.99.81,10.5.96,3.83.17,7.67.04,11.5.04"/>
  <path class="cls-1" d="M101.63,56.57c3.31,3.75,7.76,2.94,12,3"/>
  <path class="cls-1" d="M60.63,56.57c3.15,3.12,6.88,3.68,11,2.5"/>
  <path class="cls-1" d="M206.63,56.57c-3.2,2.9-6.88,3.65-11,2.5"/>
  <path class="cls-1" d="M621.38,15.57c.58,3.5,1.17,7,1.75,10.5"/>
  <path class="cls-1" d="M22.63,56.57c2.89,3.13,6.71,3,10.5,3"/>
  <path class="cls-1" d="M695.63,58.07c3.33.5,6.67,1,10,1.5"/>
  <path class="cls-1" d="M50.63,56.57c-2.9,2.55-6.14,3.78-10,2.5"/>
  <path class="cls-1" d="M348.88,54.57c-.08,1.17-.17,2.33-.25,3.5"/>
  <path class="cls-1" d="M291.13,24.07l7.5,7.5"/>
  <path class="cls-1" d="M725.13,5.07c-2.83-.33-5.67-.67-8.5-1"/>
  <path class="cls-1" d="M294.13,3.57c-18.85,3.65-29.35,23.99-20,41.5,8.7,16.29,30.34,20.03,43.53,8.04,14.91-13.56,12.11-36.78-5-46.6-5.77-3.31-11.88-2.89-18.03-2.94"/>
</svg>