<?xml version="1.0" encoding="UTF-8"?>
<svg id="Laag_1" xmlns="http://www.w3.org/2000/svg" version="1.1" viewBox="0 0 3840 2160">
  <!-- Generator: Adobe Illustrator 29.5.1, SVG Export Plug-In . SVG Version: 2.1.0 Build 141)  -->
  <path d="M1517.46,318.46c39.62-6.71,53.62,17.39,70.91,46.18,27.67,46.06,52.06,96.01,80.79,141.21,83.1,130.78,266.95,135.01,351.69,4,33.39-51.63,59.74-111.6,93.55-162.45,43.83-65.91,130.58-10.77,94.46,54.46-45.69,67.72-106.45,131.43-150.51,199.49-48.79,75.36-45.4,163.16,4.85,236.46,46.73,68.16,103.5,131.43,149.82,200.18,26.61,60.53-56.84,112.35-98.64,48.64-34.29-52.27-60.9-114.14-95.54-166.46-58.76-88.76-175.41-118.21-270.2-68.52-89.2,46.77-118.2,161.25-172.96,239.04-40.7,57.83-124.85,7.29-94.79-54.79,45.79-66.56,99.94-127.77,145.9-194.1,54.28-78.34,57.22-168.6,2-247.61-44.72-63.98-101.06-125.57-143.61-190.39-13.22-20.15-15.05-40.42-1.6-61.2,6.83-10.55,21.29-22.02,33.86-24.15Z"/>
  <path d="M124,1672h204v-183c0-3.33,6.33-14.82,11.41-14.59,21.5.91,46.58-2.65,67.64-.47,8.52.88,10.96,4.36,14.01,11.99l.47,456.6c-1.52,7.72-5.62,12.75-13.41,14.59-9.71,2.29-54.31,2.24-64.66.41-6.39-1.13-15.46-7.94-15.46-14.54v-185H124v187c0,5.68-11.57,12.1-17.15,12.85-11.16,1.49-52.86,1.66-62.97-.72-7.79-1.84-11.89-6.87-13.41-14.59l.47-456.6c3.05-7.63,5.49-11.1,14.01-11.99,13.91-1.44,52.64-1.81,65.96.15,5.75.84,13.09,7.36,13.09,12.91v185Z"/>
  <path d="M1112,1483c.39-1.38,8.41-8.96,11.01-8.99,21.13,1.62,45.34-2.23,66.04-.07,8.02.83,13.34,5.12,14.85,13.15l-.79,459.02c-2.82,5.41-5.49,9.28-12.01,9.99-20.27,2.21-44.97-1.54-65.74-.47-14.3-7.45-8.26-22.27-9.38-35.63-19.58,15.26-37.66,29.64-61.96,37.02-95.19,28.93-184.94-31.05-211.03-123.02-43.83-154.45,100.52-305.99,249.67-217.67l19.34,13.66v-147ZM1007.5,1676.5c-87.17,12.04-107.4,144.21-34.12,189.12,70.66,43.3,144.38-20.79,138.63-96.63-4.01-52.88-49.22-100.12-104.51-92.49Z"/>
  <path d="M2825.99,1633.99c.52-11.75-4.07-32.19,11.41-35.59,8.61-1.89,52.02-1.7,61.5-.32,8.14,1.18,12.68,5.58,14.67,13.34v333.14c-2.19,8.8-7.48,12.51-16.51,13.5-12.98,1.42-38.81,1.03-52.15.02-25.21-1.92-18.03-18.66-18.93-38.09-24.18,22.88-53.81,38.99-87.18,43.81-138.83,20.03-224.83-130.65-182.85-252.85,39.11-113.83,168.12-160.24,264.03-79.95,2.01,1.68,2.59,3.82,6,2.98ZM2717.54,1676.54c-75.5,9.07-102.78,112.76-57.52,168.43,52.69,64.81,145.25,32.48,159.75-46.2,11.59-62.91-33.81-130.46-102.23-122.23Z"/>
  <path d="M3422,1726l108.63-119.37c5.87-3.55,11.17-7.95,18.31-8.69,20.41-2.12,61.34-1.67,82.15-.03,12.62.99,21.69,9.76,13.81,22l-112.6,119.08,129.73,202.14c.41,5.66-5.57,13.92-11.04,14.86-26.37-1.85-56.08,2.57-82.01.04-9.94-.97-14.99-5.64-20.65-13.35-28.23-38.48-49.25-91.48-76.64-131.36-1.36-1.98-2.81-3.77-4.69-5.29l-44.63,47.34c-2.9,28.06,2.6,60.14-.31,87.69-.78,7.35-5.03,14.18-12.95,15.05-21.14,2.31-46.44-1.9-68.09-.12l-9.5-8.5-1.12-462.08c2.36-6.12,5.68-10.75,12.49-11.51,13.4-1.48,53.08-1.7,66.01.2,4.49.66,13.09,6.85,13.09,10.91v241Z"/>
  <path d="M2108,1560v114h197c4.06,0,10.25,8.6,10.91,13.09,1.74,11.87,1.44,45.6.15,57.97-.69,6.64-6.23,14.94-13.06,14.94h-195v187c0,3.8-7.12,8.32-11.1,8.9-13.38,1.95-52.01,1.61-65.96.16-8.68-.9-12.88-5.06-14.48-13.52l-.55-449.62c.99-12.94,5.28-19.99,19.13-19.79l315.82.87c4.3,1.25,10.34,6.48,11.12,11.01-1.46,19.22,2.02,41.21.07,60.04-.38,3.65-1.14,7.42-4.09,9.91-1.04.88-10.36,5.04-10.96,5.04h-239Z"/>
  <path d="M653.98,1838l89.99-233.02c3.54-4.71,9.33-6.45,15-7,13.25-1.29,47.26-1.71,59.92.12,8.32,1.21,10.92,7.76,13.09,15.01l-161.62,424.26c-21.17,46.82-53.53,81.57-107.57,86.43-7.63.69-35.57,1.6-41.43-.16-3.01-.9-8.79-7.42-9.35-10.65,1.59-19.09-2.18-41.46-.12-60.09,1.63-14.76,15.51-11.36,24.91-13.09,48.49-8.93,54.23-36.84,69.05-78.85l-131.98-346c-.36-9.73,5.55-16.02,15.06-17.01,12.61-1.31,47.93-1.66,59.97.15,14.63,2.2,17.72,17.58,22.61,29.39,28.05,67.64,50.06,138.11,78.38,205.62.86,2.04,1.34,4.67,4.08,4.9Z"/>
  <path d="M1651.55,1588.47c147.3-1.34,231.08,171.11,154.05,292.14-77.43,121.66-258.38,109.58-316.56-22.64-52.93-120.28,26.39-268.26,162.51-269.49ZM1639.5,1674.5c-104.58,14.28-100.41,219.87,27.32,205.32,56.13-6.39,80.67-73.23,72.99-122.63-7.89-50.7-46.49-90.04-100.31-82.69Z"/>
  <path d="M3091.56,1590.56c55.08-5.09,117.25,6.46,154.41,50.47,7.66,9.08,25.3,30.62,9.48,39.42l-62.69,17.47c-17.58.33-25.6-15.2-40.78-20.89-21.89-8.21-62.35-7.73-81.87,6.08-2.28,1.61-9.05,7.99-9.73,10.26-7.19,23.87,25.18,29.96,41.59,33.68,61.81,14,165.65,16.58,179.85,96.15,27.44,153.78-224.2,189.3-302.61,76.61-8.19-11.77-22.21-30.92-3.96-39.56,7.56-3.58,51.86-15.58,60-16.16,15.37-1.1,20.91,11.08,30.92,18.76,26.4,20.27,64.98,23.36,96.29,14.61,33.15-9.26,40.12-41.15,5.54-54.44-33.3-12.79-78.35-12.84-114.43-23.57-146.93-43.71-95.64-196.54,38-208.88Z"/>
  <path d="M2417.37,1474.37c21.41,1.47,48.9-3.31,69.54-.28,6.74.99,12.02,6.3,13,13l-1.43,460.39c-3.29,6.19-8.68,9.44-15.63,10.37-12.17,1.62-45.5,1.6-57.7.01-7.34-.95-16.32-4.5-17.04-12.96l.91-462.89,8.36-7.64Z"/>
  <path d="M1459.42,1675.42c-8.1,7.32-24.17,3.71-34.43,4.58-51.41,4.36-70.12,44.53-73.01,90.99-3.43,55.22,4.35,115.39.11,170.11-.96,12.4-7.03,15.71-19.06,16.94-13.25,1.36-40.74,1.29-54.06,0-7.73-.75-13.76-3.55-17.45-10.55l-1.09-336.05c2.19-8.8,7.47-12.51,16.51-13.5s53.91-1.31,61.17.96c14.22,4.44,8.11,22.43,10.88,33.1,19.57-22.04,48.42-39.03,78.21-41.79,14.38-1.33,34.94-3.74,36.85,14.74,1.4,13.46,1.62,46.94.05,60.16-.37,3.15-2.46,8.31-4.68,10.32Z"/>
  <path d="M1835.42,32.42c26.48-5.65,51.09,11.35,51.92,38.93.09,3.06-1.43,6.19-1.43,9.55.08,57.22-6.5,116.92-9.93,174.08-1.09,18.17.19,40.06-2.13,57.87-4.24,32.7-51.12,35.08-55.67-4.04-4.05-34.82-.7-73.06-6.21-107.79l-3.96-96.04c-2.19-12.04-3.37-27.85-2.08-40.04,1.41-13.32,16.34-29.72,29.48-32.52Z"/>
  <path d="M1697.45,82.47c20.28-3.48,39.09,8.24,45.58,27.5l44.59,220.52c-6.19,26.32-37.53,32.6-52.04,8.93l-68.66-209.32c-5.2-20.31,9.99-44.1,30.54-47.63Z"/>
  <path d="M1977.46,82.46c31.81-5.39,53.44,16.94,48.4,48.4-25.89,64.94-40.84,140.72-67.45,204.55-13.51,32.39-59.55,19.16-52.2-16.21l43.19-208.8c3.63-12.32,15.02-25.73,28.06-27.94Z"/>
  <path d="M1973.37,442.63c16.12,16.03,2.12,38.42-9.4,52.34-52.74,63.73-143.05,75.89-209.82,25.88-11.89-8.9-39.83-37.6-42.05-51.94-3.6-23.27,15.67-41.46,37.92-31.93,10.92,4.68,15.61,18.44,22.94,27.05,37.13,43.66,110.51,43.07,147.01-1.06,6.32-7.64,11.35-20.99,20.58-25.42,10.66-5.12,24.29-3.41,32.82,5.08Z"/>
  <path d="M2127.35,178.65c11.78,11.78,14.27,31.41,6.31,46.01l-105.67,160.33c-21.8,21.99-55.38,3.49-47.07-27.07,30.56-52.02,52.15-115.75,83.46-166.54,14.03-22.76,41.89-33.82,62.97-12.73Z"/>
  <path d="M1583.45,168.47c22.12-3.77,35.18,7.89,45.59,25.49,30.28,51.22,52.25,111.93,82.03,163.97,8.51,31.49-25.17,48.52-47.07,27.07l-106.38-161.62c-11.68-20.43,3.26-51.06,25.83-54.91Z"/>
  <path d="M3745.54,1572.55c46.21-5.29,80.94,38.87,64.86,82.84-17.58,48.06-86.72,53.01-110.77,7.97-20.39-38.19,3.16-85.92,45.91-90.81ZM3718.65,1669.35c24.12,24.13,66.67,15.03,79.44-16.26,17.2-42.13-24.78-83.16-66.11-64.11-30.57,14.1-36.92,56.78-13.34,80.36Z"/>
  <path d="M3765,1598c21.76,3.63,26.53,34.78,5,42.03l14,25.95-15.73-.26-10.53-23.45-15.74-.28.02,24.02h-14.01v-68.01c11.32,1.32,26.21-1.8,37,0ZM3741.99,1630.01c8.25-1.2,26.15,4.33,28.02-7.06,2.97-18.05-16.39-12.18-28.02-12.95v20.02Z"/>
</svg>