<?xml version="1.0" encoding="UTF-8"?>
<svg id="Laag_1" xmlns="http://www.w3.org/2000/svg" version="1.1" viewBox="0 0 225 225">
  <!-- Generator: Adobe Illustrator 29.5.1, SVG Export Plug-In . SVG Version: 2.1.0 Build 141)  -->
  <defs>
    <style>
      .st0 {
        fill: #fff;
      }
    </style>
  </defs>
  <path class="st0" d="M225,0v225H0V0h225ZM66.25,94.75c5.03,4.61,15.84,3.16,22,2,23.25-4.34,72.15-25.05,82.95-47.05,8.13-16.56-4.61-24.34-18.98-28.43-23.99-6.82-66.04-4.65-87.57,8.87-7.71,4.84-16.72,17.22-4.99,22.69l4.33-2.34c-1.42-1.82-3.88-2.01-5.53-3.46-6.04-5.35,3.15-12.47,7.85-15.23,21.33-12.5,62.46-13.25,85.7-6.33,7.86,2.34,19.31,7.79,19.73,17.2.1,2.16-2.1,6.31-3.3,8.26-11.44,18.55-47.2,33.48-67.67,39.33-8.04,2.3-23.53,7-30.31.76-2.09-1.92-2.4-5.9-6.46-5.04-1.57,1.66.79,7.41,2.25,8.75ZM88,34c-6.22.77-.91,8.82-1.99,13,1.33.16,1.85-3.71,1.93-4.56.27-2.8-.04-5.64.06-8.43ZM81,57.5c-.65-5.53,0-13.16,0-19,0-.41,1.97-1.68-.99-2.5-4.27,13.87-1.21,29.54,5.5,42l2.48-1.49c-1.41-2.23-2.86-4.76-3.76-7.23-1-2.72-2.91-9.13-3.22-11.78ZM92,50c-.26,6.35-.51,14.97,6.4,17.95,5.24-1.92,5.4-14.8,9.26-15.87l8.84,2.98c2.62.56,4.54-2.47,6.18-2.96,3.07-.92,4.62,4.02,6.98,4.73,7.5,2.26,16.35-9.03,20.33-14.34-1.5-1.57-.9-1.68-2.47-.48-3.11,2.38-9.74,8.77-12.98,9.05-6.99.59-7.17-5.56-11.04-6.1l-1.42.11-3.06,4.44c-5.34,2.68-7.16-3.77-11.53-5.37-2.95.17-6.61,16.09-9.03,16.82-.63.19-2.5.46-2.48-.54-.93-2.58-1.43-5.25-2-7.92-.37-1.73,1.08-2.96-1.98-2.49ZM102,122l5.9-4.67c.16-3.56-2.79-7.63-5.9-3.82l2.99,3v1.99s-2.99,3.5-2.99,3.5ZM90,116.5v23c-1.15,1.68-3.74.74-3,3.5h11s-3.88-3.62-3.88-3.62l.8-22.96,3.08-1.92-12-.5,4,2.5ZM114,127.01v-3.01s-5,2.01-5,2.01c-.31,1.94,1.66,2.53,2.01,4.49.78,4.44.01,9.14-3.01,12.5h8c1.09-2.69-1.86-1.5-2.04-2.58.54-2.77-1.01-11.63.99-12.97,1.54-1.03,6.34-.93,6.94,1.17l.16,11.8c-.18,1.09-3.13-.1-2.04,2.59h8c-4.06-2.77-4.91-15.54.52-16.06,6.4-.61,5.55,12.66,2.48,16.05h8c-4.05-4.46-.31-10.85-3.54-15.96-2.55-4.04-6.58-1.38-9.98,0-4.03-2.8-7.36-2.78-11.48-.02ZM153,165v-16l-7,2c-.38,1.98,1.65,2.41,2,4.49.44,2.56.27,21-.49,22.52-.52,1.03-2.37,1.65-2.51,2.98h10c-2.63-3.01-2.58-9.59-2.02-13.51.51-3.54,3.4-2.56,5.84-1.29,1.72,5.41,2.21,10.38-1.82,14.81h10c-4.75-3.98-2.3-8.34-3.03-13.46-.87-6.11-6.94-5.76-10.97-2.53ZM56,181h18.5c.3,0,4.74-2.05,5.47-2.53,6.6-4.38,8.78-13.47,4.04-19.98-6.53-8.97-17.48-6.25-27.01-5.48-.3,1.61,1.8.91,2.56,1.93s.79,21.92-.02,23.1c-.74,1.07-3.32,1.16-3.54,2.96ZM119.03,162.97l-.53-2.97c-1.47,2.49-5.76,2.97-5.46,5.96l2,.63c.46,3.4-1.01,9.52.44,12.43,1.74,3.48,9.68,2.74,9.51-2.01l-4.94.95c-2.21-4.24.19-7.57-.05-11.95h5s0-3,0-3l-5.97-.03ZM108,178v-15h-7s2.04,2.59,2.04,2.59l-.05,12.41c-1.95-.03-5.24.62-5.88-1.62l-.11-13.39c-1.49.06-3.02-.1-4.51,0s-2.89-.77-2.5,1.5l2.05,1.09c.3,3.56-1.27,12.84,1.91,14.95,2.92,1.15,6.25.58,8.55-1.54l1.05,2.06,7.44-1.06c.55-2.77-1-1.98-3-2ZM143,167l-.97-3.53-.65-.35c-9.24-1.28-15.96,4.26-12.9,13.89,3.92,5.56,8.98,4.86,14.51,1.98l-.51-2c-8.04,4.08-13.84-5.88-7.9-11.92l8.4,1.93Z"/>
  <path d="M66.25,94.75c-1.45-1.33-3.81-7.08-2.25-8.75,4.06-.86,4.37,3.11,6.46,5.04,6.79,6.23,22.27,1.53,30.31-.76,20.47-5.85,56.23-20.78,67.67-39.33,1.2-1.95,3.39-6.09,3.3-8.26-.42-9.41-11.86-14.86-19.73-17.2-23.24-6.92-64.37-6.17-85.7,6.33-4.7,2.75-13.89,9.88-7.85,15.23,1.64,1.45,4.11,1.64,5.53,3.46l-4.33,2.34c-11.73-5.48-2.72-17.85,4.99-22.69,21.53-13.53,63.58-15.69,87.57-8.87,14.37,4.09,27.11,11.87,18.98,28.43-10.8,21.99-59.7,42.7-82.95,47.05-6.17,1.15-16.98,2.61-22-2Z"/>
  <path d="M92,50c3.06-.47,1.6.76,1.98,2.49.58,2.68,1.08,5.34,2,7.92-.03,1.01,1.85.74,2.48.54,2.41-.73,6.08-16.66,9.03-16.82,4.37,1.6,6.19,8.05,11.53,5.37l3.06-4.44,1.42-.11c3.87.54,4.05,6.69,11.04,6.1,3.24-.28,9.87-6.67,12.98-9.05,1.57-1.2.97-1.09,2.47.48-3.99,5.31-12.84,16.61-20.33,14.34-2.36-.71-3.91-5.65-6.98-4.73-1.64.49-3.56,3.53-6.18,2.96l-8.84-2.98c-3.86,1.06-4.02,13.94-9.26,15.87-6.91-2.99-6.66-11.6-6.4-17.95Z"/>
  <path d="M56,181c.22-1.8,2.8-1.89,3.54-2.96.81-1.18.8-22.05.02-23.1s-2.86-.32-2.56-1.93c9.52-.76,20.47-3.49,27.01,5.48,4.74,6.51,2.56,15.6-4.04,19.98-.73.48-5.17,2.53-5.47,2.53h-18.5ZM66,154v23.5l3.66,2.31c16.26-2.45,13.53-28.59-3.66-25.81Z"/>
  <path d="M108,178c2,.01,3.55-.78,3,2l-7.44,1.06-1.05-2.06c-2.3,2.12-5.63,2.69-8.55,1.54-3.19-2.1-1.61-11.39-1.91-14.95l-2.05-1.09c-.39-2.27.99-1.39,2.5-1.5s3.02.06,4.51,0l.11,13.39c.65,2.24,3.94,1.59,5.88,1.62l.05-12.41-2.04-2.59h7s0,15,0,15Z"/>
  <path d="M153,165c4.02-3.23,10.1-3.57,10.97,2.53.73,5.12-1.72,9.48,3.03,13.46h-10c4.03-4.43,3.54-9.4,1.82-14.81-2.44-1.27-5.33-2.25-5.84,1.29-.56,3.92-.61,10.51,2.02,13.51h-10c.15-1.33,1.99-1.95,2.51-2.98.77-1.52.93-19.96.49-22.52-.36-2.08-2.38-2.52-2-4.49l7-2v16Z"/>
  <path d="M90,116.5l-4-2.5,12,.5-3.08,1.92-.8,22.96,3.88,3.62h-11c-.74-2.76,1.85-1.81,3-3.5v-23Z"/>
  <path d="M119.03,162.97l5.97.03v3s-5,0-5,0c.25,4.38-2.15,7.71.05,11.95l4.94-.95c.17,4.76-7.77,5.5-9.51,2.01-1.45-2.91.02-9.03-.44-12.43l-2-.63c-.3-2.99,3.99-3.47,5.46-5.96l.53,2.97Z"/>
  <path d="M143,167l-8.4-1.93c-5.95,6.04-.15,16,7.9,11.92l.51,2c-5.53,2.88-10.59,3.58-14.51-1.98-3.06-9.63,3.65-15.17,12.9-13.89l.65.35.97,3.53Z"/>
  <path d="M81,57.5c.31,2.64,2.23,9.05,3.22,11.78.9,2.47,2.36,5,3.76,7.23l-2.48,1.49c-6.71-12.46-9.77-28.13-5.5-42,2.96.82.99,2.09.99,2.5,0,5.84-.65,13.47,0,19Z"/>
  <path d="M114,127.01c4.12-2.76,7.45-2.78,11.48.02,3.4-1.37,7.42-4.03,9.98,0,3.23,5.11-.51,11.5,3.54,15.96h-8c3.07-3.4,3.92-16.67-2.48-16.05-5.43.52-4.58,13.28-.52,16.05h-8c-1.09-2.69,1.86-1.5,2.04-2.58l-.16-11.8c-.6-2.1-5.4-2.2-6.94-1.17-2,1.33-.45,10.2-.99,12.97.18,1.09,3.13-.1,2.04,2.59h-8c3.02-3.36,3.79-8.06,3.01-12.5-.35-1.96-2.32-2.55-2.01-4.49l5-2.01v3.01Z"/>
  <path d="M102,122l2.99-3.5v-1.99s-2.99-3-2.99-3c3.11-3.8,6.06.26,5.9,3.82l-5.9,4.67Z"/>
  <path d="M88,34c-.1,2.79.21,5.64-.06,8.43-.08.85-.6,4.72-1.93,4.56,1.09-4.17-4.22-12.22,1.99-13Z"/>
  <path class="st0" d="M66,154c17.19-2.79,19.91,23.36,3.66,25.81l-3.66-2.31v-23.5Z"/>
</svg>