<?xml version="1.0" encoding="UTF-8"?>
<svg id="Laag_1" xmlns="http://www.w3.org/2000/svg" version="1.1" viewBox="0 0 2250 937.5">
  <!-- Generator: Adobe Illustrator 29.5.1, SVG Export Plug-In . SVG Version: 2.1.0 Build 141)  -->
  <path d="M1784.78,726.92c2.18.21,7.61,1.48,9.78,2.21,5.11,1.72,10.99,6.37,11.58,12.02l-34.15-.03-4.46.79c-4.5.14-9.03-.17-13.53-.04s-9.45,2.88-12.66-1.51c-5.67-7.74-3.54-28.22-1.56-37.43,5-23.21,19.28-40.71,30.98-60.47,4.25-7.18,5.56-7.27,3.69-16.12-3.47-16.35-12.86-33.63-27.86-41.8-1.35.3-6.68,14.65-7.78,16.99-17.31,36.79-46.72,51.62-78.35,73.82-6.75,4.74-13.7,9.13-18.82,15.66-2.03,2.58-6.22,8.09-5.35,11.2,1.94,7.02,9.82,16.29,12.38,23.63,4.67,2.98,20.66,6.76,22.22,12.31.88,3.11-4.19,4.79-6.59,5.49-32.08,9.37-43.13-26.1-54.24-48.14,14.42-34.63,58.52-43.27,79.43-72.07,4.79-6.6,5.98-10.75,6.48-19,2.1-34.53-14.39-69.26-6.04-103.79-21.01-9.72-41.09-22.86-59.57-36.78-48.92-36.85-85.94-80.14-121.72-129.38-44.1-60.69-81.95-121.12-137.32-172.99-73.65-68.99-158.17-101.43-259.8-95.53-117.35,6.81-229.12,78.14-241.8,202.71-.75,7.35-.55,14.78-1.49,22.11l16.73-9.12c32.75-15.07,66.93,11.72,59.39,47.38-8,37.89-57.81,43.98-79.44,14.15-26.37-36.36-15.5-108.54,1.68-147.33,59.4-134.17,235.52-177.52,367.34-139.08,103.43,30.16,175.95,103.77,237.71,188.06,52.38,71.48,107.39,166.82,187.06,210.21,5.72,3.12,21.4,11.17,27.2,11.81,3.11.34,9.17-1.02,12.44-1.69,19.59-4.01,38.46-15.04,57.76-20.95,30.18-9.25,62.01-6.74,93.17-8.05,21.16-.89,41.03-5,61.45-6.03,27.38-1.38,51.66,8.62,78.24,13.3,30.28,5.32,61.64,6.97,88.85-9.66,3.02-1.85,8.08-6.75,10.29-7.73,1.84-.82,9.45,1.55,11.97,2.25,8.95,2.5,19.52,6.36,27.91,10.32,1.88.89,11.44,5.7,12.18,6.56,2.32,2.67,3.51,12.48,4.68,16.31,2.99,9.82,15.32,15.95,22.34,23.38,11.9,12.59,11.46,25.86-1.87,37.12-22.9,19.34-60.92,6.19-86.49-.97-7.07,5.5-16.57,11.39-21.36,19.07s-3.38,10.99-2.29,19.27c6.97,52.53,31.45,105.45,66.25,145.11,5.81,6.63,10.67,13.81,19.69,15.54s18.32-.13,27.52-.6c10.41-.52,10.81,7.53,14.65,15.02l-21.74-5.24,1.5,10.49c-9.82.44-20.48,5-30.31,3.69-4.68-.62-13.89-8.86-17.69-12.29-14.85-13.44-31.78-33.9-43.34-50.36-21.26-30.28-29.13-71.95-62.7-91.61-26.09,5.35-48.84,19.86-68.63,37.05l-.79,1.49c.08,1.29.69,2.46.8,3.75,2.44,30.08,6.41,60.12,6.77,90.28,13.73,2.36,32.95.62,42.58,12.52,1.12,1.38,2.73,3.73,3.13,5.49-2.02,1.65-37.09.43-43.11.75-4.97.27-11.95,2.15-16.5,2.12-9-.06-13.38-13.02-13.9-20.45-.99-14.06.72-29.31.07-43.53-.87-19.09-6.95-36.98-10.32-55.63-.48-2.63-1.67-8.02-1.63-10.32.1-6.41,22.02-21.02,21.66-30.31-30.02-3.68-59.6-10.63-87.91-21.17-18.72-6.97-36.98-16.62-56.46-21.51-1.1-.28-1.27-.04-1.04,1.04,7.02,17.75,18.43,34.53,23.4,53.06,5.64,21.03,2.37,42.76-10.38,60.47-7.72,10.73-31.81,34.74-31.81,47.65v25.1c6.4.46,13.57-.62,19.87,0Z"/>
  <path d="M443.1,415.92l93.38-.03c1.54-.1,2.96.73,4.46.79,56.63,2.28,103.91,12.26,142.82,56.59,59.2,67.47,44.95,199.6-40.95,238.57-42.16,19.12-88.88,13.56-134.02,14.3-.27.05-1.2,2.52-1.2,2.67v139.01h-64.48v-451.89ZM507.58,702.19c30.64-.2,64.11,5.52,91.98-10.36,54.7-31.17,52.11-140.7,30.37-190.99-21.06-48.71-66.78-64.67-117.5-60.98-1.7.12-3.18.68-4.84.78v261.54Z"/>
  <path d="M116.21,215.08v361.21c.91-.23,1.62-1.2,2.24-1.89,6.83-7.67,13.75-17.29,20.24-25.49,34.64-43.74,68.33-88.27,102.96-132.01l1.65-.99h40.11l-102.71,133c-.07,2.71,9.48,15.33,11.69,18.31,34.46,46.48,71.96,91.15,107.5,136.86,5.03,6.47,10.69,13.24,15.38,19.85.52.73,1.5.89,1.13,2.23l-37.14-.03-5.18.82h-15.06s-4.46-.79-4.46-.79c-7.45-.16-15.51.45-22.5-2.24-40.27-45.83-75.6-95.81-115.82-141.65v143.88H51.73V215.83l64.48-.75Z"/>
  <path d="M1465.01,867.81l.03-56.61-.82-5.18v-56.27l.82-5.18c.36-12.08-.93-24.46.71-36.38l-14.48,8.37c-33.99,18.35-64.06,22.58-101.74,12.25-67.67-18.56-104.61-81.81-103.45-149.9.74-43.35,5.14-79.22,31.63-115.27,31.46-42.81,90-61.69,141.73-53.51,37.08,5.86,73.03,31.2,91.2,63.76-7.79,7.2-16.47,13.48-25.38,19.22.04-.74-.34-1.29-.76-1.85-21.85-29.08-40.39-62.27-82.86-59.61-77.45,4.85-84.47,114.14-79.1,171.99,3.19,34.36,18.39,79.67,50.01,97.65,22.47,12.78,47.28,14.16,67.72-3.21,28.62-24.32,24.58-65.94,23.94-99.65-.12-6.52-.73-16.42,0-22.55.13-1.1.08-1.92,1.16-2.59h58.86v294.51h-59.23Z"/>
  <path d="M964.18,453.01c3.66-36.05,48.25-44.63,75.48-28.98,13.58,7.8,23.36,23.93,32.35,36.61,35.05,49.45,65.92,101.83,102.09,150.51,1.79,2.43,4.3-.89,6.65-1.25l.16-.98-.05-192.26,30-.75.03,291.18c-1.97,10.83,2.23,20.74-10.33,25.64-11.03,4.31-20.44.58-29.05-6.58-26.41-35.77-50.55-73.64-74.93-110.95-26.82-41.05-52.62-85.6-80.79-125.33-5.69-8.03-11.48-15.62-20.1-20.74-.15,3.6.18,7.26,0,10.87-.64,12.41-.49,25.04-1.54,37.43l.03,208.74h-29.99v-273.16Z"/>
  <path d="M804.48,215.08l.75,487.11,51.74.75v23.23l-40.15-.03-13.5.82-18.71-.78c-14.67-1.92-27.08-.43-37.1-13.13-2.55-3.23-7.51-13.36-7.51-17.22V215.08h64.48Z"/>
  <rect x="336.64" y="415.92" width="65.23" height="310.25"/>
  <rect x="870.46" y="415.92" width="64.48" height="310.25"/>
  <path d="M362.71,277.48c18.15-2.16,39.53,7.64,46.27,25.28,2.52,6.58,3.08,20.2,1.69,27.15-7,35-58.6,44.68-76.41,13.07-14.56-25.84-3.34-61.71,28.45-65.5Z"/>
</svg>