<?xml version="1.0" encoding="UTF-8"?>
<svg id="Laag_1" xmlns="http://www.w3.org/2000/svg" version="1.1" viewBox="0 0 900 500">
  <!-- Generator: Adobe Illustrator 29.5.1, SVG Export Plug-In . SVG Version: 2.1.0 Build 141)  -->
  <path d="M79.81,170.29c62.2-2.54,93.43,73.9,45.72,114.74-48.61,41.6-120.12-5.01-104.01-67.01,6.66-25.64,31.55-46.63,58.3-47.72Z"/>
  <path d="M234,167v55c1.97-1.09,3.82-2.49,5.53-3.97,17.72-15.42,34.21-35.28,51.97-51.03h42c.12,0,2,1.45,1.01,2-17.15,17.45-37.56,32.21-53.55,50.5l59.04,75.49c-14.79,1.79-29.88.94-44.79.79l-41.82-54.74c-1.72-.35-16.97,14.14-19.39,16.46v38.5h-35v-129h35Z"/>
  <path d="M666,286v45h-30v-128h29v10.99s12.64-8.85,12.64-8.85c41.51-16.01,87.2,9.99,75.06,58.06-9.34,37-59.99,47.24-86.71,22.79ZM686.74,223.24c-26.22,4.13-28.51,45.51-1.56,53.08,24.62,6.92,44.98-13.8,35.01-38.01-5.44-13.22-20.3-17.14-33.44-15.07Z"/>
  <path d="M879,230h-33.5c-.64,0-4.61-7.79-8.15-9.85-6.22-3.62-30.71-4.57-33.14,3.56-2.36,7.89,3.78,9.41,9.76,10.83,20.45,4.84,64.22.86,66.9,29.09s-25.9,34.34-48.33,35.42c-24.94,1.2-61.41-1.13-63.54-33.04h33.5c.61,0,3.52,7.28,6.57,9.43,7.35,5.19,32.33,6.19,37.34-2.52,6.03-10.47-10.23-12.31-17.21-13.62-23.37-4.38-60.84-.04-55.95-35.53,4.15-30.14,57.03-28.59,78.75-23.27,16.32,4,24.23,12.91,26.99,29.51Z"/>
  <path d="M463,299h-31v-55.5c0-.57-2.65-9.81-3.09-10.91-6.18-15.09-39.45-11.38-43.47,7.34-.35,1.63-1.44,8.36-1.44,9.56v47.5h-30v-94h29v13c20.72-20.71,75.38-21.75,78.98,14.52.49,4.98.85,11.87,1.06,16.94.7,17.11-.61,34.42-.04,51.54Z"/>
  <path d="M570,220c2.36.63,1.69-.6,2.29-1.28,13.48-15.25,25.31-22.29,46.7-18.71.43,9.81.66,19.14,0,28.99-12.54-2.88-31.69-4.65-40.43,7.07-1.28,1.72-5.57,10.75-5.57,12.43v48.5h-32v-94h29v17Z"/>
  <rect x="488" y="203" width="31" height="94"/>
  <path d="M487.31,172.31c6.15-6.73,26.24-6.1,29.93,2.95,6.12,15.01-16.77,22.51-27.75,14.75-5.32-3.76-6.61-12.85-2.18-17.7Z"/>
</svg>