<?xml version="1.0" encoding="UTF-8"?>
<svg id="Laag_1" xmlns="http://www.w3.org/2000/svg" version="1.1" viewBox="0 0 254 94">
  <!-- Generator: Adobe Illustrator 29.5.1, SVG Export Plug-In . SVG Version: 2.1.0 Build 141)  -->
  <path d="M54,56.99c1.86.41,2.38-1,3.5-1.99,3.24-2.86,5.73-7.8,10.5-7,.04,2.49-.05,5.01,0,7.51.02.87-.48,3.44,1.49,2.48,2.29-1.12,9.42-16.28,12.5-12.99,1.69,3.81,1.59,7.42,2.26,11.26.2,1.14.65,3.44,2.25,2.73,3.28-1.47,10.05-11.78,13.51-13.49,1.33-.66,2.58-.58,4-.5.2,2.11-.09,4.19-.22,6.29-.07,1.09-2.09,1.93.71,1.71,4.76-8.01,16.49-15.92,12.51,0,.4.48,5.65-4.97,9.07-2.57.98.69,1.38,5.43,1.83,7.18.23.88-.38,3.35,1.59,2.38.57-.28,5.62-5.37,5.97-6.03,2.22-4.22,3.56-14.53,5.77-20.23,1.71-4.42,5.45-13.54,10.47-14.56,1.54-.31,3.68-.45,4.23,1.45.78,2.68-4.23,15.89-5.74,19.07-2.41,5.08-12.15,16.12-8.75,21.37.88,1.36,3.12.94,4.55.94.13-1.98-2.32.14-2.03-2.46.55-4.97,5.72-10.19,11.03-8.53.07,4.48-5.55,15.56-9.67,16.82s-9.28-1.29-9.34-5.83c-3.17-.45-4.99,5.87-8.34,4.91-2.92-1.6-3.38-4.83-4.42-7.66-.45-1.24,0-1.39-1.73-1.32-5.21.21-10.85,12.77-13.5,10.06-1.34-5.31,3.04-9.95,1.5-14.99l-13.01,13.99-2.47-1.56,1.48-9.43c-3.48,3.07-8.61,14.52-14.08,10.06l-5.42-9.06c-2.98,10.06-12.32,12.46-15.5,1-2.76,2.44-10.01,11.8-13.84,9.02-1.01-.73-.26-2.63-2.05-1.95-10,8.47-21.06,6.06-21.61-8.07-5.89,3.35-8.05-2.96-9.97-7.51-.02-.81,1.04-1.64,2.48-.49s2.4,2.84,3.98,3.8c.92-.5,2.52-.94,3.06-1.76.37-.57,1.32-8.65,1.95-11.04,1.43-5.39,11.37-28.39,16.18-29.83,1.73-.52,4.55-.57,5.2,1.46,2.79,8.69-5.66,25.94-10.06,33.69-2.38,4.19-9.27,9.77-4.36,14.73,2.75,2.78,6.26.87,9.25-.84,6.83-3.89,19.43-20.13,25.83-20.23,2.3-.04,2.97,2.07,1.98,4.04-.63,1.26-16.2,12.44-14.52,13.98ZM30.01,45c5.41-4.71,8.01-13.23,9.99-20-5.29,5.13-8.12,13-9.99,20ZM142.01,46c1.51-.25,1.93-1.83,2.49-3.01,2.15-4.55,3.98-10.16,5.5-14.99-4.52,4.4-6.04,12.12-7.99,18Z"/>
  <path d="M179,60c3.4-2.89,20.22-16.67,23.44-15.98,2.13.45,1.6,3.76.6,5.3-1.24,1.92-11.09,6.67-11.89,9.34-3.28,10.92,11.78.98,14.89-2.11,5.83-5.81,14.6-33.28,16.45-33.56.89-.14,2.11-.41,2.56.61,3.18,7.18-3.39,15.45-5.83,22.13-1.99,5.44-2.86,11.44-5.21,16.78,1.29.85,2.09-1.65,2.52-2.48,3.07-5.97,6.05-10.47,10.02-15.98s5.52-1.57,2.86,3.86c-1.27,2.59-5.52,6.02-3.94,9.08,3.89,7.55,7.36-3.16,12.53-2.99,1.84,1.82-8.23,10.59-10.02,11.52-2.85,1.48-5.64-1.63-7.48-3.51-2.3,0-14.77,22.84-10.51-4.02-6.37,7.4-23.83,20.05-26,3-1.74.96-2.64,2.53-4.99,2,.05-.98-.1-2.02,0-3-3.42,2.9-4.98,6.14-9.31,8.19-6.7,3.17-11.08,1.91-10.69-6.19-1.33-1.5-5.91,6.32-7.99,2.5,2.48-3.15,15.85-18.37,18.52-18.57,3.19,1.61,7.77,1.3,9.94,4.1,2.71,3.49-.13,6.29-.48,9.97ZM175,54c-2.53-1.85-6.69,2.33-8.05,4.45s-.99,4.07-.94,6.55c5.14-.79,9.08-5.79,9-11Z"/>
  <path d="M87,34c.06,3.61-.66,8.01-4.7,8.82-8.91,1.79-1.69-10.71,4.7-8.82Z"/>
  <path d="M170.6,35.05c2.06-.6,4.18,1.51,4.45,3.45l-3.67,4.44c-4.42-.19-3.77-7.02-.79-7.89Z"/>
  <path d="M182.77,41.77c-4.31,4.29-8.88-4.4-1.25-6.59,2.59,1.2,3.24,4.62,1.25,6.59Z"/>
  <path d="M241,14l-1-1c.45.29.71.55,1,1Z"/>
  <path d="M236,19c.1.34-.14.89,0,1-3.38-1.35-4.42-2.21-2-6-.47,1.74-.08,4.56,2,5Z"/>
  <path d="M236,19c-.74-2.61-2.04-4.14,1.5-5,.98-.24,2.44.09.99,1l-2.48,1.51,2.99,2.5c-.86.05-2.26.15-3,0Z"/>
  <path d="M241,19v-5c1.48,2.32,1.63,2.43,0,5Z"/>
  <path d="M234,14c.29-.45.55-.71,1-1,.07.73-.98.93-1,1Z"/>
  <path d="M241,19c-2.03,3.2-2.36,2.06-5,1h2.5s.5-1,.5-1c.66-.04,1.34.03,2,0Z"/>
  <path d="M240,13h-5c2.45-1.55,2.54-1.56,5,0Z"/>
</svg>