<?xml version="1.0" encoding="UTF-8"?>
<svg id="Laag_1" data-name="Laag 1" xmlns="http://www.w3.org/2000/svg" viewBox="0 0 334 160.22">
  <path d="M161.77.37c46.72-5.39,74.03,50.03,41.66,83.66-22.19,23.06-61.3,17.82-77.6-9.25-18.23-30.27.82-70.36,35.95-74.41ZM164,45.1V8.1c-2.58.8-16.59,3.98-16.8,6.46l9.27,29.57,7.54.96ZM172,45.1l7.52-.98,9.38-29.42c-4.38-3.95-10.94-5.88-16.9-5.6v36ZM127,45.1h21l-7.51-25.01c-2.61.06-7.68,7.76-8.9,10.1-2.42,4.65-3.62,9.8-4.6,14.9ZM209,45.1c-1.32-9.48-4.99-18.83-12.5-24.99l-8.5,24.99h21ZM151,53.1h-22.5l-1.34,2.28c3.44,17.92,16.41,31.23,34.33,34.73,1.22-.36.31-2.18.07-3.07-3-11.28-7.87-22.5-10.56-33.94ZM164,53.1l-4.01.51,4.01,14.49v-15ZM176,53.1l-3.86,1.63-.13,13.36,3.54-10.95.45-4.05ZM209,53.1h-24l-10.49,37.01c18.41-3.58,32.83-18.01,34.49-37.01Z"/>
  <path d="M49.78,114.35c3.08-.29,6.46.1,9.46,1,22.04,6.64,19.3,41.98-3.83,44.65-32.65,3.77-34.7-42.88-5.63-45.65ZM48.73,122.33c-15.38,2.77-14.76,31.65,4.39,30.22,18.87-1.41,16.52-33.99-4.39-30.22Z"/>
  <path d="M218,140.1v-23.5l1.64-1.36,6.36-.14v44c-1.72.41-2-.66-3-1.5-8.67-7.22-15.98-17.48-25-24.5v26h-8v-44c1.72-.41,2,.66,3,1.5,7.65,6.37,14.35,15.64,21.99,22.01,1.01.84,1.29,1.91,3,1.5Z"/>
  <polygon points="305 115.1 305 131.6 306.5 133.1 324.5 133.1 326 131.6 326 115.1 334 115.1 334 159.1 326 159.1 326 141.1 305 141.1 305 159.1 297 159.1 297 115.1 305 115.1"/>
  <path d="M290,149.11c1.16.92-4.96,6.68-6.05,7.43-9.8,6.76-26.22,3.53-31.8-7.09-13.63-25.94,19.64-49.1,37.84-25.85l-7,4.06c-5.83-9.51-22.52-6.64-24.78,4.15-3.76,17.97,13.13,27.83,25.43,14.41l6.36,2.9Z"/>
  <path d="M90,123.1v10h15v7h-15v12h17v7h-26v-42.5l1.5-1.5h23c2.29,1.83,2.29,6.17,0,8h-15.5Z"/>
  <polygon points="182 115.1 182 123.1 166 123.1 166 133.1 181 133.1 181 140.1 166 140.1 166 152.1 183 152.1 183 159.1 157 159.1 157 115.1 182 115.1"/>
  <path d="M131.01,142.1c2.23.36,1.59-.02,2.21-1.27,3.86-7.79,6.43-17.53,9.89-25.62l8.88-.11-20.5,44.98-20.5-44.98c2.73.37,7.59-1.01,9.51.98,3.8,3.91,7.74,20.37,10.49,26.02Z"/>
  <polygon points="8 115.1 8 150.6 9.5 152.1 26 152.1 26 159.1 0 159.1 0 115.1 8 115.1"/>
  <rect x="234" y="115.1" width="8" height="44"/>
</svg>