<?xml version="1.0" encoding="UTF-8"?>
<svg id="Laag_1" data-name="Laag 1" xmlns="http://www.w3.org/2000/svg" viewBox="0 0 336.88 258.99">
  <path d="M254.04,17.93c-21.1,26.54-37.16,56.72-54.99,85.51l.49,1.48c3.95-5.01,21.83-17.42,27.51-14.53,4.32,2.2.81,8.25-.83,11.21-6.99,12.64-23.25,14.86-34.13,22.91,12.51,25.16,39.95,39.07,66.73,44.14,23.79,4.51,56.31,1.12,71.66-19.81,4.17-5.69,3.96-8.87,3.58-15.92,2.9-.47,1.65.62,2.1,2.35,6.3,24.11-29.54,36.46-47.86,39.38-36.77,5.87-77.92-15.8-99.69-44.78-1.23-1.64-1.56-4.95-4.04-4.96-1.73,3.49-3.61,7.01-5.7,10.31-3.89,6.14-8.74,15.67-16.8,15.69l.53-3.96c20.55-32.1,39.92-65.02,61.64-96.36,7.72-11.14,14.35-22.96,25.52-30.48,1.37-.93,2.55-2.4,4.31-2.19ZM193.05,118.92c1.11,1,14.05-6.11,15.95-7.55,2.87-2.17,11.37-12.76,3.75-11.28-3.89.76-11.94,8.22-14.69,11.35l-5.01,7.49Z"/>
  <path d="M58.04,258.92c-.67.68-7.43-4.2-8.49-5.01-4.39-3.37-9.68-7.78-10.44-13.56-1.17-8.97,1.31-17.18,4.43-25.42,5.24-13.83,14.29-30.3,22.07-42.93,3.76-6.11,13.11-17.12,15.42-22.59.19-.45.26-1.64-.49-1.49-2.02,1.93-4.75,2.33-7.45,1.94l-.6-2.44,12-51.56c6.97-2.25,10.76-2.17,9.1,6.11-2.33,11.59-9.23,24.11-10.49,36.55-.55,5.47,2.73,5.21,5.96,1.91,8.97-9.17,22.37-28.17,29.81-39.19,4.43-6.56,10.92-15.03,11.18-22.83.11-3.3,3.8-.26,5.01.99,4.13,4.24,5.16,6.74,1.82,11.86-7.12,10.94-19.46,23.42-27.82,34.18-19,24.43-34.81,46.16-49.2,73.8-7.21,13.86-19.91,35.77-9.27,50.63,1.01,1.41,8.7,7.79,7.45,9.05Z"/>
  <path d="M106.05,14.92c-3.06-12.34-15.9,1.05-20.53,5.98-14.64,15.57-29.45,37.91-40.9,56.1-7.41,11.77-27.13,42.04-30.1,53.9-3.19,12.72,2.89,19.5,15.56,15.56,12.92-4.02,19.5-14.35,28.94-22.06,7.92-6.47,4.62.89,1.04,4.78-6.45,7.01-24.51,19.96-33.47,22.79-8.68,2.74-24.28,5.27-26.31-6.77-2.69-15.94,15.23-40.51,23.95-53.6C41.02,66.35,72.17,20,97.73,5.11c2.12-1.24,9.91-5.51,11.64-5.08,5.51,1.37,3.47,16.03-3.31,14.89Z"/>
  <path d="M298.04,118.93c.42,5.62-6.92,10.3-11.09,13.41-12.26,9.13-31.11,19.18-46.5,20.49-14.9,1.27-21.4-6.1-16.45-20.44,5.81-16.8,24.57-35.17,41.5-40.5,4.01-1.26,13.74-4.12,14.58,2.57,1.42,11.33-21.2,22.2-29.68,26.33-6.93,3.37-15.4,3.56-16.39,12.6-1.86,16.91,17.65,13.09,28.02,9.03,13.07-5.12,25.77-14.04,36-23.49ZM262.94,100.04c-2.39-3.27-10.89,3.5-12.92,5.37-2.55,2.34-4.8,5.38-6.81,8.19-.97,1.37-6,8.4-5.17,9.32,5.9-3.03,13.22-4.94,18.5-8.99,4.81-3.69,7.87-7.49,6.39-13.9Z"/>
  <path d="M159.07,104.9c-4.94-14.84-16.55-5.45-23.02,2.53-5.33,6.57-14.84,24.64-13.95,32.9.42,3.88,2.2,6.05,5.92,7.16,8.54,2.52,26.45-10.47,33.53-15.56,4.26.1-2.79,5.76-3.59,6.41-7.95,6.41-25.95,16.54-36.22,14.37-18.7-3.96-3.53-32.88,3.77-41.81,6.67-8.16,22.62-17.74,33.1-18.94,9.92-1.13,8.61,12.42.45,12.93Z"/>
</svg>