<?xml version="1.0" encoding="UTF-8"?>
<svg id="Laag_1" xmlns="http://www.w3.org/2000/svg" version="1.1" viewBox="0 0 532 216">
  <!-- Generator: Adobe Illustrator 29.5.1, SVG Export Plug-In . SVG Version: 2.1.0 Build 141)  -->
  <path d="M75,60l26.51,79,28.99-79h32.5v3h-16v101h16v3h-48v-3h16v-98l-35.5,101.01-35.5-100.01v97h16v3h-34.5c-1.48,0-1.48-3,0-3h15.5V63h-15.5c-.65,0-1.92-2.14-1.5-3h35Z"/>
  <path d="M224.77,57.27c26.65-3.15,53.99,22.12,56.23,48.22,5.78,67.21-79.83,88.52-101.04,27.04-11.15-32.31,10.3-71.18,44.81-75.27ZM221.75,60.25c-28.4,4.03-28.46,46.58-26.76,68.25,1.27,16.18,7.22,33.37,24.74,37.26,42.3,9.4,46.19-33.87,43.26-64.26-2.5-25.83-10.69-45.59-41.23-41.26Z"/>
  <path d="M478,60l-61,104h38.5c.6,0,5.71-2.57,6.81-3.19,10.7-6.06,11.85-14.98,15.91-25.09.56-1.39,1.24-1.99,2.78-1.72v33h-83l61-104h-30.5c-2.9,0-11.05,6.49-13.02,8.98-3.25,4.08-4.12,8.42-6.25,12.75-.63,1.27.01,1.62-2.22,1.27v-26h71Z"/>
  <path d="M368,60v28c-3.01-2.25-3.28-7.23-4.82-10.68-7.79-17.51-30.99-24.66-44.72-10.36-7.03,7.32-6.29,20.07,1.62,26.46,18.57,14.97,62.2,7.8,58.81,43.98-2.26,24.14-24.73,33.27-46.44,31.64-9.06-.68-16.85-5.41-25.79-5.08l-2.17,3.03-2.49-1.5v-30c0-.43,1.64-2.2,2.52-.52,1.76,3.36,2.62,9.88,4.75,14.25,3.23,6.6,8.68,12.74,15.74,15.26,8.93,3.18,22.2,3.27,30.69-1.27,9.47-5.06,13.32-17.36,10.02-27.44-7.64-23.31-57.13-13.22-60.63-43.37-2.87-24.76,20.25-39.7,42.92-33.93,4.17,1.06,11.63,5.46,15.28,4.37,1.79-.54,2.35-3.32,4.69-2.85Z"/>
  <path d="M194,47v-3s21.45-2.05,21.45-2.05c16.33-.4,32.4.42,48.55,2.05v3h-70.01Z"/>
</svg>