<?xml version="1.0" encoding="UTF-8"?>
<svg id="Laag_1" xmlns="http://www.w3.org/2000/svg" version="1.1" viewBox="0 0 471.82 117.2">
  <!-- Generator: Adobe Illustrator 29.5.1, SVG Export Plug-In . SVG Version: 2.1.0 Build 141)  -->
  <path d="M113.21,0c1.29.32,2.66.38,3.97.65,2.77.58,5.78,1.68,8.23,3.09,23.47,13.48,3.25,49.33,7.7,70,1.4,6.49,5.77,10.83,8.74,16.34,2.6,4.82.95,8.96-4.96,8.36-7.44-.76-14.84-16.62-16.61-23-.77-2.8-1.13-8.96-3.11-10.85-1.48-1.41-5.74-.98-7.49-.12-4.24,2.07-4.6,9-4.78,13.14-.39,9.17.1,18.36.18,27.54,0,.68.24,1.25.19,2.06-.17,2.86-1.94,4.76-4.8,5.01s-8.54.27-11.33,0c-3.8-.38-5.51-4.67-5.75-8.01-.49-6.66-.01-13.85-.57-20.55-.69-8.19-10.4-7.24-16.32-6.7-5.28.49-10.56,1.8-15.85,2.07-5.96.3-13.74-1.04-19.39.05-4.91.95-1.92,7.56-2.6,10.99.42,3.72.34,7.56,1.01,11.25.49,2.74,3.47,8.16.31,10.23-1.5.98-2.9.42-4.43.47-5.97.19-9.47.53-11.5-6.03-2.53-8.18-3.02-17.65-5.2-26.1-1.7-6.59-5.16-12.43-6.69-18.77-.86-3.57-1.44-7.38-1.79-11.04-.1-1.05.09-2.28-.38-3.3.1-1.97-.14-4.08,0-6.03C1.66,17.87,14.41,2.95,38.58,5.66c4.36.49,8.44,1.86,12.71,2.77,14.43,3.05,28.27,3.43,42.05-2.36,4.83-2.03,9.85-5.59,15.16-6.07h4.72Z"/>
  <path d="M471.92,28.85h-12.27s0,26.5,0,26.5c.23,1.45.26,2.94.76,4.34,1.72,4.89,6.64,4.02,10.76,3.29l.35,6.57c-5.99,2.02-14.17,2.13-18.05-3.69-2.14-3.21-2.17-7-2.5-10.71v-26.31s-7.07,0-7.07,0l-.28-.28v-6.22l.28-.28h7.08v-8.39l.65-.48,8.03-2.44v11.31h12.26v6.79Z"/>
  <polygon points="415.69 0 415.69 69.77 407.1 69.77 406.82 0 415.69 0"/>
  <path d="M442.29,117.29c-2.22-.57-4.39-1.45-4.34-4.15l1.68.02c.22,3.33,5.87,3.48,7.1.93.08-.16.47-1.34.47-1.42v-2.92l-1.33,1.4c-6.04,3.17-10-3-8-8.56,1.5-4.18,7-5.15,9.52-1.32v-2.08s1.51,0,1.51,0v13.48c0,.33-.51,1.76-.72,2.11-.97,1.65-2.51,1.98-4.19,2.51h-1.7ZM442.63,100.37c-4.72.58-4.58,9.66-.03,10.11,6.24.62,6.13-10.86.03-10.11Z"/>
  <path d="M173.6,22.06l.38,7.73c.89-1.09,1.6-2.35,2.54-3.4,7.42-8.23,22.1-7.1,25.95,3.96.27.06.31-.03.46-.2.6-.65,1.3-2.09,2-2.91,6.32-7.46,18.35-8.84,24.9-.94,7.89,9.52,3.22,31.06,4.54,42.81l-.29.65h-8.4v-28.01c-.34-7-2.7-14.02-11.05-13.48-6,.39-9.97,6.31-10.09,11.98v29.52s-8.48,0-8.48,0v-28.94c.1-7.6-5.03-15.1-13.45-11.93-3.36,1.26-7.69,6.41-7.69,10.04v30.55l-.28.28h-8.4l-.38-47.71h7.74Z"/>
  <path d="M296.43,22.06l9.91,39.22c3.27-13.25,7.92-26.09,11.96-39.11l7.48.07,11.79,39.04c2.22-13.15,6.81-25.74,10.13-38.62l.34-.6h8.59l-15.3,47.41c-.14.29-.36.28-.63.31-2.22.26-4.91-.22-7.19,0l-.3-.12c-3.74-12.66-8.68-25.01-11.3-37.98-.36.07-.31.39-.38.65-.53,1.85-.85,3.91-1.37,5.8-2.87,10.62-6.98,20.88-10.34,31.34-.14.29-.36.28-.63.31-2.28.26-5.1-.2-7.44-.03l-14.37-47.69h9.06Z"/>
  <path d="M248.69,22.06l13.49,37.72,12.64-37.72h8.96l-.18,1.05c-5.57,13.68-10.24,27.76-15.96,41.38-4.71,11.23-10.55,23.87-23.59,26.92l-2.26-7.31c4.83-1.78,8.94-4.81,11.96-8.98,1.12-1.56,3.59-5.47,3.43-7.32l-18.12-45.73h9.62Z"/>
  <path d="M397.76,69.77h-7.93l-.85-6.03c-4.45,6.06-12.92,8.52-20.06,6.28-4.78-1.51-8.71-6.22-9.1-11.27-1.26-16.05,15.92-19.63,28.5-19.33.07-2.78-.31-6.13-2.08-8.39-4.57-5.84-15.69-3.36-21.13.09l-1.86-5.42c-.1-.7,1.72-1.49,2.3-1.78,9.77-4.77,25.28-4.75,29.9,6.96,3.21,8.15,1.07,24.44,1.74,33.9.12,1.66.5,3.33.56,5ZM388.51,45.45c-8.12-.22-22.07,1.37-19.73,12.83,1.54,7.51,11.16,7.37,15.96,3.1,1.51-1.34,3.77-4.77,3.77-6.79v-9.15Z"/>
  <polygon points="434.93 22.06 434.93 69.77 426.35 69.77 426.06 69.49 426.06 22.35 426.35 22.06 434.93 22.06"/>
  <path d="M429.41,3.44c7.7-1.21,8.76,9.76,2.17,10.66-8.11,1.11-8.4-9.67-2.17-10.66Z"/>
  <path d="M215.86,109.94l3.2-10.66,1.88-.07,3.13,10.73,3.28-10.64,1.72-.11-4.18,12.98-1.88-.08-3.09-10.45-3.39,10.58-1.63-.12-4.13-12.9c.61.07,1.47-.25,1.87.3l3.23,10.45Z"/>
  <path d="M241.38,110.65l1.19.22c.95,1.61-2.05,1.92-2.82.56-.21-.37-.15-.98-.48-1.11-1.33,2.95-8.13,2.99-8.67-.49-.46-2.92,1.05-4.36,3.75-4.9,1.05-.21,4.38-.19,4.9-.95.32-.47.23-1.25.12-1.79-.63-2.99-7.02-2.41-6.52,1.14h-1.7c-.47-4.57,6.84-5.81,9.25-3.11,1.68,1.89.11,7.98.99,10.42ZM239.45,105.42c-1.93.89-6.95.25-7.16,3.13-.25,3.49,5.7,3.25,6.88.07.39-1.05.29-2.1.29-3.2Z"/>
  <path d="M463.61,106.17h-9.81c.32,2.82,1.4,5.15,4.63,4.91,1.08-.08,1.91-.55,2.54-1.42.74-1.02.64-2.84,2.43-1.68-1.63,6.82-10.56,5.83-11.28-1.17-1.03-10.08,11.93-10.78,11.49-.64ZM461.73,104.66c-.09-5.74-7.58-5.78-7.74,0h7.74Z"/>
  <path d="M201.52,106.17h-9.62c-.68,3.72,4.13,6.82,6.76,3.84.52-.58.84-2.21,1.44-2.33,2.53-.48.24,2.92-.66,3.68-4,3.38-9.07-.05-9.41-4.93-.69-9.82,12.13-10.15,11.48-.26ZM199.64,104.66c0-5.72-7.55-5.79-7.74,0h7.74Z"/>
  <path d="M351.53,106.17c.25,2.82,1.44,5.15,4.63,4.91,1.08-.08,1.91-.55,2.54-1.42.75-1.04.54-2.83,2.44-1.68-.76,3.58-3.94,5.42-7.45,4.24-4.32-1.46-4.92-7.98-2.35-11.22s7.61-2.68,9.28,1.28c.21.5,1.19,3.9.44,3.9h-9.53ZM359.46,104.66c-.11-5.75-7.6-5.78-7.74,0h7.74Z"/>
  <path d="M267.38,106.17h-9.62c-.33,5.26,6.53,7.18,7.83,1.69l1.61-.18c-.95,7.07-10.51,6.3-11.14-.84-.91-10.34,11.98-10.72,11.33-.67ZM265.68,104.66c-.36-5.84-7.35-5.7-7.93,0h7.93Z"/>
  <path d="M387.01,106.17h-9.62c.12,2.99,1.54,5.25,4.81,4.9,1.07-.11,1.95-.74,2.48-1.67.66-1.16.29-2.47,2.3-1.45-1.43,6.63-10.48,5.91-11.27-.77-1.23-10.47,11.92-11.35,11.3-1.02ZM385.31,104.66c-.34-5.84-7.33-5.71-7.93,0h7.93Z"/>
  <path d="M177.94,94.29v6.98c.39-.23.48-.77.85-1.13,1.9-1.85,5.96-1.67,7.42.69.15.24.6,1.29.6,1.48v9.9h-1.7v-9.15c0-.69-.56-1.66-1.15-2.06-1.92-1.34-4.64-.53-5.55,1.59-.1.24-.47,1.45-.47,1.6v8.01h-1.7v-17.91h1.7Z"/>
  <path d="M419.42,98.87c8.91-.63,9.02,14.5-.22,13.69-7.48-.65-7.35-13.15.22-13.69ZM417.07,101.33c-2.65,2.35-2.13,8.99,1.96,9.7,6.53,1.12,7.07-10.01,1.45-10.69-1.12-.13-2.57.25-3.41.99Z"/>
  <path d="M303.37,98.87c8.45-.82,9.12,13.16,1.08,13.71-8.6.59-9.07-12.93-1.08-13.71ZM303.18,100.37c-5.27.72-5.11,11.53,1.45,10.68,5.38-.7,5-11.56-1.45-10.68Z"/>
  <path d="M322.28,99.19l1.39.03.31.44-.18,12.46-1.52.08-.09-1.89c-2.15,3.13-7.33,3.1-8.6-.84-.08-.24-.37-1.37-.37-1.52v-8.49c.41-.44,1.48-.45,1.89,0v8.86c0,.64.74,1.9,1.33,2.26,2.14,1.31,4.85-.08,5.53-2.38.07-.23.32-1.43.32-1.57v-7.45Z"/>
  <path d="M286.4,99.22l4.27,10.53,3.7-10.26c.39-.54,1.27-.23,1.87-.3l-5.82,15.4c-1.16,2.4-1.86,2.48-4.56,2.33v-1.51c2.56.88,3.17-1.35,3.78-3.3l-5.1-12.64c.02-.39,1.51-.32,1.85-.25Z"/>
  <path d="M346.63,112.2h-1.7c-.11-2.5.16-5.14,0-7.64-.07-1.08-.13-2.65-.93-3.41-1.69-1.58-4.87-.68-5.81,1.38-.07.16-.43,1.2-.43,1.27v8.39h-1.7v-13.01h1.51s0,2.07,0,2.07c1.62-2.67,6.44-3.35,8.3-.66.21.31.75,1.61.75,1.89v9.71Z"/>
  <path d="M364.33,99.22l4.27,10.72,3.7-10.45c.39-.54,1.27-.23,1.87-.3l-4.74,12.99-1.96-.17-5-12.54c.02-.39,1.51-.32,1.85-.25Z"/>
  <path d="M273.04,95.42v3.77c1.25.1,3.34-.59,2.46,1.43l-2.47.08c.15,2.81-.2,5.8,0,8.59.13,1.98.97,1.3,2.65,1.41l-.18,1.43c-1.26.18-3.43.34-4.02-1.1-.06-.14-.33-1.29-.33-1.37v-8.96l-2.08-.11v-1.4s2.08,0,2.08,0v-3.77h1.89Z"/>
  <path d="M407.76,96.27c.37-2.06,2.91-2.13,4.53-1.98v1.51c-2.92-.71-3.01.97-2.83,3.4h2.45s0,1.51,0,1.51h-2.45s0,11.5,0,11.5h-1.7v-11.5l-2.27-.11v-1.4s2.27,0,2.27,0c.11-.89-.15-2.08,0-2.92Z"/>
  <path d="M170.58,95.42v3.77l2.75.18c.09.15.09.32.1.48.02.32.02.71-.33.82l-2.52.03v8.39c0,.16.3,1.31.45,1.43l2.07.2c.48.16.46,1.31,0,1.46-2.38.15-3.99.27-4.23-2.51s.19-6.07,0-8.96l-2.18-.18-.06-1.02.28-.28,1.95-.03v-3.77h1.7Z"/>
  <path d="M469.09,95.42v3.77h2.64v1.51h-2.64v9.15c0,1.03,1.95.9,2.64.85v1.51h-2.74c-.5,0-1.6-1.19-1.6-1.6v-9.9l-2.27-.11v-1.4s2.27,0,2.27,0v-3.77h1.7Z"/>
  <path d="M250.96,94.57c.13-.41,1.63-.45,1.89,0v17.35c-.41.44-1.48.45-1.89,0v-17.35Z"/>
  <path d="M245.11,94.57c.13-.41,1.63-.45,1.89,0v17.35c-.41.44-1.48.45-1.89,0v-17.35Z"/>
  <path d="M429.27,99.19h1.7s0,2.45,0,2.45c1.24-1.61,2.77-2.8,4.92-2.56l.18,1.62c-2.07-.09-4.17.99-4.78,3.05-.07.23-.32,1.43-.32,1.57v6.88h-1.7v-13.01Z"/>
  <path d="M390.21,99.19l1.62.18.08,2.27c1.24-1.61,2.77-2.81,4.92-2.56l.18,1.62c-2.1-.08-4.14.98-4.78,3.05-.06.19-.32,1.29-.32,1.38v7.07h-1.7v-13.01Z"/>
</svg>