<?xml version="1.0" encoding="UTF-8"?>
<svg id="Laag_1" xmlns="http://www.w3.org/2000/svg" version="1.1" viewBox="0 0 300 102">
  <!-- Generator: Adobe Illustrator 29.5.1, SVG Export Plug-In . SVG Version: 2.1.0 Build 141)  -->
  <defs>
    <style>
      .st0 {
        fill: #fff;
      }
    </style>
  </defs>
  <path class="st0" d="M300,0v102H0V0h300ZM28.5,29.01L6.01,51.5l22.49,22.49,22.49-22.49-22.49-22.49ZM77,56l-9.96-18.54-8.04-.46v29h6v-19l9.96,18.54c2.58.77,6.26,1.27,8.04-1.04v-27.5h-6v19ZM104.5,37h-16.5v29h16.5c1.79-.99,2.33-4.41.54-5.54l-11.05-1v-5.46s10.02-.54,10.02-.54v-4.46s-10.01,0-10.01,0v-7.01s12.01,0,12.01,0l-.1-3.4-1.4-1.6ZM113.91,37.09c-1.7.18-6.42-1.37-5.94,1.43l7.51,26.51c1.44,1.52,6.1,1.53,7.07.02l3.45-12.04,3.95,12.56h7.12s6.93-28.56,6.93-28.56l-5.94.05-4.56,20.95-5.43-20.43-6.07-.57.93,8.42-3.93,12.57-5.1-20.91ZM182.79,39.21c-.83-.81-5.79-2.09-7.27-2.24-2.26-.23-11.03-.48-12.07,1.02l.51,27.53,6.04.48v-10.01s4.39-.05,4.39-.05l4.72,9.94,6.89.11c.66-.61-5.56-9.94-5.99-11.51-.11-.39,4.33-2.21,4.99-6,.4-2.3-.6-7.72-2.2-9.28ZM207,37h-18v29h16.5c1.79-.99,2.33-4.4.54-5.54l-11.05-.45v-6.01s10.01-.54,10.01-.54v-4.46s-10.01,0-10.01,0v-7.01s12.01,0,12.01,0v-5ZM211,37v29c6.03-.28,16.44,1.61,19.86-4.64,2.31-4.21,1.04-9.34-3.86-10.37.73-1.82,2.61-2.21,3-4.48,2.17-12.43-10.81-9.09-19-9.51ZM253,37h-18v29h18v-6s-12,0-12,0v-6.01s10.01,0,10.01,0v-4.46s-10.01-.55-10.01-.55l.45-6.06,11.56-.94v-5ZM263,37h-6v29h16.5c1.79-.99,2.33-4.4.54-5.54l-11.04-.46v-23ZM292.9,38.1c-6.74-2.54-17.38-1.99-16.98,7.4.31,7.12,6.56,6.64,10.46,9.62,1.54,1.18,2.74,4.15,1.03,4.94-4.33,2-7.11.07-11.41-.05-1.26,6.27,5.91,6.65,10.47,5.96,8.33-1.26,11.1-10.85,3.88-15.82-2.41-1.66-8.35-2.3-8.39-5.63-.06-4.23,8.38-2.31,11.04-1.52l-.09-4.9ZM151.01,46l-2.97,5.4,4.46,4.59,4.46-5.39c-.72-.97-5.02-5.78-5.95-4.6Z"/>
  <path d="M113.91,37.09l5.1,20.91,3.93-12.57-.93-8.42,6.07.57,5.43,20.43,4.56-20.95,5.94-.05-6.93,28.56h-7.12s-3.95-12.56-3.95-12.56l-3.45,12.04c-.97,1.51-5.62,1.5-7.07-.02l-7.51-26.51c-.48-2.8,4.24-1.25,5.94-1.43Z"/>
  <path d="M77,56v-19h6v27.5c-1.78,2.3-5.46,1.81-8.04,1.04l-9.96-18.54v19h-6v-29l8.04.46,9.96,18.54Z"/>
  <path d="M211,37c8.19.42,21.17-2.92,19,9.51-.4,2.27-2.27,2.66-3,4.48,4.91,1.04,6.17,6.16,3.86,10.37-3.42,6.24-13.83,4.35-19.86,4.64v-29ZM223.9,43.1l-6.9-1.1v7.01l6.9-1.1v-4.8ZM217,61l7.01-1.49.91-1.09c1.07-5.69-3.83-4.42-7.93-4.42v7Z"/>
  <path d="M182.79,39.21c1.6,1.56,2.6,6.98,2.2,9.28-.66,3.79-5.1,5.61-4.99,6,.43,1.57,6.66,10.9,5.99,11.51l-6.89-.11-4.72-9.94-4.39.05v10.01s-6.03-.48-6.03-.48l-.51-27.53c1.04-1.5,9.81-1.24,12.07-1.02,1.48.15,6.44,1.43,7.27,2.24ZM170,51l6.57-.94c4.32-5.61-.81-8.82-6.57-8.07v9.01Z"/>
  <path d="M28.5,29.01l22.49,22.49-22.49,22.49L6.01,51.5l22.49-22.49ZM11,50h14c-.45-1.91-3.28-2.98-4-4.51-.53-1.15.34-2.02,1.49-1.49s3.63,3.84,5,5.04c.89.77,2.5.78,2.51,1.47l-7.51,8.48c-1.48-1.44-1.75-.92-.5-2.49,1.14-1.43,3.33-2.27,3-4.5h-14c-.41,1.72.66,1.99,1.5,3,2.79,3.36,10.15,10.99,13.48,13.52.77.59,1.26,1.62,2.53,1.54l18.5-18.05c-9.52-1.18-11.84.58-18.5,6-1.57,1.28-2.54,0-2.49-.5.04-.45,5.44-5.93,6.99-5.51-1.78-2.85-6.77-4.02-7-7.99.84-.85,7.49,5.31,9.68,5.81,3.15.72,7.04-.11,10.31.18l-17.5-17.99-17.5,17.99Z"/>
  <polygon points="253 37 253 42 241.44 42.94 241 49 251.01 49.55 251 54 241 54 241 60 253 60 253 66 235 66 235 37 253 37"/>
  <path d="M207,37v5s-12,0-12,0v7.01s10.01,0,10.01,0v4.46s-10.01.54-10.01.54v6.01s11.05.45,11.05.45c1.78,1.14,1.24,4.56-.54,5.54h-16.5v-29h18Z"/>
  <path d="M104.5,37l1.4,1.6.1,3.4h-12.01s0,7.01,0,7.01h10.01s0,4.45,0,4.45l-10.01.54v5.46s11.05,1,11.05,1c1.78,1.14,1.24,4.56-.54,5.54h-16.5v-29h16.5Z"/>
  <path d="M292.9,38.1l.09,4.9c-2.66-.8-11.1-2.71-11.04,1.52.05,3.34,5.98,3.98,8.39,5.63,7.22,4.96,4.45,14.56-3.88,15.82-4.56.69-11.73.31-10.47-5.96,4.31.13,7.09,2.05,11.41.05,1.71-.79.51-3.76-1.03-4.94-3.9-2.98-10.15-2.5-10.46-9.62-.41-9.39,10.24-9.94,16.98-7.4Z"/>
  <path d="M263,37v23l11.04.46c1.78,1.14,1.24,4.56-.54,5.54h-16.5v-29h6Z"/>
  <path d="M151.01,46c.92-1.18,5.23,3.63,5.95,4.6l-4.46,5.39-4.46-4.59,2.97-5.4ZM150,52l3,.56,1.99-2.06-2.49-2.49-2.5,3.99Z"/>
  <path class="st0" d="M217,61v-7c4.09,0,8.99-1.26,7.92,4.42l-.91,1.09-7.01,1.49Z"/>
  <polygon class="st0" points="223.9 43.1 223.9 47.9 217 49 217 42 223.9 43.1"/>
  <path class="st0" d="M170,51v-9.01c5.76-.75,10.89,2.46,6.57,8.07l-6.57.94Z"/>
  <path class="st0" d="M11,50l17.5-17.99,17.5,17.99c-3.27-.29-7.16.53-10.31-.18-2.2-.5-8.85-6.66-9.68-5.81.23,3.97,5.22,5.14,7,7.99-1.55-.42-6.95,5.06-6.99,5.51-.05.51.92,1.78,2.49.5,6.66-5.41,8.98-7.18,18.5-6l-18.5,18.05c-1.26.08-1.75-.95-2.53-1.54-3.32-2.53-10.68-10.16-13.48-13.52-.84-1.01-1.91-1.28-1.5-3h14c.33,2.23-1.87,3.07-3,4.5-1.25,1.57-.98,1.05.5,2.49l7.51-8.48c0-.69-1.62-.69-2.51-1.47-1.37-1.19-3.84-4.5-5-5.04s-2.02.34-1.49,1.49c.71,1.53,3.54,2.59,4,4.51h-14Z"/>
  <polygon class="st0" points="150 52 152.5 48.01 154.99 50.5 153 52.56 150 52"/>
</svg>