<?xml version="1.0" encoding="UTF-8"?>
<svg id="Laag_1" data-name="Laag 1" xmlns="http://www.w3.org/2000/svg" viewBox="0 0 225 225">
  <path d="M223,0l-.44,222.06-222.56.94V0h223ZM173,109h21.5l1.5-1.5v-53c0-.78,6.44-6.56,6.04-13.97-1.3-23.97-39.12-20.99-34.8,4.73.81,4.8,5.76,8.68,5.76,9.24v54.5ZM77,109v-55.5c0-1.42-2.93-10.5-3.8-12.2-8.91-17.49-38.37-15.49-47.02,1.38-.68,1.33-3.18,7.92-3.18,8.82v57.5h22v-52.5c0-.64,2.55-4.03,3.69-4.38,1.27-.62,5.31,1.66,5.31,2.38v53l1.5,1.5h21.5ZM120.79,29.3c-54.52,5.09-42.14,92.39,12.46,80.45,45.63-9.98,36.62-85.03-12.46-80.45ZM121.82,112.27c-30.84,1.38-46.45,37.67-30.65,63.05,10.96,17.6,36.26,23.86,53.55,11.91,33.36-23.06,17.52-76.76-22.91-74.96ZM45,167.5v-52l-1.5-1.5h-20.5v58.5c0,1.74,4.14,9.59,5.59,11.41,10.9,13.66,36.58,12.85,44.28-3.54.63-1.34,3.13-8.04,3.13-8.87v-57.5h-22v53.5c0,2.57-8.06,5.66-9,0ZM195,114h-22v53.5c0,.8-6.91,6.71-6.81,14.01.35,24.96,40.91,22.48,34.38-5.58-.82-3.53-5.57-7.93-5.57-8.43v-53.5Z"/>
  <path d="M122.79,52.22c22.69-2.23,24.6,38.96-2.23,34.72-16.76-2.65-16.92-32.84,2.23-34.72Z"/>
  <path d="M120.74,135.23c24.26-4.17,25.56,35.13,3.67,35.68-20.96.53-22.4-32.46-3.67-35.68Z"/>
</svg>