<?xml version="1.0" encoding="UTF-8"?>
<svg id="Laag_1" xmlns="http://www.w3.org/2000/svg" version="1.1" viewBox="0 0 767 260">
  <!-- Generator: Adobe Illustrator 29.5.1, SVG Export Plug-In . SVG Version: 2.1.0 Build 141)  -->
  <path d="M162.01,41c9.4-10.49,28.18-4.49,21.99,11,2.61-.03,4.71-2.14,7.43-1.99,8.99.49,12.49,9.26,6.57,15.99,5.29-.59,6.79-3.15,12.25-.75,7.67,3.38,8.61,10.99,2.75,16.75,4.14-.7,8.12-1.06,11.54,1.97s3.51,9.5.52,12.59c-1.19,1.23-3.11.93-3.05,2.44,9.62.27,15.14,9.05,10.05,17.56l-6.05,3.44c8.7.5,12.4,7.25,10.99,15.5-1.07,6.27-10.18,7.15-11,9.01,1.9.94,3.74.86,5.53,2.46,6.39,5.71,1.34,20.15-8.53,18.04-.31,2.38,2.29,3.31,3.46,5.04,5.73,8.47-3.45,17.65-12.46,15.96,6.49,8.74-2.82,17.32-12,14-.38,2.07,1.95,3.33,1.95,5.47-.03,8.24-7.49,13.1-15.27,11.34-2.29-.52-3.32-2.93-5.68-2.81,5.01,14.52-12.22,17.73-21,9-.42,11.22-15.19,15.27-20.88,5.38-1.05-1.82-.86-4.09-2.62-5.37-5.66,6.18-11.48,8.57-19.2,4.19-4.85-2.75-6.04-5.64-5.3-11.2-.75-.8-5.22,2.49-6.69,2.8-9.79,2.11-18.4-6.1-16.13-16.13.39-1.7,2.15-2.75,1.81-4.68-8.22,3.9-19.91-4-17.81-13.31.65-2.9,3.73-3.83,3.81-6.68-11.14-.87-14.74-10.42-6-18-5.76-.98-11.12-2.03-11.94-8.56-.66-5.24.35-9.08,5.3-11.42,1.15-.54.68-.96.64-2.02-11.17-2.28-10.02-17.41,1-19.01-2.06-3.75-6.68-3.59-7.06-8.46-.57-7.3,5.32-11.4,12.07-11.54-.57-1.84-2.74-2.13-4.03-3.47-8.76-9.15,2.19-20.35,13.03-17.53.31-3.23-2.43-3.93-2.01-7.45.89-7.46,11.87-12.72,18.01-7.55-.48-2.84-2.21-3.1-2.06-6.5.44-9.86,11.82-12.77,19.06-7.5-1.3-10.9,9.64-18.11,18.96-11.46,1.8,1.28,2.98,3.56,5.04,4.46.59-6.72,2.14-11.17,9.57-11.97,7.2-.77,12.78,3.79,13.44,10.97ZM148.71,35.14c-8.81,1.58-.62,14.7,5.35,7.43,3.04-3.71-1.83-8.06-5.35-7.43ZM129.79,41.2c-7.17-4.94-13.01,5.88-5.09,7.64,4.37.98,7.54-4.09,5.09-7.64ZM177.82,49.82c3.66-4.75-3.06-11.44-7.38-7.88-6.03,4.95,1.45,11.04,7.38,7.88ZM111.79,54.2c-1.9-1.93-8.18-2.41-7.8,2.25.7,8.45,12.27,2.31,7.8-2.25ZM142.75,53.25c-23,2.15-51.81,25.92-57.5,48.5-9.22,36.54,4.16,91.65,42.06,107.44,31.74,13.22,69.3-14.01,81.88-42.5,8.5-19.24,5.86-57.58-4.37-76.01-13.64-24.57-32.45-40.19-62.07-37.42ZM195.94,56.05c-9.64-4.73-9.86,7.93-2.59,5.82,2.24-.65,3.15-3.69,2.59-5.82ZM95.82,73.83c.9-1.99,1.18-5.89-1.45-6.7-10.28-3.14-9.19,12,1.45,6.7ZM203.21,76.79c2.49,2.49,6.96.41,8.66-2.27-2.5-8.88-13.85-2.91-8.66,2.27ZM80.82,84.18c-4.12-3.15-10.61,1.41-7.64,6.65,2.92,1.87,8.55,1.84,8.88-2.35.07-.88-.73-3.91-1.24-4.3ZM214.05,88.05c-1.96,4.56,5.32,8.27,7.5,5,3.56-5.32-3.57-7.73-7.5-5ZM221.66,105.16c-8.03,2.36,3.07,14.23,7.36,4.36-.7-4.11-3.32-5.55-7.36-4.36ZM69.65,106.12c-5.4,1.57-2.37,9.94,4.39,6.42,2.77-1.77.11-7.73-4.39-6.42ZM66.62,124.11c-3.88,1.2-3,8.18,2.04,8.73,6.45.7,5.79-11.15-2.04-8.73ZM225.69,127.18c-7.33,1.59-2.49,9.6,2.59,8.68,6.08-1.1,4.95-10.31-2.59-8.68ZM68.21,146.2c-4.66,9.79,12.19,8.38,8.31.78-1.5-2.94-5.82-2.24-8.31-.78ZM219.09,152.09c-.06,2.14-.97,7.07,1.52,7.79,4.28,1.24,10.29-2.11,7.43-6.42-2.3-3.47-5.54-2.75-8.94-1.37ZM80.79,165.21c-3.41-2.08-7.32-1.18-7.68,3.16l2.54,2.49h3.69l2.54-2.49-1.1-3.16ZM213.66,171.16c-6.17,1.8-.76,11.9,6.35,8.35,2.98-1.49,2.15-5.38.51-7.53-1.38-1.4-5.01-1.35-6.86-.82ZM90.79,183.21c-2.86-2.86-9.26-.37-7.64,5.14,1.93,6.55,12.86.08,7.64-5.14ZM203.62,187.13c-3.9,1.19-3,8.16,2.04,8.71,5.81.63,7.12-11.51-2.04-8.71ZM187.09,202.09c-.02,2.03-.82,6.27.88,7.43,6.38,4.36,12.83-2.33,7.04-8.04-2.58-1.29-5.43-.24-7.93.6ZM101.65,204.12l-3.22,3.83,1.05,3.08c1.57,1.57,4.61,1.26,6.57.52l1.67-3.05-3.35-4.37h-2.71ZM177.91,219.9c1.54-7.04-2.5-8.62-8.46-5.96-2.33,6.21,3.42,8.45,8.46,5.96ZM129.83,222.83c.27-.21,1.18-2.78,1.19-3.35-.56-4.12-6.84-4.84-8.53-1.5-2.67,5.29,4.93,6.73,7.35,4.85ZM149.67,220.1c-5.86,1.62-1.16,11.74,4.34,6.41,3.21-3.11-1.18-7.29-4.34-6.41Z"/>
  <path d="M682.78,61.2c6.01-.54,13.92,3.11,17.09,8.43,1.69,2.84,3.7,11.53,4.06,14.94,1.35,12.86,1.83,33.27-2.42,45.44-2.29,6.56-6.8,11.3-13.98,12.02-12.11,1.21-18.59-4.35-21.28-15.78-3.05-12.95-4.41-47.32,3.29-58.2,2.93-4.13,8.29-6.4,13.24-6.85ZM683.67,70.24c-3.71.22-6.12,3.47-7.2,6.73-2.52,7.58-2.15,31.76-1.51,40.58.33,4.64,1.37,11.94,5.68,14.31,6.47,3.56,10.82-1.41,12.15-7.57,2.25-10.47,2.04-33.07.16-43.74-.8-4.54-3.95-10.63-9.28-10.31Z"/>
  <path d="M589,141V62h14.5c.17,0,1.04.83,2.02.98,1.85.27,3.42-.1,5.52.48,4.98,1.36,10.21,8.28,11.99,13.01,4.5,11.93,4.89,45.97-2.58,56.49-1.59,2.24-5.33,5.14-7.91,6.09-.94.35-6.68,1.95-7.05,1.95h-16.5ZM599,132c9.76,1.05,14.84-5.53,15.93-14.57,1.15-9.49,1.07-20.41,0-29.86s-4.88-17.48-15.93-16.57v61Z"/>
  <path d="M547,62v62.5c0,.35,2.04,6.05,2.48,6.52,2.42,2.55,8.48,2.59,11.06.03.66-.65,2.45-4.05,2.45-4.55V62h10v65.5c0,.29-1.21,4.81-1.46,5.54-4.59,12.98-30.45,12.12-33.35-1.72-.23-1.09-1.19-6.46-1.19-6.81v-62.5h10Z"/>
  <path d="M399,106v35h-11V62h16.5c5.25,1.92,9.92,1.44,13.35,6.65,5.11,7.77,4.88,27.71-2.87,33.82-3.84,3.03-11.19,3.57-15.97,3.53ZM399,71v26c8.92,1.03,12.05-4.33,12.05-12.5s-3.17-14.27-12.05-13.5Z"/>
  <path d="M326,106v35h-10V62h15.5c.45,0,6.23,1.44,7.22,1.78,9.15,3.23,11.06,15.07,10.21,23.65-1.4,14.14-9.05,19.33-22.93,18.57ZM326,97c8.08.71,11.41-1.28,12.04-9.46.71-9.15-.86-17.76-12.04-16.54v26Z"/>
  <path d="M483,73c-.6.62-6.48-2.93-8.5-2.93-7.35,0-10.15,7.09-9.53,13.48.87,8.92,15.39,17.61,19.24,25.76,9.29,19.68-5.94,41.42-27.05,29.56l-.15-9.85c2.1-.14,3.06,1.73,4.97,2.52,9.03,3.72,16.12-2.61,14.98-11.97-1.47-11.96-20.25-20.29-21.9-33.11-2.37-18.41,9.69-30.85,27.51-22.51l.43,9.06Z"/>
  <polygon points="528 62 528 71 516 71 516 141 506 141 506 71 494 71 494 62 528 62"/>
  <rect x="360" y="62" width="10" height="79"/>
  <rect x="640" y="62" width="10" height="79"/>
  <rect x="295" y="167" width="430" height="1"/>
  <path d="M633,194l3.85.15,5.65,6.84c3.73-2.46,4.38-8.14,9.5-6.99v18h-3s0-12,0-12c-2.85-.92-5.68,6-6.5,5.99l-6.5-6.99v13s-3,0-3,0v-18Z"/>
  <path d="M563,212v-18c7.69-.58,18.08-.78,18.07,9.5,0,10.62-10.6,8.46-18.07,8.5ZM567,210c14.44,2.01,14.55-15.71,0-14v14Z"/>
  <path d="M403,194c4.74-1.29,6.16,7.03,9.5,7.01,1.84-2.88,4.56-7.36,8.5-7.01v18h-3s0-13,0-13l-6.99,7-4.51-7.01-.5,13.01h-3v-18Z"/>
  <path d="M531,194c8.78-.88,17.09.71,10.05,10.39l4.95,7.61-3.86-.15c-3.31-7.64-9.22-12.5-8.15.16h-3v-18ZM534,202l5.55-.95c1.56-3.55-.33-5.79-3.99-4.99l-1.1.9-.46,5.04Z"/>
  <path d="M616,212l-3.9-.09-1.7-3.96-7.78.17c-1.9.59-1.87,5.12-5.62,3.88l7.08-17.91c1.04-.16,2.34-.28,3.33,0,1.7.49,6.67,15.36,8.59,17.9ZM609,206l-2.5-8-3.48,6.51,5.97,1.49Z"/>
  <path d="M377.97,194.02c-.38,2.87,7.86,17.15,7.03,17.98-.72.72-3.09.03-3.79-1.74-.32-.82.2-2.15-.77-2.31l-9.34.15-1.04,3.33c-.11,1.01-2.94.69-3.05.58-.63-.63.53-2.82.81-3.69.56-1.76,5.03-12.68,5.67-13.33,1.28-1.33,2.73-1.06,4.49-.96ZM373,206l5.97-1.49-3.48-6.51c-.42-.19-3.34,6.57-2.5,8Z"/>
  <path d="M450,194v3s-6.42-.92-6.42-.92l-1.58,2.42c.87,2.94,12.17,4.47,8.52,11.53-2.19,4.23-12.37,3.89-11.52-2.03,2.86,2.21,9.75,3.8,9.01-1.49-12.07-4.08-13.11-14.52,1.99-12.5Z"/>
  <path d="M501,194h12c1.32,1.13.15,1.92-1.49,2-2.49.12-5.03-.09-7.52,0,.05.83-.09,1.69-.03,2.53.1,1.43.02,2.89,1.65,3.36,1.49.43,7.39-.46,7.39.62,0,2.55-1.55,1.44-3.5,1.5-1.32.04-5.37-.49-5.51.54v5.46c2.49.08,5.03-.13,7.52,0,1.64.08,2.81.87,1.49,2h-12s0-18,0-18Z"/>
  <polygon points="484 194 484 196 477 196 477 212 474 212 474 196 467 196 467 194 484 194"/>
  <path d="M344.09,200.09c.64-.46,4.04-.21,4.95.37,3.92,2.48-2.33,9.21-5.61,4.58-.79-1.11.22-4.64.65-4.95Z"/>
  <path d="M675.8,205.8c-2.06,1.37-3.56.95-5.72.13-2-10.61,10.43-4.83,5.72-.13Z"/>
  <path d="M152.11,94.1l-.11,7.9c7.62.04,20.1,3.52,23.51,10.99,1.76,3.85,1.32,10.44,2.95,13.05.48.77,1.19.92,2.04,1.02,1.78.21,3.06-.83,4.49-.57l-5.99,2.51c.5,4.25,3.92,7.06,5.99,10.5-4.35,1.97-4.24,6.75-6.24,10.75-5.05,10.07-10.3,10.88-20.78,13.22l-1.93,7.49,7.86,3.15c-1.69,8.51,7.66,8.47,11.15,13.35.6.84,2.99,6.36,2.87,6.91-9.07,9.43-27.67,13-40.34,11.56-8.23-.94-16.28-6.46-22.53-11.51-.65-2.79,12.72-14.45,13.97-17.88l-1.01-3.54,10.86-3.15c3.4-8.18-1.04-9.17-6.35-13.84-3.48,3.66-6.02,6.64-11.21,7.77-15.19,3.32-22.23-3.81-20.23-19.23.74-5.7,5.27-13.64,11.77-10.37l1.18,6.82c-1.84.21-.78-2.19-.98-3.51-.41-2.79-2.72-3.16-5.04-2-9.42,4.74-2.07,29.88,11.03,12.03,4-5.45,2.33-11.01,3.06-16.94.84-6.75,3.95-18.32,9.42-22.58,2.48-1.93,7.43-2.83,8.35-4.65,2.51-4.94,3.33-9.68-1.85-12.91-2.6-1.62-9.83,5.72-12.53,6.53-1.93.59-1.25-.44-1.52-1.39-.42-1.49-1.17-2.94-.92-4.54,7.85-3.09,18.46-8.06,23.43-15.08,2.09-2.97,2.41-6.61,4.5-9.5l12.04-1.46c-.15,1.98-1.09,3.34-1.09,5.5,0,2.01.89,3.49,1.02,5.07.67,8.18-2.2,16.53-10.83,18.54ZM154,74c7.52.42,2.88-8.63-.56-3l.56,3ZM143,103c6.05,1.12,8.94-3.29,6.05-8.55l-4.01-.4-2.05,8.95Z"/>
</svg>