<?xml version="1.0" encoding="UTF-8"?>
<svg id="Laag_1" xmlns="http://www.w3.org/2000/svg" version="1.1" viewBox="0 0 561 375">
  <!-- Generator: Adobe Illustrator 29.5.1, SVG Export Plug-In . SVG Version: 2.1.0 Build 141)  -->
  <path d="M172,144c-1.38-1.4-22.84,7.9-24.86,11.64l-.18,53.82c-2.51,11.27-16.41,11.27-18.92,0,1.1-17.06-1.62-36.17-.05-52.97,1.89-20.2,27.5-26.99,43.57-32.43.25-10.43,1.16-19.47,4.68-29.32,8.59-23.99,30.18-41.01,55.35-44.65,30.91,1.55,64.34-2.39,94.95-.14,31.92,2.34,58.55,29.87,61.5,61.5-2.06,31.08,2.6,65.36-.04,96.05-2.66,31.02-31.68,58.43-62.46,60.54-31.3-2.94-70.53,4.31-100.8-1.29-16.83-3.12-41.39-19.28-46.96-36.04-3.92-11.78,8.48-18.22,15.23-10.23,1.65,1.95,2.83,5.14,4.56,7.44,10.21,13.55,23.79,20.86,40.91,22.09,28.63,2.06,61.04-.61,89.77-1.26,22.74-4.38,38.11-21.75,41.67-44.33-1.46-28.62,2.23-59.62.13-87.96-1.98-26.71-21.14-45.81-47.53-48.47-27.15,1.45-56.14-1.87-83.06-.03-27.33,1.87-50.54,23.78-48.46,52.05,1.01,1.01,16.61-1.79,19.49-2.02,35.81-2.9,81.25-.9,115.53,10.5,20.11,6.69,42.82,25.31,19.47,44.51-20.41,16.79-71.02,21.15-96.97,22.03-21.03.71-55.24,2.74-69.34-15.69-2.11-2.75-7.17-12.8-7.17-15.83v-19.5ZM335.85,157.86c.47-.68.27-2.35,0-3.2-1.68-5.16-25.85-12.03-31.64-13.37-31.19-7.22-78.1-9.06-109.46-3.06-2.16.41-4.41.86-4.76,3.24-.72,5-.15,16.75,1.5,21.53,2.97,8.61,13.46,13.26,22.01,13.99,15.27,1.31,36.63.14,52.06-1.04,23.62-1.8,49.59-6.32,70.3-18.11Z"/>
  <path d="M394,315.5c.54-2.58,4.94-4.79,7.3-5.7,10.6-4.07,40.09-4.89,49.2,2.2s-2.74,14.03-10.5,14.01c-.19,1.42,2.64,1.83,3.56,1.93,2.77.29,5.57-.18,8.32.17l.97,3.25c-1.43,3.06-4.37,2.9-7.36,2.66-8.92-.7-16.11-4.95-23.03-5.98-2.88-.43-6.09.3-8.98-.02-4.05-.45-9-1.79-12.97-2.05-3.12-.2-.54,4.57-1.99,7.06-1.19,2.05-4.53.49-4.53-.53v-17ZM447,316.01c-12.22-4.6-32.83-6.33-44.71-.22-2.06,1.06-2.64,1.68-2.29,4.2,2.8.5,5.79,1.55,8.59,1.92,9.62,1.26,24.58.99,33.86-1.95.64-.2,6.39-2.52,4.54-3.95Z"/>
  <path d="M133.75,307.25c7.88-1.08,21.62-.72,29.28,1.22,9.13,2.32,19.56,7.82,11.93,18.04l3,4.88-2.58,2.54c-4.19-2.66-6.54-3.58-11.66-2.71-13.4,2.27-21.78,4.4-35.72.28-22.96-6.77-13.39-21.63,5.76-24.26ZM162,327c.51-.49-3.53-8.93,3.34-6.86,2.36.71,3.8,6.23,6.62-.54-.77-3.62-17.73-7.34-21.45-7.61-7.31-.52-19.08,1.22-25.79,4.24-5.61,2.52-6.38,4.84-.44,7.99,10.72,5.68,26.1,3.72,37.71,2.78Z"/>
  <path d="M382.69,314.31c7.84,7.82-3.42,15.34-10.44,17.43-9.5,2.83-32.71,3.32-42.78,2.28-3.12-.32-5.55-1.47-6.27-4.73s-.68-18.29.89-20.7c.41-.63.75-1.24,1.55-1.45,4.27-.48,8.6.12,12.87-.13,11.22-.65,24.59-1.36,35.48,2.49,1.92.68,7.39,3.5,8.7,4.81ZM332.71,312.21c-5.93,1.28-3.95,10.23-3.27,14.85l1.19.81c13.43-.73,30.49,2.47,43.08-2.67,2.02-.82,5.11-2.34,5.35-4.72.19-1.31-.1-2.08-1.05-2.99-2.1-2.03-15.19-5.05-18.6-5.39-5.43-.55-21.86-.93-26.7.11Z"/>
  <path d="M483.78,307.28c10.41-1.09,22.69-.82,32.49,2.95,4.34,1.67,8.48,3.5,9.55,8.49,1.37,6.39-4.83,9.81-9.83,11.77-10.33,4.05-23.59,4.36-34.39,2.4-27.59-5-23.32-22.94,2.17-25.62ZM488.78,312.28c-3.29.34-17.79,3.39-19.32,5.68-2.68,4.01,3.25,6.71,6.31,7.78,9.33,3.27,30.69,3.66,39.52-.95,1.85-.97,3.32-2.82,4.66-4.4.75-3.37-10.38-6.37-12.9-6.93-6.16-1.36-11.96-1.83-18.27-1.18Z"/>
  <path d="M40,326c.19,3.28.56,7.19-3.4,7.96-3.55-.76-3.01-13.28-2.65-16.51.33-2.96,2.73-5.28,5.34-6.66,10.24-5.42,35.86-5.08,46.71-1.28,6.29,2.2,12.15,7.68,4.95,12.94-7.33,5.35-26.45,6.15-35.49,5.61-4.95-.3-10.43-1.8-15.45-2.05ZM88,316.01c-5.48-.79-11.08-3.36-16.6-3.91-7.88-.79-22.07.11-29.12,3.69-2.06,1.05-2.64,1.7-2.28,4.21,14.98,3.19,32.24,3.63,46.73-1.77,1.25-.47,2.72-1.25,1.28-2.21Z"/>
  <path d="M275.72,307.22c12.53-2.09,28.08,8.47,35.8,17.76,2.53,3.04,6.57,8.68.12,8.89-3.83-2.14-4.54-7.29-9.21-7.86-4.33-.53-11.12,2.58-15.92,3-5.9.51-14.04.21-19.75-1.27-2.5-.65-5.58-3.03-8.24-2.78-3.11.28-8.67,9.49-10.91,9-1.73-.38-3.13-3.06-2.14-4.96.64-1.23,10.74-11.04,12.51-12.51,4.36-3.63,12.17-8.33,17.74-9.26ZM297,320.99c-1.41-2.47-4.76-4.99-7.31-6.18-9.76-4.59-17.61-1.7-25.69,4.7-.44,2.18.9,1.3,2.23,1.74,11.28,3.72,19.48,2.75,30.76-.25Z"/>
  <path d="M190.93,307.07c3.04,2.05-2.19,13.62,4.36,17.14,8.59,4.6,21.49,4.71,30.74,2.32,12.16-3.13,9.86-6.3,10.1-17.9,2.19-2.83,4.96-2.67,5.62,1.09,1.65,9.49.14,16.4-8.71,20.82-10.49,5.24-32.2,4.84-41.99-2.09-7.65-5.42-4.66-11.47-4.92-19.82.31-1.69,3.82-2.22,4.8-1.56Z"/>
  <polygon points="102.02 307.01 106.56 307.94 107.53 329.51 105.48 333.98 102.47 333.03 102.02 307.01"/>
</svg>