<?xml version="1.0" encoding="UTF-8"?>
<svg id="Laag_1" xmlns="http://www.w3.org/2000/svg" version="1.1" viewBox="0 0 525 200.25">
  <!-- Generator: Adobe Illustrator 29.5.1, SVG Export Plug-In . SVG Version: 2.1.0 Build 141)  -->
  <path d="M224.25,107.6h-43.88c-.86,0-1.48,2.42-1.1,3.34.47.77.92,1.05,1.83,1.17,2.16.29,5.95.09,8.26-.04,8.6-.47,17.53-1.24,26.3-.76,2.6.14,5.62,1.43,8.59.78-.24,1.78.77,10.46-1.13,10.46h-42.75c-1.41,0-1.41,3.74,0,3.74h42.75c1.47,0,1.35,7.1,1.15,8.62-.12.88-.37,1.41-1.21,1.78l-42.72.1c-5.16-.46-8.8-3.06-11-7.72-1.88-3.99-1.79-14.93-1.37-19.62.72-7.94,6.45-11.48,13.87-12.33l41.22.1.84.65.34,9.74Z"/>
  <path d="M423,107.6h-45v4.48h43.88c.46,0,1.06,1.19,1.15,1.85.21,1.52.32,8.62-1.15,8.62h-43.88v3.74h44.25c-.67,1.72,2.12,10.46-.38,10.46h-45c-.56,0-4.08-2.07-4.84-2.65-2.02-1.53-4.94-5.7-5.28-8.19-.49-3.55-.45-15.05.14-18.53,1.07-6.28,7.83-9.79,13.7-10.26l41.22.1.84.65.34,9.74Z"/>
  <path d="M495.38,97.14c.86.12,4.01,1.32,4.86,1.89,1.48.99,4.66,4.42,5.13,6.09.23.81.86,3.66.91,4.38.14,1.84-1.56,4.66-1.58,6.68s1.33,2.88,1.56,4.49c.68,4.87-.5,11.04,0,16.07-1.79-.24-10.5.77-10.5-1.12v-12.7c0-1.99-3.81-.39-4.84-.34-9.71.52-19.9-.45-29.66-.03v13.08c0,.46-1.19,1.05-1.85,1.14-1.61.22-5.93.22-7.55,0-.66-.09-1.85-.68-1.85-1.14v-37.36c0-.08,1.05-1.12,1.12-1.12h44.25ZM493.88,107.6h-32.62v3.74c9.76.41,19.94-.54,29.66-.04,1.1.06,2.49.88,2.93.77,1.63-.4,1.59-4.07.04-4.48Z"/>
  <path d="M49.12,97.14c1.32.19,4.59,1.6,5.9,2.34,3.19,1.8,5.4,4.7,5.76,8.46.45,4.75-.48,9.1-4.55,11.97-.68.48-5.24,2.63-5.61,2.63H14.62c-.08,0-1.12,1.04-1.12,1.12v11.96c0,1.89-8.71.88-10.5,1.12v-39.6h46.12ZM13.5,112.08h35.62c1.49,0,1.49-4.48,0-4.48H14.62c-1.2,0-1.3,3.37-1.12,4.48Z"/>
  <path d="M303.75,97.14c.13.86-.05,1.49-.33,2.29-1.13,3.2-4.35,7.32-6.01,10.45-3.17,5.96-6.02,12.32-9.52,18.16s-5.29,10.22-13.04,9.48c-3.43-.32-4.78-2.72-7.11-4.87-7-11.01-12.41-22.98-18.73-34.39.57-.7.9-1.01,1.85-1.14,1.46-.2,9.4-.17,10.18.36l15.34,28.05c.44,0,3.89-6.46,4.47-7.5,3.04-5.57,6.1-13.07,9.51-18.17.7-1.05,1.65-1.83,2.52-2.72h10.88Z"/>
  <path d="M98.25,126.28h43.88c1.47,0,1.35,7.1,1.15,8.62-.12.88-.37,1.41-1.21,1.78l-43.47.09c-5.93-.58-10.92-5.81-11.58-11.63-.92-8.18.66-17.8-.04-26.16-.02-.6.25-1.18.74-1.5.81-.54,7.26-.56,8.68-.37.66.09,1.85.68,1.85,1.14v28.02Z"/>
  <polygon points="329.25 136.74 329.25 97.14 338.56 97.2 339.41 97.85 339.69 135.55 339.03 136.39 329.25 136.74"/>
  <path d="M266.78,38.27c3.87-.44,5.21.45,6.81,4.1,2.98,6.82.71,14.74-5.57,18.79-7.37,4.76-19.56,4.09-26.79-.75-2.67-1.79-8.03-7.36-5.36-10.37,1.17-1.33,12.18-6.16,14.61-7.11,4.73-1.86,11.29-4.1,16.31-4.67ZM237.1,50.9c-1.05,1.82-.2,2.75,1.06,4.36,1.44,1.85,4.45,4.43,6.56,5.42,1.12.53,2.12.4,3.02.72.85.3,1.18,1.2,2.37,1.37,4.74.7,12.25.08,16.42-2.36,1.66-.97,6.22-5.94,6.49-7.73.61-4.18.2-13.72-5.62-13.09-2.47.27-4.82,1.54-6.9,2.11-3.28.89-6.82,1.43-10.03,2.71-4.46,1.79-8.73,4.95-13.37,6.47Z"/>
  <rect x="158.25" y="87.42" width="194.25" height=".75"/>
  <path d="M512.75,89.79c6.96-1.49,10.2,2.62,9.27,9.23-.15,1.05-2.08,3.15-3.02,3.71-5.9,3.52-12.95-2.8-10.34-8.81.71-1.62,2.3-3.75,4.09-4.14ZM515.25,91.9c.99.11,2.89.69,3.41,1.46,1.13,1.65-.39,2.94-.43,4.15-.07,2.28,3.11,2.85,3.06-.77-.04-3-1.64-3.9-4.04-4.97-.7-.31-2.01-1.47-2,.13ZM514.5,97.14c.33,1.78-.36,5.07-2.22,2.58l-.41-7.06c-3.11,3.21-2.33,6.17,1.14,8.57,2.27,1.58,2.74.6,5.23.39l-3.75-4.48ZM516.75,95.64c.21-1.47-.87-2.47-2.25-2.24v2.24s2.25,0,2.25,0Z"/>
  <path d="M301.5,43.34c1.01.85.11,1.43-1.12,1.49-1.86.09-6.81-.44-7.92.33-.37.26-2.14,3.16-2.23,3.76-.95,6.52,1.47,9.62-3.39,16.05-4.15,5.49-12.67,11.74-19.84,11.24.5,1.43,1.31,3.4,1.51,4.85s-.31,1.2-1.51,1.13l-2.25-7.47c9.02.58,17.8-5.78,22.4-13.18,2.77-4.46,1.03-7.94,1.61-12.59.82-6.54,7.55-5.71,12.74-5.62Z"/>
  <path d="M259.5,75.47c.3,2.34-.18,4.04-.94,6.17-.46,1.28-.23,2.47-2.06,2.05l.75-6.72c-3.03-.22-6.38.32-9.36-.02-7.17-.8-21.07-10.6-25.89-16.05-.74-.84-1.8-1.23-1.5-2.61.92-.92,4.77,3.8,5.61,4.5,6.69,5.53,18.24,13.43,27.01,13.43,1.5,0,4.25-1.46,6.38-.74Z"/>
  <path d="M302.25,41.84l-6.79-4.07c-1.35-1.31-.24-3.27-1.07-4.91-.2-.4-2.86-2.95-3.42-3.32-5.64-3.84-14.31,2.14-18.36,6.33-1.34-1.48,1.03-3.51,2.24-4.5,4.66-3.83,15.48-6.16,19.49-.71,1.5,2.04,1.52,4.91,2.23,5.99.43.64,7.14,3.71,5.66,5.19Z"/>
  <path d="M231.75,50.81c.97.81.13,1.45-1.12,1.5s-2.34-.08-3.61.14c-2.41.43-3.89,2.65-6.52,2.09.89-2.52,10.02-4.77,11.25-3.73Z"/>
</svg>