<?xml version="1.0" encoding="UTF-8"?>
<svg id="Laag_1" xmlns="http://www.w3.org/2000/svg" version="1.1" viewBox="0 0 1280 648">
  <!-- Generator: Adobe Illustrator 29.5.1, SVG Export Plug-In . SVG Version: 2.1.0 Build 141)  -->
  <path d="M19,237v-10s123.54-.04,123.54-.04c57.76.98,106.77,21.02,110.45,85.55,3.11,54.45-35.04,96.82-89.49,99.52-1.63.08-2.92.84-1.5,1.97,24.16,2.05,49.11,11.67,64.98,30.53,33.67,40.03,13.77,100.42,25.72,147.28,4.48,17.56,16.73,20.36,29.8,8.22,7.4,8.91-.11,12.87-7.58,17.4-20.63,12.52-52.43,15.49-69.44-4.41-32.33-37.81-7.81-121.95-28.63-168.37-9.19-20.49-25.57-23.63-46.36-24.64-4.24-.21-13.27-.68-17,0-.83.15-2.5.8-2.5,1.5v186.5h33v10H19v-10h32V238.5l-1.5-1.5h-30.5ZM111,410h25.5c8.33,0,24.19-5.87,30.83-11.17,23.21-18.52,20.86-68.64,19.67-95.33-1.17-26.21.02-62.47-34.51-65.49-10.17-.89-28.36-2.19-38.04-1.06-1.01.12-3.45.45-3.45,1.55v171.5Z"/>
  <path d="M936,490c1.33-.52,2.56-1.92,3.52-2.98,18.79-20.81,43.69-47.07,59.3-69.7,15.33-22.23,14.71-30.08-15.82-29.31v-10h84v10c-23.67-1.3-37.95,14.23-53.03,29.47l-27.65,30,71.67,164.53h22.5c2.2,0,2.2,11,0,11h-106c-2.2,0-2.2-11,0-11h21.5l-49.01-120-10.99,10.5v109.5h18.5c2.2,0,2.2,11,0,11h-98c-2.2,0-2.2-11,0-11h25.5V242h-27v-10s33.54.05,33.54.05c15.24-2.18,33.54.86,44.47-12.53,1.3-1.6,1.34-4.1,2.99-4.51v275Z"/>
  <path d="M380.77,372.27c115.92-13.11,137.18,195.69,48.53,246.53-19.38,11.12-42.36,13.73-63.58,5.97-95.91-35.07-86.01-241.07,15.05-252.5ZM372.34,389.34c-7.38,7.77-11.58,24.64-12.34,35.16-3.56,49.14,2.65,102.42,0,151.99,1.07,52.04,56.6,59.8,61.87,4.88-.4-49.58,4.39-103.54,1.13-152.87-1.03-15.62-6.39-42.79-24.95-46.05-9.58-1.68-18.85-.32-25.71,6.89Z"/>
  <path d="M1171,612h26v11h-107v-11h27V242h-27v-10s32.54.05,32.54.05c12.89-2.15,28.29.52,39.79-7.21,3.74-2.51,5.25-6.27,8.66-8.84v396Z"/>
  <path d="M669,488h-107c1.38,28.49-2.78,59.18,2.29,87.21,4.25,23.52,16.16,44.77,43.76,40.34,35.05-5.63,50.1-53.41,55.04-83.46l6.91-.09c-6.13,40.79-25.07,93.77-73.45,97.04-85.82,5.79-103.57-112.4-87.26-175.26,11.03-42.5,51.51-102.31,103.1-76.66,36.11,17.96,56.64,72.49,56.62,110.88ZM610,478v-64.5c0-5.86-4.31-19.17-8.02-23.98-8.42-10.9-24.36-10.5-32,.96-3.28,4.92-7.98,18.4-7.98,24.02v63.5h48Z"/>
  <path d="M853,543c-3.22,52.58-40.82,101.52-98.51,82.01-55.04-18.61-74.11-92.44-67.35-144.39,6.91-53.17,52.25-124.27,114.63-105.89,33.7,9.93,54.53,43.58,44.76,78.29-7.35,26.11-38.97,30.96-48.56,3.52-4.65-13.3-4.45-29.09,2.62-41.46,4.5-7.87,13.39-12.62,6.88-23.04-6.94-11.13-29.67-12.52-40.46-7.54-20.49,9.45-20.95,42.77-22,62-1.82,33.35-1.68,67.66,0,101,1.14,22.56,1.63,67.93,31.6,71.4,40.72,4.71,66.78-39.58,68.83-74.96l7.56-.93Z"/>
  <path d="M593,94v250h-17V118c-5.74,2.58-9.81,9.69-12.18,15.32-2.14,5.07-4.82,15.06-4.82,20.18v69.5h-16v-78.5c0-3.19,4.25-15.67,5.83-19.17,8.11-18.05,24.62-29.28,44.17-31.33Z"/>
  <rect x="383" y="18" width="15.5" height="327"/>
  <path d="M416,179V18h15.5c.83,0,1.78,2.42,1.55,3.45v154.1c.23,1.03-.73,3.45-1.55,3.45h-15.5Z"/>
  <rect x="450" y="18" width="17" height="160"/>
  <polygon points="532 178 515 178 515 18 530.5 18 532 19.5 532 178"/>
  <rect x="483" y="18" width="16" height="160"/>
  <path d="M1230.76,573.26c36.84-5.33,40.58,47.51,7.63,50.64-33.5,3.18-37.86-46.27-7.63-50.64ZM1232.76,577.26c-19.6,2.66-24.79,30.64-7.08,39.56s34.36-5.91,30.05-24.05c-2.45-10.3-12.5-16.93-22.97-15.51Z"/>
  <path d="M1239.5,584c8.96,1.53,7.56,11.97.56,15.5,3.36,3.66,5.27,8.8,9.93,11-7.79,6.67-10.87-9.57-16.49-10.51-2.3-.39-1.38,1-1.51,2.5s-.31,4.62.12,5.9c.85,2.52,4.71.24,3.88,3.62h-11.99c-1.1-2.64,3-2.4,3-3.5v-22.5h-3s0-2,0-2c4.75.56,10.99-.77,15.5,0ZM1238.77,596.77c3.06-6.7,1.41-12.13-6.77-10.77v12.01s6.77-1.24,6.77-1.24Z"/>
</svg>