<?xml version="1.0" encoding="UTF-8"?>
<svg id="Laag_1" xmlns="http://www.w3.org/2000/svg" version="1.1" viewBox="0 0 319 80">
  <!-- Generator: Adobe Illustrator 29.5.1, SVG Export Plug-In . SVG Version: 2.1.0 Build 141)  -->
  <path d="M126,58h-6v-21.5c0-3.37-10.74-2.49-13-2.5v24h-6v-24c-3.31.13-13-1.4-13,3.5v20.5h-6v-21.5c0-3.56,5.76-8.14,9.47-8.53,5.24-.55,22.04-.73,26.81.24,2.75.56,7.72,4.67,7.72,7.28v22.5Z"/>
  <path d="M44,23v6h-21.5c-1.21,0-2.28,2.85-.51,4.52,2.08,1.96,16.21,4.59,20.29,6.71,5.97,3.1,6.55,11.85,1.25,15.8-.57.43-3.7,1.98-4.02,1.98H15v-6h23.5c1.35,0,3.82-3.71,1.04-6.05-6.58-5.54-28.9-3-24.09-18.01.49-1.53,3.74-4.94,5.05-4.94h23.5Z"/>
  <path d="M78,58h-20.5c-3.21,0-7.53-6.03-7.55-9.48-.02-3.07,3.56-9.52,6.55-9.52h15.5l-.14-3.85c-.79-.06-2.05-1.15-2.36-1.15h-16.5v-6h17.5c1.92,0,7.5,4.67,7.5,6.5v23.5ZM72,45c-3.44.43-17.52-2.09-15.91,4.33,1.14,4.53,12.08,2.09,15.91,2.68v-7.01Z"/>
  <path d="M277.5,58c-3.27-.56-6.94-4.12-7.45-7.55s-.53-15.02,1.07-17.83c3.66-6.43,20.11-6.41,24.36-.6,2.66,3.64,1.17,8.75,1.53,12.98l-21.01,1c-.73,1.61,1.14,6,2.5,6h15.5v6c-5.03-.6-11.72.82-16.5,0ZM291,40c2.06-8.66-17-8.74-15,0h15Z"/>
  <path d="M154,28v6h-16.5c-.68,0-2.55,2.37-.51,3.51,5.81,3.24,20.04,2.3,20.1,11.99.02,2.93-2.6,8.51-5.59,8.51h-21.5v-6h19.5l1.01-.99.49-3c-6.99-2.83-25.3-4.16-20.24-15.76.55-1.25,3.7-4.25,4.74-4.25h18.5Z"/>
  <path d="M230,58v-20.5c0-4.98-13.54-3.83-17-2.5v21.5c-1.4,2.05-3.75,1.52-6,1.5v-23.5c0-3.33,6.41-6.18,9.49-6.51,8.27-.87,18.07-.56,19.43,9.59.35,2.59.44,18.29-.36,19.48-.96,1.44-3.9.88-5.56.94Z"/>
  <path d="M249,23h6s0,5,0,5h9.01s0,6,0,6h-9s0,14.5,0,14.5c0,4.67,8.82,3.5,12,3.5v6.01c-6.32-.03-11.9,1.33-16.01-4.5-.45-.64-1.99-3.64-1.99-4.01v-26.5Z"/>
  <path d="M193,27.99c-10.13-1.41-18.43,6.9-17,17-3.48.67-6.74-4.08-7.53-6.96-4.3-15.73,16.65-24.1,24.53-10.04Z"/>
  <path d="M170,58.01c10.13,1.41,18.43-6.9,17-17,3.48-.67,6.74,4.08,7.53,6.96,4.3,15.73-16.65,24.1-24.53,10.04Z"/>
  <path d="M197.01,54c.61-10.13-7.9-18.03-18.01-17.01,2.92-7.66,12.91-9.04,19.33-4.83,8.17,5.36,7.43,17.75-1.33,21.83Z"/>
  <path d="M184,49.01c-3.22,8.55-15.6,9.33-21.55,3.04s-4.13-16.58,3.54-20.05c-.61,10.13,7.9,18.03,18.01,17.01Z"/>
  <path d="M245,28v30l-5.06-.44c-1-.66-.9-1.94-.99-3.01-.3-3.72-.6-22.52.18-24.91s3.93-1.59,5.87-1.63Z"/>
  <path d="M297.69,23.18c7.47-2.24,7.48,8.88,0,6.65-3.49-1.04-3.5-5.6,0-6.65ZM298.25,27.78c-.66-.86.3-2.58-.75-2.78l-1.49,1.5,3.98,2.49v-.98c-.53.07-1.44.15-1.74-.23ZM299.5,25v1c.65-.33.65-.67,0-1ZM301.99,28v-2.99h-.98v2.99h.98Z"/>
</svg>