<?xml version="1.0" encoding="UTF-8"?>
<svg id="Laag_1" xmlns="http://www.w3.org/2000/svg" version="1.1" viewBox="0 0 807.12 133.68">
  <!-- Generator: Adobe Illustrator 29.5.1, SVG Export Plug-In . SVG Version: 2.1.0 Build 141)  -->
  <path d="M807.12,62.53c.2,3.12.22,7.67,0,10.78-1.98,28.52-26.31,48.44-52.78,54.51-6.62,1.52-12.57,2-19.32,2.27-22.07.87-44.35-.16-66.47.26l-.83-.37V3.95l.83-.37c21.39.48,42.98-.7,64.31.26,35.85,1.61,71.74,18.71,74.26,58.69ZM711.63,103.49c7.64-.27,15.57.56,23.13-.51,8.08-1.14,15.58-4.18,20.78-10.64,14.62-18.17,9.9-50.89-13.13-59.71-9.86-3.78-20.4-2.83-30.77-2.93v73.79Z"/>
  <path d="M76.54,0c19.2.81,41.02,7.11,53.26,22.88,4.57,5.88,7.76,13.03,8.64,20.48h-42.47c-.43-3.13-1.13-6.18-3.23-8.63-3.93-4.58-12.07-5.3-17.75-5.52-7.53-.29-19.92.1-26.03,4.94-4.39,3.48-4.13,9.79.62,12.76,6.83,4.27,23.03,4.87,31.37,6.05,23.9,3.37,62.08,11.62,58.93,43.23-2.9,29.07-29.01,35.19-53.87,36.53-17.79.96-35.57.56-52.55-5.5S.21,108.77.24,89.84c4.6.05,9.21-.06,13.81-.01.58,0,1.08.26,1.66.26,9.43.1,18.86-.09,28.29-.02,3.29,7.57,9.48,11.8,17.42,13.55,8.22,1.81,27.02,2.04,33.91-3.28,4.49-3.47,5.82-10.73,1.37-14.7-6.99-6.22-27.46-7.09-36.81-8.28-16.73-2.13-38.44-8.48-48.95-22.52-7.38-9.86-7.58-21.78-.57-31.92C21.4,6.93,44.71.82,63.1,0c4.21-.19,9.23-.18,13.44,0Z"/>
  <path d="M358.21,0c27.85,1.51,51.81,15.95,59.44,43.79.14.49.39,1.27.45,1.72.03.25-.15.49-.26.49h-42.23c-.74-1.46-1.27-2.88-2.18-4.29-6.71-10.42-22.01-13.36-33.46-10.68-18.93,4.43-20.45,23.77-19.43,40.01.97,15.36,5.05,28.77,22.22,31.48,11.4,1.8,24.44.28,30.61-10.59.87-1.53,1.37-3.23,2.24-4.72h42.23l.32.55c-1.76,8.16-4.73,16.16-9.7,22.91-15.63,21.23-44.23,23.88-68.59,22.3-34.72-2.26-58.31-20.53-62.72-55.96-2.26-18.1-.17-39.61,11.5-54.36,12.27-15.51,32.99-21.69,52.06-22.64,5.32-.27,12.2-.29,17.51,0Z"/>
  <path d="M576.55,130.33h-50.5l-24.35-50.07h-21.83v50.07h-43.67V3.59h84.35c19.18.16,46.69,5.97,51.38,27.98,1.51,7.06,1.25,17.07-1.8,23.69-3.51,7.61-13.34,14.84-20.83,18.25-.51.23-3.69,1.35-3.68,1.59l30.95,55.22ZM479.86,54.38h33.96c5.16-.42,10.97-.81,13.99-5.67,2.22-3.58,2.11-10.62-.56-13.98-3.8-4.79-11.79-4.4-17.27-5.04h-30.12v24.69Z"/>
  <polygon points="265.6 3.59 265.6 29.71 200.1 29.71 200.1 54.38 256.24 54.38 256.24 80.26 200.1 80.26 200.1 103.73 265.6 103.73 265.6 130.33 156.55 130.33 156.19 129.97 156.19 3.95 156.55 3.59 265.6 3.59"/>
  <polygon points="640.61 3.59 640.61 130.33 594.66 130.33 594.3 129.97 594.3 3.95 594.66 3.59 640.61 3.59"/>
</svg>