<?xml version="1.0" encoding="UTF-8"?>
<svg id="Laag_1" xmlns="http://www.w3.org/2000/svg" version="1.1" viewBox="0 0 877 325">
  <!-- Generator: Adobe Illustrator 29.5.1, SVG Export Plug-In . SVG Version: 2.1.0 Build 141)  -->
  <path d="M670.5,86h98l23.05,40.95c.99,3.08.96,4-2.07,5.04-2.65.91-8.97,1.82-11.94,2.05-1.6.13-4.49.24-5.89-.18s-8.55-6.78-10.71-8.29c-1.71-1.19-6.67-5.01-8.36-4.53-6.49,11.09-13.65,21.86-20.03,33-.68,1.19-.4,2.74-1.07,3.93-3.7,6.49-7.88,12.82-11.91,19.09-2.29,2.22-5.24-.16-7.09-2.03l-.5-1.51,34.04-56.99c-13.62-8.39-29.33-14.1-44.76-18.27-5.22-1.41-10.69-2.86-15.95-4.05-3.55-.8-15.1-1.13-16.19-4.81l1.4-3.4Z"/>
  <path d="M242,134c2.35,16.1,21.43,21.45,33.96,12.46,3.77-2.7,4.2-6.99,10.1-5.02,2.04.68,7.07,5.36,6.51,7.6-1,1.68-1.57,3.6-3.04,4.99-32.06,30.37-78.56-5.18-59.97-44.97,14.8-31.68,61.23-23.92,64.47,11.4.23,2.46.65,13.53-2.53,13.53h-49.5ZM278,120c-2.49-22.77-32.44-21.69-36,0h36Z"/>
  <path d="M516.5,105c-1.34-.28-3.31-1.97-3.52-3.48-.32-2.25-.61-9.77,1.63-10.42l58.41.38,1.83,2.17-.34,7.37-40.52,48.48,9.56.45c6.21.16,26.85-3,30.47.53,1.34,1.31,1.45,8.95.86,10.9-.41,1.37-2.97,2.39-4.4,2.54-6.67.69-18.08-.52-25.44-.48-8.42.05-17.06,1-25.59.6s-9.43-1.32-8.31-10.39l40.85-48.65h-35.5Z"/>
  <path d="M370,92.5c.59-2.25,12.58-2.1,13.55-.54l.95,3.03c18.57-12.67,44.7-4.67,48.45,18.55l-.4,48.49c-1.79,2.67-10.5,1.59-13.11.01-1.35-1.93-.08-34.69-.43-40.61-.45-7.52-2.36-14.11-9.99-16.96-13.25-4.95-23.84,4.8-25.05,17.98-.57,6.27,1.19,37.19-.42,39.58-1.7,2.53-11.61,2.17-13.55-.55v-69Z"/>
  <path d="M141.78,108.77l-4.24,1.26c-6.37-3.89-21.71-10.04-27.58-3.57-4.74,5.23-.81,7.93,4.03,10.04,8.65,3.76,18.87,3.99,26.51,10.49,11.34,9.65,7.78,27.54-4.81,34.2-11.21,5.92-24.25,4.3-35.39-.99-3.2-1.52-10.75-5.89-10.36-9.69.12-1.19,5.37-7.98,6.7-8.39,3.07-.95,7.74,3.68,10.65,5.1,6.92,3.36,21.15,5.93,24.73-2.7,1.11-5.36-3.61-7.59-7.74-9.29-7.83-3.22-16.77-3.72-23.78-9.22-8-6.27-9.57-14.95-5.03-24.04,8.34-16.69,33.3-14.94,46.89-5.82,6.7,4.5,2.09,7.1-.57,12.63Z"/>
  <path d="M620.71,72.21c11.78-2.12,19.98,6.66,18.27,18.27-1.09,7.37-10.32,12.49-17.28,11.31-16.03-2.74-16.53-26.78-.99-29.57ZM622.68,78.17c-10.82,2.36-8.67,19.59,4.64,16.65,9.56-2.11,5.93-18.95-4.64-16.65Z"/>
  <path d="M266,235v-3.01s3.03.48,3.03.48c.74.51.89,1.15,1,2,.47,3.47.33,11.43,0,15.06-.83,9.33-6.43,12.61-15.49,11.42-2.85-.37-9.02-2.76-5.05-5.95,6.88,5.08,16.85,4.03,16.5-6.01-7.85,7.86-20.34,2.7-18.95-8.46,1.19-9.61,12.46-11.43,18.95-5.54ZM255.68,235.19c-5.36,1.19-6.16,8.65-2.67,12.3,2.44,1.79,5.42,1.83,8.35,1.36l4.51-4.49c1.04-6.27-4.04-10.53-10.18-9.17Z"/>
  <path d="M520,232h3s0,3,0,3c4.55-4.54,9.78-4.54,14.5-.16,2.92-3.25,9.36-4.04,12.88-1.72,4.06,2.67,4.04,12.9,3.66,17.43-.27,3.18-3.19,5.91-3.98,2.89-1.7-6.51,4.08-22.64-9.88-17.25-3.39,3.4,1.68,15.59-3.68,18.81-1.93-1.28-1.42-2.6-1.51-4.48-.24-4.64,1.25-19.69-8.01-15.03-6.4,3.23-2.46,15.73-3.47,17.51s-3.51,2.35-3.51.5v-21.5Z"/>
  <path d="M622,232h3s0,3,0,3c4.55-4.54,9.78-4.54,14.5-.16,1.66-1.53,5.64-3.82,7.83-3.63s7.67,2.94,7.67,5.29v17c0,.11-1.47,2.02-2,1-1.98-1.3-.65-9.88-1.04-12.96-1.2-9.45-10.84-8.56-11.92,0-.28,2.2.89,13.45-1.54,13.45-1.93-1.28-1.42-2.6-1.51-4.48-.23-4.42,1.3-11.55-2.43-14.57-4.72-3.82-8.96,2.27-9.52,6.6-.38,2.96.91,10.68-1.04,11.96-.53,1.02-2-.89-2-1v-21.5Z"/>
  <path d="M673,223v12c2.33.35,2.8-2.02,4.7-2.79,5.69-2.32,12.14.75,13.85,6.75,3.56,12.55-8.96,21.42-18.54,12.04l-1.5,3.99c-3.78-3.09-1.4-7.35-1.45-11.49-.09-6.85-1.42-13.66-.04-20.5h2.99ZM678.68,235.18c-1.15.26-2.26,1.1-3.22,1.77-5.54,7.05-.5,16.62,8.9,13.9,1.4-.41,3.15-3.1,3.46-4.53,1.44-6.52-1.99-12.75-9.14-11.14Z"/>
  <path d="M83,223l3.02.48.98,10.52c8.11-5.03,15.14-2.51,16.03,7.47.22,2.42.7,13.37-2.53,13.53-1.93-1.28-1.42-2.6-1.51-4.48-.3-5.82,1.76-18.38-8.34-15.36-.7.21-3.64,3.1-3.64,3.35v15l-1.51,1.5-2.49-1.5v-30.5Z"/>
  <path d="M732,245c.06,2.36,1.65,4.74,3.7,5.79,4.59,2.33,6.18-.55,9.94-1.64,4.75-1.38,1.24,3.34-1.35,4.65-6.95,3.5-15.26-.64-16.25-8.33-1.26-9.86,6.35-17.06,15.68-12.69,4.51,2.11,7.24,12.23,3.77,12.23h-15.5ZM745,242c.52-8.84-11.84-9.93-13.02-1.51-.27,1.89.06,1.45,1.51,1.52,3.82.17,7.7-.12,11.51,0Z"/>
  <path d="M119,245c1.62,4.13,2.37,5.73,6.99,6.59,4.26.79,6.8-4.89,10-1.09-4.36,4.53-8.39,5.56-14.25,3.26-10.58-4.15-7.62-22.27,4.76-22.32,6.25-.03,12.95,8.02,8,13.56h-15.5ZM133,242c-1.79-9.5-12.18-9.57-14,0h14Z"/>
  <path d="M478.74,251.74c-8.31,8.34-23.65.06-19.3-12.8.16-.47,2.54-4.49,2.78-4.72.79-.76,6.87-3.05,8.08-2.99,7.4.34,12.72,6.94,11.67,14.25-.18,1.29-2.39,5.41-3.24,6.26ZM475.81,249.81c3.97-5.74,2.59-14.55-5.3-14.87-9.71-.4-10.05,13.49-3.56,15.61,2.93.96,6.14.66,8.86-.74Z"/>
  <path d="M175.68,232.18c3.69-.81,8.85-.6,11.83,1.81,10.58,8.52-.39,26.04-12.81,19.81-3.41-1.71-7.08-7.39-6.7-11.24s3.68-9.5,7.68-10.38ZM177.68,235.19c-6.55,1.45-7.69,12.72-1.03,15.66,14.72,3.96,14.5-18.65,1.03-15.66Z"/>
  <path d="M354,253.5c-.07.27-1.49,1.97-2.01,1.01l-1.49-2.51c-4.51,4.31-11.17,4.16-15.02-.99-1.31-4.77-1.07-7.42,3.5-9.53,4.8-2.21,7.11-1.05,12.01-.49-1.17-8.01-8.06-5.84-14-5v-2.98c3.67-.5,8.73-1.93,12.35-.87.67.2,4.65,4.04,4.65,4.35,0,3.98.79,14.04,0,17ZM350.99,244.02c-4.24-.74-8.77-2.54-11.88,1.59-.79,3.5.21,5.23,3.58,6.25,4.1.9,9.35-3.48,8.3-7.83Z"/>
  <path d="M817,253.5c-.07.27-1.49,1.97-2.01,1.01l-1.49-2.5c-5.1,4.03-10.83,4.39-15.02-.99-1.31-4.77-1.07-7.42,3.5-9.53,4.8-2.21,7.11-1.05,12.01-.49-1.17-8.01-8.06-5.84-14-5l.02-2.95c1.44-1.2,10.34-1.48,12.33-.9.67.2,4.65,4.04,4.65,4.35,0,3.98.79,14.04,0,17ZM813.99,244.02c-4.24-.72-8.77-2.54-11.88,1.59-1.26,7.05,5.29,7.58,10.25,4.45l1.63-6.04Z"/>
  <path d="M607,232v21.5c0,.11-1.47,2.02-2.01,1.01l-1-2.51c-2.24-.21-3.35,2.29-5.66,2.82-2.78.64-5.73.16-7.86-1.78-.55-.5-2.46-3.25-2.46-3.54v-17.5l3,.5.88.98c-2.57,8.52-1.15,23.11,10.67,15.57,2.55-3.81-3.35-17.97,4.45-17.05Z"/>
  <path d="M303,232h3s0,3,0,3c3.53-3.01,6.68-3.63,11.31-2.79,1.59.29,4.68,3.43,4.68,4.29v17c0,.11-1.47,2.02-2,1l-2.49-17.51c-4.66-4.8-11.58-.41-11.45,5.5.02,1.01.88,1.99.88,3.01s-.88,2-.88,3c0,2.19,2.43,3.81-1.06,6-.53,1.02-2-.89-2-1v-21.5Z"/>
  <path d="M421.92,233.08l.08,3.92c-1.91.33-2.99-1.44-4.67-1.82-3.86-.87-7.08-.35-6.36,4.29.22,1.55,11.3,2.02,12.05,7.03,1.32,8.86-10.01,10.53-16.01,6.01l-1-3.49,9.35,2.83c3.14-1.35,5.94-2.87,3.04-5.91-3.37-1.39-10.78-2.19-11.41-6.41-.97-9.08,8.53-8.57,14.94-6.43Z"/>
  <path d="M441,232c2.45.14,5.27-.88,7,1.5.46,2.44-1.95,1.43-3.5,1.49-1.16.05-2.34-.04-3.5,0l.11,14.4,6.89,3.11c.43,1.7-.68,1.66-1.98,1.99-12.28,3.16-8.51-11.95-9.05-19.48l-2.98-.02v-3s2.98-.02,2.98-.02c-1.06-9.36,5.15-9.31,4.02.02Z"/>
  <path d="M63,232h7.01s0,3,0,3h-7.01s.11,14.4.11,14.4l1.5,1.5,5.4.11-.03,2.95c-13.59,5.01-10.8-10.08-11-18.93l-2.98-.02c-.39-2.15,1.2-2.61,2.88-3.12-.74-9.39,5.21-9.07,4.13.12Z"/>
  <path d="M495,232l3.04.46.97,3.54c1.53.24.94-1.51,1.98-2.51,1.77-1.69,8.45-3.14,7.02,1.01-.11.74-8.04,1.51-8.99,8.02-.42,2.85,1.14,11.67-1.52,12.48-.95.29-2.49-1.17-2.49-1.5v-21.5Z"/>
  <polygon points="762 223 766 224.5 766 253.5 763.51 255 762 253.5 762 223"/>
  <path d="M705,233.5l4-1.5.5,4c2.63-2.82,3.71-4.58,7.99-4,1.03.14.36,1.57.52,2.51-4.77,2.27-8.21,3.1-8.97,9.04-.38,3.01.58,7.34-.11,9.89s-2.6.45-3.93.57v-20.5Z"/>
  <path d="M785,254l-2.5.99c-.34-.49-1.5-1.22-1.5-1.49v-30.5l4,1.5v29.5Z"/>
  <path d="M373,254l-2.5.99c-.34-.49-1.5-1.22-1.5-1.49v-30.5l4,1.5v29.5Z"/>
  <path d="M205,232h3s0,4,0,4c.36.44,7.11-7.5,9.99-2.5l-7.88,5.11c-.76,2.05-1.82,4.82-2.05,6.94-.38,3.45,1.63,7.37-1.06,8.95-.53,1.02-2-.89-2-1v-21.5Z"/>
  <path d="M288,232v21.5c0,.27-1.16,1-1.5,1.49l-2.5-.99v-20.5l4-1.5Z"/>
  <path d="M230,232l3.73,1.49c-.41,4,.35,7.98.31,12.06-.01,1.09-.27,7.01-.49,7.46-.26.52-1.16.93-1.55,1.5-.53,1.02-2-.89-2-1v-21.5Z"/>
  <path d="M231.51,223l2.49,1.5c.91,3.18-3.09,5.02-4.99,1.99l2.5-3.49Z"/>
  <path d="M288,228h-2.49c-4.64-1.37,2.48-10.47,2.49,0Z"/>
</svg>