<?xml version="1.0" encoding="UTF-8"?>
<svg id="Laag_1" xmlns="http://www.w3.org/2000/svg" version="1.1" viewBox="0 0 1137.36 184.8">
  <!-- Generator: Adobe Illustrator 29.5.1, SVG Export Plug-In . SVG Version: 2.1.0 Build 141)  -->
  <polygon points="1137.36 94.32 1130.64 94.32 1130.64 46.32 1112.61 94.3 1106.54 94.33 1087.92 45.84 1087.92 94.32 1081.44 94.32 1081.44 34.56 1089.72 34.56 1109.16 85.2 1128.74 34.58 1137.36 34.56 1137.36 94.32"/>
  <path d="M0,75.6l6.7.02c.58,6.27,4.18,11.6,10.21,13.67,6.61,2.27,17.53.83,20.4-6.49s-1.79-11.62-8.22-14.1c-10.2-3.94-26.58-5.38-27.43-19.37-.48-7.97,4.47-13.28,11.82-15.31,4.63-1.28,11.9-1.4,16.51-.06,7.95,2.31,12.59,8.7,12.96,16.92h-6.72c-.64-8.41-7.72-12.75-15.72-12.24-4.81.3-11.59,2.67-12.12,8.28-.64,6.81,4.49,9.52,10.02,11.59,11.83,4.42,27.9,5.52,26.2,22.48-.63,6.25-5.25,11.17-10.96,13.28-13.68,5.08-30.95-.52-33.44-16.13l-.22-.37v-2.16Z"/>
  <rect x="404.4" y=".24" width="4.08" height="184.56"/>
  <path d="M536.28,34.56l19.44,50.64,19.56-50.64h8.64v59.76h-6.72v-48l-18.15,48.01c-1.71-.2-3.85.23-5.5,0-.28-.04-.46-.12-.57-.39l-18.26-47.62v48h-6.72v-59.76h8.28Z"/>
  <path d="M85.32,34.56l19.44,50.64,19.56-50.64h8.64v59.76h-6.72v-48l-18.15,48.01c-1.71-.2-3.85.23-5.5,0-.28-.04-.46-.12-.57-.39l-18.26-47.62v48h-6.72v-59.76h8.28Z"/>
  <path d="M891.36,94.32h-7.44c-.29-1.17-.8-2.27-.96-3.48-.65-4.64.2-9.53-.23-14.17-.36-3.82-3.43-6.5-6.96-7.44-.86-.23-2.71-.6-3.48-.6h-18.84v25.68h-6.72v-59.76h27c1.2,0,4.16.83,5.4,1.32,13.24,5.23,15.01,22.79,2.88,30.24,1.27.71,2.57,1.09,3.72,2.04,3.01,2.5,3.55,6.52,3.73,10.19.21,4.35-.71,9.58.77,13.63.3.82.62,1.64,1.14,2.34ZM853.44,63.12h18.84c.41,0,2.01-.4,2.57-.55,9.68-2.52,11.96-15.75,2.99-20.62-.76-.41-3.12-1.4-3.88-1.4h-20.52v22.56Z"/>
  <path d="M923.28,94.32v-59.76l25.34.22c31.85,3.22,31.28,56.46-.49,59.54h-24.84ZM929.76,88.32h16.92c2.04,0,6.84-1.99,8.68-3.08,13.27-7.87,13.78-33.74.48-41.61-1.96-1.16-6.97-3.08-9.16-3.08h-16.92v47.76Z"/>
  <polygon points="813.12 34.56 813.12 40.2 812.76 40.56 778.8 40.56 778.8 60.48 810.96 60.48 810.96 66.48 778.8 66.48 778.8 88.32 814.56 88.32 814.56 94.32 772.32 94.32 772.32 34.56 813.12 34.56"/>
  <path d="M659.28,50.88h-6.6l-.33-.39c-.31-6.04-4.96-10.51-10.77-11.55s-15.31.52-16.81,7.31,3.97,9.97,9.24,12.01c11.44,4.42,28.24,5.47,26.95,22.02-1.1,14.04-18.08,18.11-29.53,14.64-8.37-2.54-15.35-10.27-15.12-19.32h6.72c.71,9.73,8.38,15.28,17.88,14.64,6.97-.47,13.58-4.11,13.58-11.88,0-8.31-12.14-10.54-18.21-12.53-9.79-3.22-19.38-6.99-18.27-19.36,1.32-14.75,24.61-16.6,34.28-9.6,4.42,3.2,6.6,8.7,6.98,14.02Z"/>
  <path d="M361.68,64.32v-30h6.72v59.28h-6.72v-20.76l-11.4-10.44-22.2,31.2h-8.64l26.13-35.88-24.69-23.4h8.76c2.04,1.79,3.9,3.79,5.87,5.65,7.59,7.12,15.21,14.24,22.81,21.35.88.83,1.72,1.89,2.63,2.65.24.2.31.46.72.36Z"/>
  <path d="M290.16,94.32h-6.96l-6.71-18.13h-25.94s-6.71,18.13-6.71,18.13h-7.2l22.55-59.65,8.53-.12.48.24,21.95,59.53ZM252.72,70.32h21.6l-10.54-28.94-.5-.34-10.56,29.28Z"/>
  <path d="M159.84,94.32l22.47-59.77,8.95.04,22.1,59.74h-6.84l-6.83-18.13-26.04-.12-6.62,18.25h-7.2ZM197.28,70.32l-10.68-29.52-10.68,29.52h21.36Z"/>
  <path d="M499.2,94.32h-7.2l-6.62-18.25-26.04.12-6.83,18.13h-7.08l22.43-59.53.48-.24,8.53.12,22.31,59.65ZM461.52,70.32h21.6l-10.92-29.28-10.68,29.28Z"/>
  <path d="M1052.64,94.32h-7.2l-6.62-18.25-26.04.12-6.71,18.13h-7.2l22.34-59.38.57-.39,8.53.11,22.31,59.65ZM1014.96,70.32h21.6l-10.56-29.28-.5.34-10.54,28.94Z"/>
  <polygon points="740.16 34.56 740.16 40.2 739.8 40.56 720 40.56 720 94.32 713.28 94.32 713.28 40.56 693.48 40.56 693.12 40.2 693.12 34.56 740.16 34.56"/>
</svg>