<?xml version="1.0" encoding="UTF-8"?>
<svg id="Laag_1" xmlns="http://www.w3.org/2000/svg" version="1.1" viewBox="0 0 2385 544">
  <!-- Generator: Adobe Illustrator 29.5.1, SVG Export Plug-In . SVG Version: 2.1.0 Build 141)  -->
  <path d="M2385,212l-45.97,124.53c-1.11.72-20.04.84-22.55.48-1.15-.17-1.9-.5-2.39-1.61l-34.1-98.4c-2.39,1.91-3.61,6.67-4.76,9.74-10.86,29.16-19.99,59.03-30.78,88.22-.77,1.23-1.5,1.79-2.97,2.03-3.58.6-15.22.47-19.05.06-1.11-.12-2.18-.08-3.02-.98l-46.21-126.42c.82-2.71,1.45-3.47,4.23-3.71s13.68-.37,15.55.55l2.44,2.56,34.48,95.54,2.07,1.41,34.14-97.37,1.85-2.15,23.37.44,34.58,97.65,2.06,1.43,35.14-97.37,1.85-2.15c6.15-.3,14.8-2.17,20.02,1.52v4Z"/>
  <path d="M0,320v-27c2.95-1.54,17.27-1.67,18.8.21,2.29,5.16.47,11.06,1.24,16.25,1.05,7.09,10.47,9.08,16.44,9.56,15.44,1.22,40.52,1.09,56.06.03,3.88-.26,13.98-1.93,16.49-4.75,4.39-4.92,5.46-21.61.99-26.58-1.09-1.22-5.32-2.92-6.98-3.27-14.05-2.98-39.8.29-55.57-.43-6.54-.3-15.26-1.06-21.72-2.28-11.71-2.21-21.2-7.18-25.76-18.74v-36c2.81-3.5,4-7.86,7.5-11,3.68-3.31,10.71-6.32,15.48-7.52,17.05-4.27,65-4.13,82.25-.21,7.95,1.8,16.44,5.96,21.22,12.78,1.18,1.69,4.55,9.89,4.55,11.45v16l-1.5,1.5h-18l-1.37-1.63c-.26-7.36.61-16.42-7.87-19.13-3.52-1.12-11.84-2.02-15.74-2.26-13.31-.82-46.03-1.51-57.75,2.28-4.85,1.57-7.21,3.53-8.52,8.48s-1.27,10.67-.04,15.54,6.17,6.85,10.54,7.46c16.86,2.37,39.1-.59,56.8.2,7.63.34,18.21,1.23,25.43,3.57,21.43,6.95,22.89,26.12,21.03,45.99-2.07,22.11-21.31,28.32-40.5,29.5-16.4,1.01-39.63,1.01-56.03,0-11.52-.71-26.22-3.79-33.49-13.51-1.61-2.15-2.04-4.76-3.99-6.51Z"/>
  <path d="M1034.5,251c-4.04-1.09-2.11-12.16-2.47-15.53-.57-5.38-4.34-7.98-9.51-8.49-8.13-.79-24.9-.79-33.04,0-11.38,1.11-9.09,10.75-7.54,19.35l83.05,48.67v-20.5c0-.28,1.55-2.55,2.03-2.97,2.57-2.22,17.47-2.48,19.04.11,3.09,5.1-.81,33.65,1.05,36.23l20.17,11.08c3.4,3.13-1.27,10.75-3.11,14.73-.7,1.51-1.25,3.38-2.82,4.2-5.05,1.66-16.1-8.85-21.73-9.77-1.99,1.36-3.28,3.37-5.29,4.73-6.57,4.47-17.08,6.49-24.93,7.07-18.98,1.4-47.91,1.37-66.93.1-11.18-.74-25.69-3.83-32.33-13.67-8.22-12.19-9.18-39.14-3.93-52.62,2.93-7.52,10.57-14.09,18.77-14.73-.8-1.63-2.27-2.58-3.21-4.29-4.58-8.35-4.46-24.6-.98-33.39,4.1-10.34,13.98-14.6,24.64-15.36,11.36-.82,37.22-1.17,47.58,1.52,14.33,3.72,19.87,13.79,20.99,28.02.37,4.75.95,12.09-2.52,15.52h-17ZM1058,315.01l-73.7-41.8c-6.66-1.22-13.91,1.46-16.8,7.78-2.11,4.61-2.13,20.05-1.43,25.44,1.28,9.83,9.73,11.99,18.39,12.61,17.39,1.25,43.59,1.05,61.09,0,2.86-.17,7.74-.88,10.5-1.54,1.77-.42,2.33-.43,1.95-2.5Z"/>
  <path d="M833.5,250c-4.68-5.34.24-14.62-5.97-19.03-1.82-1.29-6-2.33-8.27-2.73-14.31-2.49-40.91-2.25-55.77-1.26-3.72.25-11.12,1.23-14.49,2.5-1.65.62-3.09,2.04-4.72,2.78-4.21,7.33-4.84,17.2-.75,24.71,1.18,1.37,6.33,3.48,8.21,3.79,15.9,2.69,40.59-.59,57.82.18,10.97.49,23.14,1.55,32.76,7.24,15.24,9.01,15.95,30.42,12.39,46.01-4.37,19.14-17.5,23.17-35.12,24.88-17.79,1.73-42.13,2.04-60.13.97-28.16-1.69-42.86-13.83-39.5-43.6.25-2.22.75-3.08,2.55-4.45h15c.41,0,3.08,1.76,3.36,2.64.57,8.74-2.25,19.41,8.32,22.68,2.05.64,6.25,1.39,8.41,1.59,15.38,1.39,41.4,1.2,56.96.14,10.56-.72,18.57-2.57,19.5-14.5.96-12.35.31-19.52-13.5-20.59-21.51-1.65-43.56,1.43-65.06-.94-17.16-1.89-32.6-7.48-35.24-26.76-2.43-17.82-.43-38.79,18.48-46.03,15.51-5.94,53.3-5.26,70.82-4.27,20.21,1.14,40.96,6.1,43.36,29.64.44,4.35,1.25,11.8-2.41,14.41h-17Z"/>
  <path d="M1281.5,249l-1.37-1.63c-.63-4.16-.56-14.31-3.37-17.13-2.27-2.27-14.57-4.06-18.21-4.29-14.08-.89-35.06-.96-49.1,0-10.37.71-18.54,2.32-20.2,13.8s.62,18.39,12.5,20c23.85,3.23,71.79-6.04,90.76,8.24,6.29,4.73,10.77,13.67,11.5,21.5,6.44,68.93-59.71,43.63-103.52,48.52-24.9-2.34-35.28-18.29-32.54-42.56.25-2.22.75-3.08,2.55-4.45h16c.28,0,1.48,1.4,2.5,1v14.5c0,.27,1.77,4.28,2.13,4.87,2,3.2,5.76,5,9.43,5.57,16.93,2.67,51.79,2.29,68.88,0,7.21-.97,11.87-5.08,12.58-12.42.88-8.96,1.48-20.02-9.58-21.46-22.06-2.86-44.8.55-66.95-1.05-19.24-1.39-35.66-8.08-37.49-29.51-5.75-67.08,57.82-41.37,100.56-46.56,17.8,1.84,30.97,10.67,32.5,29.5.33,4.11,1,11.05-2.54,13.54h-17Z"/>
  <path d="M1928,288l52.89,42.63.16,4.71c-1.88,2.99-21.73,1.57-26.03,1.13l-59.53-48.47h-33.5v45.5c0,.41-1.76,3.08-2.64,3.36-3.95-.28-16.72,1.35-19.15-1.08l-1.15-3.33-.12-119,1.22-6.28,6.28-1.22c31.69,1.78,65.64-2.21,97.06.03,12.85.92,23.49,5.08,27.98,18.02,3.7,10.66,3.66,35.35,0,45.99-2.18,6.35-6.3,11.69-12.49,14.51-1.25.57-9.88,3.49-10.51,3.49h-20.5ZM1862,268h75.5c.34,0,5.65-1.2,6.54-1.46,5.86-1.69,7.49-7.51,7.97-13.03.57-6.5.65-21.79-6.27-24.75-.72-.31-5.92-1.76-6.24-1.76h-77.5v41Z"/>
  <path d="M1757,288l53.86,43.67-.32,3.38c-1.74,1.72-3.71,1.83-6,2-4.35.34-17.67.59-20.91-1.18l-58.13-47.87h-33l-1.5,1.5v45c-1.06,1.18-1.79,2.2-3.5,2.5-2.63.45-15.44.38-17.07-.92-.81-.65-1.31-1.54-1.42-2.58l.13-124.85,6.32-2.68c31.69,1.77,65.65-2.21,97.06.03,13.5.96,24.53,5.46,28.78,19.22,2.69,8.7,2.68,33.14.46,42.06s-7.93,15.44-16.48,18.52c-1.25.45-7.09,2.23-7.77,2.23h-20.5ZM1769.5,227h-78.5v39.5l3.45,1.55c22.6-1.27,46.69,1.52,69.1,0,8.09-.55,15.68-1.54,17.23-10.77.72-4.31.74-15.33.16-19.71-.24-1.79-1.97-6.15-3.2-7.29-.82-.76-7.06-3.11-8.23-3.28Z"/>
  <path d="M2033.75,206.25c29.44,1.58,62.77-2.97,91.77-.26,15.7,1.47,25.95,14.37,29.03,28.97,3.04,14.4,2.67,49.15,1.47,64.56-1.56,20.08-12.12,36.66-33.5,38.5-26.85,2.3-56.83-1.75-84.02,0-12.2-1.23-24.19-8.3-29.27-19.73-6.53-14.7-6.05-47.19-5.27-63.83,1.01-21.42,5.2-43.63,29.79-48.21ZM2042.75,226.25c-9.22,1.31-14.41,7.31-15.67,16.33,1.11,18.31-1.78,38.9-.1,56.93.62,6.61,3.7,13.09,10.01,15.99,2.8,1.29,9.25,2.28,12.49,2.51,17.24,1.23,43.75,1.16,61.04,0,3.64-.24,11.19-1.21,14.19-2.81,6.77-3.59,8.82-11.52,9.34-18.66,1-13.85,1.13-37.31-.03-51.06-.93-11.05-5.94-18.42-17.5-19.5-23.3-2.18-50.1,1.44-73.76.26Z"/>
  <path d="M1607,292h-88v41.5c0,.42-1.76,3.08-2.64,3.36-3.95-.28-16.72,1.35-19.15-1.08l-1.15-3.33c.65-28.57-1.56-57.58.95-85.93,1.79-20.19,6.61-35.18,28.54-40.46,23.38,1.27,48.86-1.9,71.98-.11,20,1.56,29.99,19.15,31.47,37.53l-.19,90.84c-.23.79-1.09,1.83-1.81,2.19-1.6.79-14.2.88-16.51.49-1.71-.29-2.44-1.31-3.5-2.5v-42.5ZM1607,271v-27.5c0-.32-1.46-5.34-1.78-6.22-2.92-7.9-8.55-10.69-16.68-11.32-17.55-1.36-37.06.92-54.82.27-5.85,1.57-10.48,4.33-12.93,10.07-.33.78-1.79,4.93-1.79,5.21v29.5h88Z"/>
  <path d="M590,228v33h88.5c1.18,1.06,2.2,1.79,2.5,3.5.43,2.49.35,15.01-1.22,16.27-1.02-.04-2.86,1.22-3.27,1.22h-86.5v35h91.5c.5,0,2.84,1.89,3.5,2.5v17l-1.5,1.5h-114l-2.05-2.95-.5-122.6,1.47-3.53,113.09-.94c5.08.75,4.76,16.86.99,20.01h-92.5Z"/>
  <path d="M192,290v46.5l-1.5,1.5h-19.5v-130h107.5c.4,0,6.54,2.07,7.51,2.49,8.81,3.87,13.46,12.92,14.91,22.09,1.66,10.46,1.24,31.38-2.71,41.13-3.75,9.24-12.42,13.54-21.79,15.21-1.13.2-6.56,1.08-6.92,1.08h-77.5ZM192,229.5v39.5h75.5c.65,0,7.54-2.64,8.23-3.28,1.23-1.14,2.97-5.5,3.2-7.29.59-4.44.6-16.37-.16-20.7-.54-3.08-3.17-6.68-6.03-7.97-1.81-.82-9.67-1.66-12.19-1.81-21.8-1.28-44.98.94-66.92.18l-1.63,1.37Z"/>
  <path d="M1362,288v46.5c-1.06,1.18-1.79,2.2-3.5,2.5-5.06.87-13.4-.01-18.5-1v-127.5l4.45-2.55c31.17,1.61,64.15-1.95,95.1,0,11.15.7,22.39,3.62,27.65,14.35,5.74,11.73,5.77,44.97-1.35,56.04-2.73,4.24-7.87,7.74-12.57,9.43-1.25.45-7.09,2.23-7.77,2.23h-83.5ZM1437.5,227h-75.5v41h72.5c.34,0,5.72-1.21,6.54-1.46,5.14-1.58,7.47-5.85,7.98-11.02.54-5.52.82-22.2-3.72-25.56-.89-.65-6.72-2.81-7.8-2.96Z"/>
  <path d="M421,260h14.5c.5,0,6.25-5.48,7.57-6.43,20.51-14.76,40.62-30.05,60.96-45.04,2.61-1.03,21.73-1,25.52-.58,4.29.47,5.6,3.18,3.17,6.79l-75.7,55.76,82.51,60.47,1.49,2.54-.46,3.55-30.88.76-74.69-56.31-13.99-.51v54.5c-1.06,1.18-1.79,2.2-3.5,2.5-2.65.46-13.31.44-15.99,0-2.32-.38-3.62-2.12-3.56-4.44l.09-121.01c.15-1.06.72-2.85,1.43-3.57,2.2-2.22,15.01-.49,18.89-.84.87.29,2.64,2.95,2.64,3.36v48.5Z"/>
  <path d="M335,338c.4-1.02-1-2.22-1-2.5v-125c0-.28,1.4-1.48,1-2.5h19.5l1.5,1.5v127l-1.5,1.5h-19.5Z"/>
</svg>