<?xml version="1.0" encoding="UTF-8"?>
<svg id="Laag_1" xmlns="http://www.w3.org/2000/svg" version="1.1" viewBox="0 0 4550 2500">
  <!-- Generator: Adobe Illustrator 29.5.1, SVG Export Plug-In . SVG Version: 2.1.0 Build 141)  -->
  <path d="M531,1566l-3.04-4.96c-.54-34.02.83-68.13.14-102.14-1.61-78.73-7.02-157.62-12.15-235.85-.38-5.74,1.46-21.74-.83-25.17-1.03-1.45-2.42-1.7-4.07-1.93-7.79-1.06-21.74-.36-30.13-.05-124.64,4.55-271.22-4.81-382.29-67.53-30.79-17.39-64.69-44.41-72.63-80.37l281.07-79.91c19.16,10.56,37.46,22.99,57.55,32.29,27.07,12.53,68.73,25.76,98.39,25.79,5.21,0,9.76-2.72,15-2.18l-15.01-43.99-32.99-68c59.22-7.43,117.87-20.69,175.08-37.39,3.18.22,10.54,13.23,12.56,16.73,25.83,44.78,41.32,95.37,61.48,142.75l1082.87,15.91c.03,2.92-6.09,3.83-8.44,4.54-32.87,9.98-74.39,15.88-108.71,21.29-57.64,9.09-115.78,15.26-173.72,22.28-241.21,29.22-482.91,49.58-724.19,75.81-12.23,1.33-24.61,4.39-36.94,4.06.36,7.63-.46,15.43-.05,23.06,1.99,36.72,4.78,72.87,6,110,2.55,77.58,5.67,163.18-4.01,239.88-.67,5.29,2.2,11.52-2.93,15.07h-178Z"/>
  <path d="M1861.52,1210.52c34.78-3.56,66.64-1.31,95.48,19.48,18.69,13.48,34.83,34.34,53.13,46.87,14.42,9.87,21.92,9,37.25,1.52,34.15-16.67,78.96-56.53,115.76-60.24,170.02-17.13,229.5,161.59,216.91,300.91-1.71,18.88-13.06,31.99-28.68,41.32-28.18,16.85-85.64,35.53-104.87-1.87-19.31-37.56-33.78-82.85-52.11-121.89-12.95-27.58-30.87-68.79-56.99-85.01-29.56-18.35-65.26-3.75-72.95,29.84-9.54,41.65,5.99,88.29,1.63,129.63-1.33,12.61-14.53,27.9-24.02,35.98-33.61,28.58-106.34,43.87-127.04-7.06-20.53-50.54-25.82-157.82-63.96-194.04-16.38-15.56-42.5-17.99-64.1-15.99-29.68,2.74-36.08,29.58-39.01,54.99-4.9,42.58-.52,89.7-6.04,131.96-1.7,12.99-11.23,26.85-22.5,33.5-19.11,11.28-82.55,20.73-104.35,17.54-18.87-2.76-15.39-17.28-17.18-30.82-6.78-51.45-10.52-102.57-15.81-154.19-2.6-25.34-12.7-58.01,1.04-80.83,12.79-21.25,68.05-56.04,91.82-64.18,14.5-4.97,42.06-9.09,54.15,2,3.54,3.24,6.1,10.5,10.96,13.03,8.09,4.22,19.35.55,27.35-2.58,32.46-12.69,56.02-35.96,94.14-39.86Z"/>
  <path d="M4093.51,1198.51c39.81-2.51,79.98,6.81,119.44,9.55,10.45.73,21.75,1.58,32,2,51.31,2.12,147.63-8.81,188.92,23.08,22.96,17.74,30.19,49.23,4.05,67.78-40.63,28.84-108.37,19.92-151.91,2.08-23.16-9.49-45.31-26.03-69.92-32.08-19.85-4.87-44.19-6.85-51.18,16.98-12.73,43.43,21.48,64.97,58.66,73.54,70.74,16.3,140.88,2.87,211.5,10.5,26.99,2.92,60.2,9.76,77.8,32.2,19.65,25.04,18.46,68.5,0,93.73-59.46,81.3-234.56,91.35-325.92,84.19-69.87-5.48-143.4-18.42-200.79-61.21-22.11-16.49-55.64-47.69-25.15-72.84,36.77-30.33,100.1-12.4,138.38,7.62,47.69,24.94,125.69,76.29,181.11,61.86,42.36-11.03,51.98-57.5,14.21-81.19-39.51-24.79-115.31-21.65-161.82-26.18-47.44-4.62-135.16-21.21-166.88-59.12-22.1-26.41-20.73-64.84-3.64-93.64,26.12-44.03,83.56-55.85,131.15-58.85Z"/>
  <path d="M2839.51,1206.51c32.29-1.8,85.68-4.04,115.04,7.95,36.91,15.07,48.89,61.63,56.9,97.1,16.74,74.14,35.83,198.68-42.8,244.09-24.66,14.24-58.58,19.87-85.2,7.91-28.33-12.72-7.7-50.96-28.02-61.98-7.04-3.82-14.28-4.76-21.34-.49-2.34,1.42-3.81,4.23-6.22,5.78-40.73,26.45-134.79,44.89-182.74,41-93.95-7.63-182.22-89.22-138.12-187.86,48.96-109.53,224.77-147.5,332.49-153.51ZM2681.42,1274.42c-20.67,3.37-36.93,22.2-39.29,42.71-7.83,67.97,73.37,172.86,146.41,148.4,42.8-14.33,38.92-59.13,21.88-92.96-21.39-42.46-76.01-106.8-128.99-98.16Z"/>
  <path d="M1279.51,1218.51c63.9-3.42,88.57,4.63,114.88,64.11,22.89,51.73,49.46,164.28,33.11,217.89-7.95,26.06-28.74,49.65-54.12,59.88-17.5,7.05-43.21,9.71-61.49,4.73-27.48-7.47-32.66-52.07-53.26-56.73-16.42-3.72-16.89,5.36-25.62,13.63-33.79,32-131.88,58.98-177.96,62.04-90.27,6-178.78-38.88-170.93-140.93,12.32-159.99,267.51-217.78,395.37-224.63ZM1083.52,1296.52c-82.02,8.12-66.77,95.72-30.36,145.33,31.55,42.99,71.6,70.17,126.87,53.19,84.94-26.09,49.97-93.8,10.84-144.9-24.57-32.09-65.51-57.75-107.36-53.61Z"/>
  <path d="M3463.5,1194.5c19.84-1.51,62.54-3.12,76.57,12.42,12.26,13.58,13.23,51.41,4.82,66.97-27.91,51.63-117.73,20.76-161.89,56.11-54.91,43.95-30.84,130.7-61.96,188.04-22.06,40.65-58.87,55.44-104.13,52.04-26.29-1.98-28.36-8.62-26.97-33.14,3.94-69.71-1.57-138.85-16.5-207.38-3.71-17.03-8.51-33.99-13.46-50.7-.68-9.67,17.74-26.25,25.01-32.86,27.2-24.74,79.53-64.7,117.74-45.73,17.78,8.83,20.47,24.79,29.3,40.7,4.17,3.62,21.23,5.66,27.05,5.1,17.3-1.65,30.28-23.94,43-32.98,15.12-10.75,43.09-17.19,61.42-18.58Z"/>
  <path d="M3771.43,1208.43c25.28-4.15,39.8,1.99,42.43,28.72,5.56,56.47,3.66,127,.08,183.8-2.78,44.18-3.25,96.85-40.94,127.06-24.66,19.76-56.28,17.76-85.93,20.05-36.97,2.85-31.99-28.38-31.12-55.11,1.98-61.34,10.54-123.91,6.12-186-.3-4.25-1.58-13.49-2.48-17.52-3.74-16.92-14.91-23.85-5.98-42.82,4.65-9.88,15.48-18.02,25.03-22.97,14.78-7.67,78.06-32.77,92.8-35.2Z"/>
  <path d="M3833.45,974.55c17.64,18.42,20.32,54.57,5.47,75.36-29.08,40.71-122.04,49.5-164.91,31.08-50.29-21.61-45.09-84.77-.65-110.63,37.78-21.99,127.65-29.67,160.09,4.2Z"/>
</svg>