<?xml version="1.0" encoding="UTF-8"?>
<svg id="Laag_1" xmlns="http://www.w3.org/2000/svg" version="1.1" viewBox="0 0 569.04 321.12">
  <!-- Generator: Adobe Illustrator 29.5.1, SVG Export Plug-In . SVG Version: 2.1.0 Build 141)  -->
  <defs>
    <style>
      .st0 {
        fill: #fff;
      }
    </style>
  </defs>
  <path class="st0" d="M569.04,0v321.12H0V0h569.04ZM284.76,45.81h-3.96c-.3,0-3.02,1.13-3.72,1.32-3.54.98-7.14,1.68-10.8,2.04v7.43h5.76v38.49c0,.28-1.04,1.32-1.32,1.32h-4.44v7.67h23.03v-7.67c-2.09-.02-4.12.53-4.5-2.1l-.03-17.66c1.66-1.29,3.71-2.55,5.72-3.15,2.82-.84,6.17-1.13,6.95,2.41l.02,18.7c-.25,2.43-2.81,1.7-4.57,1.79v7.67h23.27v-7.67h-4.44c-.44,0-1.74-1.4-1.57-2.03-.36-6.63.52-13.82,0-20.38-.68-8.39-8.55-11.66-16.12-10.15-3.33.67-6.37,2.39-9.3,4.02v-22.06ZM222.03,96.41h-4.68v7.67h26.87v-7.67h-4.68c-.06,0-.98-.52-1.08-.6-1.18-1.04-.44-3.19-.97-4.55.53-10.37-.68-21.39,0-31.67.03-.48.32-2.47.54-2.7,1.86-.78,3.91-.02,5.55.95,3.93,2.33,6.35,6.64,8.1,10.73l6.83-2.12.57-.4-6.73-19.26-5.11-.03c-.41.06-.47,2.26-1.45,1.94h-30.7s-.64-1.91-.64-1.91h-5.24s-6.73,19.4-6.73,19.4l7.42,2.38c.65-1.47,1.34-3.08,2.13-4.46,2.18-3.81,6.41-8.01,11.16-7.47l.82,1.33.06,34.25c-.19,1.33-.39,3.84-2.05,4.19ZM364.17,83.46v-3.72c0-1.66-1.15-5.13-1.87-6.76-6.98-15.75-31.72-12.94-37.59,2.56-6.66,17.58,10.27,32.95,27.66,27.41,4.77-1.52,9.4-5.22,12.5-9.06l-5.37-5.39c-3.21,3.46-8,6.86-12.96,6.48-5.81-.44-9.28-6.07-9.23-11.52h26.87ZM544.04,115.16c-8.23.72-9.53,11.7-2.17,14.29s12.9-5.79,8.22-11.58c-1.27-1.57-4.02-2.89-6.05-2.71ZM534.49,130.94h-3.96c-.25,0-3.93,1.52-4.73,1.74-3.16.9-6.5,1.41-9.78,1.61.24,2.27-.32,5.13,0,7.32.04.28.14.43.36.59h5.4v9.11c-.96,0-1.76-.72-2.64-1.08-18.45-7.41-30.05,12.82-23.63,28.66,4.41,10.87,14.61,14.66,24.99,8.92.88-.49,1.7-1.43,2.71-1.48v3.84l17.27-.72v-7.67h-4.2c-.06,0-1.06-.4-1.16-.46-.05-.03-.63-.8-.63-.86v-49.52ZM374.72,150.37v-4.44c0-.19,1.12-2.45,1.33-2.75,2.77-3.89,9.14-4.34,13.3-2.77,2,.76,3.32,2.38,5.06,3.58,2.39,1.64,4,2.51,7,1.76,3.9-.97,4.64-4.98,2.77-8.18-2.9-4.96-9.76-5.7-14.96-6.15-9.56-.83-20.86-.78-25.83,8.94-1.75,3.43-1.43,6.49-1.39,10.24h-6v8.39h6v19.79c-.44,1.06.11,2.74-.83,3.48-.12.09-.92.47-.97.47h-4.2v7.67h24.47v-7.67h-3.96c-.07,0-1.2-.5-1.32-.6s-.72-1.13-.72-1.2v-21.94h19.91c.05,1.39-.06,2.81,0,4.2.13,3.22.43,6.6.49,9.82.04,2.37.24,5.66,0,7.93-.04.43-.14.9-.49,1.19-.12.1-1.24.6-1.32.6h-3.96v7.67h24.47v-7.67h-4.2c-.38,0-1.8-.83-1.8-1.32v-31.78c-1.07.12-2.46-.17-3.48,0-.61.1-1.53,1.09-2.39.96l-27-.25ZM107.71,131.9h-3.72c-.37,0-3.63,1.33-4.44,1.56-3.3.94-6.9,1.62-10.32,1.8v7.67h5.76v38.01c0,.61-1.18,1.8-1.8,1.8h-3.96v7.67h23.03v-7.67c-1.67.03-4.14.24-4.5-1.85l-.06-18.14c3.17-2.57,12.23-6.64,12.74.2.43,5.77-.29,12.11-.06,17.94-.36,2.09-2.83,1.88-4.5,1.85v7.67h23.27v-7.67h-4.2c-.61,0-1.78-1.1-1.79-1.81-.27-6.32.33-12.9,0-19.19-.21-3.93-1.12-7.34-4.49-9.67-5.28-3.65-11.78-2.66-17.28-.08l-3.67,1.96v-22.06ZM482.92,131.9h-3.72c-.38,0-3.62,1.33-4.44,1.56-3.32.94-6.87,1.71-10.32,1.79v7.68h6v37.06c-.1.87-.37,1.96-1.21,2.39-.12.06-1.02.37-1.07.37h-3.72v7.67h24.71v-7.67h-3.96c-.06,0-1.02-.42-1.17-.51-1.26-.77-.68-2.23-1.12-3.44v-46.89ZM70.29,136.22c-2.34-.98-4.64-2.02-7.14-2.57-19.66-4.32-36.43,10.23-34.59,30.26,1.6,17.45,15.76,28.72,33.2,26.01,7.02-1.09,13.34-4.81,18.02-10.05l4.57-5.76c.15-.21-.11-.36-.26-.49-1.66-1.46-3.94-2.76-5.75-4.08-3.69,5-9.26,10.19-15.62,11.25-20.16,3.37-25.77-31.1-9.94-37.99,7.34-3.2,13.99.42,18.33,6.37,1.55,2.12,2.74,4.48,4.12,6.68l6.95-2.13.05-.8-5.25-19.1h-5.35s-1.35,2.38-1.35,2.38ZM251.65,136.46h-7.68c-.26,5.53-3.22,10.7-8.18,13.29-.82.43-1.89.66-2.62,1.22v7.31h5.64c.35.22.34.46.37.83.56,6.75-.59,14.37-.02,21.12.78,9.31,12.72,11,19.98,9.65,2.47-.46,4.77-1.55,7.14-2.34v-8.39l-2.64,1.32c-3.42,1.67-10.89,1.95-11.7-2.93-.07-.4-.29-1.89-.29-2.11v-17.15h12.95v-8.15h-12.95v-13.67ZM184.72,169.79c.02-2.9-.21-5.81-1.13-8.58-3.52-10.62-14.18-14.45-24.55-11.69-16.91,4.5-20.57,26.44-6.69,36.69,5.58,4.12,13.12,5.05,19.71,3.19,5.4-1.53,9.63-5.16,13.38-9.17l-5.61-5.39c-3.94,4.38-10.92,8.57-16.68,5.13-2.27-1.35-3.93-3.57-4.7-6.09-.39-1.29-.66-2.73-.6-4.08h26.87ZM217.1,151.32c-.65.12-1.01-.43-1.58-.69-9.8-4.36-25.3-.97-24.08,12.09.8,8.59,15.59,11.18,22.14,13.84,1.7.69,3.75,1.65,3.25,3.86-.38,1.67-3.64,2.44-5.12,2.33-5.46-.39-10.96-4.74-13.9-9.14-.09-.14-.15-.29-.13-.46l-7.43,3.13,4.77,13.07,5.15.12,1.24-2.16c1.03.43,1.94,1.12,2.98,1.55,6.95,2.88,16.93,1.56,21.83-4.56,2.91-3.64,2.94-9.8,0-13.43-1.46-1.81-4.58-3.39-6.72-4.32-5.25-2.28-11.11-3.43-16.08-6.23-1.8-1.73.08-3.7,2.06-3.95,4.2-.54,8.76,1.68,11.51,4.78.45.51,1.45,2.24,1.95,2.38l7.18-2.85-3.04-11.02-5.11-.03-.88,1.69ZM311.87,169.79c.4-8.64-3.57-17.25-12.24-20.02-11.92-3.82-26.09,2.68-28.29,15.61-2.81,16.53,12.22,28.44,27.86,24.02,5.46-1.54,9.62-5.09,13.38-9.17l-5.4-5.39c-4.04,3.96-9.92,8.07-15.78,5.7-4.02-1.62-6.56-6.51-6.41-10.74h26.87ZM459.17,169.79c0-2.52-.17-5.01-.84-7.44-3.13-11.44-13.81-15.67-24.84-12.84-16.2,4.17-20.45,25.01-7.91,35.75,5.82,4.98,14.09,6.18,21.3,4.02,5.07-1.52,9.26-5.01,12.75-8.85v-.41l-5.35-5.18c-3.81,4.15-10,8.1-15.74,5.62-1.55-.67-3.25-2.11-4.19-3.49-1.41-2.05-2.09-4.71-2.05-7.19h26.87ZM334.42,149.65h-3.72c-.05,0-.38.29-.6.36-4.17,1.34-8.23,2.95-12.72,3v7.67h5.76v20.5c0,.44-1.34,1.56-1.8,1.56h-3.96v7.67h24.47v-7.67h-3.96c-.12,0-1.27-.56-1.45-.71-.3-.27-.53-.7-.58-1.1l.02-17.47c.15-.48,2.85-1.56,3.45-1.56,1.19,0,2.73.86,3.89,1.12s2.33.29,3.49,0c6.04-1.5,5.97-11.11.13-12.97-4.96-1.58-9.15,2.18-12.43,5.35v-5.76ZM402.79,217.28h-4.2c-.21,0-3.32,1.3-4.01,1.5-3.37,1-6.78,1.41-10.26,1.85v7.43h5.76v9.59c-7.81-4.41-17.79-3.59-23.37,3.85-11.15,14.87-.76,41.75,19.94,33.37l4.87-2.68v3.84l17.27-.48v-7.67h-4.68c-.42,0-1.32-1.15-1.32-1.56v-49.04ZM158.81,221.11v7.43c2.79.11,6.05-.63,6.46,3.01l.02,34.28c-.15.64-.22,1.49-.61,2.03-.17.23-1.3.96-1.43.96h-4.44v7.67h32.75c5.17-.48,10.76-1.1,14.97-4.45,8.18-6.51,7.54-19.26-2.46-23.41l-4.24-1.51,3.52-1.51c10.43-6.16,8.44-19.87-3.1-23.37-2.06-.63-4.19-.81-6.3-1.14h-35.15ZM300.83,267.88c-3.1.94-6.2.91-6.49-2.99-.47-6.34,1.08-15.68-.58-21.48-1.92-6.73-11.74-8.52-17.77-8.15-5.52.34-15.41,3.45-16.17,9.98-.6,5.16,4.48,8.04,8.78,5.66,3.2-1.76,2.81-5.86,5.82-7.37,2.27-1.14,6.1-.88,7.25,1.64.88,1.92.24,4.42.45,6.49-.7.63-1.71.29-2.54.38-8.91.95-24.63,3.55-21.64,16.13,1.86,7.85,10.96,9.45,17.75,7.55,2.83-.79,5.59-2.32,7.98-3.99,1.54,1.55,2.76,2.93,4.85,3.76,4,1.58,8.23,1.12,12.3.05v-7.67ZM235.1,235.98c-1.19.09-2.54-.14-3.71.01-1.27.16-3.71,1.37-5.17,1.79-2.76.79-5.56,1.23-8.39,1.57v7.42s5.98,0,5.98,0v19.79c0,.64-.62,2.27-1.32,2.27h-4.68v7.67h24.47v-7.67h-4.2c-.11,0-1.34-.71-1.38-1.02-.11-.82-.38-1.9-.43-2.69-.32-4.84.26-10.01,0-14.89l.13-.59c.3-.58,2.68-1.39,3.36-1.44,1.65-.13,3.35,1.05,5.04,1.21,9.17.86,9.14-12.67,1.45-13.44-4.76-.48-7.93,2.6-11.16,5.52v-5.52ZM323.62,235.98h-3.96c-.54,0-5.12,1.8-6.3,2.1-2.23.56-4.52.84-6.78,1.26v7.43h5.64l.37.83c-.39,5.91.48,12.4,0,18.24-.04.48-.25,1.56-.43,1.97-.13.31-.88,1.02-1.14,1.02h-4.44v7.67h23.03v-7.67c-2.25-.12-4.11.72-4.5-2.1l-.07-17.42c2.55-1.96,8.59-5.62,11.53-3.15.83.69,1.07,1.61,1.18,2.66.57,5.61-.39,12.04.02,17.73-.26,2.72-2.45,2.3-4.56,2.27v7.67h23.27v-7.67h-4.68c-.31,0-1.1-.82-1.21-1.18-.13-.42-.32-1.79-.35-2.29-.46-6.38.62-13.61-.01-19.89-.85-8.45-10.23-10.75-17.31-8.95-3.39.86-5.6,2.56-8.51,4.21-.27.15-.44.36-.79.29v-5.04Z"/>
  <path d="M158.81,221.11h35.15c2.1.32,4.23.51,6.3,1.13,11.54,3.5,13.53,17.21,3.1,23.37l-3.52,1.51,4.24,1.51c9.99,4.15,10.64,16.9,2.46,23.41-4.21,3.35-9.8,3.97-14.97,4.46h-32.75v-7.68h4.44c.14,0,1.27-.73,1.43-.96.39-.54.46-1.38.61-2.03l-.02-34.28c-.41-3.65-3.67-2.9-6.46-3.01v-7.43ZM178.96,243.66c2.43-.1,4.9.13,7.32,0,1.32-.07,3.47-.25,4.74-.54,2.51-.58,5.25-2.47,5.63-5.16.59-4.15-1.26-6.92-5.36-7.72-.26-.05-1.35-.26-1.42-.26h-10.92v13.67ZM178.96,251.57v14.99c0,.18.71,1.15,1.08,1.08,3.63-.22,7.67.42,11.22-.3,8.2-1.68,9.31-13.2.72-15.23-.75-.18-2.69-.54-3.3-.54h-9.72Z"/>
  <path d="M374.72,150.37l27,.25c.86.12,1.79-.86,2.39-.96,1.02-.17,2.41.12,3.48,0v31.78c0,.49,1.42,1.32,1.8,1.32h4.2v7.67h-24.47v-7.67h3.96c.07,0,1.2-.5,1.32-.6.35-.29.45-.76.49-1.19.23-2.27.04-5.56,0-7.93-.06-3.22-.36-6.6-.49-9.82-.06-1.4.06-2.81,0-4.2h-19.91v21.94c0,.07.61,1.1.72,1.2s1.25.6,1.32.6h3.96v7.67h-24.47v-7.67h4.2c.05,0,.86-.37.97-.47.94-.74.38-2.43.83-3.48v-19.79h-6v-8.39h6c-.04-3.75-.36-6.81,1.39-10.24,4.97-9.72,16.27-9.77,25.83-8.94,5.2.45,12.06,1.19,14.96,6.15,1.87,3.2,1.13,7.2-2.77,8.18-3,.75-4.62-.12-7-1.76-1.74-1.2-3.06-2.82-5.06-3.58-4.16-1.58-10.53-1.12-13.3,2.77-.21.3-1.33,2.56-1.33,2.75v4.44Z"/>
  <path d="M534.49,130.94v49.52c0,.05.59.83.63.86.11.06,1.1.46,1.16.46h4.2v7.67l-17.27.72v-3.84c-1.02.06-1.83.99-2.71,1.48-10.38,5.74-20.58,1.95-24.99-8.92-6.42-15.84,5.18-36.07,23.63-28.66.88.35,1.68,1.07,2.64,1.08v-9.11h-5.4c-.23-.16-.32-.31-.36-.59-.31-2.19.24-5.05,0-7.32,3.28-.2,6.62-.71,9.78-1.61.8-.23,4.48-1.74,4.73-1.74h3.96ZM520.27,159.55c-2.01-2-5.48-2.37-7.92-.98-5.52,3.12-5.54,14.43-2.61,19.31s8.32,2.92,12.05.16v-14.6c-.24-1.36-.5-2.87-1.52-3.88Z"/>
  <path d="M107.71,131.9v22.06l3.67-1.96c5.5-2.58,12-3.57,17.28.08,3.37,2.33,4.28,5.74,4.49,9.67.33,6.29-.28,12.87,0,19.19,0,.7,1.18,1.81,1.79,1.81h4.2v7.67h-23.27v-7.67c1.67.03,4.14.24,4.5-1.85-.23-5.83.49-12.17.06-17.94-.5-6.84-9.57-2.77-12.74-.2l.06,18.14c.36,2.09,2.83,1.88,4.5,1.85v7.67h-23.03v-7.67h3.96c.62,0,1.8-1.19,1.8-1.8v-38.01h-5.76v-7.67c3.42-.18,7.02-.86,10.32-1.8.81-.23,4.06-1.56,4.44-1.56h3.72Z"/>
  <path d="M284.76,45.81v22.06c2.92-1.63,5.96-3.35,9.3-4.02,7.57-1.52,15.43,1.76,16.12,10.15.53,6.56-.36,13.75,0,20.38-.17.63,1.13,2.03,1.57,2.03h4.44v7.67h-23.27v-7.67c1.75-.09,4.31.64,4.57-1.79l-.02-18.7c-.77-3.55-4.12-3.26-6.95-2.41-2.02.6-4.07,1.86-5.72,3.15l.03,17.66c.38,2.63,2.41,2.08,4.5,2.1v7.67h-23.03v-7.67h4.44c.28,0,1.32-1.03,1.32-1.32v-38.49h-5.76v-7.43c3.66-.35,7.26-1.06,10.8-2.04.7-.19,3.41-1.32,3.72-1.32h3.96Z"/>
  <path d="M402.79,217.28v49.04c0,.41.9,1.56,1.32,1.56h4.68v7.67l-17.27.48v-3.84l-4.87,2.68c-20.7,8.38-31.09-18.5-19.94-33.37,5.58-7.44,15.56-8.26,23.37-3.85v-9.59h-5.76v-7.43c3.48-.44,6.89-.86,10.26-1.85.69-.21,3.8-1.5,4.01-1.5h4.2ZM382.33,243.71c-6.76,1.1-7.44,12.11-5.87,17.28,1.41,4.62,4.82,7.42,9.7,5.5.67-.26,3.72-1.85,3.87-2.36l.04-15.56c-.35-3.75-4.37-5.41-7.75-4.86Z"/>
  <path d="M70.29,136.22l1.35-2.37h5.35s5.25,19.09,5.25,19.09l-.05.8-6.95,2.13c-1.38-2.2-2.57-4.56-4.12-6.68-4.34-5.95-10.99-9.57-18.33-6.37-15.83,6.9-10.22,41.36,9.94,37.99,6.36-1.06,11.93-6.25,15.62-11.25,1.81,1.32,4.09,2.61,5.75,4.08.15.13.41.28.26.49l-4.57,5.76c-4.68,5.24-11,8.95-18.02,10.05-17.44,2.72-31.6-8.56-33.2-26.01-1.84-20.04,14.93-34.59,34.59-30.26,2.5.55,4.8,1.59,7.14,2.57Z"/>
  <path d="M222.03,96.41c1.65-.35,1.86-2.86,2.05-4.19l-.06-34.25-.82-1.33c-4.75-.53-8.98,3.67-11.16,7.47-.79,1.39-1.49,3-2.13,4.46l-7.42-2.38,6.73-19.41h5.24s.64,1.92.64,1.92h30.7c.98.31,1.05-1.88,1.45-1.94l5.11.03,6.73,19.26-.57.4-6.83,2.12c-1.75-4.09-4.17-8.4-8.1-10.73-1.64-.97-3.69-1.73-5.55-.95-.22.22-.51,2.22-.54,2.7-.68,10.29.54,21.31,0,31.67.53,1.35-.21,3.51.97,4.55.09.08,1.01.6,1.08.6h4.68v7.67h-26.87v-7.67h4.68Z"/>
  <path d="M323.62,235.98v5.04c.36.07.52-.14.79-.29,2.91-1.65,5.12-3.35,8.51-4.21,7.08-1.8,16.46.5,17.31,8.95.63,6.28-.45,13.51.01,19.89.04.5.22,1.87.35,2.29.12.37.91,1.18,1.21,1.18h4.68v7.67h-23.27v-7.67c2.12.03,4.3.44,4.56-2.27-.42-5.7.54-12.13-.02-17.73-.11-1.05-.35-1.97-1.18-2.66-2.94-2.46-8.99,1.19-11.53,3.15l.07,17.42c.39,2.82,2.25,1.98,4.5,2.1v7.67h-23.03v-7.67h4.44c.25,0,1-.72,1.14-1.02.18-.41.39-1.49.43-1.97.49-5.84-.38-12.33,0-18.24l-.37-.83h-5.64v-7.43c2.25-.42,4.55-.7,6.78-1.26,1.17-.3,5.76-2.1,6.3-2.1h3.96Z"/>
  <path d="M300.83,267.88v7.67c-4.07,1.06-8.3,1.53-12.3-.05-2.09-.83-3.31-2.21-4.85-3.76-2.39,1.67-5.15,3.2-7.98,3.99-6.78,1.9-15.88.3-17.75-7.55-2.98-12.58,12.74-15.19,21.64-16.13.83-.09,1.84.25,2.54-.38-.21-2.08.43-4.58-.45-6.49-1.15-2.52-4.98-2.78-7.25-1.64-3.01,1.51-2.63,5.61-5.82,7.37-4.31,2.37-9.38-.5-8.78-5.66.76-6.53,10.65-9.63,16.17-9.98,6.03-.37,15.85,1.42,17.77,8.15,1.66,5.81.11,15.15.58,21.48.29,3.89,3.39,3.92,6.49,2.99ZM282.12,258.53c-1.72.07-3.65.36-5.34.78-3.18.78-6.5,2.15-5.93,6.05.18,1.21,2.06,2.6,3.24,2.75,2.79.37,5.83-1.16,8.02-2.75v-6.83Z"/>
  <path d="M184.72,169.79h-26.87c-.06,1.35.2,2.79.6,4.08.77,2.52,2.43,4.74,4.7,6.09,5.75,3.44,12.74-.75,16.68-5.13l5.61,5.39c-3.75,4-7.98,7.64-13.38,9.17-6.59,1.86-14.13.93-19.71-3.19-13.87-10.24-10.22-32.19,6.69-36.69,10.36-2.75,21.03,1.07,24.55,11.69.92,2.77,1.16,5.68,1.13,8.58ZM172.01,163.32c-.27-9.38-13.04-9.12-13.43,0h13.43Z"/>
  <path d="M459.17,169.79h-26.87c-.04,2.48.64,5.13,2.05,7.19.94,1.37,2.64,2.82,4.19,3.49,5.73,2.47,11.93-1.48,15.74-5.62l5.35,5.18v.41c-3.49,3.85-7.68,7.33-12.75,8.85-7.21,2.17-15.48.97-21.3-4.02-12.54-10.74-8.29-31.58,7.91-35.75,11.03-2.84,21.71,1.4,24.84,12.84.67,2.43.84,4.92.84,7.44ZM446.45,163.32c-.32-9.4-13.01-9.11-13.43,0h13.43Z"/>
  <path d="M311.87,169.79h-26.87c-.15,4.22,2.4,9.11,6.41,10.74,5.86,2.37,11.74-1.73,15.78-5.7l5.4,5.39c-3.76,4.08-7.92,7.63-13.38,9.17-15.65,4.42-30.68-7.49-27.86-24.02,2.2-12.93,16.37-19.43,28.29-15.61,8.66,2.78,12.63,11.38,12.24,20.02ZM285.72,163.32h13.43c-.17-9.4-12.94-9.08-13.43,0Z"/>
  <path d="M364.17,83.46h-26.87c-.05,5.45,3.41,11.08,9.23,11.52,4.97.38,9.75-3.02,12.96-6.48l5.37,5.39c-3.1,3.84-7.73,7.54-12.5,9.06-17.39,5.54-34.31-9.82-27.66-27.41,5.87-15.5,30.61-18.31,37.59-2.56.72,1.63,1.87,5.1,1.87,6.76v3.72ZM351.45,76.98c.16-5.86-6.55-9.1-11.04-5.16-1.45,1.28-2.28,3.25-2.39,5.16h13.43Z"/>
  <path d="M217.1,151.32l.88-1.69,5.11.03,3.04,11.02-7.18,2.85c-.51-.14-1.5-1.87-1.95-2.38-2.75-3.1-7.31-5.32-11.51-4.78-1.98.26-3.86,2.22-2.06,3.95,4.97,2.8,10.84,3.95,16.08,6.23,2.14.93,5.26,2.51,6.72,4.32,2.94,3.63,2.91,9.79,0,13.43-4.9,6.12-14.88,7.44-21.83,4.56-1.04-.43-1.95-1.12-2.98-1.55l-1.24,2.16-5.15-.12-4.77-13.07,7.43-3.13c-.02.17.04.32.13.46,2.94,4.4,8.44,8.74,13.9,9.14,1.48.11,4.74-.65,5.12-2.33.5-2.21-1.55-3.17-3.25-3.86-6.56-2.66-21.34-5.24-22.14-13.84-1.22-13.06,14.29-16.44,24.08-12.09.57.25.93.8,1.58.69Z"/>
  <path d="M251.65,136.46v13.67h12.95v8.15h-12.95v17.15c0,.22.22,1.7.29,2.11.81,4.88,8.28,4.6,11.7,2.93l2.64-1.32v8.39c-2.37.79-4.66,1.88-7.14,2.34-7.25,1.35-19.19-.34-19.98-9.65-.57-6.75.58-14.37.02-21.12-.03-.37-.02-.61-.37-.83h-5.64v-7.31c.73-.56,1.8-.79,2.62-1.22,4.95-2.59,7.92-7.76,8.18-13.29h7.68Z"/>
  <path d="M482.92,131.9v46.89c.43,1.21-.15,2.68,1.11,3.44.15.09,1.11.51,1.17.51h3.96v7.67h-24.71v-7.67h3.72c.06,0,.95-.3,1.07-.37.83-.43,1.1-1.52,1.21-2.39v-37.06h-6v-7.68c3.45-.08,7-.86,10.32-1.79.81-.23,4.06-1.56,4.44-1.56h3.72Z"/>
  <path d="M334.42,149.65v5.76c3.28-3.17,7.47-6.92,12.43-5.35,5.84,1.86,5.91,11.47-.13,12.97-1.16.29-2.32.26-3.49,0s-2.71-1.12-3.89-1.12c-.6,0-3.3,1.09-3.45,1.56l-.02,17.47c.06.4.28.83.58,1.1.18.16,1.33.71,1.45.71h3.96v7.67h-24.47v-7.67h3.96c.46,0,1.8-1.12,1.8-1.56v-20.5h-5.76v-7.67c4.48-.05,8.54-1.66,12.72-3,.22-.07.55-.36.6-.36h3.72Z"/>
  <path d="M235.1,235.98v5.52c3.23-2.92,6.41-6,11.16-5.52,7.69.77,7.72,14.3-1.45,13.44-1.69-.16-3.38-1.34-5.04-1.21-.68.05-3.06.87-3.36,1.44l-.13.59c.27,4.88-.31,10.05,0,14.89.05.79.31,1.87.43,2.69.04.31,1.26,1.02,1.38,1.02h4.2v7.67h-24.47v-7.67h4.68c.7,0,1.32-1.63,1.33-2.27v-19.79h-6v-7.42c2.84-.34,5.64-.78,8.4-1.57,1.46-.42,3.9-1.62,5.17-1.79,1.16-.15,2.52.08,3.71-.01Z"/>
  <path d="M544.04,115.16c2.03-.18,4.78,1.14,6.05,2.71,4.68,5.78-1.14,14.07-8.22,11.58s-6.05-13.57,2.17-14.29ZM543.06,116.12c-4.11.68-6.3,5.41-4.67,9.13,1.94,4.42,8.11,5.14,11.08,1.36,3.79-4.82-.4-11.48-6.41-10.48Z"/>
  <path class="st0" d="M178.96,251.57h9.72c.61,0,2.55.36,3.3.54,8.6,2.02,7.48,13.55-.72,15.23-3.54.73-7.58.08-11.22.3-.37.07-1.08-.9-1.08-1.08v-14.99Z"/>
  <path class="st0" d="M178.96,243.66v-13.67h10.92c.07,0,1.16.21,1.42.26,4.1.8,5.95,3.57,5.36,7.72-.38,2.69-3.13,4.58-5.63,5.16-1.27.29-3.42.47-4.74.54-2.43.12-4.9-.1-7.32,0Z"/>
  <path class="st0" d="M520.27,159.55c1.02,1.01,1.28,2.52,1.51,3.88v14.6c-3.73,2.75-9.1,4.74-12.05-.16s-2.9-16.19,2.61-19.31c2.45-1.38,5.92-1.01,7.92.98Z"/>
  <path class="st0" d="M382.33,243.71c3.38-.55,7.4,1.11,7.75,4.86l-.04,15.56c-.15.52-3.2,2.1-3.87,2.36-4.88,1.92-8.29-.88-9.7-5.5-1.57-5.16-.9-16.17,5.87-17.28Z"/>
  <path class="st0" d="M282.12,258.53v6.83c-2.19,1.58-5.23,3.11-8.02,2.75-1.19-.16-3.07-1.54-3.24-2.75-.57-3.9,2.75-5.26,5.93-6.05,1.69-.42,3.61-.71,5.34-.78Z"/>
  <path class="st0" d="M172.01,163.32h-13.43c.4-9.12,13.17-9.38,13.43,0Z"/>
  <path class="st0" d="M446.45,163.32h-13.43c.42-9.11,13.11-9.4,13.43,0Z"/>
  <path class="st0" d="M285.72,163.32c.5-9.08,13.26-9.4,13.43,0h-13.43Z"/>
  <path class="st0" d="M351.45,76.98h-13.43c.11-1.91.94-3.89,2.39-5.16,4.49-3.94,11.2-.69,11.04,5.16Z"/>
  <path class="st0" d="M543.06,116.12c6.01-.99,10.2,5.66,6.41,10.48-2.97,3.78-9.14,3.07-11.08-1.36-1.63-3.71.56-8.45,4.67-9.13ZM545.17,118.23c-1.45-.17-3.19.13-4.68,0,.44.59.84.44.95,1.33.16,1.27.15,4.22.02,5.52-.03.33-.13.86-.36,1.08-.35.34-.88.03-.85.47h4.32l-1.16-.88.08-2.96c.32-.04.54.26.71.49.44.59,1.38,2.95,1.8,3.24l2.41.11-2.4-3.95c.57-.31,1.19-.5,1.55-1.1.59-.97.19-2.46-.89-2.92-.24-.1-1.28-.4-1.5-.42Z"/>
  <path d="M545.17,118.23c.22.03,1.26.32,1.5.42,1.08.46,1.48,1.96.89,2.92-.37.6-.99.78-1.55,1.1l2.4,3.95-2.41-.11c-.42-.28-1.36-2.64-1.8-3.24-.17-.23-.39-.53-.71-.49l-.08,2.96,1.16.88h-4.32c-.03-.44.5-.13.85-.47.23-.22.33-.75.36-1.08.13-1.29.14-4.24-.02-5.52-.11-.89-.51-.73-.95-1.33,1.49.13,3.22-.17,4.68,0ZM543.37,122.31c3.08.57,3.26-4.05,0-3.6v3.6Z"/>
  <path class="st0" d="M543.37,122.31v-3.6c3.26-.46,3.08,4.16,0,3.6Z"/>
</svg>