<?xml version="1.0" encoding="UTF-8"?>
<svg id="Laag_1" data-name="Laag 1" xmlns="http://www.w3.org/2000/svg" viewBox="0 0 3840 1093">
  <defs>
    <style>
      .cls-1 {
        fill: #fff;
      }
    </style>
  </defs>
  <path class="cls-1" d="M0,259.76V0h3840v435.6h-120v-47.96h108v-43.96h-108v-37.97h116v-45.96h-184v223.8h188v609.44H0V313.71h74v169.84h68v-169.84h70v-53.95H0ZM3398,451.59v-95.91h-108v45.96h48c2.98,22.85-2.54,26.14-22.91,32.06-62.75,18.26-82.05-28.95-77.06-82.99,1.94-21.01,11.3-39,32.37-45.59,22.16-6.93,53.77-5.6,57.63,22.57l65.97-12c-8.95-35.02-33.69-54.94-69.03-59.9-63.21-8.87-131.87,7.52-149.96,75.92s6.83,137.21,80.87,150.96c52.3,9.71,98.71-1.78,142.11-31.08ZM524,259.76h-66v223.8h66v-88.92l3-3h75v91.92h70v-223.8h-70v77.93h-78v-77.93ZM1116,259.76h-184v223.8h186v-47.96h-117l-3-3v-44.96h110v-43.96h-107l-3-3v-34.97h118v-45.96ZM1617,259.76h-143v225.79h141c4.24,0,22.16-5.06,26.98-7.01,52.79-21.35,57.72-98.05-1.98-112.9,11.95-9.16,23.11-14.65,29.48-29.46,17.46-40.59-13.2-72.45-52.49-76.42ZM2067,259.76c-42.88-3.96-91.51,2.95-135,0v223.8h70v-91.92c13.92-1.39,23.51,4.68,31.95,15.03l40.05,76.88h78c-21.5-33.7-31.82-77.22-67.99-98.92,38.12-10.95,58.57-47.63,46.1-86.02-8.54-26.3-37.79-36.51-63.11-38.86ZM2458,259.76h-68v223.8h68v-223.8ZM2724,483.56h123c52.41,0,83.7-65.4,83.14-110.92-.6-49.14-38.73-112.87-93.14-112.87h-113v223.8ZM2436,829.23c8.76-.48,21.95,9.61,29.4,6.57,3.87-1.58,18.14-14.69,21.62-18.53,5.97-6.59,15.81-20.57,19.36-28.61,14.73-33.29,3.72-76.65-37.31-79.37-65.86-4.37-72.74,89.1-5.09,84,1.99,8.6-31.63,31.88-27.99,35.94ZM2672,717.36c-8.32.36-18.24-6.95-25.53-7.69-13.26-1.36-42.17,39.9-46.83,52.28-13.25,35.22-.28,73.9,41.34,75.41,64.71,2.36,67.14-92.52,1.03-84.06l10.04-14.92,19.95-21.01ZM2792,829.23l27.88,7.02c28.01-20.9,54.91-53.51,47.23-91.05-6.9-33.73-50.81-47.04-77.16-26.9-35.77,27.34-15.36,81.89,30.03,74.99.81,8-31.1,32.49-27.99,35.94ZM2304,711.35h-34v123.89h34v-123.89ZM1066,713.35h-90v121.89h34v-49.95h48v-23.98h-45c-3.54-2.21-2.79-5.36-3.1-8.89-.33-3.83-.01-7.96.42-11.78l2.68-3.31h53v-23.98ZM1168,713.35h-36v121.89h36v-121.89ZM1319,713.35c-24.25-3-54.12,2.22-79,0v121.89h36v-49.95c4.87.03,11.41-.75,15.44,2.58,9.16,7.55,17.95,37.53,27.56,47.38h39c-11.16-19.29-16.64-44.34-37.99-54.96,37.48-6.36,39.85-61.88-1.01-66.93ZM1514,713.35h-100v121.89h102v-25.98h-63c-6.01-6.35-1.85-17.69-3-25.98h60v-23.98h-60c.9-7.14-2.69-16.71,3-21.98h61v-23.98ZM1616,713.35h-36v121.89h34v-67.94l49,67.94h33v-121.89h-34v67.94l-46-67.94ZM1868,713.35h-106v23.98h60c.87,3.48-1.43,3.99-2.99,6.01-17.61,22.88-42.54,42.47-61.98,63.96l-1.04,27.94h114v-25.98h-72l68.97-71.97,1.03-23.95ZM2030,713.35h-100v121.89h102v-25.98h-64v-25.98h58v-23.98h-58v-21.98h62v-23.98Z"/>
  <polygon points="3840 483.56 3652 483.56 3652 259.76 3836 259.76 3836 305.72 3720 305.72 3720 343.69 3828 343.69 3828 387.65 3720 387.65 3720 435.6 3840 435.6 3840 483.56"/>
  <polygon points="0 259.76 212 259.76 212 313.71 142 313.71 142 483.56 74 483.56 74 313.71 0 313.71 0 259.76"/>
  <path d="M1617,259.76c39.29,3.97,69.95,35.83,52.49,76.42-6.37,14.81-17.54,20.3-29.48,29.46,59.7,14.86,54.77,91.55,1.98,112.9-4.83,1.95-22.75,7.01-26.98,7.01h-141v-225.79h143ZM1544,347.68h41c17.79,0,29.32-24.26,15.09-37.06-2.62-2.36-12.33-6.9-15.09-6.9h-41v43.96ZM1544,435.6h53c16.35,0,22.59-28.11,11.12-39.09-2.4-2.3-12.56-6.87-15.12-6.87h-49v45.96Z"/>
  <path d="M2067,259.76c25.32,2.34,54.57,12.56,63.11,38.86,12.47,38.39-7.98,75.07-46.1,86.02,36.17,21.7,46.49,65.21,67.99,98.92h-78l-40.05-76.88c-8.44-10.35-18.03-16.43-31.95-15.03v91.92h-70v-223.8c43.49,2.95,92.12-3.96,135,0ZM2000,351.68h33c2.65,0,16.31-3.2,19.58-4.41,24.58-9.16,17.72-35.23-8.13-40.99-12.32-2.75-33.43-5.18-44.45.45v44.96Z"/>
  <polygon points="524 259.76 524 337.69 602 337.69 602 259.76 672 259.76 672 483.56 602 483.56 602 391.64 527 391.64 524 394.64 524 483.56 458 483.56 458 259.76 524 259.76"/>
  <path d="M2724,483.56v-223.8h113c54.42,0,92.54,63.74,93.14,112.87.56,45.52-30.74,110.92-83.14,110.92h-123ZM2790,431.61h33c2.69,0,16.67-6.31,19.66-8.33,27.21-18.4,25.29-84.78-2-103.23-2.99-2.02-16.97-8.33-19.66-8.33h-31v119.89Z"/>
  <path d="M3398,451.59c-43.4,29.3-89.82,40.79-142.11,31.08-74.05-13.75-98.8-83.17-80.87-150.96s86.76-84.79,149.96-75.92c35.34,4.96,60.08,24.88,69.03,59.9l-65.97,12c-3.87-28.17-35.47-29.5-57.63-22.57s-30.43,24.58-32.37,45.59c-4.99,54.03,14.31,101.25,77.06,82.99,20.36-5.93,25.89-9.21,22.91-32.06h-48v-45.96h108v95.91Z"/>
  <polygon points="1116 259.76 1116 305.72 998 305.72 998 340.69 1001 343.69 1108 343.69 1108 387.65 998 387.65 998 432.6 1001 435.6 1118 435.6 1118 483.56 932 483.56 932 259.76 1116 259.76"/>
  <rect x="2390" y="259.76" width="68" height="223.8"/>
  <polygon points="1616 713.35 1662 781.29 1662 713.35 1696 713.35 1696 835.24 1663 835.24 1614 767.3 1614 835.24 1580 835.24 1580 713.35 1616 713.35"/>
  <path d="M1319,713.35c40.86,5.05,38.49,60.57,1.01,66.93,21.35,10.62,26.83,35.67,37.99,54.96h-39c-9.61-9.85-18.4-39.83-27.56-47.38-4.03-3.32-10.57-2.55-15.44-2.58v49.95h-36v-121.89c24.88,2.22,54.75-3,79,0ZM1305,737.33c-8.3-1.51-20.2,1.1-29,0v25.99c6.46.44,30.95-.36,34.16-5.33,3.26-6.4,2.92-19.19-5.16-20.66Z"/>
  <polygon points="2030 713.35 2030 737.33 1968 737.33 1968 759.31 2026 759.31 2026 783.28 1968 783.28 1968 809.26 2032 809.26 2032 835.24 1930 835.24 1930 713.35 2030 713.35"/>
  <path d="M1514,713.35v23.98h-61c-5.69,5.27-2.1,14.84-3,21.98h60v23.98h-60c1.15,8.29-3.01,19.62,3,25.98h63v25.98h-102v-121.89h100Z"/>
  <path d="M1868,713.35l-1.03,23.95-68.97,71.97h72v25.98h-114l1.04-27.94c19.44-21.5,44.36-41.09,61.98-63.96,1.55-2.02,3.85-2.53,2.99-6.01h-60v-23.98h106Z"/>
  <path d="M2436,829.23c-3.65-4.07,29.98-27.34,27.99-35.94-67.65,5.1-60.77-88.37,5.09-84,41.03,2.72,52.04,46.08,37.31,79.37-3.56,8.04-13.4,22.02-19.36,28.61-3.48,3.84-17.75,16.95-21.62,18.53-7.45,3.04-20.64-7.05-29.4-6.57ZM2461.47,735.67c-20.24,4.22-19.59,41.8,9.11,35.18,20.07-4.63,12.14-39.61-9.11-35.18Z"/>
  <path d="M2672,717.36l-19.95,21.01-10.04,14.92c66.12-8.46,63.68,86.42-1.03,84.06-41.62-1.52-54.59-40.19-41.34-75.41,4.66-12.38,33.57-53.64,46.83-52.28,7.29.75,17.21,8.06,25.53,7.69ZM2630.57,777.89c-14.34,12.09,1.62,43.25,22.52,29.45,19.86-13.12-3.24-45.69-22.52-29.45Z"/>
  <path d="M2792,829.23c-3.11-3.46,28.79-27.94,27.99-35.94-45.4,6.91-65.81-47.65-30.03-74.99,26.35-20.14,70.26-6.83,77.16,26.9,7.68,37.53-19.22,70.14-47.23,91.05l-27.88-7.02ZM2817.53,735.7c-21.27,2.53-22.27,42.33,9.04,35.16,17.31-3.96,14.5-37.96-9.04-35.16Z"/>
  <path d="M1066,713.35v23.98h-53l-2.68,3.31c-.43,3.82-.75,7.95-.42,11.78.31,3.53-.44,6.68,3.1,8.89h45v23.98h-48v49.95h-34v-121.89h90Z"/>
  <rect x="1132" y="713.35" width="36" height="121.89"/>
  <rect x="2270" y="711.35" width="34" height="123.89"/>
  <path class="cls-1" d="M1544,435.6v-45.96h49c2.56,0,12.72,4.57,15.12,6.87,11.47,10.97,5.23,39.09-11.12,39.09h-53Z"/>
  <path class="cls-1" d="M1544,347.68v-43.96h41c2.76,0,12.47,4.54,15.09,6.9,14.23,12.8,2.7,37.06-15.09,37.06h-41Z"/>
  <path class="cls-1" d="M2000,351.68v-44.96c11.02-5.62,32.13-3.19,44.45-.45,25.85,5.76,32.72,31.83,8.13,40.99-3.27,1.22-16.94,4.41-19.58,4.41h-33Z"/>
  <path class="cls-1" d="M2790,431.61v-119.89h31c2.69,0,16.67,6.31,19.66,8.33,27.29,18.44,29.21,84.83,2,103.23-2.99,2.02-16.97,8.33-19.66,8.33h-33Z"/>
  <path class="cls-1" d="M1305,737.33c8.08,1.47,8.42,14.26,5.16,20.66-3.21,4.97-27.7,5.76-34.17,5.33v-25.99c8.81,1.1,20.71-1.51,29.01,0Z"/>
  <path class="cls-1" d="M2461.47,735.67c21.25-4.43,29.18,30.56,9.11,35.18-28.7,6.62-29.35-30.97-9.11-35.18Z"/>
  <path class="cls-1" d="M2630.57,777.89c19.28-16.25,42.37,16.32,22.52,29.45-20.89,13.81-36.86-17.36-22.52-29.45Z"/>
  <path class="cls-1" d="M2817.53,735.7c23.55-2.8,26.35,31.2,9.04,35.16-31.31,7.17-30.31-32.63-9.04-35.16Z"/>
</svg>