<?xml version="1.0" encoding="UTF-8"?>
<svg id="Laag_1" xmlns="http://www.w3.org/2000/svg" version="1.1" viewBox="0 0 1000 331">
  <!-- Generator: Adobe Illustrator 29.5.1, SVG Export Plug-In . SVG Version: 2.1.0 Build 141)  -->
  <polygon points="440 190 440 177 478 177 478 152 440 152 440 139 515.5 139 517 140.5 517 188.5 515.5 190 440 190"/>
  <path d="M235,152c-3.43,1.73-13.64,18.69-16.48,18-4.56-5.4-8.56-11.46-13.28-16.71-.56-.62.17-1.95-2.24-1.3v38h-7v-51l7.57.93,14.94,19.07c1.25.3,3.24-2.13,4-2.98,4.61-5.11,8.53-11.58,13.48-16.52,2.3-.9,5.39-1.18,7,1v48c-1.82,2.29-6.18,2.29-8,0v-36.5Z"/>
  <path d="M283,140.5c.5-1.92,5.33-1.97,7-1l14.94,18.86,2.54.67,14.94-19.1c1.91-1.56,6.02-1.6,7.57.57v49.5h-7v-38c-1.94-.46-1.93.7-2.82,1.68-4.48,4.9-8.56,11.11-12.69,16.35l-2.54-.67c-3.89-5.07-7.85-11-12.12-15.68-.89-.98-.89-2.13-2.82-1.68v38h-7v-49.5Z"/>
  <path d="M128.72,139.22c20.63-3.53,36.42,10.02,33.24,31.24-2.69,17.94-27.31,24.76-41.66,15.73-19.44-12.23-13.41-43.23,8.42-46.97ZM129.7,146.2c-13.79,2.94-18.09,22.51-8.23,31.83,8.87,8.39,25.86,6.72,31.37-4.69,7.73-16.01-6.21-30.75-23.14-27.14Z"/>
  <path d="M844,185.5c-20.36,12.16-50.26,1.32-45.78-25.78,3.36-20.32,28.02-25.54,44.34-16.78l.44,7.06c-7.64-2.69-14.05-5.03-22.43-3.93-13.02,1.7-19.21,19.32-11.57,29.44,6.88,9.11,16.65,8.52,26.94,6.42l.08-10.93h-9.01s0-6,0-6h17v20.5Z"/>
  <path d="M564,139v22h28v-20.5c1.82-2.29,6.18-2.29,8,0v48c-1.82,2.29-6.18,2.29-8,0v-20.5h-28v22h-7v-49.5l1.63-1.37,5.37-.13Z"/>
  <path d="M924,140.5l1.63-1.37c9.11-.37,23.74-1.07,27.32,9.41,2.44,7.15-.4,13.49-6.95,16.95l4.42,4.58,12.57,19.92c-2.44-.26-5.83.66-8.02-.48-1.92-1-8.28-12.64-10.55-15.45-3.43-4.23-6.56-7.01-12.43-6.07v22l-6.37-.13-1.63-1.37v-48ZM932,161c19.05,2.89,19.05-17.89,0-15v15Z"/>
  <polygon points="899 139 899 146 878 146 878 161 899 161 898.87 166.37 897.5 168 878 168 878 183 900 183 900 190 871 190 871 139 899 139"/>
  <path d="M743,139v7h-19v14h19v6h-19v22.5c-1.82,2.29-6.18,2.29-8,0v-48l1.5-1.5h25.5Z"/>
  <path d="M379,162.5c-4.27-6.7-12.13-13.36-16.02-19.98-.72-1.23-1.35-1.84-.97-3.52,2.59.07,6.07-.47,8.33.94,1.5.94,8.69,11.87,10.83,14.39.66.77.93,2.07,2.33,1.66.82-.24,8.33-11.21,9.99-13.02,3.43-3.76,3.76-4.12,9.03-3.98,1.52.04,2.9-.72,2.49,1.49l-18,22.01v26c-1.82,2.29-6.18,2.29-8,0v-26Z"/>
  <polygon points="82 139 82 146 65 146 65 190 58 190 58 146 40 146 40.13 140.63 41.5 139 82 139"/>
  <polygon points="673 139 673 183 696 183 695.87 188.37 694.5 190 666 190 666 139 673 139"/>
  <path d="M629,140.5c.54-2.07,6.8-2.32,8,0v48c-1.82,2.29-6.18,2.29-8,0v-48Z"/>
  <polygon points="775 139 775 190 768 190 768 140.5 769.63 139.13 775 139"/>
</svg>