<?xml version="1.0" encoding="UTF-8"?>
<svg id="Laag_1" xmlns="http://www.w3.org/2000/svg" version="1.1" viewBox="0 0 456.24 154.32">
  <!-- Generator: Adobe Illustrator 29.5.1, SVG Export Plug-In . SVG Version: 2.1.0 Build 141)  -->
  <path d="M456.24,97.77c-.03.41-.2,1.45-.29,1.98-.31,1.85-1.96,2-3.54,1.85v32.71c-.35,2.48-1.83,5.01-3.99,6.31-.74.44-1.61.62-2.24,1.13-.09.41,1.37,2.11,1.62,2.68,1.37,3.1-.03,6.63-2.9,8.25-7.34,4.14-15.92-3.01-10.48-10.35h-40.54l1.15,2.33c1.39,3.4-.76,7.23-4.03,8.57-6.56,2.69-14.08-3.22-10.04-10.02.17-.29,1.16-1.38,1.16-1.48-1.83-1.17-4.25-2.6-5.16-4.67-.21-.49-.69-2.85-.98-2.89-.95.06-1.91-.04-2.86,0-17.65.92-35.55-.19-53.26.25-1.62.09-2.97-1.46-2.96-3.01.02-2.98.69-6.56.93-9.58,2.14-26.77,4.3-53.56,6.72-80.28.21-2.36-.11-6.51,1.57-8.26.12-.13.62-.49.71-.49h17.63v-11.14c0-.92.81-3.85,1.13-4.86,4.1-12.86,18.74-20.45,31.42-14.95,6.11,2.65,11.21,7.44,13.15,13.94,1.67,5.62.92,11.46,1.08,17.26h7.08s.6-.56.6-.6v-14.26c-3.01.18-4.46-.34-4.78-3.5-.29-2.89.03-7.48,1.9-9.8,3.05-3.77,8.75-3.07,13.08-3.23,5.58-.2,11.2-.35,16.79,0,3.9.24,7.9,1.5,9.42,5.45.88,2.3,1.12,6.64.48,9s-2.8,2.16-4.74,2.09v27.56h13.79c.29,0,2.41,1,2.83,1.24,2.45,1.42,4.14,3.54,4.66,6.36l.06,32.41c1.22-.08,2.18,0,3,.95.89,1.04.48,1.58.6,2.76.02.21.23.34.23.36.16,2.21.18,5.71,0,7.91ZM349.74,32.83h36.1l.36-.36v-10.06c0-2.27-1.43-6.15-2.6-8.19-7.73-13.5-27.81-10.76-32.6,3.7-1.59,4.79-1.24,9.94-1.26,14.91ZM399.87,8.27v5.15l3.33-.26c.4-1.13.21-2.67,1.58-3.09h20.14c1.65.42,2,1.81,1.81,3.36,2.16-.24,3.64.99,3.85-1.79.18-2.32-.35-4.23-2.78-4.91l-25.19-.02c-1,.1-2.03.9-2.75,1.57ZM404.43,18.21v14.86h5.88c.1,0,1.32,1.35,1.32,1.56v11.14h13.55c.07,0,.36-.37.48-.48l.09-26.81c-1.15-.4-2.25-.16-3.32-.87s-1.12-1.88-1.59-3h-12.1c.56,2.9-1.89,3.77-4.32,3.61ZM344.46,38.1h-14.15l-7.68,91.06h53.49v-.72c-1.13.54-3.64.2-4.04-1.12-.27-.91.01-3.35-.04-4.52-.02-.41-.24-.78-.25-1.19-.06-2.2-.66-6.69,2.3-7.07.87-.11,1.68.64,2.26-.12v-36.18c0-.49-.81-.12-1.07-.11-2.37.03-3.28-.53-3.49-3-.16-1.89.16-3.71.25-5.51.05-.98-.21-3.55.12-4.2.75-1.49,2.81-1.22,4.2-1.2v-12.1c0-.9,3.02-4.2,3.85-4.78,1.74-1.22,4.24-1.03,5.98-2.17v-6.71l-.36-.36h-36.1v6.95c2.91.43,5.87,3.18,7,5.83,3.77,8.8-5.4,17.43-14.01,13.28s-7.3-16.68,1.74-18.87v-7.19ZM398.67,38.1h-7.44v7.67h7.44v-7.67ZM406.59,38.1h-2.16v7.67h2.16v-7.67ZM343.81,51.35c-.38.4-1.05,1.76-1.17,2.31-.92,4.32,2.88,7.41,6.91,5.7,3.14-1.33,3.43-6.16.9-8.21-1.83-1.49-4.98-1.57-6.65.2ZM437.75,50.58l-46.62-.03c-1.58,4.43-4.76,8.53-9.47,9.86l-.03,73.19c.21,2.74,2.45,3.75,4.92,3.95h55.43c2.12-.18,4.39-1,4.85-3.3l.06-73.52-.24-.48c-4.41-1.46-7.71-5.26-8.9-9.68ZM385,50.8c-2,.29-3.5,2.03-3.36,4.07.44.1.57-.24.84-.48,1.09-.96,2.09-2.18,2.52-3.59ZM446.88,54.87c.16-2.17-1.37-3.59-3.36-4.07-.27.27,1.61,2.65,1.92,2.99.19.21,1.2,1.35,1.44,1.08ZM387.09,144.78c-2.36.36-2.66,3.61.05,4.16,3.77.77,3.79-4.76-.05-4.16ZM442.51,148.28c.14-.14.26-.58.28-.8.41-3.65-5.05-3.57-4.53,0,.14.99,1.32,1.61,2.25,1.56.29-.01,1.83-.6,2-.77Z"/>
  <path d="M271.3,51.04h-13.43c0-.37-.17-.65-.37-.95-5.98-8.71-19.42-5.23-21.64,4.72-2.03,9.08,3.64,18.08,13.5,17.32,4.03-.31,9.02-3.06,9.47-7.43h-13.43v-9.35h27.11v6.11c0,2.24-1.93,7.14-3.07,9.15-10.05,17.58-38.52,15.01-44.54-4.71-5.46-17.87,8.89-33.07,26.85-30.89,8.61,1.04,17.14,7.62,19.57,16.03Z"/>
  <path d="M79.82,34.81c18.95-1.34,31.57,20.52,21.36,36.43-13.76,21.45-48.54,9.97-44.55-16.47,1.83-12.13,11.43-19.13,23.19-19.97ZM72.27,48.24c-7.39,7.06-4.68,21.48,5.87,23.59,13.54,2.71,19.67-15.25,10.38-23.78-4.36-4-11.97-3.88-16.24.2Z"/>
  <path d="M147.28,35.7l19.05.02c10.52.78,16.62,8.87,10.93,18.55l-3.12,2.76c6.18,1.84,8.37,7.7,7.13,13.72-1.53,7.44-7.9,10.35-14.92,10.73-6.25.34-12.8-.26-19.07,0v-45.77ZM159.04,46.01v6.83c.22.35.46.34.83.37,1.58.13,3.93,0,5.51-.27,2.93-.48,3.8-4.89,1.32-6.32-.16-.09-1.46-.61-1.55-.61h-6.12ZM159.04,71.17h7.32c.15,0,1.89-.61,2.13-.75,2.82-1.67,2.55-6.44-1.03-7.29-.28-.07-1.71-.34-1.81-.34h-6.24l-.36.36v8.03Z"/>
  <path d="M305.12,89.38c.07.31-.44.38-.65.42-3.24.57-6.73.21-10.03.28-13.15.31-26.4.55-39.56.74-44.97.66-89.86,1.28-134.83,1.89-30.74.42-61.69,1.57-92.34-.23-.4-.02-3,.12-3-.12l2.04-.36c60.78-2.65,121.52-5.02,182.54-5.76,28.52-.35,57.12-.71,85.41,1.68l10.43,1.44Z"/>
  <path d="M226.2,81.47h-12.59l-2.51-6.6-15.82-.09-1.94,6.69h-12.95l18.22-45.66,9.49-.12.71.25,17.39,45.53ZM198.38,65.66h9.48s.47-.34.26-.49l-5.05-15.33-4.68,15.82Z"/>
  <path d="M121.14,67.1v14.38h-11.75v-45.77c6.04.25,12.34-.33,18.35,0,2.3.12,5.33.53,7.48,1.4,12.36,4.98,11.4,24.99-1.24,29.05-1.03.33-3.62.95-4.57.95h-8.28ZM121.14,56.79h6.84c.31,0,2.23-.76,2.6-1,3.09-1.99,2.86-7.57-.67-9.08-.46-.19-2.27-.71-2.65-.71h-6.12v10.78Z"/>
  <path d="M306.56,49.12h-11.51c-.25-3.28-2.59-5.51-5.93-4.12-1.92.8-3.03,3.09-1.63,4.85,1.68,2.12,9.27,4.71,12.12,6.34,6.06,3.46,8.45,7.96,7.13,15.04-1.21,6.51-5.89,10.12-12.29,10.97-5.86.78-13.28-.28-17.02-5.29-2.3-3.08-2.94-6.74-3.02-10.53h11.75c-.04,2.17.59,4.55,2.66,5.61.46.23,1.53.62,2.02.64,3.63.13,6.36-4.81,2.84-7.17s-8.38-3.35-12.06-5.69c-10.02-6.36-8.02-19.28,2.7-23.63,6.67-2.71,16.54-1.24,20.36,5.39,1.34,2.33,2.05,4.89,1.88,7.59Z"/>
  <polygon points="56.85 35.7 56.85 46.01 47.97 46.01 47.97 81.47 36.22 81.47 36.22 46.01 27.35 46.01 27.35 35.7 56.85 35.7"/>
  <path d="M165.44,101.17c1.73-.38,5.87.48,7.51,1.27,1.17.57,2.51,1.77,2.63,3.14.21,2.32-4.04,5.47-5.52,7.16-.32.36-.4.87-.71,1.21-.73.81-2.36,1.72-3.25,2.51-1.77,1.58-1.53,1.67-.22,3.57,1.19,1.72,2.71,3.26,4.1,4.79h.39s9.39-8.36,9.39-8.36c1.29.23,1.93.8,1.46,2.17-.56,1.67-3.82,3.88-5.18,5.13-1.23,1.14-2.36,2.41-3.55,3.6-.02.37,2.92,3.31,3.43,3.72,1.63,1.29,4.89,1.84,5.65,3.7s-.25,2.07-1.89,1.64c-3.1-.81-5.44-2.72-7.6-4.87-.8-.8-1.59-1.62-2.44-2.36-4.61,2.34-9.49,5.33-14.64,2.41-2.94-1.66-3.37-2.95-1.71-5.87,1.84-3.23,4.72-5.75,6.88-8.71-3.19-4.44-1.14-9.7,2.19-13.38.51-.56,2.41-2.33,3.04-2.47ZM171.45,105.01c-.18-.18-1.94-.9-2.28-.96-.54-.09-1.32-.12-1.86-.04-2.19.33-5.39,5.2-5.62,7.32-.17,1.55.28,2.38.94,3.7.27.36,2.04-1.49,2.28-1.68,1.62-1.3,3.58-2.63,4.91-4.2.69-.81,2.6-3.18,1.63-4.14ZM162.63,120.05c-1.8,1.67-3.94,3.58-5.23,5.68-.53.86-1.18,2.01-.96,3.02.36,1.64,3.74,1.34,5,1.02,2.05-.51,4.29-1.91,5.98-3.14l-4.8-6.58Z"/>
  <path d="M256.18,103.04c-.2-.21-1.54.77-1.8.96-2.66,1.97-4.94,6.45-6.32,9.5-.29.63-.91,1.99-.99,2.61-.07.55.42.39.85.37,2.2-.13,6.44-1.92,6.32,1.75-.08.26-.31.33-.52.44-1.4.73-8.05,1.46-8.46,2.09l-2.25,9.02c-.27,2.48-.33,5.16-.8,7.59-.28,1.5-1.03,1.38-1.97.4-1.57-1.65-.57-3.06-.37-4.89.08-.76-.06-1.59.02-2.38.34-3.29,1.86-6.89,2.38-10.2l-6,.59c-.41.21-.9.34-1.17.75-.49.74-1.2,3.6-1.4,4.59-.44,2.16-.77,5.2-.55,7.37.11,1.1,1.36,3.38-.46,3.85-.89.23-1.83-1.62-2.05-2.3-1.38-4.24.22-10.81,1.49-15.04,1.68-5.62,4.93-14.26,9.68-17.89,1.44-1.1,3.42-1.78,5.11-.83l2.67,2.6c1.76-2.3,5.72-5.71,8.64-3.59,1.95,1.41,1.41,3.39.45,5.25-2.24,4.36-3.33.06-2.5-2.61ZM236.52,117.9c2.31.18,4.52-.67,6.8-.75l.28-.2c.89-2.73,2.27-5.3,2.92-8.11.46-1.98,1.43-5.07-1.72-4.59-.81.12-1.74,1.17-2.29,1.79-2.98,3.35-4.91,7.53-6,11.86Z"/>
  <path d="M199.82,120.77c2.6-.73,6.59-5.24,9.23-4.79.98.17,1.43,1.63.59,2.27l-7.67,4.8c.67,1.42,1.67,2.67,2.44,4.03.45.78.41,1.65,1.27,2.33,1.83,1.45,2.59-.05,3.99.12,2.6.32-.19,3.81-2.54,3.73s-5.05-3.66-6.17-5.6c-.49-.85-.84-1.92-1.34-2.74-.31-.51-.99-.44-1.38-.06-.91.89-1.56,3.21-1.78,4.45-.25,1.44.1,5.01-2.3,3.21-.91-.68-1.47-1.81-1.27-2.94.29-1.62,1.54-4.79,2.16-6.47,2.91-7.86,6.97-15.27,9.8-23.15,4.77-.12,1.05,6.89.02,9.24-1.69,3.86-3.89,7.51-5.08,11.58Z"/>
  <path d="M59.73,124.85c-.36-.09-.39.08-.6.24-2.77,2.1-4.35,5.31-8.03,6.59-3,1.04-5.33-.81-4.69-3.97.7-3.45,5.39-10.24,8.17-12.45,3.83-3.04,5.08-.79,7.79,1.8.3.29.94.53,1.09.83.33.61-.76,3.19-.85,4.2-.22,2.36-.05,4.74,2.23,5.92.98.51,2.71.6,2.29,2.19-.25.84-1.74.72-2.47.62-2.23-.3-4.72-3.8-4.93-5.97ZM59.17,117.49c-1.52-1.52-3.7,1-4.72,2.2-2.21,2.63-3.65,5.87-5.04,8.98.48.4,2.4-1,2.86-1.33,2.1-1.53,4.89-4.23,6.35-6.36.76-1.1,1.73-2.31.55-3.5Z"/>
  <path d="M40.3,112.38c1.89.26,5.35-1.69,5.95,1.13.38,1.76-.81,1.84-2.25,1.97-1.87.17-4.85-.5-6.1,1.1-1.53,1.97-3.38,8.52-3.58,11.05-.24,3.14,2.7,2.62,4.84,1.96,1.57-.48,2.82-1.51,4.34-2.07,1.4.94.28,2.29-.69,3.09-2.39,1.97-8.01,3.77-10.29.94-1.35-1.67-1.37-4.28-1.08-6.31.46-3.13,1.83-6.26,3.1-9.13.06-.44-.02-.31-.3-.41-1.24-.43-2.69-.25-2.06-2.19.26-.81,2.85-.72,3.68-.87,1.16-.21,1.6-2.28,2.08-3.2.58-1.13,2-3.94,3.3-4.11.78-.1,2.01.89,1.95,1.66-.07.94-3.21,5.1-2.89,5.41Z"/>
  <path d="M111.71,113.64c3.75-.62,6.06,2.1,4.99,5.7-1.21,4.05-6.24,8.07-9.84,4.07-.83,1.49-1.4,4.13-1.03,5.82.4,1.85,2.99,1.43,4.28.78,1.54-.78,4.36-4.06,5.4-1.07-1.73,2.96-7.26,5.82-10.33,3.58-5.62-4.09.48-17.88,6.53-18.88ZM107.94,120.53l.97.11c.38.87.65,1.7,1.77,1.57,1.55-.17,4.27-4.44,3.39-5.77-.6-.43-1.52-.29-2.14.05-.49.27-4.36,3.74-3.99,4.04Z"/>
  <path d="M258.58,123.41c-.93,2.79-2.25,8.45,2.69,6.89,1.99-.63,3.63-2.92,5.79-2.58,1.28,1.5-1.36,3.42-2.56,4.13-1.96,1.17-4.54,2.05-6.71,1.09-3.89-1.72-2.97-7.38-1.86-10.61,1.22-3.54,4.77-9,9.01-8.75,8.48.5,1.59,14.99-5.16,10.66-.42-.27-.64-.9-1.21-.83ZM261.26,121.93c2.58,1.19,4.96-2.63,4.77-4.88-.02-.26.01-.56-.24-.72-1.54-1.03-5.29,2.73-5.77,4.21l.94.02.3,1.38Z"/>
  <path d="M133.85,121.73c-.15-.16-1.69.6-1.99.76-1.82,1-5.51,3.39-7,4.75-.58.53-2.23,3.01-2.43,3.08-1.23.41-2.89-1.05-2.97-2.26-.04-.67.79-2.94,1.08-3.7.8-2.1,2.23-4.12,2.87-6.24.35-1.15.19-2.44,1.08-3.24,1.48-.77,2.9,1.61,2.9,2.88,0,1.91-1.87,3.6-2.18,5.39,2.51-1.1,5.09-4.27,7.85-4.74,3.71-.63,4.16,4.14,3.91,6.78-.06.64-.53,1.61-.45,2.1.17.96,1.91,2.17,1.41,3.52-1.32.11-2.91-.04-3.55-1.37-.09-.18-.53-1.54-.53-1.63v-6.11Z"/>
  <path d="M222.06,114.36c2.27-.4,5.03,1.35,5.33,3.67.7,5.33-5.26,13.78-10.67,14.47-1.82.23-4.06-1.8-4.37-3.52-.91-5.08,4.58-13.73,9.71-14.63ZM223.99,117.95c-.97-.5-1.84-.38-2.76.14-1.99,1.13-6.26,7.95-6.02,10.17.29,2.73,3.31.86,4.52-.18,2.34-2.01,5.29-7.01,4.26-10.14Z"/>
  <path d="M82.71,120.24c-.61.75-2-.39-2.25-1.13-.15-.46-.17-1.08-.1-1.56.1-.67.69-1.13.71-1.8-1.77.41-5.54,2.48-6.29,4.14-1.29,2.83,2.43,6.28,2.88,8.98.16.94.22,2.26-.54,2.95-2.23,2.03-9.69,1.09-9-3.12.46-.48,3.02,1.39,3.73,1.44.54.04,2.55-.6,2.72-1.11.34-1.7-1.1-2.8-1.77-4.16-1.38-2.8-1.95-5.19.12-7.79,1.9-2.38,8.39-6.66,10.75-3.08,1.42,2.16.23,3.46-.73,5.43-.13.26-.13.7-.23.83Z"/>
  <path d="M98.83,116.46c-2.11-.21-4.84,1.22-6.46,2.53-.8.65-2.94,3.3-2.63,4.26.18.58,3.39,1.9,4.13,2.35,2.44,1.51,4.56,4.54.88,6.06-2.84,1.18-8.46,1.66-8.15-2.75.87-.15,1.53.52,2.33.66,1.34.24,3.43-.25,4.38-1.26-3.54-1.61-7.69-3.81-5.81-8.44,1.25-3.06,7.95-6.71,11.19-6.28,3.04.4,4.33,4.48,1.42,5.93-1.71-.28-1.25-1.74-1.28-3.07Z"/>
  <path d="M302.24,116.46c-4.03-.13-7.74,2.83-9.33,6.39,1.72,2.92,7.61,2.37,6.92,6.9-.52,3.41-10.73,4.22-9.82-.83,2.23.69,4.57.77,6.72-.24-1.01-1.23-2.76-1.53-4.06-2.53-2-1.53-2.67-3.14-2.07-5.63.84-3.5,7.89-7.27,11.29-6.94,1.34.13,2.53,1.01,2.98,2.29,1.16,3.35-3.48,6.02-2.62.59Z"/>
  <path d="M275.59,118.88c-.68-.06-1.36.16-1.78-.5-.85-1.66,2.9-4.26,4.31-2.15.56.85.35,1.66.37,2.62,2.27-1.17,4.49-4.32,7.32-3.83.77.13,1.62,1.81,1.56,2.5-.08,1.07-1.64,2.61-2.75,2.54-1.41-.1-.91-1.89-3.02-.13-2.58,2.16-3.88,5.14-5.32,8.11-.64,1.32-1.23,4.58-3.21,3.29-2.1-1.36.46-4.96,1.14-6.56.4-.95,2.33-5.24,1.37-5.89Z"/>
  <path d="M429.25,61.94c1.31,0,2.44.68,2.65,2.03l.11,65.08c-.26,3.1-4.39,3.37-5.41.6l-.12-65.07c.05-1.42,1.34-2.64,2.76-2.64Z"/>
  <path d="M418.27,62.11c1.85-.39,3.56.49,3.68,2.46v64.72c-.37,2.14-2.95,3.17-4.69,1.79-1.36-1.07-.63-1.94-.58-3.23.03-.92.03-1.97,0-2.89-.78-20.42.32-40.89-.02-61.35-.09-.74,1-1.37,1.62-1.5Z"/>
  <path d="M398.79,61.94c.94,0,2.28.67,2.63,1.57v66.85c-1.36,1.97-3.89,1.85-5.04-.23l.08-66.81c.37-.82,1.46-1.39,2.34-1.39Z"/>
  <path d="M387.8,62.11c1.33-.3,3.27.18,3.44,1.74.11.96-.07,2.13-.02,3.13,1.08,20.64-.31,41.6.25,62.31-.34,2.03-1.51,2.51-3.47,2.25-2.18-.29-2.31-2.13-1.8-3.93l-.02-63.76c-.02-.7,1-1.6,1.62-1.74Z"/>
  <path d="M407.95,62.11c.94-.21,2.85-.03,3.31.91.32.65.07,2.6.12,3.48,1.16,20.76-.37,42.17.25,63.03-.26,2.51-3.95,2.9-5.1.77l-.08-66.81c.17-.53.94-1.25,1.5-1.38Z"/>
  <path d="M438.42,62.11c1.33-.3,3.27.18,3.44,1.74.11.96-.07,2.13-.02,3.13,1.04,19.85-.28,40,.25,59.91-.11,1.3-1.21,2.43-2.55,2.5-.71.04-2.53-.59-2.57-1.48l-.06-64.43c.17-.53.94-1.25,1.5-1.38Z"/>
</svg>