<?xml version="1.0" encoding="UTF-8"?>
<svg id="Laag_1" xmlns="http://www.w3.org/2000/svg" version="1.1" viewBox="0 0 3840 2160">
  <!-- Generator: Adobe Illustrator 29.5.1, SVG Export Plug-In . SVG Version: 2.1.0 Build 141)  -->
  <path d="M1894,308v37l-4.98,3.02-45.81,2.19c-18.08,1.85-31.32,10.4-38.98,27.02-11.94,25.88,4.72,48.7,12.82,72.74l161.96,394.01,161.95-396.02c8.51-24.79,24.81-54.12,6.09-78-20.74-26.48-54.01-19.23-84.06-21.94-5.15-.47-13.46-1.62-16.99-5.01v-32l3.28-2.72,229.69,1.74c137.4,6.2,245.52,130.88,253.12,264.88,2.81,49.55,2.99,118.73,0,168.19-7.97,131.68-118.53,243.07-249.3,254.7l-713.89.3c-110.59-8.8-207.55-84.07-242.99-189.01-26.14-77.42-8.91-167.27-13.94-248.09,13.62-136.49,125.39-245.28,262.92-253.08l319.09.09ZM1982.01,957.99l281.09.1c128.8-5.32,222.24-106.03,229-233,2.19-41.2,2.07-94.94,0-136.19-5.99-119.4-89.75-237.52-217.29-240.78-37.94-.97-58.11,37.62-73.17,66.51l-219.63,543.36ZM1908,957.99c-66.8-164.32-135.93-327.77-202.99-492-17.36-42.52-30.44-106.31-84.92-115.08-119.1-19.16-237.39,67.69-263.53,182.65-11.4,50.12-9.66,148.33-6.65,201.53,6.53,115.42,98.74,213.97,215,223l343.09-.11Z"/>
  <path d="M1710,1234v152h-12v-29c0-26.29-32.18-79.24-54.1-93.9-3.78-2.53-25.97-13.1-28.9-13.1h-153v262h53c3.95,0,21.32-7.71,25.67-10.33,34.04-20.58,51.57-71.56,51.32-109.68h14.01v262.01l-11.93-.07c-2.39-24.35-2.62-45.61-12.35-68.65-12.99-30.78-45.65-59.28-80.72-59.28h-39v282h121c4.55,0,21.07-3.96,26.57-5.43,71.26-19.11,114.11-96.58,118.44-166.56h9.99s0,188,0,188h-412v-14h58v-560h-54v-16h380Z"/>
  <path d="M3567.56,1224.56c139.79-14.42,221.46,160.4,232.45,276.42,11.69,123.31-49.36,290.17-180.01,326.02-149.01,40.88-245.95-125.31-258.02-251.99-12.12-127.29,57.23-335.15,205.58-350.45ZM3659.36,1270.64c-50.33-49.29-133.5-34.99-171.01,22.71-60.83,93.56-57.72,316.19-27.79,421.09,18.92,66.32,50.47,111.18,126.46,105.57,86.36-6.37,111.65-84.55,124.39-157.61,12.8-73.36,15.95-159.35,6.38-233.19-6.29-48.48-22.66-123.55-58.43-158.57Z"/>
  <polygon points="1909 1234 2128 1648 2128 1250 2082 1250 2082 1234 2196 1234 2196 1250 2142 1250 2142 1844 1837.98 1264.01 1834 1808 1884 1808 1884 1822 1772 1822 1772 1808 1820 1808 1820 1250 1772 1250 1772 1234 1909 1234"/>
  <path d="M3058,1234l218,414v-398h-48v-16h113c4.58,3.67,4.58,12.33,0,16h-51v594l-308-582v546h48v14h-112v-14h50v-558h-50v-16h140Z"/>
  <path d="M2640,1234v171l-12,3.01c-.66-19.3-5-39.68-11.04-57.97-11.49-34.74-37.96-78.28-72.24-93.76-2.33-1.05-14.87-6.29-15.71-6.29h-55v560h54v14h-182v-14h54v-560h-39c-1.4,0-14.66,3.69-17.45,4.55-61,18.63-90.91,93.44-98.42,151.58l-11.13,1.87v-174h406Z"/>
  <path d="M1096,1234v16h-64v558h107c12.5,0,38.52-8.26,50.36-13.64,64.9-29.48,90.47-98.82,92.63-166.37h12.01v194.01h-402v-14.01s62,2.01,62,2.01v-560h-64v-16h206Z"/>
  <path d="M234,1234v16h-52l149,446.01,125-446.01h-41c-4.58-3.67-4.58-12.33,0-16h110c4.58,3.67,4.58,12.33,0,16h-55l-168.98,600.01-199.02-600.01h-62l.28-12.72,2.72-3.28h191Z"/>
  <path d="M400,1822l.26-10.74,3-3,50.93-1.43,169.07-574.93,14.58.26,172.15,575.84h58v14h-188v-14h52l-50.24-171.76-163.53-.02-48.23,171.78h50v14h-120ZM678,1622l-79-264.01-77,264.01h156Z"/>
  <polygon points="2872 1234 2872 1250 2816 1250 2816 1808 2872 1808 2872 1822 2688 1822 2688 1808 2744 1808 2744 1250 2688 1250 2688 1234 2872 1234"/>
</svg>