<?xml version="1.0" encoding="UTF-8"?>
<svg id="Laag_1" xmlns="http://www.w3.org/2000/svg" version="1.1" viewBox="0 0 519.75 172.5">
  <!-- Generator: Adobe Illustrator 29.5.1, SVG Export Plug-In . SVG Version: 2.1.0 Build 141)  -->
  <path d="M208.5,25.5c6.62.16,13.29-.21,19.91-.04,1.81.05,3.38.78,5.18.82,16,.33,33.6-2.68,47.16,7.59,10.5,7.96,12.31,27.65,4.25,37.74-2.43,3.04-5.63,4.47-8.24,7.13,8.35,3.35,15.06,11.33,15.78,20.6,1.16,14.86-2.99,27.47-17.29,33.77-2.67,1.18-12.09,4.13-14.62,4.13h-52.12V25.5ZM231,70.5c9.83-3.16,33.39,4.79,35.83-9.54,1.38-8.1-2-13.09-10.02-14.39-1.91-.31-5.46-.7-7.43-.82-6-.37-12.35.3-18.39.01v24.75ZM231,117h27.38c.37,0,6.14-2.38,6.91-2.84,7.55-4.58,6.53-20.23-2.92-22.89-.85-.24-5.1-1.27-5.48-1.27h-25.88v27Z"/>
  <path d="M398.25,137.25h-25.5l-21.38-47.25h-18l-1.12,1.12v46.12h-22.5l-.65-110.53.61-.89c1.01-.68,16.45-.44,19.21-.36,9.72.25,20.27.07,29.97.78,24.76,1.81,38.21,20.28,32.4,44.42-2.18,9.05-7.96,14.73-15.47,19.7l22.44,46.89ZM333,70.5c8.13-2.74,27.76,2.63,33.35-4.53,5.41-6.92,2.78-17.24-6.31-19.14-2.18-.45-6.38-.95-8.66-1.09-6-.37-12.35.29-18.39.01v24.75Z"/>
  <path d="M510.75,137.25h-24.38l-9.3-25.06-39.11-.1-9.33,25.17h-22.88c.02-3.1,1.41-6.24,2.43-9.2,11.57-33.74,26.06-66.57,37.69-100.31l1.11-1.89c.87-.56,18.49-.68,20.66-.36.62.09,1.16.16,1.5.75l41.61,111.01ZM469.5,90l-12.38-36.76-13.12,36.76h25.5Z"/>
  <polygon points="41.25 117 95.62 117 96.75 118.12 96.75 137.25 12.75 137.25 12.75 117.38 66.32 48.7 67.5 45.75 12.75 45.75 12.75 26.25 95.52 25.6 96.75 26.62 96.75 45.38 41.25 117"/>
  <path d="M189,70.5v19.5h-76.12l-1.12-1.12v-18l1.23-1.02c9.2-.04,18.47-.29,27.68-.14,1.8.03,3.38.8,5.18.82,14.38.2,28.79-.22,43.16-.04Z"/>
  <path d="M189,26.25v19.5h-76.5c-.12-5.12.15-10.28.04-15.41-.04-1.69-1.58-4.13.43-4.74l76.03.65Z"/>
  <path d="M189,117.75v19.5h-76.5c-.21-5.1.29-10.29.01-15.38-.1-1.82-1.8-3.66.45-4.82l76.04.7Z"/>
</svg>