<?xml version="1.0" encoding="UTF-8"?>
<svg id="Laag_1" data-name="Laag 1" xmlns="http://www.w3.org/2000/svg" viewBox="0 0 3816 333.15">
  <defs>
    <style>
      .cls-1 {
        fill: #fe0101;
      }

      .cls-2 {
        fill: #06113a;
      }
    </style>
  </defs>
  <path class="cls-2" d="M622,27l196.54-.04c57.84.66,131.95,28.02,128.5,97.59-2.35,47.47-36.28,71.81-75.65,89.37-.94.42-1.76-.6-1.39,1.57l116.99,112.51h-95.5c-21.24,0-35.66-13.45-50.02-26.96-19.71-18.54-37.7-39.07-57.46-57.56-2.71-2.54-16.44-15.48-18.52-15.48h-57.5v100h-86V27ZM708,165h103.5c2.2,0,11.61-2.82,14.2-3.8,31.08-11.82,34.91-51.63,3.29-64.68-2.66-1.1-13.27-4.52-15.48-4.52h-105.5v73Z"/>
  <path class="cls-2" d="M1363,27l196.54-.04c58.27.7,132.56,28.38,128.45,98.54-2.73,46.67-36.79,71.1-75.61,88.42-.94.42-1.76-.6-1.39,1.57l117.99,112.51h-96.5c-18.88,0-32.91-10.88-46.03-22.97-21.12-19.46-40.45-41.88-61.46-61.54-2.71-2.54-16.44-15.48-18.52-15.48h-57.5v100h-86V27ZM1449,165h103.5c2.86,0,12.36-3.23,15.49-4.51,30.3-12.44,32.7-51.3,2-63.97-2.66-1.1-13.27-4.52-15.48-4.52h-105.5v73Z"/>
  <path class="cls-1" d="M3816,0l-1.19,3.31c-56.43,80.22-109.62,162.77-165.99,243.01-31.14,44.32-60.66,78.81-119.27,81.73l-191.55-.04-.06-7.4c7.83-2.25,16.01-2.91,23.84-5.32,26.01-7.99,51.62-28.46,68.73-49.27L3612.5,0h203.5Z"/>
  <path class="cls-2" d="M3249,27v63.5c0,.11-1.39,1.5-1.5,1.5h-211.5v52h209v64h-209v55h212v65h-299V27h300Z"/>
  <polygon class="cls-2" points="2432 202 2432 27 2505 27 2505 328 2446.5 328 2246.02 155.48 2238 150 2238 328 2166 328 2166 27 2227.5 27 2432 202"/>
  <path class="cls-2" d="M426,328h-105.5l-39.16-65.84-163.89-.23-35.96,66.07H0c2.02-5.28,5.1-10.69,7.82-15.68C57.93,220.75,106.75,127.75,158.82,37.32c2.73-4.73,3.97-9.94,9.62-10.38,21.9-1.7,45.96,1.42,68.1,0l3.48,1.52,185.97,299.53ZM245,199l-49.99-91-45.01,91h95Z"/>
  <path class="cls-2" d="M2897,49v75c-20.26-9.72-41.03-18.73-62.78-24.72-44.86-12.35-101.5-16.53-144.9,2.54-74.44,32.72-72.64,118.09,1,150.35,54.49,23.87,128.45,12.04,181.04-12.32l28.64-14.86v73.5c-36.04,18.68-76.91,29.99-117.5,33.5-89.96,7.78-216.87-22.94-239.01-124.99-25.05-115.41,87.2-180.14,186.97-185.06,56.45-2.78,114.28,6,166.54,27.04Z"/>
  <path class="cls-2" d="M2146,328h-101.5l-38.15-65.85-159.89-.22-34.96,66.07h-78.5l.46-3.04L1892.99,27.49l69.56-.54,3.5,1.5c53.55,89.31,108.05,178.04,161.74,267.26,5.08,8.44,13.48,20.28,17.25,28.75.53,1.19,1.35,1.96.95,3.55ZM1878,199h93l-48.49-91.01-44.51,91.01Z"/>
  <path class="cls-2" d="M1310,27v65h-202v74h196.5c.11,0,1.5,1.39,1.5,1.5v62c0,.11-1.39,1.5-1.5,1.5h-196.5v97h-86V27h288Z"/>
  <rect class="cls-2" x="455" y="27" width="86" height="301"/>
</svg>