<?xml version="1.0" encoding="UTF-8"?>
<svg id="Laag_1" xmlns="http://www.w3.org/2000/svg" version="1.1" viewBox="0 0 2469 872">
  <!-- Generator: Adobe Illustrator 29.5.1, SVG Export Plug-In . SVG Version: 2.1.0 Build 141)  -->
  <defs>
    <style>
      .st0 {
        fill: #ea2328;
      }

      .st1 {
        fill: #ea2227;
      }
    </style>
  </defs>
  <path class="st1" d="M420.4,76.4c16.5-16,36.1-8.8,45.5,10.3,24,48.8,11.9,136.4,39.3,176.7,21.6,31.8,94.9,17.6,126.7,10,33.7-8,89.9-31,122.6-27.2,15.8,1.8,27.3,14.9,19.8,30.6-11.6,24.3-70.7,59.7-94.9,74.1-49.4,29.3-112.3,55.7-155.8,92.2-84.3,70.9,35.2,168.3,76.9,225.1,6.5,8.9,19.1,27.4,18.6,38.4s-21.7,18.4-32.5,17.5c-35.2-3-97.8-49.4-126.4-71.6-38.4-29.7-100.6-93.2-142.8-109.2-57.8-21.8-91.1,71.7-110.7,108.8-6.7,12.6-20.4,40.1-35.9,19.9s-6.5-65.8-2.3-89.1c10-54.9,30.6-105.2,43.2-158.8s14.9-67.9-21.2-89.8c-14.5-8.8-28.8-9.8-44.3-14.7s-27.2-15.7-12-34c33.3-40,148.5-33.3,197.7-54.3s54-54.1,64.6-86.4c6-18.4,10.9-55.7,24.1-68.4Z"/>
  <path class="st0" d="M2002,285l-45.1,323.9c-15.4,5.1-30.8,10.3-46.7,13.8-66,14.7-154.7,14.5-149.2-76.2,1.7-27.4,8.1-67.3,13.3-94.7,12.1-63.7,73.6-93,133.7-75.8l12-91h82ZM1897.9,441.1c-17.6-5.6-40.8-1.1-44.8,19.5-1.7,27.6-10.7,57.7-12.2,84.8-1.3,23.9,22.2,23.9,39.9,19.4l17.1-123.7Z"/>
  <path class="st0" d="M2410,625h-81l23.1-162.5c.9-13.7-8.9-20.5-21.6-20.6-3.7,0-16.9,1.2-17,6l-24.5,177.1h-82l33.2-233.8c9-4.2,18.5-7.7,28-10.5,64.5-18.8,169.8-18.1,165.8,73.8l-24,170.5Z"/>
  <path class="st0" d="M1645,625c6.2-53.6,14.9-106.9,22-160.4,3.2-23.4-21.8-26.1-38-18.8l-25,179.3h-81l32.2-233.8c16.2-6.9,33.2-12.6,50.6-15.9,55.4-10.5,136.8-6.3,143.2,65.2-3.3,61-16.5,121.2-23.1,182l-1.5,2.5h-79.5Z"/>
  <path class="st0" d="M2102.8,372.3c43-3.8,92.2,12.7,101.7,59.7,4.8,23.7-5.9,86.2-10.8,112.2-5.5,29.3-20.3,51.6-45.8,67.2-60.2,37-163.5,21.4-157.9-65.9,1.6-24.7,7.2-63.3,12.3-87.7,10.1-48.5,51.8-81.2,100.5-85.5ZM2099.7,444.2c-6.7,1.1-15,7.3-17.2,13.8l-12.4,86.6c-.3,22.6,38.1,24.2,43.6-1.4s5.7-54.7,11.3-80.7c1-15-12.1-20.3-25.3-18.2Z"/>
  <path class="st0" d="M1046.8,372.3c52.7-4.6,105.2,21,103.2,80.2-.8,25.3-8.1,70.4-13.3,95.7-20.9,100.3-198.4,118-203.7,3.3,5.7-31.1,6.6-65,13.3-95.7,10.3-47.3,53.2-79.3,100.5-83.5ZM1018.3,556.7c10.5,10.5,34,4.8,38.2-9.7l12.4-87.4c-3.6-22.5-36.7-19.6-43.4-.6-2,26.5-10,55.3-11.5,81.5-.3,5.8,0,11.8,4.3,16.2Z"/>
  <path class="st0" d="M1395,532c-2.2,32.2,30.8,37.1,55,27.5,5.7-2.3,10.1-6.3,15.3-8.4,12.7,12.6,26.3,24.9,37.7,38.4-9.8,11.2-24.2,21.6-37.8,28.2-57.4,27.6-149.8,10-149.3-67.2.2-22.6,7.7-66.6,12.3-89.7s17.4-46.2,36.7-62.3c57.7-47.9,169-36.5,162,57-4.9,66-75.2,89.4-132,76.5ZM1430.8,438.3c-9.4.9-20.3,8.6-23.3,17.7s-4.1,21.3-4.3,26.7,12.4,5.1,15.3,5.3c17.3.9,33.3-9.2,34.6-27.5,1.1-14.8-7.2-23.7-22.2-22.3Z"/>
  <path class="st0" d="M927.9,439.9l-68.4,20.2c-4.5.4-2.9-3.4-4-6.1-8.7-21.8-38.1-16.9-44.5,3.6-2.6,26.3-10.4,54.9-12,81-.6,9.3.2,17,9.6,21.4,15.7,7.3,33.5-4.7,40-18.9l67.4,16c-22.7,53.3-78.8,83.8-136.2,69.7-30.7-7.5-55.9-29-60.7-61.3s.4-26.3,2-39.7c3.6-28.7,7.7-78.5,21.4-102.6,38.3-66.9,175.3-76.4,185.3,16.8Z"/>
  <path class="st0" d="M1150,626l22.3-164.2c8-41.9,30.5-73.5,72.7-85.3,27.2-7.6,53.8-6.3,81,.5l-9,68c-24.1-6.4-61.9-3.4-64.8,27.7l-21.2,153.3h-81Z"/>
  <path class="st0" d="M689.8,62.3c64.7-7.3,107.3,62.8,63.2,113.2-52.2,59.8-151.6,25.3-127.5-61.5,7.8-28.2,35.7-48.5,64.3-51.7Z"/>
  <path class="st0" d="M2125,741c.5.5,2.7.2,2-1.5l11.7-77.4h10.4c0-.1-13,96.9-13,96.9l-14.8-.2-36.7-76.8-10.5,77h-12s13-97,13-97c3.5.6,11-1.2,13.5,1l36.5,78Z"/>
  <path class="st0" d="M1789,759c-.1,0-.4-2.2-1.1-3.3-7.5-11.8-16.1-22.8-22.8-35-2-1.8-12.7,0-16.1-.6l-5,39h-12s13.9-96.6,13.9-96.6c23.8.8,69.6-10.1,66.1,28.1-1.6,16.9-16.1,29.2-33,28.5l24,40c-2.4-.5-13,.7-14,0ZM1751,709h30.5c1.1,0,7.7-2.1,9.2-2.8,12.5-5.7,15.4-29.8-1.3-32.1-10.2-1.4-22.9.7-33.3,0l-5.1,34.9Z"/>
  <path class="st0" d="M2279,662l-1,12h-51l-4,31h46c.1,2.7-.1,11-2.6,11.9l-45.3.2-4.1,29.9h50l-1,12h-62l13-97h62Z"/>
  <path class="st0" d="M2405.9,680.9c-2.2.2-9,4.3-10.3,4s-2.7-4.5-4.1-6c-12.1-13.4-50.4-6.2-44.1,14.1s48,6.3,51.5,28.5c6.7,42.9-59.3,50.1-71.2,22.2s5.4-6.8,10.2-8.3c7.9,22.4,56.3,14.7,48.5-10.5-4.5-14.7-44.8-6.1-50.4-29.6-8.7-36,61.3-49.7,69.8-14.5Z"/>
  <path class="st0" d="M1595,759h-12.9s-7-30.6-7-30.6c-4.7-.3-36-1.3-37.2.2l-14.4,29.4c-2.4,2.2-9.1.5-12.5,1l48.7-96.8c3.1.2,13-1.6,14.2,1.5l21.2,95.3ZM1573,716l-8-41-21,41h29Z"/>
  <path class="st0" d="M1865,759l13-97c3.3.3,7.3-.5,10.5,0s1.6-.6,1.5,1.5l-12,83.5h46l-1,12h-58Z"/>
  <path class="st0" d="M1678,662l-13.1,95.3c-1,3.1-9.2,1.2-11.9,1.7l13-97h12Z"/>
  <path class="st0" d="M2007,662l-13.1,97h-11.9s13.5-95,13.5-95c.9-3.9,8.1-1.1,11.5-1.9Z"/>
</svg>