<?xml version="1.0" encoding="UTF-8"?>
<svg id="Laag_1" xmlns="http://www.w3.org/2000/svg" version="1.1" viewBox="0 0 1200 270">
  <!-- Generator: Adobe Illustrator 29.5.1, SVG Export Plug-In . SVG Version: 2.1.0 Build 141)  -->
  <defs>
    <style>
      .st0 {
        fill: #fe6601;
      }

      .st1 {
        fill: #fe6702;
      }
    </style>
  </defs>
  <path class="st0" d="M832,0c1,1.7,4.1,1,6,1,12.3.1,40.8,2.2,47.2,14.3,9.1,17.2-13.2,18.5-19,27.4s-2.9,9-3.2,12.8c-2.2,30.3,0,61.8-2,92-2.7,41.3-26.7,63.8-66.8,70.2-40.4,6.5-118.5-11.1-104.7-66.7,9.5-38.2,66.7-30.9,67.6,3.6.2,8.5-7.8,20.6,4.9,25s25.8-9.6,27.9-23.1,0-9.5,0-13.9c.3-25,.7-51.3-.9-76.1-.3-5.3-.9-14.6-2.8-19.2-5.1-12.3-18.2-6.8-23.4-16.6-5.8-11,3.1-19,12.5-22.9s24.5-5.9,37.7-6.8,3.6.3,5.4,0l1.6-.9h12Z"/>
  <path class="st1" d="M0,153v-16l.9-1.6C2,57.6,125.1,30.8,154.5,104c5.5,13.8,7.9,37.1-10.2,41.8-24.3,1.9-50.7-1.7-74.8.2-4.9.4-3.9,5.1-3,9.1,1.5,6.9,10.5,15.2,16.6,18.4,13.2,7,28.4,4.7,41.6-1.2,8.5-3.8,14.9-13.1,23.3-2.7,16.4,20.5-21.1,40.9-37.2,45.7-43.6,13.1-91.1-2.8-106.5-48-1.6-4.7-2-9.8-4.2-14.3ZM77.7,89.2c-6.3,1.3-12.1,10.2-12.7,16.3-1,9.2.5,10.7,9.5,11.5,5.9.5,23.7,1.5,25.3-5.7,3.2-14.6-7.6-25.1-22.1-22.1Z"/>
  <path class="st0" d="M1200,178c-.2,1.9.3,4.2,0,6-2.2,15.1-26.3,28.1-39.8,31.7-36.6,9.9-75.5-2.1-79.3-44.2v-77.9c-.7-1.6-1.8-2.4-3.5-2.7-4.6-.8-21.7,1.6-23.5-1.7s-2-18.1,3.1-20.7l71.9-45.1c2.7-.9,17.5-1,20.5-.4s3.5,1.8,3.5,2.5v27c0,.3,1.3,5.3,1.5,5.5,2.5,3.9,32.5,1.1,39,2s4.4,1.6,5.1,3.9.9,22-.3,24.8-1,1.7-1.7,2.3c-5.5,4.5-29.6.5-38,2s-5.3,5.1-5.6,8.4c-1.1,14.1-1.1,39,0,53.1,1,12.9,7.6,21.5,21.3,19.2,11.2-1.8,18.6-14.2,25.7,4.2Z"/>
  <path class="st1" d="M820,0l-1.6.9c-1.8.3-3.6,0-5.4,0V0h7Z"/>
  <path class="st1" d="M838,0v1c-1.9,0-5,.7-6-1h6Z"/>
  <path class="st0" d="M549.8,62.3c12.2-.6,29.9-.7,41.2,4.2,7.2,3.2,11.2,8.7,10,16.9-.9,5.5-7.5,10-6.7,16.8s10.5,25.7,14.9,29.2c8.9,7.3,17.8-14.6,18.7-21.2,2-14.4-3.6-13.5-8.1-23.3-7.7-16.6,18.3-22.2,29.9-22.9,12.9-.9,47.7,0,39.3,21.3s-15.7,8.9-22.2,14.8-14.4,26.1-18.3,35.7c-20.7,52.1-36.2,141.2-109.7,135.3s-44.7-15.7-41.2-40.2,38.4-33.2,48.5-9,3.1,14.9,7.2,16.8,8.1.5,10.9-2.1c9-8.6,1.3-24.6-2.7-34.1-13-30.9-30.1-61.4-44-92-3.8-10.1-17.7-9.4-22-18s-2.5-9.3.9-13.9c8.2-11.1,40.5-13.5,53.8-14.2Z"/>
  <path class="st0" d="M325.2,173.8c5.2,5.1,18-1.5,11.3,17.2-7.6,21.2-40.8,34.8-61,24s-10-9.4-12.5-10.5c-5.2-2.4-16.2,7.6-22,10-25.8,10.7-63,3.6-72.3-25.7-11.8-37.1,27.6-58.5,58.8-60.8,5.6-.4,22.5,1.5,25.3-3.7s.4-26.9-3.4-32.2c-6.8-9.8-17-4.8-23.4,2.5s-10.4,16.3-20.5,21.5c-21.5,11-38.8-8.2-23.5-27.5,7.6-9.6,20.5-16,31.7-20.3,28.2-10.6,66.6-12.6,91.2,7.3,26.4,21.4,9.2,62.5,17.3,91.7.3,1,2.5,6.1,3,6.5ZM243.7,150.2c-19.9,3.4-18.7,39.4,2.6,34.6,8.4-1.9,9.4-18.4,8.6-25.2s-3.3-10.7-11.2-9.4Z"/>
  <path class="st1" d="M969.8,61.3c32.9-3,66.9,10.8,79.7,42.7,5.4,13.6,8,36.2-9.4,41.5-24.6,2.3-51.2-1.5-75.6.4-7.6.6-1.9,13,1.1,17,13.3,17.6,35.3,17.7,54.1,9.3s15.8-13.7,24.3-1.7c13.6,19.1-19.8,38.4-34.5,43.5-44.3,15.5-96-.9-110.8-48.2-15.6-49.8,20-99.8,71.1-104.5ZM972.7,89.2c-9.3,1.9-19.4,22.3-10,26.5,4.6,2.1,24.6,2.1,28.8-.7,7.1-4.7,2.7-19.3-3.6-23.5s-10.6-3.3-15.2-2.3Z"/>
  <path class="st0" d="M406.8,60.3c12.1-.7,27.4,5.3,38.5,3.5s7.8-3.4,11.3-3.7c14.4-1.5,28.9,27.6,29,39.6s-6.1,14.6-14.3,15.3c-15.6,1.3-28.4-25.6-41.8-23.9-9.5,1.2-12.5,12.2-5.1,19s23.6,12,32.4,17.6c11.7,7.4,26.7,19.7,28.8,34.2,5.3,37.4-28.4,58.9-62.3,57.3-10.3-.5-21.6-3.5-32-4.1-8.5-.5-16.9,3.9-25-2s-22.9-38.7-15.5-49.5,12.8-4.9,18.5-.5c9.3,7.2,19.7,25.5,32,26,8.2.4,15-5.1,11.6-13.6s-19.6-13-26-17c-20.4-12.7-34.4-28.1-32.1-53.9,2.4-26.5,26.9-42.8,51.8-44.2Z"/>
</svg>