<?xml version="1.0" encoding="UTF-8"?>
<svg id="Laag_1" data-name="Laag 1" xmlns="http://www.w3.org/2000/svg" viewBox="0 0 3778.57 2603.06">
  <defs>
    <style>
      .cls-1 {
        fill: #e23647;
      }
    </style>
  </defs>
  <path class="cls-1" d="M2326,730c1.17,4.81-1.04,3.26-2.59,4.47-13.33,10.39-26.88,24.88-39.36,36.58-23.67,22.19-46.93,38.6-60.42,69.58-22.27,51.11-14.33,105.08-15.62,159.38h95c2.92,0,17.59-4.96,21.54-6.46,21.77-8.23,43.18-26.27,59.46-42.54v-81l42.78,41.9c26.92-24.5,52.67-50.59,82.56-71.56,31.23-21.9,61.09-39.23,100.76-29.45,76.99,18.98,59.15,130.84,18.94,177.15-35.41,30.94-68.5,67.57-104.06,97.94-72.55,61.96-141.85-5.83-140.94-85.03l-3.04-16.95-88.96,85.04c-30.04,23.82-55.92,52.04-82.15,79.85l-2,6c-3.39,82.2,4.88,168.42.14,250.14-2.04,35.22-10.65,75.03-28.41,105.59-14.83,25.52-34.84,40.78-55.68,60.32-43.69,40.96-88.15,80.96-132.95,121.05h-41l87.98-79.02c24.09-27.31,34.09-63.96,36.11-99.89,2.83-50.34-1.83-101.94-2.19-152-.52-71.02.58-142.1.1-213.1l-571.05.05c-107.14-7.15-173.45-85.31-203.98-182.02-31.78-100.68-10.81-214.33-17.16-318.84-2.45-24.43-21.32-67.87-38.73-85.27-5-5-12.92-8.03-17.09-13.91h53c2.14,0,13.16,10.5,15.02,12.98,15.21,20.31,22.65,66.67,24.08,91.92,3.36,59.48.5,128.51-2.13,188.06-3.24,73.29,41.58,147.02,117.22,158.86l639.58-.07c4.57-1.31,2.85-8.21,3.74-12.26,21.02-95.57,68.3-124.96,135.55-186.45,19.1-17.46,37.53-35.96,56.97-53.03,2.92-2.56,20.57-18.01,21.99-18.01h37ZM2448.17,934.17c-3.21,4.73,9.7,14.13,12.88,17.78,17.44,20.03,52.99,61.59,78.84,67.16,40.65,8.75,39.41-34.72,29.66-61.66-12.51-34.58-35.21-49.93-72.36-43.25-17.96,3.23-33.2,11.59-49.03,19.98Z"/>
  <path class="cls-1" d="M711,2026c44.38,5.23,70.24,47.55,78.52,87.48,1.06,5.09-1.16,10.93,3.48,14.52,15.18-40.92,43.9-77.92,85.01-94.98,80-33.21,193.84,8.07,218,94.99,4.73.9,3.16-.49,4.4-2.59,3.62-6.15,5.23-13.26,8.5-19.5,39.7-75.7,100.94-96.23,183.12-76.96,65.35,15.33,109.25,59.98,115.99,128.01,5.21,110.13-7.04,226.77-.13,336.13,2.09,33.05,17.65,67.75,40.11,91.89,5.75,6.18,12.56,10.7,17.99,17.01h-153c-1.72,0-13.76-6.23-16.01-7.99-18.27-14.26-27.55-58.68-29.03-80.97-6.81-102.64,5.1-212.71.13-316.13-8.5-92.5-140.95-104.17-166.13-15.95l.21,313.87c2.08,11.16,3.51,22.28,6.81,33.19,8.97,29.68,29.21,53.3,51.03,73.97h-155c-.98,0-7.54-3.7-9.26-4.74-25.56-15.4-29.88-59.53-33.78-86.22l.13-316.13c-3.31-29.24-23.67-57.65-50.71-69.29-41.51-17.86-102.71,6.32-115.44,51.3l.24,325.9c3.2,19.76,9.37,39.23,19.46,56.54,9.61,16.47,23.41,29.36,36.36,42.64h-153c-5.73,0-17.24-10.36-20.98-15.02-18.92-23.48-19.98-55.49-21.98-84.02-8.92-127.14,2.58-259.83-2.21-387.79-4.45-29.88-14.86-59.62-37.78-80.22l-12.04-8.96h107Z"/>
  <path class="cls-1" d="M1392,728c7.13,3.87,10.23,11.61,15.95,17.05,35.06,33.37,83.92,18.81,117.03-9.07,9.32-7.85,15.98-17.92,23.97-26.03,67.87-68.93,133.96-139.11,201.03-208.95-33.15-31.43-67.35-62.36-102.99-90.99-15.1-12.14-60.82-49.74-76.88-53.12-34.04-7.17-62.67,16.15-69.58,48.64-13.99,65.74-5.26,141.4,1.51,207.45.3,2.96,1.15,5.86-3.02,5.01l-79-79c-71.37-98.38,36.28-200.83,131.16-218.81,61.95,4.34,134.56-10.76,193.35,10.3,38.36,13.74,75.29,39.76,106.47,65.48,7.55-6.11,11.58-15.41,13.04-24.91l-.04-148.04c-.62-3.6-18.69-21.58-22.86-27.14-24.16-32.19-45.53-79.98-22.04-117.76L1895.02,2.01c4.85-.86,2.41,2.25,2.9,5.05,6.42,36.64,16.8,64.91,39.22,94.8,16.88,22.51,38.6,39.07,53.71,64.29,9.71,16.2,23.18,45.2,11.2,62.9-8.05,11.89-31.78,31.04-43.1,42.9-3.52,3.69-16.4,21.18-20.03,22s-9.43-12.26-12.07-15.8c-7.39-9.9-17.31-20.31-26.85-28.15v121c0,.47-1.71,2.16-1.93,4.07-1.9,16.55-3.59,33.52-15.89,46.24v3.37c33.6,36.77,62.11,82.42,75.27,130.86,16.17,59.51,5.44,124.24,8.57,185.48-1.76,16.1-7.83,29.65-18.04,41.96-32.34,38.96-79.37,76.52-115.3,112.7-14.43,8.37-30.96,13.15-47.65,14.35-97.65,7.05-203.55-5.38-302.07,0-30.53-3.52-66.11-18.12-82.65-45.35-1.47-2.42-8.31-16.36-8.31-17.69v-119ZM1530,774h337c1.92,0,14.59-1.65,17.84-2.16,30.81-4.81,47.26-20.42,43.04-52.72-4.95-37.82-90.26-132.42-118.83-163.17-9.93-10.68-22.09-19.82-30.06-31.97-2.44-.53-3.55,1.49-4.99,3.01-62.54,66.58-126.87,131.76-191.05,196.95-17.85,18.13-27.05,31.79-50.35,45.64-2.07,1.23-3.53-.37-2.6,4.41Z"/>
  <path class="cls-1" d="M567.99,2006c-16.03-9.39-32.03-18.8-49.44-25.55-93.44-36.22-195.93-15.98-293.45-24.55l-17.11,1.11c3.08,7.63,6.95,14.89,9.08,22.92,4.03,15.25,6.29,37.21,7.03,52.97,1.38,29.28-1.21,59.72-.1,89.1,46.28,1.25,96.11-4.69,140.55,10.45,43.11,14.69,76.9,45.61,99.45,84.56,3.39,7.25-12.93-2.68-14.61-3.39-21.31-9.12-49.18-16.13-72.34-17.66-39.14-2.6-96.94-2.52-136.13-.06-5.76.36-11.04,2.76-16.91,2.1l-.04,251.04c4.6,24.54,1.8,57.48,28.67,69.33,6.94,3.06,18.65,5.12,26.33,5.67,54.51,3.88,129.43,1.91,184-2.08,27.54-2.01,48.71-3.59,74.41-15.59,18.51-8.64,30.07-20.77,44.61-34.37,1.67,7.28-1.69,14.5-2.03,20.96-1.07,20.43,1.45,32.55-7.58,52.42-15.41,33.92-51.26,53.1-87.35,56.65l-381.11-.96c-26.54-12.46-34.39-47.38-37.75-74.25-7.64-61.05-1.49-136.83-2.08-199.92-.75-80.17-2.46-161.64-4.19-241.81-.91-42.25,3.28-77.58-8.89-119.11-9.76-33.3-28-62.42-51.02-87.97l375.09-.11c41.95,3.08,83.09,8.69,120.27,29.73,35.59,20.14,68.05,56.44,72.62,98.37Z"/>
  <path class="cls-1" d="M2588,2602h-153c-2.09,0-11.58-6.15-13.98-8.02-15.65-12.2-24.66-38.76-27.03-57.98-6.72,4.06-9,12.69-14,18.98-63.22,79.47-221.36,56.95-254.06-41.9-32.37-97.86,25.75-176.95,107.44-222.71,51.07-28.61,152.13-52.56,168.09-113.91,22.94-88.17-81.19-108.58-140.09-72.09-25.42,15.75-32.6,32.52-48.9,55.06-1.26,1.74.28,3.64-4.48,2.56v-93c29.71-24.18,73.23-38.25,111.16-42.84,84.91-10.28,186.66,26.44,208.36,117.32,5.77,120.05.7,240.97,2.66,361.34,5.72,39.24,27.7,72.43,57.82,97.18ZM2390,2264l-92.05,64.95c-41.1,36.51-61.37,86.4-55.78,141.87,6.62,65.69,87.86,83.75,134.49,46.84,2.99-2.36,13.34-11.62,13.34-14.66v-239Z"/>
  <path class="cls-1" d="M3364,2559c-24.41,23.44-64.17,33.83-97.21,38.79-98.11,14.73-187.27-2.86-253.84-79.74-118.34-136.68-72.18-436.28,116.6-487.5,79.15-21.47,197.44-.93,230.82,84.08,34.34,87.45-56.03,173.47-125,211.74-36.26,20.12-81.31,33.13-111.42,62.58-2.3,2.25-12.03,13.12-13.05,15.08-1.82,3.5,4.43,26.39,6.08,31.99,31.18,106.03,143.71,134.67,222.06,58.03l24.95-34.05v99ZM3100.01,2339.99c2.31,2.51,12.73-10.15,15.01-11.98,27.63-22.16,57.97-36.14,82.03-63.97,33.47-38.72,60.22-114.73,39.94-164.03-16.3-39.61-69.85-40.96-96.03-10.06-40.48,47.79-44.61,167.03-40.92,227,.47,7.62-.41,15.41-.03,23.03Z"/>
  <path class="cls-1" d="M1844,1200l6.01,2.99c43.29,46.13,103.32,82.05,108.09,151.91,2.56,37.53,3.05,100.81-.27,137.92-4.91,54.91-35.08,90.95-70.78,129.22-59.14,63.41-99.51,103.56-190.08,109.92-54.19,3.8-121.58,5.02-176.06,2.13-163.71-8.66-296.89-151.31-306.94-313.06-5.99-96.45,6.22-199.77.13-296.13-2.61-41.37-21.52-75.24-53.5-100.44-1.52-1.2-3.78.35-2.59-4.47h51c6.81,0,18.13,12.72,21.41,18.59,12.21,21.78,18.35,63.26,19.68,88.32,4.02,75.97-7.35,158.9,4.47,233.53,20.29,128.12,137.12,222.19,264.4,229.6,104.9-5.1,215.96,6.65,320.13.06,30.7-1.94,54.57-14.8,72.57-39.43,22.83-31.23,26.59-69.5,5.21-102.54-9.49-14.67-24.47-23.43-36.92-35.08-12.77-11.95-24.45-24.92-35.95-38.05v-175Z"/>
  <path class="cls-1" d="M2312,1122c23.33,21.72,50.1,43.95,71.05,67.95,30.03,34.4,39.67,66.43,42.91,111.09,5.13,70.58,4.46,154.71,2.13,226.06-4.44,136.28-53.25,236.59-174.73,303.27-93.3,51.22-186.32,50.62-290.47,47.74-6.75-.03-10.15-7.14-14.85-11.15-38.13-32.53-75.38-65.92-113.06-98.94-10.42-9.13-22.73-16.69-30.99-28l277.1.08c91.18-6.41,162.57-63.75,221.95-128.05,47.6-51.54,114.76-139.15,93.56-213.65-9.42-33.1-39.25-54.28-61.65-78.35-7.45-8.01-14.05-17.89-22.95-25.05v-173Z"/>
  <path class="cls-1" d="M3742,2162l-20.95-30.05c-29.63-34.66-67.61-52.01-113.87-47.78-76.89,7.03-74.72,79.42-17.02,116.67,87.27,56.34,196.98,100.67,187.88,228.19-9.57,134.21-156.22,193.94-274.48,164.41-26.79-6.69-51.66-18.05-75.55-31.45v-102c2.49.18,3.33,2.79,4.39,4.61,30.14,51.71,68.13,84.18,132.13,72.91,84.78-14.93,119.72-108.65,44.13-163.18-75.31-54.33-166.06-79.27-182.48-187.52-20.25-133.5,122.33-184.88,231.84-157.84,28.98,7.16,61.24,20.78,83.99,40.01v93Z"/>
  <path class="cls-1" d="M2816,2026h128v86c-10.17-2.63-19.58-8.25-29.52-11.48-31.83-10.33-65.22-11.48-98.48-10.52v419c0,2.49,4.68,18.28,5.92,22.08,9.64,29.62,28.97,49.33,50.08,70.92h-151c-5.65,0-17.94-9.47-21.85-14.15-16.82-20.15-19.34-47.73-23.19-72.81l.05-425.05c-14.96-.39-30.07.54-45.05.05-14.34-.47-29.33-1.5-43.97-2.04-2.44-.09-7.45,1.51-6.98-1.99,69.82-31.28,135.25-71.07,187.04-127.97,7.28-7.99,16.34-18.56,22.94-27.06,8.92-11.47,15.68-25.26,26.01-34.99v130Z"/>
  <path class="cls-1" d="M1853,2602c-10.57-1.85-23.26-16.77-28.08-25.92-14.02-26.6-13.3-52.36-14.88-81.12-6.44-117.4,6.26-240.27.06-358.06-1.26-23.89-6.2-52.98-17.74-74.26-8.05-14.86-19.88-25.62-32.36-36.63,6.56,1.03,12.54-1.74,18.9-2.11,29.82-1.72,97.73-2.59,122.91,11.28,34.48,19,41.09,67.26,44.2,102.81l13.61-35.37c22.38-64.3,119.4-103.4,171.41-52.67,2.13,2.08,12.96,17.44,12.96,19.04v97c-18.88-19.28-38.98-33.4-65.92-39.08-55.41-11.69-123.82,15.91-130.17,78l.26,291.92c4.39,42.24,25.34,76.83,55.83,105.17h-151Z"/>
  <path class="cls-1" d="M2328,0c.91,3.86-1.38,3.86-3.35,5.65-55.1,49.95-111.53,87.18-116.74,169.26l.19,444.19c-3.91,52.61-26.51,99.94-61.05,138.95l-154.05,139.95h-39c-.66-3.19.98-4.13,3-6,48.23-44.5,115.75-83.71,117.09-156.91l-.13-464.13c4.29-31.9,11.53-64.17,27.68-92.32,12.41-21.64,30.78-35.11,48.41-51.59,45.84-42.86,92.79-84.38,138.95-127.05h39Z"/>
  <path class="cls-1" d="M1732,2602h-153c-.62,0-9.49-4.11-10.93-5.07-23.03-15.36-28.21-52.69-32.11-77.89-4.97-126.52,6.73-258.22.13-384.13-1.93-36.84-12.89-79.06-43.07-102.93-3.22-2.55-8.18-2.74-9.02-5.98h115c4.72,0,23.32,6.94,28.37,9.63,33.06,17.57,44.63,62.41,46.72,97.28,6.88,114.91-6.63,237.08-.19,352.19,1.75,31.32,12.14,65.38,32.11,89.89,7.77,9.54,18.86,16.81,25.98,27.02Z"/>
  <path class="cls-1" d="M1673.22,1214.1l12.74,10.95c23.75,20.42,81.27,71.4,87.15,100.85,4.94,24.75-4.6,36.91-19.12,55.09-18.3,22.92-41.33,41.37-61.94,62.06l-19.03,14.95c-2.49-.57-8.5-21.06-10.62-25.4-19.68-40.26-59.99-77.1-90.49-109.51l-2.02-4.09,103.33-104.9Z"/>
  <path class="cls-1" d="M1454.02,1457.99c-16.47-54.92-62.27-96.04-101.12-135.97l-.8-2.8,106.69-105.12c15.42,14.62,30.07,30.01,45.17,44.95,2.39,2.36,5.7,3.55,8.09,5.91,21.12,20.81,54.06,53.65,44.03,86.12-8.16,26.43-60.26,72.52-82.12,91.88-3.22,2.85-16.26,19-19.93,15.04Z"/>
  <path class="cls-1" d="M1591.49,1840.49c36.85-5.05,72.84,16.42,82.03,52.99,16.35,65.05-64.01,111.45-114.5,70.5-45.82-37.16-25.2-115.6,32.48-123.49Z"/>
</svg>