<?xml version="1.0" encoding="UTF-8"?>
<svg id="Laag_1" xmlns="http://www.w3.org/2000/svg" version="1.1" viewBox="0 0 2560 1489">
  <!-- Generator: Adobe Illustrator 29.5.1, SVG Export Plug-In . SVG Version: 2.1.0 Build 141)  -->
  <defs>
    <style>
      .st0 {
        fill: #8fd5f2;
      }

      .st1 {
        fill: #00a0e3;
      }
    </style>
  </defs>
  <path class="st1" d="M0,847h244v232c13.2-10.9,24.7-23.6,37-35.5,56.7-55,113.3-110.2,170-165,10.9-10.5,21.1-21.6,32.5-31.5h244.5l-283.1,285.5c0,1.2.9,1.8,1.5,2.5,3.7,4.7,11.4,11.5,16,16,89.4,86.5,176.6,175.5,265.5,262.5,22.1,21.7,43.6,44.2,67,64.5v-631h250v479h397c-.8,4.6.8,9.1,1,13.5,2.3,48.8-1.8,99.5,0,148.5H476l-226.5-227-3-2-.5,230h-2l-244-1v-641Z"/>
  <path class="st1" d="M1511,1488v-641s401.9-.9,401.9-.9l118.1,346.9,7.2-9.3c38.6-107.4,75.9-215.5,113.8-323.2,1.5-4.4,3.1-8.9,4.1-13.4h403.9c0,0,0,640.9,0,640.9h-247l-.5-442c-3.9,1.1-6,4.7-8.3,7.7-52,144.3-102.9,289.4-153.2,434.3-69.6-.2-139.4.2-209,0h-23.9c-12.7-38-25.8-75.8-39.1-113.5-37.2-105.8-74.4-211.9-113-317l-8-6.5v437h-247Z"/>
  <polygon class="st1" points="1315 0 1315 82 1396 82 1395 162 1315 162 1315 241 1236 242 1236 162 1155 162 1155 82 1236 82 1235 0 1315 0"/>
  <rect class="st0" x="476" y="1488" width="967" height="1"/>
  <rect class="st0" x="1511" y="1488" width="247" height="1"/>
  <polygon class="st0" points="244 1489 0 1489 0 1488 244 1489"/>
  <path class="st0" d="M2151,1488v1h-209v-1c69.6.2,139.4-.2,209,0Z"/>
  <path class="st0" d="M2515,1488v1h-202v-1h202Z"/>
  <path class="st1" d="M1763,538v166l-965,1c-.2-10.8.3-21.7,0-32.6-.8-33.8-.8-67.1,0-100.9.3-11.5-.3-23.1,0-34.6l965,1Z"/>
  <path class="st1" d="M1106.8,223.3c117.3-9.2,194.1,119.2,128.7,217.7-57.6,86.7-188.3,80.5-238.6-10.2-48.7-87.8,9.9-199.5,110-207.4Z"/>
  <path class="st1" d="M1749.8,223.3c118.9-9.3,196.1,123.4,126,221-59.1,82.4-184.5,76.2-235-11.6-50.6-88,7.9-201.5,109-209.4Z"/>
  <path class="st1" d="M1428.8,223.3c106.5-8,183.6,99.4,139.4,197.4-44.9,99.6-183.6,110.7-244,19.6-58.4-88.1-.8-209.1,104.6-217Z"/>
  <path class="st1" d="M785.8,223.3c114.7-8.6,192,115.4,130.6,213.6-56.8,90.9-191.3,86.3-241.9-7.9s11.9-198.3,111.3-205.7Z"/>
</svg>