<?xml version="1.0" encoding="UTF-8"?>
<svg id="Laag_1" xmlns="http://www.w3.org/2000/svg" version="1.1" viewBox="0 0 960 169">
  <!-- Generator: Adobe Illustrator 29.5.1, SVG Export Plug-In . SVG Version: 2.1.0 Build 141)  -->
  <defs>
    <style>
      .st0 {
        fill: #0e2040;
      }
    </style>
  </defs>
  <path class="st0" d="M577,30v37c9.1-9.9,23.8-11.3,36-6.5s13.2,11.7,15,21c.2,1.1,1.1,5.6,1.1,5.9v51.5h-24v-49.5c0-.3-1.7-4.2-2.1-4.9-4.6-7.7-18.9-7.3-23.9-.2s-2,3.8-2,4v50.5h-24V30h24Z"/>
  <path class="st0" d="M711,139h-21v-9s-8,6.5-8,6.5c-9.6,6.3-27.6,6.7-36.9,0-12.3-8.8-12.6-30.3-.6-39.5,7.7-5.8,20.8-6.7,30.1-7.9s9,.4,13-3c2.3-7.2-3.9-9.6-10-10.1-6.2-.5-13.6.9-14.5,8h-23c.7-11.1,5.3-18.6,15.7-22.8,13.4-5.4,41.6-5.1,50.7,7.8s2.9,7.7,4.5,11.5v58.5ZM689,104l-17.4,2.1c-5.3,1.1-12.7,2-13.4,8.7-1.3,11.5,17.6,9.4,24.2,5.1s7.2-9.6,6.6-15.9Z"/>
  <path class="st0" d="M957,139h-21v-9c-5.7,5.2-12.4,10.3-20.5,11-10.1.9-21.8-.1-28.5-8.5-8-10-7.1-27.5,3.5-35.5,7.7-5.8,20.8-6.7,30.1-7.9s14.8,1.1,13.5-7.6-19.7-7.7-23.5-1.4-.5,3.1-2,4h-21c-2,0-.7-5.9-.3-7.3,2.2-7,7.7-12.9,14.5-15.5,13.7-5.3,41.4-5.3,50.7,7.8s4.5,9,4.5,10.5v59.5ZM935,104c-.5-.5-10.7,1.7-12.5,2-5.5.8-16.4,0-17.4,7.6s.6,8.8,5.5,9.5c13,1.9,26.4-4.1,24.5-19Z"/>
  <path class="st0" d="M428,60v79h-22v-8c-5.4,4.7-8.8,9.1-16.6,9.9-14.2,1.6-28.5-1.3-33.9-15.9s-2.5-7.6-2.5-8.5v-56.5h22.5c.1,0,1.5,1.4,1.5,1.5v50c0,2.1,4.2,6.8,6.3,7.7,4.3,1.9,13.6,1.2,17.3-2.2s3.5-5.8,3.5-6.5v-49c0-.1,1.4-1.5,1.5-1.5h22.5Z"/>
  <path class="st0" d="M796,139h-23v-48.5c0-.3-1.4-4.5-1.8-5.2-4-8.8-22.1-8.9-25.8,1.7-.3.8-1.5,5.3-1.5,5.5v46.5h-23V60h22v9s6.6-6.9,6.6-6.9c14.5-7.8,37.5-5.2,43.9,11.9.5,1.5,2.5,7.6,2.5,8.5v56.5Z"/>
  <path class="st0" d="M874,84h-23c0-2-2.3-5.7-4-6.5-3-1.5-12.6-1.2-15.4.6s-3.3,5.4-1.1,7.9,9.4,2.4,12.9,3.1c13.9,2.4,30.8,5.2,32.6,22.4,1.8,17.7-10.9,28.2-27.5,29.6-19.2,1.6-46.3-1-45.5-26h23c.8,8.6,11.6,8.7,18.5,8,10.8-1,10.2-10.6-.2-12.8s-21.2-1-30.2-7.8c-10.3-7.8-11-24.3-3.1-33.9,10.9-13.2,40.6-13.4,54-4s9.2,12.5,9,19.5Z"/>
  <polygon class="st0" points="301 30 301 117 348 117 348 139 275 139 275 30 301 30"/>
  <path class="st0" d="M487,29v19c-9.3-.5-19,0-17,12h17v20h-17v59h-24v-59h-12v-20h12c-1.5-12.6,5.3-25.8,17.7-29.8s8-1.9,10.8-2.2c4.6-.4,8,1.3,12.5.9Z"/>
  <path class="st0" d="M528,38v22h18v20h-18v32.5c0,.3,1.8,4.4,2.1,4.9,2.5,3.9,11.7,3.9,15.9,2.6v19c-14,2.8-32.9,1.8-39.2-13.3-.3-.8-1.8-4.9-1.8-5.2v-40.5h-12v-20h12v-22h23Z"/>
  <path class="st0" d="M72.7,3.2c49.1-5.7,90.6,28,93.3,77.2,4.4,78.6-94.2,116.5-145.1,56.1C-19.3,88.7,10.7,10.5,72.7,3.2ZM74.7,8.2C20.7,13.8-9.2,76.7,18.2,123.3c34.1,58,122.9,46.7,140.3-18.3C173,51.2,129.6,2.6,74.7,8.2Z"/>
  <path class="st0" d="M106.5,88c-2.8.3-8.7,2.4-11.5,3.5s-9,4.3-9,5c10.3,11,26,16.7,41,16.5l-4.6,4.9c-3.7,1.1-22.8-5.3-27.6-7.1-9.9-3.6-20-8.6-29.1-13.9-16-9.4-30.7-22.1-48.6-27.9v-3.9c3.6-.6,6.8,4,10.3,2.9s2.1-2.5,4-1.8l30.7,13.9c0,1.8.5,2.1-1.5,2-5.3-.2-11.7-6.1-17.5-6,2.2,2.3,6.5,4.8,9.3,6.2,20.5,10.1,34.4,3.5,44.2-16.2l1.1-.9c2.8.4,5.3-1,7.8-1.2,10.7-.8,21.6.7,32.1,2s10.4.8,15.5,2c-1.5,3.7-5,3.3-8.5,2.9-8.6-.8-17.4-2.5-26-3s-3.3-.1-4.5,1.6c-.5,2.4,1.9,1.4,3.5,1.5,9.2.4,17.6.4,26.8,2.2s1.7,1,2.7.8c-1.3,3-3.4,3.3-6.5,3s-8.4-1.8-12-2c-6-.4-12.5.4-18.5,0-1.3,1.1-.1,1.9,1.5,2,4,.2,8.1-.3,12,0s2.8.9,4,1c4.5.4,8.9.4,13.5,1,.3,1.9-1.3,3-2.7,3.9l-13.8-1.9c-5.2.4-10.9-.4-16.1,0s-3.6.8-4.5,3h28.5c.8,0,3.4,1.5,2.5,3-1.1-.4-2.3,1-2.5,1-7.9,0-18.5-.9-26,0Z"/>
</svg>