<?xml version="1.0" encoding="UTF-8"?>
<svg id="Laag_1" data-name="Laag 1" xmlns="http://www.w3.org/2000/svg" viewBox="0 0 3804.89 1288.01">
  <defs>
    <style>
      .cls-1 {
        fill: #535c69;
      }

      .cls-2 {
        fill: #5d0733;
      }
    </style>
  </defs>
  <path class="cls-2" d="M612.88,801.86l261.98,164.98-130.6,72.82-267.32-209.03c-4.43-1.33-8.37,1.22-12.96,1.32-155.47,3.21-292.57-31.88-387.89-162.3C-48.72,498.88-18.32,212.69,155.05,85,290.76-14.95,509.51-24.15,660.26,45.48c170,78.52,233.73,242.77,212.43,423.17-17.87,151.37-113.05,284.85-259.8,333.22ZM428.45,60.4c-225.25,12.72-291.2,259.47-261.01,447.89,25.46,158.9,133.93,283.45,306.24,261.34,207.8-26.65,257.97-259.34,239-434.59-16.83-155.47-115.89-284.15-284.23-274.65Z"/>
  <path class="cls-2" d="M3514.89,415.86l1.93,5.06c86.08,132.17,184.89,254.89,278.89,381.11,2.6,3.49,6.8,7.54,7.17,11.81-2.41,2.15-36.64-3.55-42.98-4-37.93-2.73-78.14-3.17-116.03,0-8.62.72-32.67,6.86-39.01,3.03-79.11-129.69-165.84-254.42-253.92-378.08-5.98-6.01-21.54-1.66-30.07-2.95l4.02,382.02c-4.31-.17-8.71.34-13.03,0-16.05-1.25-33.61-5.31-49.89-6.11-31.95-1.56-63.43,4.48-95.1,6.1.35-11.63-.45-23.38,0-35.02,9.52-248.93,17.76-501,2-749.98-.4-6.3.28-12.73.01-19.02,12.07.51,25.07,3.18,36.99,4.02,82.19,5.8,163.93-2.5,245.92-4.1,65.99-1.29,138.06.54,192.94,41.25,65.42,48.53,86.46,131.33,65.15,208.85-24.76,90.09-107.66,139.6-195,156.01ZM3320.89,377.85c48.86.28,101.77,9.77,148.53-8.47,77.41-30.19,102.97-113.07,91.25-190.31-13.98-92.12-95.99-116.79-178.79-111.23l-60.99,6.01v304Z"/>
  <path class="cls-2" d="M2698.74,0c96.84,275.75,219.61,541.5,339.24,807.76l.9,6.08c-5.63-.23-11.37.4-17.01.02-17.45-1.17-36.45-5.15-53.97-6.02-35.26-1.76-70.09,4.67-105.08,7.2l-98.11-255c-10.22-.75-20.59.34-30.83-.18-21.62-1.08-44.28-3.59-65.9-4.1-65.18-1.55-130.02,1.96-194.81,4.39-30.39,75.99-62.58,151.84-86.83,230.17-2.35,7.6-4.84,15.49-5.52,23.47-21.8.12-43.04-7.18-65.03-6.03-6.68.35-43,7.86-44.9,6.08l250.36-560.62c34.97-82.93,71.87-165.25,98.59-251.4,3.9-4.76,21.49,1.51,28.04,2.04,17.85,1.43,33.39-2.95,50.86-3.85ZM2728.88,487.84l-109.97-287.98-118.01,287.98c20.96.83,42.03,1.16,63.01,2,47.51,1.89,94.42,2.78,142,.02,7.17-.41,15.03-3.64,22.98-2.02Z"/>
  <path class="cls-2" d="M1732.88,813.84c-5.63-.23-11.37.4-17.01.02-18.73-1.27-39.04-5.35-57.89-6.11-34.9-1.4-68.28,6.31-102.85,5.85l-98.19-252.82c-9.53-2.18-19.43-.39-29.07-.93-78.61-4.44-155.35-4.84-233.98,0-6.37.39-24.93-1.84-28.04,1.96-33.52,82.71-67,165.6-92.84,251.15-4.79,3.39-38.38-4.64-47.12-5.14-21.04-1.21-40.25,4.87-61.01,6.01-.68-.65,4.62-13.08,5.62-15.36,87.81-199.49,182.02-396.39,266.73-597.27,27.8-65.93,55.99-132.42,75.78-201.21,17.47.9,33.01,5.28,50.86,3.85,6.56-.53,24.12-6.8,28.02-2.02,83.44,231.45,182.33,456.95,282.61,681.38l58.36,130.62ZM1314.87,201.85c-5.19-.79-3.09.46-4.13,2.84-36.91,84.86-72.31,171.32-106.81,257.2-1.55,3.86-10.44,24.56-9.04,25.95,20.97.82,42.02,1.17,63.01,2,47.52,1.86,94.41,2.77,142,.02,7.17-.41,15.03-3.64,22.98-2.02l-108.02-285.99Z"/>
  <path class="cls-2" d="M2312.88,9.85c-6.27,29.14-8.57,56.95,0,85.98-15.63-.58-31.36-1.15-47.01-1.98-50.38-2.66-101.33-4.25-151.9-6.1-5.56-.2-32.21-1.05-34.22,1.97-2.31,3.45-.6,41.02-.86,49.14-6.69,203.23-.67,408.77-.1,612.08l6.1,62.91c-5.63-.25-11.38.39-17.02,0-18.76-1.26-39.16-5.35-57.89-6.1-30.59-1.23-60.65,5.93-91.09,6.08.12-3.1,1.81-5.82,2.04-8.95,15.1-207.26,11.92-419.61,7.87-627.95-.47-24.37,3.5-61.29-.43-83.65-.29-1.64-1-5.13-2.76-5.53-19.24.58-38.57-.43-57.81,0-42.48.94-85.52,4-127.9,6.1-17.63.88-35.4,1.22-53.02,1.98,5.96-28.55,5.38-57.38,0-85.99,7.96-1.47,15.46,1.74,22.91,2.09,180.26,8.23,361.89,5.96,542.08-.1,20.44-.69,40.75.17,61.01-1.98Z"/>
  <path class="cls-2" d="M3112.89,955.85v124c10.74-7.7,23.72-12.86,37-14,64.43-5.52,136.57,3.97,201.81.19,27.18,5.46,51.98,21.36,62.17,47.83.9,2.35,5.02,13.97,5.02,14.98v47h150v-32h-64v-43c0-11.69,20.2-30.18,29.36-36.64,23.71-16.71,53.57-28.16,80.64-38.36v150h62v-166c-11.8,1.83-12.83-7.48-6.04-15.04,4.71-5.24,37.57-27.26,44.92-31.08,2.45-1.28,4.01-2.53,7.13-1.87v256h-716c1.03,37.93-31.63,69.39-68.99,70.16-10.86.22-44.82-13.64-45.1-25.14-.23-9.29,24-2.31,31.13-3,18.5-1.78,35.05-16.09,36.99-35,1.39-13.58,1.64-33.75,2.07-47.93.84-27.88-.88-55.92,0-83.8l-11.87-5.5c-1.02-4.53.42-9.53,3.92-12.65l51.84-37.14,2.02,138h56v-161c0-1.6-9.9-5.05-8.02-15.95,1.43-8.31,21.2-18.53,27.38-24.7l28.65-18.35ZM3538.89,1111.85h30l-1.02-26.02c-11.81,5.07-28.51,10.83-28.98,26.02ZM3372.89,1175.85v-51c0-7.7-20.14-15.1-27-15-66.35,3.87-138.43-5.14-204.09-.08-5.34.41-13.05,1.74-17.66,4.34-2.27,1.28-11.26,11.87-11.26,12.74v49h260Z"/>
  <path class="cls-1" d="M1558.65,950.08l62.26,195.76c2.81.6,2.09-2.12,2.93-4.02,3.89-8.85,7.22-18.37,10.57-27.46,19.73-53.47,37.43-107.83,53.44-162.54,3.96-4.79,12.4.21,18.04.21,5.25,0,12.98-4.24,17.12-1.3,21.78,65.69,40.48,132.96,66.88,197.13,23.68-64.99,46.61-130.6,63.11-197.9,12.6,1.44,23.25,2.83,35.88-.11l-95.92,267.18c-10.29-.92-20.81-2.81-30.91.6l-2.16-1.74-65.02-196.05c-4.15,2.07-5.79,9.16-7.49,13.49-17.69,45.11-34.13,94.73-49.03,140.97-2.4,7.44-9.66,37.91-12.46,41.59-2.51,3.3-7.38-.02-11.9-.15-6.59-.18-12.73.85-19.17,1.29l-93.88-264.25c-.51-3.79-.07-2.77,2.91-2.93,8.54-.45,14.37,1.7,21.94,2.08,11.57.58,21.54-2.95,32.86-1.85Z"/>
  <path class="cls-2" d="M2714.89,1175.85h140v-56c0-.99-12.55-1.29-9.64-14.57,1.43-6.53,18.76-18.63,25-23.07,8.55-6.1,18.57-13.5,28.64-16.36v152h-324l6.09-76.91c14.36-37.27,55.21-54.76,86.93-75.07.4-4.46,3.95-12.92,2.81-16.7-1.59-5.22-16.5-4.24-10.83-15.32,15.77-13.29,31.33-32.36,46.96-45.05,2.45-1.99,5.06-3.9,8.05-4.95v192ZM2670.89,1113.85c-5.92,1.2-12,4.81-17.36,7.64-26.07,13.79-36.53,21.47-32.64,54.36h50v-62Z"/>
  <path class="cls-1" d="M1412.88,1083.86l1.01,5.98c29,41.47,58.55,82.35,89.97,122.03,1.57,1.99,3.93,2.45,3.02,5.97-21.62-3.74-44.14-1.99-65.99-.88l-84.36-126.74-9.65-.38,1.8,124.73c-2.83,6.12-8.07,1.39-12.78,1.25-13.68-.41-27.63-.65-41,2.02.31-9.62-.46-19.37-.02-29.01,3.33-73.73,5.99-148.17,2.1-222.08-.3-5.72-2.81-11.07-2.1-16.91,8.31.17,16.69-.26,25.02-.01,32.86.95,68.66-3.13,101.78.22,36.31,3.68,60.45,34.41,57,70.58-3.31,34.67-33.21,57.57-65.79,63.22ZM1346.89,1071.85h41c.62,0,9.88-3.73,11.49-4.51,36.5-17.61,39.08-84.05-2.87-96.12-17.68-5.09-31.85-1.89-49.63-1.37v102Z"/>
  <path class="cls-1" d="M1142.88,1217.84c-19.82-3.34-40-2.41-59.88-.11l-33.36-85.64-94.81.7c-12.52,27.08-22.43,55.76-31.83,84.22-12.07-.45-24.26-3.15-36.1.83l98.35-222.63,17.84-49.15c5-1.64,9.93,1.85,14.59,1.67,3.93-.15,8.8-4.49,12.22.11l38.02,97.97,74.95,172.03ZM1004.87,1015.85c-4.85-1.41-5.31,4.52-6.89,8.06-9.69,21.77-25.8,56.06-32.14,77.88-.6,2.07-1.39,3.77-.95,6.05,24.35,2.58,49.77,3.67,74.01,0l-34.03-91.98Z"/>
  <path class="cls-1" d="M1998.69,946.06c24.42,69.76,54.17,137.53,83.83,205.16,3.24,7.38,30.94,64.07,28.36,66.62-18.96-3.49-38.74-2.48-57.78-.2l-34.16-84.84h-94.08c-3.32,1.71-13.22,28.68-15.48,34.53-6.34,16.43-12.52,33.32-16.49,50.52-11.85-2.42-24.2-3.48-35.98-.01l.91-6.08c29.91-68.91,63.43-136.49,92.04-205.96,7.91-19.22,16.98-39.79,21.07-59.94,9.96,1.58,17.84,1.24,27.77.2ZM2006.74,1107.69c.64-2.13.23-4.27-.26-6.38-3.62-15.47-15.81-41.81-22.07-57.98-3.13-8.1-6.07-16.61-9.42-24.58-.86-2.04-1.34-4.67-4.08-4.9l-38.01,93.99c9.79,1.78,70.79,4.29,73.84-.15Z"/>
  <path class="cls-1" d="M2484.81,959.93l-9.93,39.92c-9.2,1.04-9.61-11.93-15.99-19-20.55-22.79-73.87-21.24-85.01,10.98-21.1,61.04,72.59,61.66,102.09,89.93,26.29,25.2,28.57,69.7,9.76,99.92-29.45,47.31-94.6,49.16-141.89,30.21-5.84-2.34-17.63-5.59-16.92-12.81l7.98-41.23c4.71-3.44,11.28,13.12,13.14,15.84,3.11,4.54,7.25,11.32,11.02,14.98,28.1,27.34,87.27,17.76,91.85-25.79,8.08-76.74-111.32-49.1-119.84-122.23-7.9-67.82,39.41-99.86,102.81-94.81,18.31,1.46,33.74,9.01,50.91,14.09Z"/>
  <path class="cls-1" d="M2206.87,1079.85c22.4-42.65,47.29-84.7,64.21-129.81,13.77-.39,26.01,4.27,39.81-.18,1.12,1.03-5.16,10.56-6.39,12.6-16.95,28.2-35.49,55.53-51.96,84.04-7.96,13.78-31.33,50.73-34.72,63.28-4.17,15.46.69,39.21,1.17,54.98.4,13.19-.94,27.04-.11,40.11.25,3.97,5.36,13.46-1.01,13.04-3.92-.26-7.52-1.99-11.88-2.15-13.13-.47-26.19-.01-39.09,2.1-.73-36.06,4.61-71.88,1.07-108.08l-91.17-152.83-1.9-7.09c14.04.26,26.77,2.6,41,2,6.53-.27,14-4.49,21.04-1.06,16.05,29.66,29.49,60.77,45.59,90.4,5.7,10.48,12.34,23.55,18.67,33.33,1.33,2.05,3.16,4.74,5.66,5.32Z"/>
  <path class="cls-1" d="M1228.9,949.84c-.17,4.3.35,8.71,0,13.03-1.63,20.25-3.57,41.62-4.1,61.89-1.7,64.44,1.09,129.15,4.09,193.1-18.69-2.79-37.31-2.76-55.99-.02,2.75-11.59,1.33-23.25,1.98-35,3.9-70.17,4.41-143.83,0-213.98-.4-6.3.28-12.73,0-19.02,18.18,1.38,35.75,2.15,54.02,0Z"/>
  <path class="cls-2" d="M3804.89,961.85v256h-46v-205c0-2.19-17.72-3.58-6.9-16.9,4.19-5.16,38.56-28.47,45.77-32.22,2.45-1.28,4.01-2.53,7.13-1.87Z"/>
  <path class="cls-2" d="M2604.38,952.27c16.59-2.52,36.56,6.43,32.13,26.15-4.05,18.03-47.14,24.16-49.67.49-1.53-14.31,2.24-24.32,17.54-26.64Z"/>
  <path class="cls-2" d="M2664.44,952.33c15.25-1.93,34.42,5.96,32.1,24-2.72,21.03-47.17,26.19-49.69,2.59-1.55-14.5,2.12-24.62,17.6-26.58Z"/>
  <path class="cls-2" d="M2750.3,1234.25c17.53-3.9,39.6,3.37,36.52,24.48-2.38,16.34-27.74,18.69-40.5,14.68-13.94-4.38-13.27-35.33,3.98-39.17Z"/>
  <path class="cls-2" d="M2812.3,1234.25c17.53-3.9,39.6,3.37,36.52,24.48-2.38,16.34-27.74,18.69-40.5,14.68-13.94-4.38-13.27-35.33,3.98-39.17Z"/>
  <path class="cls-2" d="M3510.3,950.25c14.76-3.23,37.57-.03,38.5,18.76,1.24,24.97-46.82,27.69-49.89,9.81-1.72-10.05-.72-25.92,11.38-28.57Z"/>
  <path class="cls-2" d="M3572.3,950.25c21.07-4.62,40.84,1.91,36.56,26.57-2.66,15.35-44.96,19.38-47.94,2-1.72-10.05-.72-25.92,11.38-28.57Z"/>
</svg>