<?xml version="1.0" encoding="UTF-8"?>
<svg id="Laag_1" xmlns="http://www.w3.org/2000/svg" version="1.1" viewBox="0 0 3840 2160">
  <!-- Generator: Adobe Illustrator 29.5.1, SVG Export Plug-In . SVG Version: 2.1.0 Build 141)  -->
  <defs>
    <style>
      .st0 {
        fill: #f4cc38;
      }

      .st1 {
        fill: #2c4879;
      }
    </style>
  </defs>
  <path class="st1" d="M2173,896c63.5,86.4,132.5,168.8,192,258l-3-258h126v401c0,.2-2.8,3-3,3h-128l-7-7c-62.9-84.2-133-163.3-191-251l1,258h-126v-404h139Z"/>
  <path class="st1" d="M3824,1300h-147l-120-154h-43v154h-138v-404h237.1c76.9,3.4,217.6,28,211,131.1-4.1,64.3-72.6,86.3-123.1,102.9-2.1.7-3.7.8-5,3l126.1,159.9,1.9,7.1ZM3514,1078h97c13.4,0,41.9-9.2,53.6-16.4,28.1-17.3,30.2-57.4,3.3-76.5-18.6-13.2-56.2-17.9-78.9-19.1-24.6-1.3-50.3,1-75,0v112Z"/>
  <path class="st1" d="M986,1300h-147l-120-154h-42c-.2,0-3,2.8-3,3v151h-136v-404h235.1c70.3,4.3,193.4,21,210.4,105.5,11.4,56.6-27.9,92.9-75.5,113.5s-30.7,9.3-45.1,14.9c-1.9.8-3.6,1.3-4.8,3.2l128,167ZM674,1078h101c7.6,0,30.5-6.5,38.4-9.6,47.1-18.9,47.3-73.9-.8-91.9-17.8-6.7-44.5-9.6-63.5-10.5s-50.2,1.1-75.1,0v112Z"/>
  <path class="st1" d="M3068,1300h-139l-38.2-83.8-170.9,1-36.8,82.8h-139l195-402,5.9-2.1c40.2,2.8,84.5-3.3,124.2,0s9.4,8.8,12.6,15.4c55.1,112.4,109.7,225.2,164,338,5.7,11.9,17.9,33.5,21.4,44.6.7,2.1,1.3,3.8.9,6.1ZM2862,1148l-58-144c-2.7,20.3-12.7,39-18.5,58.5l-35.5,85.5h112Z"/>
  <path class="st1" d="M1460,1300l194.3-403.7,132.8-.4,196.9,404.1h-139l-36.8-82.8-170.9-.9-38.3,83.7h-139ZM1776,1148l-55-144-55,144h110Z"/>
  <path class="st1" d="M1145,896c37.2,55.5,84.4,108.4,113,169,.9,2,1.1,4.7,4,5,0-5.7,3.1-10.5,5.7-15.4,16.8-32,39.7-63.8,60.7-93.3,15.7-22.1,31.9-44.2,48.6-65.4h147c.9,3.5-1.4,4-3,6-64.5,81.5-129.1,163-193,245v150c0,.2-2.8,3-3,3h-135v-151l-196-253h151Z"/>
  <path class="st1" d="M3260,896v401c0,.2-2.8,3-3,3h-135v-404h138Z"/>
  <path class="st0" d="M466,894c.7,3.6-1.9,4.8-4,7-19.3,20.5-85.1,39-113,41-64.3,4.6-131.5-35.6-196.4-6.4-24.1,10.8-54.5,46.4-56.7,73.4-1.8,22.2,18.7,23.1,28.9,37.1s12.6,27.8,18.8,39.2c8.1,15.1,23.4,41.2,36.5,51.5s15.4,8.9,22.9,15.1c29,24.3,44.7,61.3,57.9,96.1s18.4,50.3,15,54c-4.1.6-6.6-3.4-8.8-6.2-10-12.1-19.8-34.1-29.5-48.5-45.4-67-83.2-79.3-140.6-127.4s-38.8-48.5-52.1-73.9c-10.4-19.9-9.7-29.4-15.8-48.2s-13.8-9.6-11.1-24.9,26-18.2,33.9-24.1c20.3-15.4,12.4-23-9-28.8-1.6-2.4-1.2-11.7-.9-15.1s6.1-29.5,7-31c5.4-9.1,52-7.7,59.1,3.4s-1.8,27.5-4.1,40.6c4.2,4.1,27.7-15.2,32-19,13.6-11.9,26.9-32.1,44-38,57.8-20,174.6,47.1,244.8,40.8,14.5-1.3,26.8-9,41.2-7.8Z"/>
  <path class="st0" d="M403.5,960.5c7.1,7.5-3.4,30.2-7.1,38.9-17.3,39.7-46.7,74.7-67.4,112.6-21.7,39.8-34.7,81.4-50.5,123.5s-1.6,3.7-5.4,2.5-2.8-4.5-3.1-6.9c-3-25.6,13.3-70.9,22.6-95.6,22.6-60.1,57-114.6,82.6-173.4,5.8-7.7,22.3-8.1,28.4-1.6Z"/>
  <path class="st0" d="M246,1172c-2.2,0-4,.5-6.1-.9-4.1-2.8-.5-25.8.3-31.9,5.6-41.2,18.2-78.3,36.7-115.3s20.8-42.7,30.2-55.8,15.9-15.7,27.5-9.7c6.8,3.5,6.5,8.8,4.5,15.6-6.7,22.5-29.5,53.2-41.4,74.5-22.3,40-41.3,78.1-51.7,123.4Z"/>
  <path class="st0" d="M202,1122c-1.4-7.2-2.5-13.6-2.1-21.1,1.4-28.9,34-117,51.2-140.8,5.2-7.3,9.8-10.1,19-7.2s7.9,12.7,4.9,21.1c-15.1,41.3-43.7,82.1-60.5,125.5-.7,1.9-7.4,28.9-12.5,22.5Z"/>
  <path class="st0" d="M166,1070c-.4-34.8,8.5-74.2,23-106s7.9-18.4,18.1-20c32.3-4.8.2,38.2-5.5,50.6-10.8,23.7-17.1,49.3-26.6,73.4l-9,2Z"/>
</svg>