<?xml version="1.0" encoding="UTF-8"?>
<svg id="Laag_1" xmlns="http://www.w3.org/2000/svg" version="1.1" viewBox="0 0 2560 501">
  <!-- Generator: Adobe Illustrator 29.5.1, SVG Export Plug-In . SVG Version: 2.1.0 Build 141)  -->
  <defs>
    <style>
      .st0 {
        fill: #01d56c;
      }
    </style>
  </defs>
  <path class="st0" d="M220.8,22.3c167.4-9.5,285.8,153.3,227.2,310.2-62.5,167.6-291.5,197.9-396.8,53.8C-55.1,241,40.4,32.5,220.8,22.3ZM245,166v-46.5c0-2.2-4.4-8.9-6.5-10.5-6.4-5-25.5-5.7-32.5-2.5s-10,8.5-10,12v80.5c-2.6.2-4.9-.9-7.5-1-20-1.1-50.4-1.6-70.1,0-7.8.6-16.3,4.7-18,13-1.5,7.3-1.3,22.4,4,28.1s7.7,5,9,5h43c1.1,0,1.4,2.4,1.6,3.4,2,17.1-1.3,38.3,0,56,2.9,40.2,29.6,75.2,69.2,84.8,55.3,13.4,108.4-11.8,123.5-68.1,7.7-28.8,2.8-40.3-29.2-37.2-20.5,2-16.4,18.9-22,33-14,35.5-69.1,38.1-86.4,3.4-2.2-4.4-6.1-17.2-6.1-21.9v-84c0-.3-1.4-1.4-1-2.5,2.2,0,4.1,1,6.4,1,21.6.8,53.1,1.8,74.1,0s18.2-17,16.4-30.5-4.2-10.7-8.9-13.1-6-2.4-6.6-2.4h-42.5Z"/>
  <path class="st0" d="M2505,154h48v217h-47.5c-.6,0-1.6-1.7-1.5-2.5l-3-26.5-4.5,6c-33.8,40-106.8,34.1-144,2-52.5-45.2-47.5-148.2,13.6-184.4,39.1-23.2,107.1-24.5,134.4,17.4,1.5-1,1.4-1.9,1.5-3.4,1-8.5,1.2-17.1,3-25.5ZM2428.8,196.3c-78.1,6.7-75.9,126.6-1.3,132.7,48.4,3.9,75.6-29.9,71.5-76.5-3.2-36.9-34.3-59.3-70.2-56.2Z"/>
  <path class="st0" d="M1884,154h48v217h-48l-3-28c-1.7-.4-2,.5-3,1.5-2.5,2.6-5,7-7.5,9.5-29.5,29.2-88.2,26.5-122.5,7.5-69-38.1-70.2-155.6-2.9-195.9,38.9-23.3,107.4-24.5,134.4,17.4,1.6-1,1.3-2,1.5-3.5,1.2-8.5,1.2-17.1,3-25.5ZM1807.8,196.3c-42.3,3.9-62.9,39.8-56.5,79.9,10.9,69.3,110.2,70.9,125.1,5.6,10.8-47.2-17.7-90.2-68.5-85.5Z"/>
  <path class="st0" d="M1127,371l-3-29c-6.9,8.2-12.9,15.5-22.3,21.2-37.7,22.6-97.2,14-129.2-15.1-38.6-35.2-43.2-105.6-17.3-149.3,24.6-41.4,80.6-57.7,125.8-45.2s32.1,15.2,43,30.5l3-30h48v217h-48ZM1050.8,196.3c-77.7,7.2-75.1,126.3-1.3,132.7,52.6,4.5,81.7-37.6,69.8-86.8-7.7-31.8-36.7-48.8-68.5-45.9Z"/>
  <path class="st0" d="M1441,371h-54v-125.5c0-4-4-16.1-5.8-20.2-16.2-36-72.6-36.9-92.6-4.2-3.2,5.2-8.6,18.6-8.6,24.4v125.5h-54v-217h47.5c.7,0,1.3,1.7,1.5,2.5.7,3.7,1.8,25.6,3,26.5,27.4-39.8,92.1-43.1,128.9-15.4,23.5,17.7,32.5,46.3,34.1,74.9v128.5Z"/>
  <path class="st0" d="M1498,302h1.4c10.3,9.5,22.1,16.9,35.3,21.7,19.6,7.2,53.5,12.8,72.3,1.8,9.1-5.3,13.6-16,7.4-25.5-9.5-14.5-48.2-15.3-64.6-18.4-37.7-7-72.6-23.8-69.8-68.2,4.6-72.7,118.4-75.8,166.3-47.3s14.2,8.6,13.6,12.1c-3.3,4.2-22.9,33-25.5,33.6s-8.6-5.4-11-6.7c-19.9-11.4-47-15.8-69.3-9.7-13.1,3.6-26.1,14.8-17,29s45.5,15,61.2,17.8c31.8,5.6,69.5,18.6,72.8,56.2,7.9,90.5-123.3,91.2-177.5,56.5-3.3-2.1-19.6-14.1-20.3-16.7s-.3-2.2.4-3.3l24.5-33Z"/>
  <polygon class="st0" points="2016.5 154 2080.5 314 2144 154 2199 154 2107.9 370.9 2051.5 371.1 1958 154 2016.5 154"/>
  <path class="st0" d="M678,92v62h58.5c.1,0,1.5,1.4,1.5,1.5v44.5h-60v103.5c0,2.8,4.8,12.7,7,15,11.8,12.2,33.2,6.3,47,1.5.3,6.3,15,40.9,12.9,43.9-36.8,17.1-91.8,15.3-112.2-25-5.3-10.5-7.1-21.8-8.6-33.4v-105.5h-40v-46h40v-57l54-5Z"/>
  <path class="st0" d="M829,371h-54v-217h47l4,29,7-9.5c27.3-30.7,79.1-31.6,108.9-3.9l-24.4,42.2c-8.6-6.4-17.3-11.1-28.1-12.7-24.7-3.6-48.3,5.3-56.7,30.1s-3.7,13.7-3.7,17.3v124.5Z"/>
  <rect class="st0" x="2226" y="154" width="54" height="217"/>
  <path class="st0" d="M2248.8,71.3c44.5-5,48.9,60.7,5.7,62.7-40.9,1.9-45.5-58.2-5.7-62.7Z"/>
</svg>