<?xml version="1.0" encoding="UTF-8"?>
<svg id="Laag_1" xmlns="http://www.w3.org/2000/svg" version="1.1" viewBox="0 0 960 331">
  <!-- Generator: Adobe Illustrator 29.5.1, SVG Export Plug-In . SVG Version: 2.1.0 Build 141)  -->
  <defs>
    <style>
      .st0 {
        fill: #e31a18;
      }

      .st1 {
        fill: #24335b;
      }
    </style>
  </defs>
  <path class="st0" d="M96,139c-1,.9,4.4,22.9,5.3,26.2,27.4,98.1,119.8,138.6,186.5,46.1,13-18,19.3-36.8,30.4-54.6s7.9-10.9,17.2-9.6c19.2,2.6,19.1,15.6,15.1,30.9-21.8,83.8-109.6,178.2-202.5,130.5-58.8-30.2-84.6-104.3-95.1-165.4-12.4-1.7-34.1,7.1-41.1-7.4s-2.9-23.8.5-31,8.4-8.1,15.2-8.8c30.6,1.9,63.8-2.4,94.1,0,9.7.8,14.6,4.4,17.2,13.8s3.5,19.9-3.8,24.7c-8.1,5.4-29,3.5-39,4.5Z"/>
  <path class="st0" d="M577.8,160.2c4.8,0,13.7.3,14.1,6.3,1.5,24.7-1.9,51.5,0,76,1.1,14.4,12.2,18.7,25.4,17.3s16.8-7.2,17.6-18.3c1.9-24.1-1.4-50.7,0-75.1-.2-2.4,1.8-4.3,4-5,3.9-1.2,19.4-1.8,21.5,1.6s1.4,5.5,1.6,7.4c1.5,19.2,1.1,48.7,0,68.1-1.7,30.4-18.3,44.3-48.5,44.3-69.4,0-43.5-69.9-48.5-115.4,0-2.3,1.1-4.7,3.3-5.7s7.9-1.5,9.6-1.5Z"/>
  <path class="st0" d="M510,183v93.5c0,3-9.9,4.5-12.5,4.6s-13.5-1.3-13.5-3.6v-93c0-.1-1.4-1.5-1.5-1.5h-33c-4.4,0-2.2-17.4.9-20.1s2.9-1.3,4.3-1.7c27.5,1.2,57.6-2.4,84.8-.3,2,.2,3.8.1,5.4,1.6,3.8,3.3.8,17.3-3.5,20.5h-31.5Z"/>
  <path class="st0" d="M363.7,9.4c29.2-.5,45.6,34.1,26.8,56.7-16.6,20-49,14.4-58.3-9.8-8.5-22.3,7.5-46.5,31.4-46.9Z"/>
  <path class="st0" d="M691.2,278.8c-1.1-1.1-1.2-3.7-1.3-5.2v-108c1.1-5.9,15.7-5.2,20.5-4.5s5.7,2.3,5.6,5.4v109c-.8,7.3-22.2,5.9-24.8,3.3Z"/>
  <path class="st1" d="M913,254l2.2-1.3,20.3-49.7c1.9-3.2,13.6-3,15,0s-3.2,9.8-4.1,12c-9,22.4-18.4,44.9-28,67-2.1,4.7-12.5,29.5-14.9,31.1s-9.1.4-13,.9c-1.3-.2-.4-4.1,0-5.1,3-9.7,10.2-21.1,14-31s1.6-3.4,1.4-5.3l-32.7-69c1-4.2,13.3-3.9,15.9-1.3l24,51.6Z"/>
  <path class="st1" d="M806,276.5c-.9,3.5-14,3.6-14.9.9v-63.4c-8.3-.6-16.6,3.5-13.9-8.3,1.5-6.8,8.5-4.4,13.8-4.7.4-9.8-1.7-19.6,2.8-28.7,8-16.3,31.1-16.1,45-8.1,1.1,4.2-.9,8.4-3.8,11.4-8.2-1.1-14.8-6.6-23.3-1.4s-5.6,6.6-5.6,9.4v17.5h21.5c3.4,2.1,1.2,13-2,13h-19.5v62.5Z"/>
  <path class="st1" d="M862,276.5c-.9,3.4-12.9,3.8-14.5.5l-.5-112.5c.8-4.5,12-7.1,15-4v116Z"/>
</svg>