<?xml version="1.0" encoding="UTF-8"?>
<svg id="Laag_1" xmlns="http://www.w3.org/2000/svg" version="1.1" viewBox="0 0 1280 415">
  <!-- Generator: Adobe Illustrator 29.5.1, SVG Export Plug-In . SVG Version: 2.1.0 Build 141)  -->
  <defs>
    <style>
      .st0 {
        fill: #504f4e;
      }

      .st1 {
        fill: #fecc02;
      }

      .st2 {
        fill: #fefefe;
      }
    </style>
  </defs>
  <path class="st2" d="M637,.1c-9.8,5.1-17.8,11.7-19,23.5v264.7c2.7,33.1,49.8,33,53,0V26.5c-.2-8.7-5.1-18.8-12.9-23s-8.3-3.1-11-3.4h633v43.9c-1.6-2.2-1.6-5.1-2.8-7.7-12.1-26-56.1-24.4-64.2,4.1-13.5,47.2,53.1,62.4,67,19.5v354.6h-168c48.1-3.6,81-33.1,84-82.4,3.5-57-2.8-117.5,0-174.9-1.9-23.1-36.7-33.7-55.8-37.1-79.3-14-132.1,30-126.2,111.1,4.6,62.8,60.2,99.1,119.2,75.1l12.8-7.7v32.5c0,.8-1.1,7.2-1.4,8.5-6.7,29-39.3,30.6-63.3,24.2s-34.8-17.8-47.7-8.3c-6.6,4.8-10.6,14.2-9.3,22.2,3.5,22.1,47.1,35.2,65.8,36.7H0V151.9c1.6,2.8,2.9,6.4,4,9.5,14.3,40,27.2,82.7,43,121.9,5.8,14.4,10.9,26.2,27.8,29.2,7.3,1.3,21.2,1.1,28.3-1.2s9.5-5.4,12.8-10.2c17.5-43.5,34.4-88,49.2-132.7,4-12.1,10.5-26.3,2-38-7.7-10.6-24.4-13.8-35.9-7.9s-10.7,13.6-13.4,21.6c-11.2,33.2-19.2,68.2-30.3,101.6s-.5,2.7-.5,4c-1.5,2.2-3.5-4.1-3.7-4.8-11.7-32.7-18.8-68.8-30-101.9s-5-16-13.3-20.6c-12.7-7-33.6-1.1-38.5,13.4l-1.5,6V.1h637ZM458,233.8h109.5c2.2,0,8.9-4.4,10.5-6.5,5.4-6.9,4.6-22.3,4-31-4.3-60.4-53.1-90.5-110.8-76.7-54.6,13-72.5,70-63.9,120.4,11,64.8,71.4,82.8,129.6,69,17.3-4.1,43.1-15.2,32.7-37.3-10-21.3-33.1-7.9-49.5-4.4-29.9,6.2-58.4,1.8-62-33.5ZM220.8,118.2c-12.4,1.8-21.1,13.1-21.8,25.2,3.5,64.6-20.8,156.9,68.6,169.2s102.8-16.6,106.4-78.3c1.5-25.6,1.9-64.6,0-90-2.7-35.9-49.9-33.8-53-4-3,28.6,1.9,62.6,0,91.9-1.7,27.5-14.8,38.4-42.6,35.4-18.6-2-25.5-17.8-26.5-34.4-1.8-29.4,2.5-61.8,0-91s-14.6-26.6-31.3-24.2ZM880.8,118.3c-96.6,7.3-71.5,103.1-74.8,171.1,2.8,31.5,49.8,32.4,53-1,2.9-30-2.4-64.5,0-94.9s12.2-29.2,30.5-30.4c22.9-1.5,36,11.1,37.5,33.4,2.1,29.7-2.5,62.5,0,92s10.1,23.4,23.5,24.5,29.1-9.7,30.5-27.5c2-23.9,1.3-60.6,0-84.9-3.4-61.7-40.4-86.6-100.2-82.1ZM732.7,120.2c-10.5,1.8-18.5,13.2-19.6,23.3v144.7c3.9,35.2,53,32,53.8-3.1-2.2-44.5,3.4-92.6.1-136.7-1.5-19.9-13.5-31.7-34.3-28.2Z"/>
  <path class="st0" d="M1112,414.6c-6.2.5-15.9.5-22,0-18.7-1.5-62.2-14.6-65.8-36.7-1.3-8.1,2.7-17.4,9.3-22.2,13-9.5,34,4.6,47.7,8.3,24,6.4,56.6,4.8,63.3-24.2s1.4-7.7,1.4-8.5v-32.5l-12.8,7.7c-59,23.9-114.6-12.3-119.2-75.1-5.9-81.1,46.9-125.1,126.2-111.1,19.2,3.4,53.9,14,55.8,37.1-2.8,57.3,3.5,117.9,0,174.9-3.1,49.3-36,78.7-84,82.4ZM1101.8,163.2c-32.5,4.4-37.8,40.4-34.7,67.2,2.2,19.8,10.9,35.5,32.5,37.5,33.4,3,44.7-18.7,46.5-48.4.6-10.9,1.1-29.4,0-40-1.7-16.6-31.8-17.9-44.2-16.2Z"/>
  <path class="st0" d="M0,142l1.5-6c4.9-14.5,25.7-20.4,38.5-13.4s10.5,12.3,13.3,20.6c11.2,33.1,18.3,69.2,30,101.9s2.2,6.9,3.7,4.8c0-1.3,0-2.7.5-4,11.1-33.4,19.1-68.4,30.3-101.6s5.2-17.4,13.4-21.6,28.2-2.7,35.9,7.9c8.6,11.7,2,25.9-2,38-14.8,44.6-31.7,89.2-49.2,132.7-3.4,4.7-7.1,8.3-12.8,10.2s-20.9,2.5-28.3,1.2c-16.9-3-22-14.8-27.8-29.2-15.8-39.2-28.7-81.9-43-121.9-1.1-3.1-2.4-6.7-4-9.5v-10Z"/>
  <path class="st0" d="M647,.1c2.7.3,8.5,2.1,11,3.4,7.9,4.2,12.7,14.3,13,23v261.7c-3.3,33-50.4,33.2-53.1,0V23.6c1.2-11.8,9.2-18.4,19-23.5,3.2.3,6.9-.4,10,0Z"/>
  <path class="st1" d="M1280,44.1v16c-13.9,42.9-80.5,27.7-67-19.5,8.1-28.6,52.1-30.1,64.2-4.1s1.2,5.5,2.8,7.7Z"/>
  <path class="st0" d="M458,233.8c3.6,35.2,32.1,39.7,62,33.5,16.4-3.4,39.6-16.8,49.5,4.4,10.4,22.2-15.4,33.2-32.7,37.3-58.2,13.8-118.5-4.2-129.6-69-8.6-50.4,9.3-107.4,63.9-120.4,57.7-13.7,106.5,16.3,110.8,76.7.6,8.7,1.4,24.1-4,31-1.6,2.1-8.2,6.5-10.5,6.5h-109.5ZM532,197.9c-.8-25.7-15.2-40.6-41.5-39-23.2,1.4-32.1,17.4-32.5,39h74Z"/>
  <path class="st0" d="M880.8,118.3c59.8-4.5,96.8,20.4,100.2,82.1,1.3,24.3,1.9,61,0,84.9-1.5,17.8-12.1,28.9-30.5,27.5s-22.4-11.3-23.5-24.5c-2.4-29.5,2.2-62.3,0-92-1.6-22.3-14.7-34.9-37.5-33.4-18.4,1.2-29.2,12.2-30.5,30.4-2.3,30.4,3,64.9,0,94.9-3.3,33.4-50.3,32.5-53,1,3.3-68-21.8-163.8,74.8-171.1Z"/>
  <path class="st0" d="M220.8,118.2c16.7-2.4,29.9,7.2,31.3,24.2,2.4,29.1-1.9,61.5,0,91s7.9,32.4,26.5,34.4c27.7,2.9,40.8-8,42.6-35.4,1.8-29.3-3.1-63.4,0-91.9,3.2-29.8,50.3-32,53,4,1.9,25.3,1.5,64.4,0,90-3.6,61.7-48.2,86.3-106.4,78.3-89.5-12.3-65.2-104.6-68.6-169.2.7-12.1,9.4-23.4,21.8-25.2Z"/>
  <path class="st0" d="M732.7,120.2c20.8-3.5,32.8,8.3,34.3,28.2,3.3,44.1-2.4,92.2-.1,136.7-.8,35.1-49.8,38.3-53.9,3.1v-144.7c1.3-10.2,9.2-21.6,19.7-23.3Z"/>
  <path class="st2" d="M1101.8,163.2c12.4-1.7,42.5-.3,44.2,16.2s.6,29.1,0,40c-1.8,29.7-13.1,51.4-46.5,48.4-21.6-1.9-30.3-17.7-32.5-37.5-3-26.8,2.2-62.7,34.7-67.2Z"/>
  <path class="st2" d="M532,197.9h-74c.4-21.6,9.3-37.6,32.5-39,26.3-1.6,40.8,13.3,41.5,39Z"/>
</svg>