<?xml version="1.0" encoding="UTF-8"?>
<svg id="Laag_1" xmlns="http://www.w3.org/2000/svg" version="1.1" viewBox="0 0 333 151">
  <!-- Generator: Adobe Illustrator 29.5.1, SVG Export Plug-In . SVG Version: 2.1.0 Build 141)  -->
  <defs>
    <style>
      .st0 {
        fill: #66106f;
      }

      .st1 {
        fill: #c6067c;
      }
    </style>
  </defs>
  <path class="st0" d="M0,17h29s5.5,61,5.5,61l29-61h24.5l4,61,27.5-60c1.4-1.7,19.7-1.1,23.5-1s8.4-1.1,8,1.5c-1,6.7-10.7,18-12,25.5l-44,87.5c-1.2.7-17.3.9-19.5.5s-2-.3-2.4-1.6l-4.2-62.4-32.5,63c-2.8,2.5-18,.2-22.5,1L0,19v-2Z"/>
  <path class="st1" d="M171,0l-1,11h95c-.4,0-1.5,1-3.4,1.1-29.9,1.3-60.9-1.1-91-.1-1.9.4-4.1,21.6-4.7,25-4.1,23.6-8.5,47.3-12,71h-25l10-64c1.4-7.5,11-18.8,12-25.5s-6-1.5-8-1.5l3-17h25Z"/>
  <path class="st1" d="M148,122c2.1,1.7,4.7,7.2,5,10,1,9.3-2.4,14.3-10,19h-12c-18.3-9.3-11.4-35.7,10.3-31.8s6.1,2.3,6.7,2.8Z"/>
  <path class="st0" d="M268,11v1c-1.8,3.6-4.6,6.8-7,10-6.3,8.2-12.7,17-19,25-.5.6-2,1.3-3,2.5-14.3,18.3-28.3,37-43,55-.4,2.3,1,1.4,2.5,1.5,11.8.9,24.6-.6,36.5,0-6.3,8.3-12.6,17.2-18,26h-64c-.3-2.8-2.9-8.3-5-10l62-83.5c.3-2,0-1.3-1.5-1.5-12.9-1.7-29.3,1.3-42.5,0,.6-3.4,2.7-24.6,4.7-25,30-1,61,1.5,91,.1s3-1,3.4-1.1c.8,0,2.4-.2,3,0Z"/>
  <path class="st1" d="M261,22l71,1-65,85h47l-4,23.9c-31,0-62,0-93,0,5.4-8.8,11.7-17.7,18-26,.3-.4,1.4-.7,2-1.5,14.4-19,28.6-38.1,43-57l-38-.5c6.3-8,12.7-16.8,19-25Z"/>
  <path class="st1" d="M268,12v-1c.4,0,.8-.1,1,.5,0,.6-1,.5-1,.5Z"/>
</svg>